<svg xmlns="http://www.w3.org/2000/svg" xmlns:xlink="http://www.w3.org/1999/xlink" width="512" zoomAndPan="magnify" viewBox="0 0 384 383.999986" height="512" preserveAspectRatio="xMidYMid meet" version="1.0"><defs><clipPath id="8de89888ff"><path d="M 347.03125 123.253906 L 383.65625 123.253906 L 383.65625 155 L 347.03125 155 Z M 347.03125 123.253906 " clip-rule="nonzero"/></clipPath><clipPath id="c18e72e1b0"><path d="M 347.03125 123.253906 L 383.65625 123.253906 L 383.65625 153.542969 L 347.03125 153.542969 Z M 347.03125 123.253906 " clip-rule="nonzero"/></clipPath><clipPath id="032060a748"><path d="M 20.285156 229.65625 L 65.296875 229.65625 L 65.296875 341.714844 L 20.285156 341.714844 Z M 20.285156 229.65625 " clip-rule="nonzero"/></clipPath><clipPath id="b632cfccd3"><path d="M 320 229.65625 L 364.878906 229.65625 L 364.878906 341.714844 L 320 341.714844 Z M 320 229.65625 " clip-rule="nonzero"/></clipPath><clipPath id="0bace7d647"><path d="M 20 42.480469 L 365 42.480469 L 365 299 L 20 299 Z M 20 42.480469 " clip-rule="nonzero"/></clipPath></defs><path fill="#dc4437" d="M 47.429688 136.054688 L 35.257812 136.054688 L 31.9375 150.226562 L 42.820312 154.289062 L 47.429688 136.054688 " fill-opacity="1" fill-rule="nonzero"/><path fill="#dc4437" d="M 33.039062 152.328125 C 29.902344 156.226562 9.054688 154.289062 5.300781 153.117188 C 0.449219 151.59375 0.933594 131.300781 3.882812 129.730469 C 12.023438 125.402344 37.136719 120.234375 37.578125 126.3125 C 38.199219 134.71875 38.023438 146.132812 33.039062 152.328125 " fill-opacity="1" fill-rule="nonzero"/><path fill="#d3362d" d="M 7.378906 133.226562 C 13.722656 129.847656 30.414062 125.957031 37.648438 127.304688 C 37.632812 126.96875 37.609375 126.636719 37.578125 126.3125 C 37.136719 120.234375 12.023438 125.402344 3.882812 129.730469 C 0.933594 131.300781 0.449219 151.59375 5.300781 153.117188 C 5.566406 153.199219 5.941406 153.292969 6.371094 153.378906 C 4.265625 147.207031 5.0625 134.453125 7.378906 133.226562 " fill-opacity="1" fill-rule="nonzero"/><path fill="#dc4437" d="M 337.871094 136.054688 L 350.046875 136.054688 L 353.371094 150.226562 L 342.484375 154.289062 L 337.871094 136.054688 " fill-opacity="1" fill-rule="nonzero"/><g clip-path="url(#8de89888ff)"><path fill="#dc4437" d="M 352.257812 152.328125 C 355.402344 156.226562 376.242188 154.289062 380.003906 153.117188 C 384.863281 151.59375 384.378906 131.300781 381.417969 129.730469 C 373.296875 125.402344 348.167969 120.230469 347.722656 126.3125 C 347.097656 134.71875 347.277344 146.132812 352.257812 152.328125 " fill-opacity="1" fill-rule="nonzero"/></g><g clip-path="url(#c18e72e1b0)"><path fill="#d3362d" d="M 381.417969 129.730469 C 373.296875 125.402344 348.167969 120.230469 347.722656 126.3125 C 347.699219 126.636719 347.671875 126.96875 347.65625 127.304688 C 354.898438 125.957031 371.582031 129.847656 377.929688 133.226562 C 380.25 134.453125 381.042969 147.207031 378.9375 153.378906 C 379.367188 153.292969 379.738281 153.199219 380.003906 153.117188 C 384.863281 151.59375 384.378906 131.300781 381.417969 129.730469 " fill-opacity="1" fill-rule="nonzero"/></g><path fill="#4d1f0f" d="M 88.398438 309.269531 C 88.398438 314.355469 84.863281 318.519531 80.550781 318.519531 L 59.300781 318.519531 C 54.980469 318.519531 51.457031 314.355469 51.457031 309.269531 L 51.457031 234.488281 C 51.457031 229.40625 54.980469 225.242188 59.300781 225.242188 L 80.550781 225.242188 C 84.863281 225.242188 88.398438 229.40625 88.398438 234.488281 L 88.398438 309.269531 " fill-opacity="1" fill-rule="nonzero"/><g clip-path="url(#032060a748)"><path fill="#663f30" d="M 65.144531 330.613281 C 65.144531 336.722656 60.914062 341.710938 55.734375 341.710938 L 30.269531 341.710938 C 25.09375 341.710938 20.859375 336.722656 20.859375 330.613281 L 20.859375 240.964844 C 20.859375 234.863281 25.09375 229.875 30.269531 229.875 L 55.734375 229.875 C 60.914062 229.875 65.144531 234.863281 65.144531 240.964844 L 65.144531 330.613281 " fill-opacity="1" fill-rule="nonzero"/></g><path fill="#4d1f0f" d="M 296.90625 309.269531 C 296.90625 314.355469 300.441406 318.519531 304.757812 318.519531 L 326.003906 318.519531 C 330.316406 318.519531 333.851562 314.355469 333.851562 309.269531 L 333.851562 234.488281 C 333.851562 229.40625 330.316406 225.242188 326.003906 225.242188 L 304.757812 225.242188 C 300.441406 225.242188 296.90625 229.40625 296.90625 234.488281 L 296.90625 309.269531 " fill-opacity="1" fill-rule="nonzero"/><g clip-path="url(#b632cfccd3)"><path fill="#663f30" d="M 320.152344 330.613281 C 320.152344 336.722656 324.390625 341.710938 329.566406 341.710938 L 355.035156 341.710938 C 360.21875 341.710938 364.453125 336.722656 364.453125 330.613281 L 364.453125 240.964844 C 364.453125 234.863281 360.21875 229.875 355.035156 229.875 L 329.566406 229.875 C 324.390625 229.875 320.152344 234.863281 320.152344 240.964844 L 320.152344 330.613281 " fill-opacity="1" fill-rule="nonzero"/></g><path fill="#582a1a" d="M 355.035156 229.875 L 329.566406 229.875 C 324.390625 229.875 320.152344 234.863281 320.152344 240.964844 L 320.152344 314.335938 C 334.21875 314.636719 342.765625 314.980469 345.226562 315.324219 C 346.492188 315.519531 347.777344 315.621094 349.050781 315.621094 L 349.0625 315.621094 C 354.65625 315.621094 360.003906 313.644531 364.453125 310.035156 L 364.453125 240.964844 C 364.453125 234.863281 360.21875 229.875 355.035156 229.875 " fill-opacity="1" fill-rule="nonzero"/><path fill="#582a1a" d="M 65.144531 240.964844 C 65.144531 234.863281 60.914062 229.875 55.734375 229.875 L 30.269531 229.875 C 25.09375 229.875 20.859375 234.863281 20.859375 240.964844 L 20.859375 310.027344 C 25.304688 313.644531 30.648438 315.621094 36.246094 315.621094 C 37.519531 315.621094 38.808594 315.519531 40.03125 315.328125 C 42.507812 314.988281 51.066406 314.644531 65.144531 314.335938 L 65.144531 240.964844 " fill-opacity="1" fill-rule="nonzero"/><g clip-path="url(#0bace7d647)"><path fill="#dc4437" d="M 363.148438 193.710938 C 362.882812 189.082031 346.855469 167.511719 345.71875 162.136719 C 335.832031 115.699219 312.21875 69.070312 301.984375 57.4375 C 291.742188 45.804688 207.039062 42.480469 192.648438 42.480469 C 178.261719 42.480469 93.570312 45.804688 83.320312 57.4375 C 73.082031 69.070312 49.472656 115.699219 39.589844 162.136719 C 38.445312 167.511719 22.429688 189.082031 22.15625 193.710938 C 21.882812 198.34375 14.679688 301.628906 37.375 298.050781 C 46.453125 296.628906 117.363281 295.917969 192.648438 295.917969 C 267.933594 295.917969 338.855469 296.628906 347.929688 298.050781 C 370.628906 301.628906 363.429688 198.34375 363.148438 193.710938 " fill-opacity="1" fill-rule="nonzero"/></g><path fill="#e35b4f" d="M 324.878906 138.230469 L 192.648438 129.4375 L 60.429688 138.230469 C 41.480469 163.957031 51.835938 175.015625 58.25 176.625 C 67.082031 178.832031 74.671875 183.65625 90.6875 180.652344 C 125.832031 174.074219 259.472656 174.074219 294.621094 180.652344 C 310.632812 183.65625 318.226562 178.832031 327.054688 176.625 C 333.464844 175.015625 342.304688 159.144531 324.878906 138.230469 " fill-opacity="1" fill-rule="nonzero"/><path fill="#e6e6e6" d="M 44.292969 176.457031 C 40.699219 178.75 37.492188 203.910156 39.683594 205.992188 C 43.746094 209.847656 108.019531 223.058594 108.144531 215.230469 C 108.328125 203.644531 100.621094 185.660156 99.097656 184.382812 C 93.9375 180.082031 49.796875 172.921875 44.292969 176.457031 " fill-opacity="1" fill-rule="nonzero"/><path fill="#b2b2b2" d="M 49.539062 181.6875 C 54.40625 178.566406 89.625 183.832031 101.160156 188.074219 C 100.234375 186.050781 99.484375 184.710938 99.097656 184.382812 C 93.9375 180.082031 49.796875 172.921875 44.292969 176.457031 C 40.699219 178.75 37.492188 203.910156 39.683594 205.992188 C 40.226562 206.503906 41.855469 207.1875 44.226562 207.953125 C 43.941406 200.558594 46.609375 183.566406 49.539062 181.6875 " fill-opacity="1" fill-rule="nonzero"/><path fill="#4d4d4d" d="M 71.03125 258.617188 C 71.03125 263.09375 67.40625 266.722656 62.929688 266.722656 C 58.464844 266.722656 54.839844 263.09375 54.839844 258.617188 C 54.839844 254.144531 58.464844 250.515625 62.929688 250.515625 C 67.40625 250.515625 71.03125 254.144531 71.03125 258.617188 " fill-opacity="1" fill-rule="nonzero"/><path fill="#e6e6e6" d="M 62.929688 263.84375 C 60.058594 263.84375 57.71875 261.492188 57.71875 258.617188 C 57.71875 255.742188 60.058594 253.394531 62.929688 253.394531 C 65.8125 253.394531 68.160156 255.742188 68.160156 258.617188 C 68.160156 261.492188 65.8125 263.84375 62.929688 263.84375 " fill-opacity="1" fill-rule="nonzero"/><path fill="#29b6f6" d="M 300.972656 65.101562 C 291.8125 60.847656 216.085938 56.605469 192.648438 56.605469 L 192.648438 56.613281 C 169.21875 56.613281 93.5 60.847656 84.339844 65.101562 C 84.339844 65.101562 53.710938 131.203125 58.132812 138.230469 C 62.566406 145.238281 84.703125 135.269531 192.648438 135.269531 C 300.601562 135.269531 322.742188 145.238281 327.171875 138.230469 C 331.59375 131.203125 300.972656 65.101562 300.972656 65.101562 " fill-opacity="1" fill-rule="nonzero"/><path fill="#e6e6e6" d="M 341.011719 176.457031 C 344.605469 178.75 347.816406 203.910156 345.625 205.992188 C 341.5625 209.847656 277.277344 223.058594 277.160156 215.230469 C 276.972656 203.644531 284.675781 185.660156 286.203125 184.382812 C 291.375 180.082031 335.515625 172.921875 341.011719 176.457031 " fill-opacity="1" fill-rule="nonzero"/><path fill="#b2b2b2" d="M 341.011719 176.457031 C 335.515625 172.921875 291.375 180.082031 286.203125 184.382812 C 285.824219 184.710938 285.066406 186.050781 284.144531 188.074219 C 295.683594 183.832031 330.902344 178.566406 335.769531 181.6875 C 338.699219 183.566406 341.367188 200.558594 341.082031 207.953125 C 343.453125 207.1875 345.074219 206.503906 345.625 205.992188 C 347.816406 203.910156 344.605469 178.75 341.011719 176.457031 " fill-opacity="1" fill-rule="nonzero"/><path fill="#b2b2b2" d="M 192.648438 182.078125 C 178.269531 182.078125 109.617188 183.191406 109.617188 183.191406 C 112.109375 186.792969 120.136719 215.578125 127.058594 217.660156 C 133.972656 219.75 165.25 223.066406 192.648438 223.066406 C 220.054688 223.066406 251.332031 219.75 258.253906 217.660156 C 265.167969 215.578125 273.199219 186.792969 275.683594 183.191406 C 275.683594 183.191406 207.035156 182.078125 192.648438 182.078125 " fill-opacity="1" fill-rule="nonzero"/><path fill="#808080" d="M 258.253906 210.351562 C 251.332031 212.171875 220.054688 215.074219 192.648438 215.074219 C 165.25 215.074219 133.972656 212.171875 127.058594 210.351562 C 121.226562 208.808594 114.609375 190.707031 111.175781 183.160156 C 110.171875 183.175781 109.617188 183.191406 109.617188 183.191406 C 112.109375 186.792969 120.136719 215.578125 127.058594 217.660156 C 133.972656 219.75 165.25 223.066406 192.648438 223.066406 C 220.054688 223.066406 251.332031 219.75 258.253906 217.660156 C 265.167969 215.578125 273.199219 186.792969 275.683594 183.191406 C 275.683594 183.191406 275.128906 183.175781 274.128906 183.160156 C 270.699219 190.707031 264.078125 208.808594 258.253906 210.351562 " fill-opacity="1" fill-rule="nonzero"/><path fill="#4d4d4d" d="M 192.648438 256.304688 C 171.34375 256.304688 99.839844 256.585938 94.117188 254.917969 C 94.117188 254.917969 104.351562 282.621094 112.382812 282.347656 C 120.410156 282.066406 186.28125 282.347656 192.648438 282.347656 C 199.019531 282.347656 264.890625 282.066406 272.917969 282.347656 C 280.949219 282.621094 291.1875 254.917969 291.1875 254.917969 C 285.46875 256.585938 213.972656 256.304688 192.648438 256.304688 " fill-opacity="1" fill-rule="nonzero"/><path fill="#333333" d="M 288.832031 260.742188 C 289.453125 259.292969 289.96875 258.03125 290.363281 257.046875 L 290.371094 257.035156 C 290.625 256.390625 290.828125 255.871094 290.964844 255.515625 L 291.007812 255.417969 C 291.050781 255.292969 291.089844 255.179688 291.121094 255.101562 L 291.144531 255.03125 L 291.1875 254.917969 C 285.46875 256.585938 213.972656 256.304688 192.648438 256.304688 C 171.34375 256.304688 99.839844 256.585938 94.117188 254.917969 C 94.117188 254.917969 94.140625 254.96875 94.164062 255.042969 L 94.1875 255.09375 C 94.210938 255.171875 94.25 255.285156 94.308594 255.425781 L 94.34375 255.515625 C 94.476562 255.863281 94.671875 256.367188 94.925781 256.984375 L 94.964844 257.101562 C 95.09375 257.410156 95.226562 257.75 95.382812 258.113281 L 95.386719 258.132812 C 95.695312 258.890625 96.058594 259.761719 96.472656 260.71875 L 96.53125 260.851562 C 100.042969 268.980469 106.757812 282.535156 112.382812 282.347656 C 113.234375 282.320312 114.761719 282.292969 116.761719 282.277344 C 111.4375 281.289062 105.328125 269.246094 102.320312 262.609375 C 122.929688 263.484375 174.996094 263.300781 192.648438 263.300781 C 210.3125 263.300781 262.378906 263.484375 282.984375 262.609375 C 279.984375 269.246094 273.863281 281.289062 268.546875 282.277344 C 270.550781 282.292969 272.070312 282.320312 272.917969 282.347656 C 278.554688 282.535156 285.28125 268.953125 288.78125 260.832031 L 288.832031 260.742188 " fill-opacity="1" fill-rule="nonzero"/><path fill="#e35b4f" d="M 192.914062 228.738281 C 170.714844 228.738281 56.945312 222.742188 31.9375 214.199219 C 23.582031 211.351562 24.671875 236.042969 31.9375 236.921875 C 48.066406 238.863281 115.636719 246.089844 192.914062 246.089844 L 192.914062 228.738281 " fill-opacity="1" fill-rule="nonzero"/><path fill="#e35b4f" d="M 192.914062 228.738281 C 215.109375 228.738281 328.871094 222.742188 353.886719 214.199219 C 362.238281 211.351562 361.152344 236.042969 353.886719 236.921875 C 337.765625 238.863281 270.191406 246.089844 192.914062 246.089844 L 192.914062 228.738281 " fill-opacity="1" fill-rule="nonzero"/><path fill="#4d4d4d" d="M 330.46875 258.617188 C 330.46875 263.09375 326.847656 266.722656 322.371094 266.722656 C 317.902344 266.722656 314.277344 263.09375 314.277344 258.617188 C 314.277344 254.144531 317.902344 250.515625 322.371094 250.515625 C 326.847656 250.515625 330.46875 254.144531 330.46875 258.617188 " fill-opacity="1" fill-rule="nonzero"/><path fill="#e6e6e6" d="M 322.371094 263.84375 C 319.5 263.84375 317.160156 261.492188 317.160156 258.617188 C 317.160156 255.742188 319.5 253.394531 322.371094 253.394531 C 325.253906 253.394531 327.597656 255.742188 327.597656 258.617188 C 327.597656 261.492188 325.253906 263.84375 322.371094 263.84375 " fill-opacity="1" fill-rule="nonzero"/><path fill="#54c5f8" d="M 66.394531 140.71875 C 65.253906 140.71875 64.246094 140.679688 63.359375 140.59375 L 115.089844 60.664062 C 120.199219 60.214844 125.628906 59.792969 131.21875 59.445312 L 79.042969 139.980469 C 73.601562 140.429688 69.496094 140.71875 66.394531 140.71875 " fill-opacity="1" fill-rule="nonzero"/><path fill="#e3695f" d="M 210.863281 57.035156 C 210.339844 57.019531 209.824219 56.996094 209.3125 56.980469 C 209.824219 56.996094 210.34375 57.015625 210.867188 57.035156 L 210.863281 57.035156 " fill-opacity="1" fill-rule="nonzero"/><path fill="#54c5f8" d="M 108.886719 137.699219 L 160.714844 57.675781 C 173.917969 57 185.613281 56.613281 192.648438 56.613281 C 196.800781 56.613281 202.5625 56.753906 209.3125 56.980469 C 209.824219 56.996094 210.339844 57.019531 210.863281 57.035156 L 160.039062 135.578125 C 138.992188 136.027344 122.222656 136.832031 108.886719 137.699219 " fill-opacity="1" fill-rule="nonzero"/><path fill="#e3695f" d="M 254.421875 59.417969 C 252.859375 59.304688 251.289062 59.195312 249.707031 59.089844 C 251.289062 59.195312 252.859375 59.304688 254.421875 59.417969 " fill-opacity="1" fill-rule="nonzero"/><path fill="#e97c72" d="M 201.316406 135.292969 C 201.011719 135.289062 200.699219 135.289062 200.390625 135.289062 C 200.699219 135.289062 201.011719 135.289062 201.316406 135.292969 " fill-opacity="1" fill-rule="nonzero"/><path fill="#54c5f8" d="M 230.753906 135.703125 C 221.792969 135.484375 212.007812 135.328125 201.316406 135.292969 C 201.011719 135.289062 200.699219 135.289062 200.394531 135.285156 L 249.707031 59.089844 C 251.289062 59.195312 252.859375 59.304688 254.421875 59.417969 C 263.160156 60.039062 271.5625 60.734375 278.789062 61.5 L 230.753906 135.703125 " fill-opacity="1" fill-rule="nonzero"/><path fill="#e3695f" d="M 308.4375 81.792969 C 308.113281 81.042969 307.789062 80.308594 307.476562 79.59375 C 307.792969 80.304688 308.113281 81.039062 308.441406 81.789062 L 308.4375 81.792969 " fill-opacity="1" fill-rule="nonzero"/><path fill="#54c5f8" d="M 272.394531 137.441406 C 268.921875 137.25 265.226562 137.023438 261.308594 136.832031 L 303.753906 71.242188 C 304.773438 73.53125 306.058594 76.378906 307.476562 79.59375 C 307.789062 80.308594 308.113281 81.042969 308.4375 81.792969 L 272.394531 137.441406 " fill-opacity="1" fill-rule="nonzero"/><path fill="#d3362d" d="M 84.339844 70.347656 C 93.5 66.089844 169.21875 61.847656 192.648438 61.847656 C 216.085938 61.847656 291.8125 66.089844 300.972656 70.347656 C 300.972656 70.347656 324.152344 120.378906 327.253906 138.007812 C 331.0625 130.066406 300.972656 65.101562 300.972656 65.101562 C 291.8125 60.847656 216.085938 56.605469 192.648438 56.605469 L 192.648438 56.613281 C 169.21875 56.613281 93.5 60.847656 84.339844 65.101562 C 84.339844 65.101562 54.242188 130.0625 58.050781 138.003906 C 61.15625 120.375 84.339844 70.347656 84.339844 70.347656 " fill-opacity="1" fill-rule="nonzero"/></svg>