<svg xmlns="http://www.w3.org/2000/svg" xmlns:xlink="http://www.w3.org/1999/xlink" width="512" zoomAndPan="magnify" viewBox="0 0 384 383.999986" height="512" preserveAspectRatio="xMidYMid meet" version="1.0"><defs><clipPath id="ca77039f30"><path d="M 0 83.28125 L 384 83.28125 L 384 300.78125 L 0 300.78125 Z M 0 83.28125 " clip-rule="nonzero"/></clipPath></defs><path fill="#100f0d" d="M 294.320312 192.03125 L 319.898438 192.03125 L 319.898438 179.234375 L 294.320312 179.234375 L 294.320312 192.03125 " fill-opacity="1" fill-rule="nonzero"/><path fill="#100f0d" d="M 57.707031 268.792969 L 70.496094 268.792969 L 70.496094 256 L 57.707031 256 L 57.707031 268.792969 " fill-opacity="1" fill-rule="nonzero"/><path fill="#100f0d" d="M 294.320312 268.792969 L 307.109375 268.792969 L 307.109375 256 L 294.320312 256 L 294.320312 268.792969 " fill-opacity="1" fill-rule="nonzero"/><g clip-path="url(#ca77039f30)"><path fill="#100f0d" d="M 371.058594 192.03125 L 371.058594 204.824219 L 345.480469 204.824219 L 345.480469 192.03125 Z M 364.664062 256 L 338.511719 256 C 335.4375 237.882812 319.699219 224.015625 300.714844 224.015625 C 281.730469 224.015625 265.992188 237.882812 262.917969 256 L 101.894531 256 C 98.824219 237.882812 83.085938 224.015625 64.101562 224.015625 C 45.113281 224.015625 29.378906 237.882812 26.304688 256 L 12.941406 256 L 12.941406 166.441406 L 370.960938 166.441406 C 370.984375 166.667969 371.058594 166.890625 371.058594 167.140625 L 371.058594 179.234375 L 345.480469 179.234375 C 338.433594 179.234375 332.691406 184.984375 332.691406 192.03125 L 332.691406 204.824219 C 332.691406 211.871094 338.433594 217.617188 345.480469 217.617188 L 371.058594 217.617188 L 371.058594 230.414062 L 351.875 230.414062 L 351.875 243.207031 L 371.058594 243.207031 L 371.058594 249.605469 C 371.058594 253.125 368.1875 256 364.664062 256 Z M 300.714844 287.984375 C 286.601562 287.984375 275.136719 276.515625 275.136719 262.398438 C 275.136719 248.277344 286.601562 236.808594 300.714844 236.808594 C 314.828125 236.808594 326.292969 248.277344 326.292969 262.398438 C 326.292969 276.515625 314.828125 287.984375 300.714844 287.984375 Z M 64.101562 287.984375 C 49.984375 287.984375 38.519531 276.515625 38.519531 262.398438 C 38.519531 248.277344 49.984375 236.808594 64.101562 236.808594 C 78.214844 236.808594 89.679688 248.277344 89.679688 262.398438 C 89.679688 276.515625 78.214844 287.984375 64.101562 287.984375 Z M 19.335938 96.074219 L 281.53125 96.074219 L 281.53125 153.648438 L 267.339844 153.648438 L 262.144531 132.90625 L 249.753906 136.003906 L 254.152344 153.648438 L 228.972656 153.648438 L 223.773438 132.90625 L 211.386719 136.003906 L 215.78125 153.648438 L 190.601562 153.648438 L 185.40625 132.90625 L 173.015625 136.003906 L 177.410156 153.648438 L 152.230469 153.648438 L 147.035156 132.90625 L 134.644531 136.003906 L 139.042969 153.648438 L 113.859375 153.648438 L 108.664062 132.90625 L 96.273438 136.003906 L 100.671875 153.648438 L 75.492188 153.648438 L 70.296875 132.90625 L 57.90625 136.003906 L 62.300781 153.648438 L 37.121094 153.648438 L 31.925781 132.90625 L 19.535156 136.003906 L 23.933594 153.648438 L 12.941406 153.648438 L 12.941406 102.472656 C 12.941406 98.949219 15.8125 96.074219 19.335938 96.074219 Z M 337.085938 99.421875 L 366.386719 153.648438 L 294.320312 153.648438 L 294.320312 96.074219 L 331.464844 96.074219 C 333.8125 96.074219 335.960938 97.375 337.085938 99.421875 Z M 379.429688 150.925781 L 348.328125 93.351562 C 344.980469 87.128906 338.511719 83.28125 331.464844 83.28125 L 19.335938 83.28125 C 8.742188 83.28125 0.148438 91.875 0.148438 102.472656 L 0.148438 256 C 0.148438 263.046875 5.894531 268.792969 12.941406 268.792969 L 26.304688 268.792969 C 29.378906 286.910156 45.113281 300.78125 64.101562 300.78125 C 83.085938 300.78125 98.824219 286.910156 101.894531 268.792969 L 262.917969 268.792969 C 265.992188 286.910156 281.730469 300.78125 300.714844 300.78125 C 319.699219 300.78125 335.4375 286.910156 338.511719 268.792969 L 364.664062 268.792969 C 375.257812 268.792969 383.851562 260.199219 383.851562 249.605469 L 383.851562 167.140625 C 383.851562 161.34375 382.277344 155.648438 379.429688 150.925781 " fill-opacity="1" fill-rule="nonzero"/></g></svg>