<svg xmlns="http://www.w3.org/2000/svg" xmlns:xlink="http://www.w3.org/1999/xlink" width="512" zoomAndPan="magnify" viewBox="0 0 384 383.999986" height="512" preserveAspectRatio="xMidYMid meet" version="1.0"><defs><clipPath id="12cae17ff8"><path d="M 117 22.558594 L 267 22.558594 L 267 361.558594 L 117 361.558594 Z M 117 22.558594 " clip-rule="nonzero"/></clipPath></defs><g clip-path="url(#12cae17ff8)"><path fill="#040606" d="M 197.953125 280.472656 L 198.585938 245.726562 C 210.011719 251.730469 215.15625 257.09375 215.15625 262.910156 C 215.15625 268.441406 206.855469 274.285156 197.953125 280.472656 Z M 190.019531 243.695312 C 190.109375 243.546875 190.238281 243.429688 190.378906 243.324219 C 191.398438 242.558594 192.9375 242.585938 193.925781 243.386719 C 194.082031 243.511719 194.226562 243.660156 194.300781 243.84375 C 194.375 244.027344 194.375 244.238281 194.371094 244.441406 C 194.179688 253.863281 194.007812 263.285156 193.835938 272.707031 C 193.769531 276.210938 193.707031 279.714844 193.644531 283.222656 C 193.640625 283.308594 193.640625 283.390625 193.636719 283.480469 C 193.613281 283.5 193.589844 283.511719 193.5625 283.535156 C 193.507812 283.570312 193.453125 283.609375 193.394531 283.652344 C 193.164062 283.816406 192.941406 283.972656 192.71875 284.132812 C 192.609375 284.207031 192.503906 284.285156 192.394531 284.359375 C 192.3125 284.425781 192.214844 284.488281 192.132812 284.546875 C 192.039062 284.484375 191.941406 284.414062 191.847656 284.34375 C 191.75 284.277344 191.648438 284.207031 191.550781 284.132812 C 191.335938 283.980469 191.113281 283.824219 190.886719 283.667969 C 190.820312 283.617188 190.753906 283.570312 190.6875 283.527344 C 190.664062 283.507812 190.644531 283.496094 190.625 283.480469 C 190.578125 280.976562 190.53125 278.480469 190.484375 275.976562 C 190.390625 270.75 190.296875 265.519531 190.199219 260.289062 C 190.101562 255.003906 190.039062 249.714844 189.894531 244.433594 C 189.890625 244.214844 189.882812 243.992188 189.96875 243.792969 C 189.984375 243.757812 190 243.726562 190.019531 243.695312 Z M 187.046875 320.855469 C 184.6875 318.128906 182.9375 315.609375 182.894531 313.53125 C 182.871094 312.429688 183.613281 310.558594 186.804688 307.535156 Z M 193.117188 304.09375 C 193.421875 304.703125 193.238281 305.414062 193.222656 306.324219 C 193.203125 307.277344 193.1875 308.230469 193.171875 309.183594 C 193.125 311.582031 193.082031 313.980469 193.039062 316.375 C 192.984375 319.453125 192.929688 322.53125 192.871094 325.609375 C 192.621094 325.878906 192.378906 326.140625 192.132812 326.410156 C 191.886719 326.140625 191.640625 325.878906 191.390625 325.609375 C 191.390625 325.609375 191 304.074219 191 304.015625 C 190.996094 303.804688 191.765625 303.410156 191.925781 303.304688 C 191.976562 303.269531 192.03125 303.234375 192.085938 303.230469 C 192.164062 303.222656 192.234375 303.261719 192.300781 303.300781 C 192.722656 303.550781 192.972656 303.8125 193.117188 304.09375 Z M 185.226562 221.289062 C 174.710938 217.019531 167.699219 213.488281 164.375 210.78125 C 161.972656 208.820312 162.207031 208.035156 162.460938 207.207031 C 163.125 204.992188 168.359375 200.132812 179.574219 196.535156 C 180.824219 196.136719 182.503906 195.574219 184.746094 194.808594 Z M 195.207031 193.421875 C 195.777344 194.082031 195.203125 197.546875 195.191406 198.417969 C 195.148438 200.773438 195.105469 203.128906 195.058594 205.484375 C 194.972656 210.214844 194.886719 214.949219 194.800781 219.679688 C 194.789062 220.488281 194.863281 221.296875 194.84375 222.105469 C 194.839844 222.324219 194.90625 222.800781 194.757812 222.988281 C 194.414062 223.414062 192.988281 223.679688 192.46875 223.882812 C 192.355469 223.925781 192.238281 223.96875 192.121094 223.96875 C 192.011719 223.964844 191.90625 223.925781 191.808594 223.886719 C 191.042969 223.589844 190.285156 223.289062 189.519531 222.996094 C 189.382812 215.320312 189.238281 207.644531 189.101562 199.964844 C 189.082031 199.039062 188.433594 193.550781 189.382812 193.210938 C 189.996094 192.988281 190.609375 192.769531 191.222656 192.546875 C 191.515625 192.441406 191.816406 192.335938 192.128906 192.335938 C 192.421875 192.335938 192.710938 192.4375 192.988281 192.535156 C 193.550781 192.730469 194.109375 192.925781 194.667969 193.121094 C 194.867188 193.191406 195.070312 193.261719 195.207031 193.421875 Z M 248.523438 167.273438 C 235.222656 172.464844 221.730469 177.253906 208.273438 182 C 198.292969 185.523438 188.351562 189.265625 178.273438 192.480469 C 165.335938 196.628906 159.46875 202.351562 158.378906 205.984375 C 157.738281 208.132812 157.625 210.765625 161.683594 214.078125 C 184.492188 232.683594 230.042969 231.582031 225.609375 270.632812 C 225.050781 275.566406 218.871094 279.648438 215.292969 282.324219 C 209.363281 286.753906 203.015625 290.550781 196.875 294.671875 C 192.382812 297.6875 187.777344 300.738281 183.839844 304.476562 C 181.386719 306.804688 178.496094 309.976562 178.636719 313.625 C 178.851562 323.648438 192.148438 330.371094 196.324219 338.710938 C 198.261719 342.578125 200.171875 349.878906 196.132812 352.703125 C 198.050781 351.359375 196.628906 342.105469 195.949219 340.226562 C 194.589844 336.472656 191.820312 334.003906 188.992188 331.339844 C 183.871094 326.515625 175.1875 321.191406 175.1875 313.222656 C 175.1875 307.464844 178.171875 302 184.582031 296.015625 C 189.324219 291.585938 194.652344 287.949219 199.964844 284.257812 C 210.398438 277.011719 219.414062 270.757812 219.414062 262.910156 C 219.414062 247.796875 199.503906 240.132812 188.015625 235.507812 C 176.914062 231.035156 148.820312 223.609375 149.847656 208.113281 C 150.671875 195.640625 155.53125 192.964844 164.347656 188.109375 C 169.496094 185.273438 175.304688 183.277344 180.75 181.070312 C 187.191406 178.457031 193.699219 175.996094 200.1875 173.511719 C 206.53125 171.085938 212.847656 168.398438 219.289062 166.25 C 229.289062 162.46875 235.007812 160.300781 236.265625 159.714844 C 239.316406 158.308594 241.664062 157.050781 241.78125 154.789062 C 241.898438 152.664062 239.886719 151.457031 239.222656 151.058594 C 238.144531 150.410156 237.128906 150.175781 236.117188 150.175781 C 234.875 150.175781 233.640625 150.53125 232.304688 150.914062 C 230.265625 151.503906 227.738281 152.238281 223.640625 152.441406 C 215.679688 152.835938 209.613281 150.015625 208.199219 145.238281 C 208.027344 144.671875 208.027344 144.382812 208.035156 144.273438 C 208.328125 144.066406 209.277344 143.816406 209.921875 143.648438 C 211.941406 143.121094 214.707031 142.402344 216.609375 139.734375 C 217.636719 138.292969 218.203125 137.496094 223.539062 136.457031 C 225.566406 136.0625 226.152344 136.398438 227.328125 137.066406 C 228.679688 137.839844 230.53125 138.894531 234.355469 138.792969 C 252.007812 138.324219 261.3125 144.859375 262.5 151.136719 C 263.882812 158.484375 255.839844 164.417969 248.523438 167.273438 Z M 199.035156 221.289062 L 199.515625 194.808594 C 201.757812 195.574219 203.4375 196.136719 204.683594 196.535156 C 215.90625 200.132812 221.140625 204.992188 221.800781 207.210938 C 222.054688 208.035156 222.289062 208.820312 219.886719 210.78125 C 216.5625 213.488281 209.550781 217.019531 199.035156 221.289062 Z M 219.910156 188.109375 C 228.730469 192.964844 233.589844 195.640625 234.414062 208.113281 C 234.796875 213.882812 230.148438 218.308594 225.835938 221.386719 C 222.882812 223.492188 219.695312 225.257812 216.460938 226.894531 C 214.707031 227.785156 212.929688 228.632812 211.144531 229.457031 C 210.246094 229.871094 209.339844 230.382812 208.40625 230.707031 C 207.527344 231.007812 206.492188 230.132812 205.667969 229.714844 C 203.175781 228.460938 200.632812 227.3125 198.042969 226.277344 C 198.042969 226.277344 198.949219 225.917969 198.949219 225.914062 C 210.957031 221.125 218.695312 217.246094 222.578125 214.082031 C 226.636719 210.765625 226.523438 208.132812 225.882812 205.988281 C 224.792969 202.351562 218.929688 196.628906 205.984375 192.480469 C 204.359375 191.960938 202 191.164062 198.5625 189.976562 C 200.832031 189.175781 203.234375 188.324219 205.703125 187.441406 C 205.710938 187.4375 205.71875 187.4375 205.726562 187.433594 C 207.671875 186.484375 209.914062 185.925781 211.949219 185.191406 C 212.210938 185.097656 212.476562 185.003906 212.753906 184.988281 C 213.890625 184.933594 215.59375 186.0625 216.632812 186.527344 C 217.738281 187.027344 218.851562 187.523438 219.910156 188.109375 Z M 197.214844 320.855469 L 197.457031 307.535156 C 200.648438 310.558594 201.394531 312.429688 201.367188 313.535156 C 201.324219 315.609375 199.574219 318.128906 197.214844 320.855469 Z M 209.074219 313.222656 C 209.074219 317.765625 203.0625 323.523438 197.761719 328.597656 C 197.089844 329.238281 196.417969 329.886719 195.75 330.527344 C 195.683594 330.445312 195.605469 330.355469 195.539062 330.269531 C 195.386719 330.09375 195.242188 329.917969 195.089844 329.738281 C 195.050781 329.695312 195.019531 329.652344 194.980469 329.605469 C 195.011719 329.574219 195.035156 329.539062 195.066406 329.511719 C 195.550781 328.984375 196.046875 328.453125 196.542969 327.917969 L 196.59375 327.863281 L 197.097656 327.320312 C 199.371094 324.875 201.484375 322.59375 203.03125 320.347656 C 204.582031 318.105469 205.578125 315.90625 205.625 313.625 C 205.699219 310.171875 203.199219 306.554688 197.554688 301.980469 L 197.554688 301.964844 L 196.730469 301.308594 C 196.445312 301.089844 196.152344 300.859375 195.851562 300.632812 C 195.828125 300.613281 195.804688 300.597656 195.78125 300.578125 C 196.417969 299.996094 197.289062 299.554688 198.011719 299.070312 C 198.960938 298.4375 199.90625 297.804688 200.859375 297.179688 C 200.867188 297.171875 200.875 297.171875 200.878906 297.164062 C 206.464844 302.707031 209.074219 307.839844 209.074219 313.222656 Z M 192.445312 348.722656 C 192.441406 348.75 192.433594 348.773438 192.429688 348.800781 C 192.339844 349.210938 192.238281 349.601562 192.132812 349.972656 C 192.011719 349.5625 191.90625 349.152344 191.816406 348.726562 C 191.796875 347.695312 191.777344 346.660156 191.757812 345.628906 C 191.734375 344.253906 191.40625 342.542969 192.121094 341.308594 C 192.132812 341.328125 192.144531 341.34375 192.15625 341.359375 C 192.890625 342.519531 192.527344 344.378906 192.503906 345.6875 C 192.484375 346.636719 192.644531 347.789062 192.445312 348.722656 Z M 189.238281 337.855469 C 189.179688 338.09375 189.039062 338.304688 188.894531 338.507812 C 188.863281 338.550781 188.828125 338.597656 188.796875 338.640625 C 188 339.777344 187.46875 341.167969 187.320312 342.550781 L 187.316406 342.5625 C 187.085938 344.890625 187.171875 347.117188 187.566406 349.191406 L 187.628906 352.75 C 187.035156 352.015625 186.605469 351.304688 186.398438 350.691406 C 184.792969 345.875 186.359375 341.175781 188.980469 337.050781 C 189.238281 337.203125 189.316406 337.5625 189.238281 337.855469 Z M 186.3125 280.472656 C 177.40625 274.285156 169.105469 268.441406 169.105469 262.910156 C 169.105469 257.09375 174.25 251.730469 185.675781 245.726562 Z M 158.757812 270.605469 C 158.546875 269.773438 158.402344 268.921875 158.292969 268.070312 C 157.554688 262.210938 158.488281 256.140625 161.042969 250.820312 C 162.53125 247.726562 164.5625 244.898438 167.015625 242.503906 C 169.578125 240 172.65625 238.097656 175.640625 236.160156 C 175.898438 235.992188 176.164062 235.820312 176.46875 235.785156 C 176.832031 235.738281 177.191406 235.890625 177.527344 236.042969 C 180.683594 237.449219 183.84375 238.859375 187 240.269531 C 180.613281 243.503906 174.054688 246.859375 169.332031 252.242188 C 166.511719 255.453125 164.382812 259.617188 164.875 263.859375 C 165.3125 267.597656 167.699219 270.816406 170.359375 273.480469 C 175.722656 278.855469 182.402344 282.683594 188.496094 287.210938 C 186.632812 288.734375 184.769531 290.257812 182.90625 291.777344 C 176.546875 287.566406 170.007812 283.554688 164.265625 278.53125 C 162.445312 276.9375 160.679688 275.199219 159.621094 273.027344 C 159.246094 272.253906 158.964844 271.441406 158.757812 270.605469 Z M 135.746094 167.273438 C 128.425781 164.425781 120.378906 158.484375 121.761719 151.136719 C 122.910156 145.074219 131.628906 138.765625 148.117188 138.765625 C 148.703125 138.765625 149.296875 138.773438 149.902344 138.792969 C 153.734375 138.894531 155.582031 137.839844 156.933594 137.066406 C 158.109375 136.398438 158.695312 136.0625 160.71875 136.457031 C 166.058594 137.496094 166.625 138.292969 167.65625 139.734375 C 169.554688 142.402344 172.320312 143.121094 174.339844 143.648438 C 174.984375 143.816406 175.933594 144.066406 176.226562 144.273438 C 176.234375 144.382812 176.234375 144.671875 176.066406 145.242188 C 174.648438 150.015625 168.582031 152.835938 160.621094 152.441406 C 156.523438 152.238281 153.996094 151.503906 151.957031 150.914062 C 149.539062 150.21875 147.445312 149.613281 145.039062 151.058594 C 144.375 151.457031 142.363281 152.664062 142.480469 154.789062 C 142.605469 157.050781 144.945312 158.308594 147.996094 159.714844 C 149.253906 160.300781 154.972656 162.46875 164.972656 166.25 C 171.300781 168.652344 178.476562 171.363281 185.695312 174.136719 L 186.230469 174.339844 L 185.765625 174.519531 C 180.933594 176.414062 176.09375 178.308594 171.308594 180.3125 C 155.523438 174.632812 140.324219 169.0625 135.746094 167.273438 Z M 181.367188 61.03125 L 179.667969 61.03125 L 179.667969 60.085938 L 204.59375 60.085938 L 204.59375 61.03125 L 202.894531 61.03125 L 198.074219 76.351562 L 197.421875 76.351562 L 195.695312 170.675781 C 195.695312 170.675781 193.035156 171.699219 192.132812 172.046875 C 191.226562 171.699219 188.566406 170.675781 188.566406 170.675781 L 186.84375 76.351562 L 186.1875 76.351562 Z M 176.640625 42.3125 C 176.640625 33.765625 183.589844 26.8125 192.132812 26.8125 C 200.671875 26.8125 207.621094 33.765625 207.621094 42.3125 C 207.621094 48.113281 204.421875 53.386719 199.269531 56.066406 L 192.132812 59.785156 L 184.992188 56.066406 C 179.84375 53.386719 176.640625 48.113281 176.640625 42.3125 Z M 234.242188 134.53125 C 231.605469 134.605469 230.601562 134.03125 229.4375 133.371094 C 227.96875 132.53125 226.304688 131.578125 222.726562 132.277344 C 217.164062 133.359375 215.195312 134.386719 213.140625 137.261719 C 212.136719 138.667969 210.539062 139.085938 208.84375 139.527344 C 207.175781 139.964844 205.28125 140.457031 204.3125 142.175781 C 203.667969 143.324219 203.601562 144.722656 204.117188 146.449219 C 206.113281 153.171875 213.863281 157.195312 223.855469 156.691406 C 228.445312 156.46875 231.359375 155.625 233.484375 155.007812 C 235.589844 154.398438 236.207031 154.277344 236.894531 154.632812 C 236.402344 154.921875 235.648438 155.3125 234.480469 155.847656 C 233.296875 156.398438 226.453125 158.988281 217.78125 162.269531 C 212.3125 164.339844 206.214844 166.648438 199.984375 169.027344 L 201.601562 80.609375 L 203.648438 80.609375 L 203.648438 72.828125 L 206.023438 65.292969 L 208.851562 65.292969 L 208.851562 55.828125 L 206.546875 55.828125 C 209.925781 52.226562 211.878906 47.429688 211.878906 42.3125 C 211.878906 31.417969 203.019531 22.554688 192.132812 22.554688 C 181.242188 22.554688 172.382812 31.417969 172.382812 42.3125 C 172.382812 47.429688 174.335938 52.226562 177.714844 55.828125 L 175.410156 55.828125 L 175.410156 65.292969 L 178.238281 65.292969 L 180.613281 72.828125 L 180.613281 80.609375 L 182.660156 80.609375 L 184.277344 169.027344 C 178.054688 166.652344 171.949219 164.339844 166.480469 162.269531 C 157.808594 158.988281 150.96875 156.398438 149.777344 155.847656 C 148.617188 155.3125 147.859375 154.921875 147.367188 154.632812 C 148.054688 154.277344 148.671875 154.398438 150.78125 155.007812 C 152.902344 155.625 155.816406 156.46875 160.40625 156.691406 C 170.398438 157.195312 178.148438 153.171875 180.144531 146.457031 C 180.660156 144.722656 180.59375 143.324219 179.949219 142.175781 C 178.980469 140.457031 177.085938 139.964844 175.417969 139.527344 C 173.722656 139.085938 172.125 138.667969 171.121094 137.261719 C 169.066406 134.386719 167.097656 133.359375 161.53125 132.277344 C 157.957031 131.578125 156.292969 132.53125 154.824219 133.371094 C 153.664062 134.03125 152.652344 134.601562 150.019531 134.53125 C 132.492188 134.058594 119.453125 140.417969 117.582031 150.34375 C 115.710938 160.257812 125.363281 167.796875 134.195312 171.246094 C 138.390625 172.878906 151.375 177.644531 165.585938 182.78125 C 164.148438 183.425781 163.058594 183.960938 162.296875 184.378906 C 153.171875 189.398438 146.578125 193.035156 145.597656 207.832031 C 144.828125 219.449219 157.617188 227.003906 171.828125 233.546875 C 163.265625 239.042969 156.21875 246.777344 154.441406 257.0625 C 153.226562 264.121094 153.472656 272.253906 157.878906 278.238281 C 163.050781 285.257812 172.578125 290.136719 179.75 294.796875 C 173.824219 300.90625 170.929688 306.949219 170.929688 313.222656 C 170.929688 319.585938 177.351562 325.734375 183.558594 331.679688 C 184.378906 332.464844 185.164062 333.21875 185.921875 333.957031 C 185.84375 334.074219 185.761719 334.1875 185.683594 334.304688 C 181.546875 340.5 180.460938 346.296875 182.355469 352.027344 C 183.339844 354.992188 186.210938 357.484375 187.402344 358.414062 C 187.636719 358.601562 189.097656 359.617188 189.097656 359.617188 L 192.054688 361.566406 C 192.054688 361.566406 195.351562 359.496094 195.59375 359.335938 C 198.007812 357.730469 200.933594 354.96875 201.910156 352.027344 C 204.367188 344.59375 201.367188 338.339844 198.34375 333.953125 C 199.101562 333.214844 199.886719 332.460938 200.703125 331.679688 C 206.910156 325.734375 213.332031 319.585938 213.332031 313.222656 C 213.332031 306.949219 210.4375 300.90625 204.515625 294.796875 C 213.011719 289.277344 224.40625 283.496094 228.808594 273.832031 C 231.992188 266.828125 230.679688 256.746094 227.644531 249.863281 C 226.296875 246.8125 224.371094 244.027344 222.136719 241.5625 C 221.042969 240.351562 213.941406 232.855469 212.433594 233.546875 C 226.644531 227.011719 239.4375 219.449219 238.664062 207.832031 C 237.6875 193.035156 231.089844 189.398438 221.964844 184.378906 C 221.203125 183.957031 220.113281 183.425781 218.675781 182.78125 C 232.886719 177.644531 245.871094 172.878906 250.066406 171.246094 C 258.152344 168.089844 266.914062 161.511719 266.914062 152.820312 C 266.914062 152.015625 266.839844 151.1875 266.679688 150.34375 C 264.8125 140.417969 251.78125 134.058594 234.242188 134.53125 " fill-opacity="1" fill-rule="nonzero"/></g><path fill="#040606" d="M 316.003906 75.835938 L 343.71875 85.078125 L 350.277344 87.265625 C 347.535156 89.953125 342.75 91.375 336.4375 91.375 C 332.824219 91.375 328.6875 90.910156 324.148438 89.992188 L 286.125 82.296875 L 321.578125 98.058594 C 323.070312 98.722656 324.472656 99.308594 325.773438 99.820312 C 322.878906 101.203125 319.203125 102.164062 314.824219 102.164062 C 311.453125 102.164062 307.867188 101.589844 304.175781 100.457031 L 266.859375 89.03125 L 300.832031 108.242188 C 301.585938 108.667969 302.292969 109.058594 302.957031 109.421875 C 300.9375 109.886719 298.550781 109.90625 295.890625 110.214844 C 283.101562 111.699219 272.007812 107.027344 272.007812 107.027344 L 277.765625 115.644531 C 277.308594 115.671875 276.832031 115.683594 276.347656 115.683594 C 270.40625 115.683594 264.449219 113.753906 258.632812 109.949219 L 235.777344 95 L 252.996094 116.199219 C 254.210938 117.695312 255.441406 119.136719 256.601562 120.449219 C 246.367188 121.253906 237.929688 113.457031 237.929688 113.457031 L 239.871094 123.375 C 228.851562 123.253906 224.082031 117.710938 224.082031 117.710938 C 224.082031 117.710938 223.652344 124.855469 224.375 125.867188 C 219.980469 123.878906 213.527344 118.457031 206.332031 104.21875 L 206.332031 87.320312 C 218.101562 85.914062 223.65625 82.464844 228.851562 73.921875 C 230.691406 70.902344 231.484375 67.324219 232.320312 63.535156 C 234.011719 55.890625 235.761719 47.980469 246.34375 43.097656 C 251.203125 40.851562 256.101562 39.714844 260.898438 39.714844 C 268.320312 39.714844 274.042969 42.363281 277.828125 44.113281 C 278.410156 44.382812 278.957031 44.636719 279.460938 44.859375 C 281.585938 45.785156 294.128906 51.21875 306.082031 55.171875 L 301.375 56 L 317.867188 61.253906 C 319.296875 61.710938 347.410156 70.617188 368.503906 73.691406 C 361.78125 75.65625 353.621094 76.800781 346.730469 76.800781 C 346.199219 76.800781 345.6875 76.792969 345.203125 76.777344 Z M 383.753906 70.324219 C 382.765625 70.417969 381.691406 70.464844 380.546875 70.464844 C 360.8125 70.464844 319.160156 57.195312 319.160156 57.195312 C 319.160156 57.195312 320.886719 56.851562 325.035156 55.121094 C 324.898438 55.128906 324.757812 55.128906 324.613281 55.128906 C 314.5625 55.128906 286.617188 43.339844 281.171875 40.957031 C 277.496094 39.347656 270.46875 35.453125 260.898438 35.453125 C 256.066406 35.453125 250.582031 36.445312 244.558594 39.230469 C 226.597656 47.519531 230.050781 63.761719 225.214844 71.707031 C 220.382812 79.65625 215.542969 82.417969 202.074219 83.457031 L 202.074219 105.222656 C 213.167969 127.65625 223.457031 131.207031 228.859375 131.207031 C 231.363281 131.207031 232.816406 130.445312 232.816406 130.445312 C 232.816406 130.445312 231.859375 128.96875 225.757812 120.484375 C 230.792969 127.386719 239.195312 128 244.636719 128 C 247.472656 128 249.394531 127.679688 249.394531 127.679688 C 249.394531 127.679688 249.394531 127.679688 241.105469 118.351562 C 246.683594 123.5625 253.363281 124.765625 258.34375 124.765625 C 262.609375 124.765625 265.628906 123.878906 265.628906 123.878906 C 265.628906 123.878906 260.792969 119.042969 256.300781 113.515625 C 263.933594 118.507812 270.878906 119.945312 276.347656 119.945312 C 283.738281 119.945312 288.421875 117.316406 288.421875 117.316406 C 288.421875 117.316406 288.421875 117.316406 276.332031 109.714844 C 283.816406 113.285156 290.417969 114.472656 295.890625 114.472656 C 306.84375 114.472656 313.289062 109.714844 313.289062 109.714844 C 313.289062 109.714844 310.871094 109.023438 302.929688 104.53125 C 307.289062 105.867188 311.261719 106.421875 314.824219 106.421875 C 325.089844 106.421875 331.972656 101.8125 335.050781 97.96875 C 335.050781 97.96875 335 97.972656 334.890625 97.972656 C 334.21875 97.972656 331.300781 97.71875 323.304688 94.167969 C 328.429688 95.203125 332.765625 95.632812 336.4375 95.632812 C 354.789062 95.632812 356.464844 84.835938 356.464844 84.835938 C 356.464844 84.835938 356.464844 84.835938 345.066406 81.035156 C 345.597656 81.054688 346.152344 81.0625 346.730469 81.0625 C 357.824219 81.0625 377.183594 77.878906 383.753906 70.324219 " fill-opacity="1" fill-rule="nonzero"/><path fill="#040606" d="M 38.839844 76.777344 C 38.355469 76.792969 37.84375 76.800781 37.3125 76.800781 C 30.421875 76.800781 22.261719 75.65625 15.535156 73.691406 C 36.632812 70.617188 64.746094 61.710938 66.171875 61.253906 L 82.667969 56 L 77.960938 55.171875 C 89.914062 51.21875 102.457031 45.785156 104.582031 44.859375 C 105.085938 44.636719 105.632812 44.382812 106.214844 44.113281 C 110 42.363281 115.722656 39.714844 123.144531 39.714844 C 127.941406 39.714844 132.839844 40.851562 137.699219 43.097656 C 148.28125 47.980469 150.03125 55.890625 151.722656 63.535156 C 152.558594 67.324219 153.351562 70.902344 155.1875 73.921875 C 160.386719 82.464844 165.941406 85.914062 177.710938 87.320312 L 177.710938 104.21875 C 170.515625 118.457031 164.0625 123.878906 159.667969 125.867188 C 160.390625 124.855469 159.960938 117.710938 159.960938 117.710938 C 159.960938 117.710938 155.191406 123.253906 144.171875 123.375 L 146.113281 113.457031 C 146.113281 113.457031 137.671875 121.253906 127.441406 120.449219 C 128.601562 119.136719 129.832031 117.695312 131.046875 116.199219 L 148.265625 95 L 125.410156 109.949219 C 119.59375 113.753906 113.632812 115.683594 107.695312 115.683594 C 107.210938 115.683594 106.734375 115.671875 106.277344 115.644531 L 112.03125 107.027344 C 112.03125 107.027344 100.941406 111.699219 88.148438 110.214844 C 85.492188 109.90625 83.101562 109.886719 81.085938 109.421875 C 81.75 109.058594 82.457031 108.664062 83.210938 108.242188 L 117.183594 89.03125 L 79.867188 100.457031 C 76.171875 101.589844 72.589844 102.164062 69.21875 102.164062 C 64.839844 102.164062 61.164062 101.203125 58.265625 99.820312 C 59.570312 99.308594 60.972656 98.722656 62.464844 98.058594 L 97.914062 82.296875 L 59.894531 89.992188 C 55.351562 90.910156 51.21875 91.375 47.605469 91.375 C 41.292969 91.375 36.507812 89.953125 33.765625 87.265625 L 40.324219 85.078125 L 68.039062 75.835938 Z M 37.3125 81.0625 C 37.890625 81.0625 38.445312 81.054688 38.976562 81.035156 C 27.578125 84.835938 27.578125 84.835938 27.578125 84.835938 C 27.578125 84.835938 29.253906 95.632812 47.605469 95.632812 C 51.277344 95.632812 55.613281 95.203125 60.734375 94.167969 C 52.742188 97.71875 49.824219 97.972656 49.152344 97.972656 C 49.042969 97.972656 48.992188 97.96875 48.992188 97.96875 C 52.070312 101.8125 58.953125 106.421875 69.21875 106.421875 C 72.78125 106.421875 76.753906 105.867188 81.113281 104.53125 C 73.167969 109.023438 70.753906 109.714844 70.753906 109.714844 C 70.753906 109.714844 77.199219 114.472656 88.148438 114.472656 C 93.625 114.472656 100.226562 113.285156 107.710938 109.714844 C 95.621094 117.316406 95.621094 117.316406 95.621094 117.316406 C 95.621094 117.316406 100.300781 119.945312 107.695312 119.945312 C 113.164062 119.945312 120.109375 118.507812 127.742188 113.515625 C 123.25 119.042969 118.414062 123.878906 118.414062 123.878906 C 118.414062 123.878906 121.433594 124.765625 125.699219 124.765625 C 130.675781 124.765625 137.359375 123.5625 142.9375 118.351562 C 134.648438 127.679688 134.648438 127.679688 134.648438 127.679688 C 134.648438 127.679688 136.570312 128 139.40625 128 C 144.847656 128 153.25 127.386719 158.285156 120.484375 C 152.183594 128.96875 151.226562 130.445312 151.226562 130.445312 C 151.226562 130.445312 152.679688 131.207031 155.183594 131.207031 C 160.585938 131.207031 170.875 127.65625 181.96875 105.222656 L 181.96875 83.457031 C 168.496094 82.417969 163.660156 79.65625 158.828125 71.707031 C 153.988281 63.761719 157.445312 47.519531 139.484375 39.230469 C 133.457031 36.445312 127.976562 35.453125 123.144531 35.453125 C 113.574219 35.453125 106.546875 39.347656 102.871094 40.957031 C 97.425781 43.339844 69.480469 55.128906 59.429688 55.128906 C 59.285156 55.128906 59.144531 55.128906 59.007812 55.121094 C 63.15625 56.847656 64.882812 57.195312 64.882812 57.195312 C 64.882812 57.195312 23.230469 70.464844 3.496094 70.464844 C 2.351562 70.464844 1.277344 70.417969 0.289062 70.324219 C 6.859375 77.878906 26.21875 81.0625 37.3125 81.0625 " fill-opacity="1" fill-rule="nonzero"/></svg>