<svg xmlns="http://www.w3.org/2000/svg" xmlns:xlink="http://www.w3.org/1999/xlink" width="512" zoomAndPan="magnify" viewBox="0 0 384 383.999986" height="512" preserveAspectRatio="xMidYMid meet" version="1.0"><defs><clipPath id="450562d625"><path d="M 279 23.519531 L 287 23.519531 L 287 38 L 279 38 Z M 279 23.519531 " clip-rule="nonzero"/></clipPath></defs><path fill="#ebe0e2" d="M 19.925781 256.371094 C 19.925781 256.371094 32.339844 201.0625 116.128906 206.230469 C 140.953125 207.78125 173.539062 246.03125 174.054688 294.105469 C 174.574219 332.355469 118.714844 360.269531 81.476562 357.167969 C 46.304688 354.066406 4.410156 302.890625 19.925781 256.371094 " fill-opacity="1" fill-rule="nonzero"/><path fill="#ebe0e2" d="M 201.289062 104.707031 C 201.289062 104.707031 213.703125 49.398438 297.492188 54.566406 C 322.316406 56.117188 354.898438 94.367188 355.417969 142.441406 C 355.933594 180.691406 300.074219 208.605469 262.835938 205.503906 C 227.664062 202.402344 185.769531 151.230469 201.289062 104.707031 " fill-opacity="1" fill-rule="nonzero"/><path fill="#ebe0e2" d="M 65.210938 95.941406 C 65.210938 95.941406 72.667969 62.726562 122.988281 65.828125 C 137.898438 66.761719 157.464844 89.730469 157.777344 118.605469 C 158.089844 141.574219 124.539062 158.339844 102.175781 156.476562 C 81.054688 154.613281 55.894531 123.882812 65.210938 95.941406 " fill-opacity="1" fill-rule="nonzero"/><path fill="#ebe0e2" d="M 270.359375 186.664062 C 270.359375 186.664062 277.816406 153.445312 328.136719 156.550781 C 343.046875 157.480469 362.617188 180.453125 362.925781 209.324219 C 363.238281 232.296875 329.691406 249.0625 307.324219 247.199219 C 286.203125 245.335938 261.042969 214.601562 270.359375 186.664062 " fill-opacity="1" fill-rule="nonzero"/><path fill="#f2592b" d="M 288.648438 266.574219 C 288.648438 266.574219 296.289062 232.515625 347.890625 235.699219 C 363.179688 236.652344 383.246094 260.207031 383.5625 289.8125 C 383.882812 313.371094 349.484375 330.558594 326.550781 328.648438 C 304.890625 326.738281 279.09375 295.226562 288.648438 266.574219 " fill-opacity="1" fill-rule="nonzero"/><path fill="#738323" d="M 354.460938 244.925781 C 354.460938 244.925781 354.613281 242.5625 358.359375 243.804688 C 362.101562 245.042969 366.761719 249.238281 366.878906 252.035156 C 367 254.832031 358.761719 252.683594 354.460938 244.925781 " fill-opacity="1" fill-rule="nonzero"/><path fill="#91a321" d="M 357.804688 245.164062 C 357.804688 245.164062 357.085938 245.878906 359.773438 248.566406 C 362.460938 251.25 364.433594 250.296875 364.433594 250.296875 C 364.433594 250.296875 362.640625 247.550781 364.433594 245.878906 C 365.148438 245.042969 362.640625 243.804688 362.640625 243.804688 C 362.640625 243.804688 361.449219 247.011719 357.804688 245.164062 " fill-opacity="1" fill-rule="nonzero"/><path fill="#a5a7a6" d="M 330.132812 328.792969 C 352.894531 328.792969 383.867188 312.171875 383.566406 289.8125 C 383.503906 284.378906 382.78125 279.148438 381.542969 274.222656 C 382.78125 279.148438 383.503906 284.378906 383.566406 289.8125 C 383.867188 312.171875 352.894531 328.796875 330.132812 328.792969 M 381.542969 274.21875 C 381.542969 274.210938 381.539062 274.195312 381.535156 274.1875 C 381.539062 274.195312 381.542969 274.210938 381.542969 274.21875 M 381.535156 274.175781 C 381.53125 274.167969 381.527344 274.160156 381.527344 274.152344 C 381.527344 274.160156 381.53125 274.167969 381.535156 274.175781 M 381.519531 274.128906 C 381.519531 274.125 381.519531 274.121094 381.519531 274.117188 C 381.519531 274.121094 381.519531 274.125 381.519531 274.128906 M 381.511719 274.085938 C 381.511719 274.085938 381.511719 274.082031 381.507812 274.082031 L 381.511719 274.085938 " fill-opacity="1" fill-rule="nonzero"/><path fill="#f04127" d="M 330.132812 328.792969 C 328.914062 328.792969 327.71875 328.746094 326.550781 328.648438 C 315.703125 327.695312 303.820312 319.3125 295.855469 307.585938 C 306.503906 311.136719 320.625 313.878906 328.425781 313.878906 C 330.3125 313.878906 331.832031 313.71875 332.839844 313.371094 C 339.769531 310.984375 363.65625 292.839844 362.222656 279.707031 C 359.628906 257.15625 353.800781 243.554688 349.011719 235.816406 C 361.269531 237.429688 376.136719 252.90625 381.507812 274.082031 C 381.511719 274.082031 381.511719 274.085938 381.511719 274.085938 C 381.511719 274.097656 381.511719 274.105469 381.519531 274.117188 C 381.519531 274.121094 381.519531 274.125 381.519531 274.128906 C 381.523438 274.136719 381.527344 274.144531 381.527344 274.152344 C 381.527344 274.160156 381.53125 274.167969 381.535156 274.175781 C 381.535156 274.179688 381.535156 274.183594 381.535156 274.1875 C 381.539062 274.195312 381.542969 274.210938 381.542969 274.21875 C 381.542969 274.222656 381.542969 274.222656 381.542969 274.222656 C 382.78125 279.148438 383.503906 284.378906 383.566406 289.8125 C 383.867188 312.171875 352.894531 328.792969 330.132812 328.792969 M 368.199219 253.207031 C 368.199219 253.207031 374.648438 287.347656 371.300781 296.179688 C 367.957031 305.015625 359.597656 314.5625 334.035156 325.546875 C 347.410156 325.066406 377.753906 311.9375 378.945312 295.703125 C 380.617188 273.738281 368.199219 253.207031 368.199219 253.207031 M 356.457031 243.441406 C 354.554688 243.441406 354.460938 244.921875 354.460938 244.921875 C 357.566406 250.527344 362.730469 253.207031 365.3125 253.207031 C 366.304688 253.207031 366.917969 252.8125 366.878906 252.035156 C 366.820312 250.5625 365.496094 248.703125 363.714844 247.089844 C 363.824219 246.660156 364.042969 246.242188 364.433594 245.878906 C 365.152344 245.042969 362.644531 243.800781 362.644531 243.800781 C 362.644531 243.800781 362.292969 244.742188 361.398438 245.308594 C 360.386719 244.65625 359.339844 244.128906 358.359375 243.800781 C 357.582031 243.542969 356.957031 243.441406 356.457031 243.441406 " fill-opacity="1" fill-rule="nonzero"/><path fill="#515c1f" d="M 365.3125 253.207031 C 362.726562 253.207031 357.566406 250.527344 354.460938 244.925781 C 354.460938 244.925781 354.554688 243.441406 356.457031 243.441406 C 356.957031 243.441406 357.582031 243.542969 358.359375 243.804688 C 359.339844 244.128906 360.386719 244.65625 361.398438 245.3125 C 361.007812 245.558594 360.511719 245.738281 359.894531 245.738281 C 359.308594 245.738281 358.617188 245.578125 357.804688 245.164062 C 357.804688 245.164062 357.085938 245.878906 359.773438 248.566406 C 361.347656 250.132812 362.671875 250.460938 363.5 250.460938 C 364.09375 250.460938 364.433594 250.296875 364.433594 250.296875 C 364.433594 250.296875 363.339844 248.621094 363.714844 247.089844 C 365.496094 248.703125 366.816406 250.5625 366.878906 252.035156 C 366.914062 252.8125 366.300781 253.207031 365.3125 253.207031 " fill-opacity="1" fill-rule="nonzero"/><path fill="#738323" d="M 363.503906 250.460938 C 362.671875 250.460938 361.34375 250.132812 359.773438 248.566406 C 357.085938 245.878906 357.804688 245.164062 357.804688 245.164062 C 358.621094 245.578125 359.308594 245.738281 359.894531 245.738281 C 360.511719 245.738281 361.003906 245.558594 361.398438 245.3125 C 362.292969 244.742188 362.640625 243.804688 362.640625 243.804688 C 362.640625 243.804688 365.148438 245.042969 364.433594 245.878906 C 364.039062 246.246094 363.820312 246.660156 363.714844 247.089844 C 363.339844 248.621094 364.433594 250.296875 364.433594 250.296875 C 364.433594 250.296875 364.09375 250.460938 363.503906 250.460938 " fill-opacity="1" fill-rule="nonzero"/><path fill="#f5752f" d="M 308.570312 291.359375 C 307.640625 291.359375 306.804688 291.296875 306.085938 291.167969 C 298.203125 289.734375 291.992188 272.929688 292.46875 269.039062 C 292.949219 265.144531 299.15625 254.636719 299.15625 254.636719 C 299.15625 254.636719 304.652344 247.953125 320.417969 246.761719 C 320.839844 246.726562 321.25 246.714844 321.652344 246.714844 C 336.410156 246.714844 340.429688 267.539062 338.335938 276.601562 C 336.382812 285.066406 317.847656 291.359375 308.570312 291.359375 M 310.375 272.386719 C 307.492188 272.386719 303.640625 275.648438 303.640625 275.648438 C 303.640625 275.648438 303.457031 280.835938 306.484375 282.140625 C 306.863281 282.304688 307.257812 282.378906 307.660156 282.378906 C 310.445312 282.378906 313.492188 278.894531 313.492188 278.894531 C 313.492188 278.894531 315.960938 275.332031 311.582031 272.625 C 311.210938 272.460938 310.804688 272.386719 310.375 272.386719 M 315.199219 254.945312 C 309.535156 254.945312 303.777344 260.6875 303.777344 260.6875 C 303.777344 260.6875 302.503906 268.167969 307.757812 269.039062 C 308.058594 269.085938 308.371094 269.109375 308.691406 269.109375 C 313.988281 269.109375 321.773438 262.726562 321.773438 262.277344 C 321.773438 261.800781 321.453125 255.273438 315.648438 254.957031 C 315.5 254.949219 315.351562 254.945312 315.199219 254.945312 " fill-opacity="1" fill-rule="nonzero"/><path fill="#f89c36" d="M 308.691406 269.109375 C 308.367188 269.109375 308.058594 269.085938 307.757812 269.039062 C 302.5 268.167969 303.777344 260.6875 303.777344 260.6875 C 303.777344 260.6875 309.53125 254.945312 315.199219 254.945312 C 315.351562 254.945312 315.496094 254.949219 315.648438 254.957031 C 321.453125 255.273438 321.773438 261.800781 321.773438 262.277344 C 321.773438 262.730469 313.984375 269.109375 308.691406 269.109375 " fill-opacity="1" fill-rule="nonzero"/><path fill="#f89c36" d="M 307.65625 282.378906 C 307.257812 282.378906 306.863281 282.304688 306.484375 282.140625 C 303.457031 280.835938 303.640625 275.648438 303.640625 275.648438 C 303.640625 275.648438 307.488281 272.386719 310.375 272.386719 C 310.804688 272.386719 311.210938 272.460938 311.582031 272.625 C 315.957031 275.332031 313.492188 278.894531 313.492188 278.894531 C 313.492188 278.894531 310.445312 282.378906 307.65625 282.378906 " fill-opacity="1" fill-rule="nonzero"/><path fill="#ef3224" d="M 334.035156 325.546875 C 359.59375 314.566406 367.957031 305.015625 371.300781 296.179688 C 374.644531 287.347656 368.195312 253.207031 368.195312 253.207031 C 368.195312 253.207031 380.617188 273.738281 378.945312 295.703125 C 377.75 311.9375 347.414062 325.066406 334.035156 325.546875 " fill-opacity="1" fill-rule="nonzero"/><path fill="#ebe0e2" d="M 160.152344 61.96875 C 160.152344 61.96875 162.738281 50.4375 180.207031 51.515625 C 185.382812 51.839844 192.179688 59.8125 192.285156 69.835938 C 192.394531 77.8125 180.746094 83.628906 172.984375 82.984375 C 165.652344 82.335938 156.917969 71.667969 160.152344 61.96875 " fill-opacity="1" fill-rule="nonzero"/><path fill="#ebe0e2" d="M 258.507812 323.527344 C 258.507812 323.527344 261.09375 311.996094 278.5625 313.070312 C 283.738281 313.394531 290.53125 321.371094 290.640625 331.390625 C 290.746094 339.367188 279.101562 345.1875 271.339844 344.542969 C 264.003906 343.894531 255.269531 333.226562 258.507812 323.527344 " fill-opacity="1" fill-rule="nonzero"/><path fill="#f2592b" d="M 261.949219 145.699219 C 261.949219 145.699219 263.007812 140.992188 270.132812 141.433594 C 272.246094 141.566406 275.019531 144.816406 275.0625 148.910156 C 275.109375 152.164062 270.355469 154.539062 267.1875 154.277344 C 264.191406 154.011719 260.628906 149.65625 261.949219 145.699219 " fill-opacity="1" fill-rule="nonzero"/><path fill="#e8a81b" d="M 123.703125 270.539062 C 123.703125 270.539062 124.761719 265.832031 131.890625 266.273438 C 134 266.40625 136.773438 269.660156 136.820312 273.75 C 136.863281 277.003906 132.109375 279.382812 128.941406 279.117188 C 125.949219 278.851562 122.382812 274.5 123.703125 270.539062 " fill-opacity="1" fill-rule="nonzero"/><path fill="#738323" d="M 267.410156 239.710938 C 267.410156 239.710938 267.941406 237.351562 271.515625 237.570312 C 272.574219 237.636719 273.964844 239.269531 273.988281 241.320312 C 274.007812 242.953125 271.625 244.144531 270.035156 244.011719 C 268.535156 243.878906 266.746094 241.695312 267.410156 239.710938 " fill-opacity="1" fill-rule="nonzero"/><path fill="#738323" d="M 102.59375 127.09375 C 102.59375 127.09375 103.121094 124.734375 106.695312 124.953125 C 107.757812 125.019531 109.144531 126.652344 109.167969 128.703125 C 109.191406 130.335938 106.808594 131.523438 105.21875 131.394531 C 103.71875 131.261719 101.929688 129.078125 102.59375 127.09375 " fill-opacity="1" fill-rule="nonzero"/><path fill="#f2592b" d="M 133.601562 174.398438 C 133.601562 174.398438 134.132812 172.039062 137.707031 172.261719 C 138.765625 172.328125 140.15625 173.960938 140.179688 176.011719 C 140.199219 177.644531 137.816406 178.835938 136.226562 178.703125 C 134.726562 178.570312 132.9375 176.386719 133.601562 174.398438 " fill-opacity="1" fill-rule="nonzero"/><path fill="#e8a81b" d="M 245.195312 63.292969 C 245.195312 63.292969 250.378906 40.1875 285.382812 42.347656 C 295.753906 42.992188 309.367188 58.976562 309.582031 79.058594 C 309.796875 95.039062 286.460938 106.699219 270.90625 105.402344 C 256.210938 104.109375 238.710938 82.730469 245.195312 63.292969 " fill-opacity="1" fill-rule="nonzero"/><path fill="#e4d7da" d="M 273.332031 105.503906 C 288.773438 105.503906 309.785156 94.226562 309.582031 79.058594 C 309.539062 74.960938 308.9375 71.035156 307.917969 67.371094 C 308.9375 71.035156 309.539062 74.960938 309.582031 79.058594 C 309.785156 94.226562 288.773438 105.503906 273.332031 105.503906 M 307.914062 67.367188 C 307.910156 67.351562 307.90625 67.335938 307.902344 67.324219 C 307.910156 67.335938 307.910156 67.351562 307.914062 67.367188 M 307.898438 67.308594 C 307.894531 67.292969 307.890625 67.285156 307.886719 67.273438 C 307.890625 67.285156 307.894531 67.292969 307.898438 67.308594 M 307.878906 67.25 C 307.878906 67.238281 307.875 67.230469 307.875 67.222656 C 307.875 67.230469 307.878906 67.238281 307.878906 67.25 M 307.867188 67.191406 C 307.863281 67.183594 307.863281 67.179688 307.859375 67.171875 C 307.863281 67.179688 307.863281 67.183594 307.867188 67.191406 M 307.847656 67.136719 C 307.847656 67.132812 307.847656 67.125 307.847656 67.121094 C 307.847656 67.125 307.847656 67.132812 307.847656 67.136719 M 307.832031 67.082031 C 307.832031 67.078125 307.832031 67.074219 307.832031 67.070312 C 307.832031 67.074219 307.832031 67.078125 307.832031 67.082031 M 307.820312 67.023438 L 307.816406 67.023438 C 307.816406 67.023438 307.816406 67.023438 307.820312 67.023438 " fill-opacity="1" fill-rule="nonzero"/><path fill="#e58e1a" d="M 273.332031 105.503906 C 272.507812 105.503906 271.695312 105.472656 270.90625 105.40625 C 263.546875 104.757812 255.480469 99.070312 250.082031 91.117188 C 257.304688 93.523438 266.882812 95.386719 272.175781 95.382812 C 273.457031 95.382812 274.484375 95.277344 275.171875 95.039062 C 279.871094 93.421875 296.074219 81.113281 295.105469 72.203125 C 293.34375 56.90625 289.390625 47.679688 286.140625 42.429688 C 294.1875 43.488281 303.898438 53.359375 307.816406 67.023438 L 307.820312 67.023438 C 307.820312 67.039062 307.828125 67.058594 307.832031 67.070312 C 307.832031 67.074219 307.832031 67.078125 307.832031 67.082031 C 307.839844 67.09375 307.84375 67.109375 307.847656 67.121094 C 307.847656 67.125 307.847656 67.132812 307.847656 67.136719 C 307.851562 67.144531 307.855469 67.160156 307.859375 67.171875 C 307.863281 67.179688 307.863281 67.183594 307.867188 67.191406 C 307.871094 67.203125 307.871094 67.210938 307.875 67.222656 C 307.875 67.230469 307.878906 67.238281 307.878906 67.25 C 307.886719 67.257812 307.886719 67.265625 307.886719 67.273438 C 307.890625 67.285156 307.894531 67.292969 307.898438 67.308594 C 307.898438 67.3125 307.902344 67.320312 307.902344 67.324219 C 307.90625 67.335938 307.910156 67.351562 307.914062 67.367188 C 307.914062 67.371094 307.917969 67.371094 307.917969 67.371094 C 308.9375 71.035156 309.539062 74.960938 309.582031 79.058594 C 309.785156 94.226562 288.773438 105.503906 273.332031 105.503906 M 299.15625 54.226562 C 299.15625 54.226562 303.53125 77.386719 301.261719 83.378906 C 298.992188 89.371094 293.320312 95.847656 275.980469 103.300781 C 285.054688 102.976562 305.636719 94.066406 306.445312 83.054688 C 307.582031 68.152344 299.15625 54.226562 299.15625 54.226562 " fill-opacity="1" fill-rule="nonzero"/><path fill="#ebc31f" d="M 258.707031 80.109375 C 258.074219 80.109375 257.507812 80.066406 257.019531 79.980469 C 251.671875 79.007812 247.460938 67.605469 247.78125 64.964844 C 248.109375 62.324219 252.320312 55.199219 252.320312 55.199219 C 252.320312 55.199219 256.046875 50.664062 266.742188 49.855469 C 267.027344 49.832031 267.308594 49.820312 267.582031 49.820312 C 277.589844 49.820312 280.316406 63.949219 278.898438 70.097656 C 277.574219 75.839844 265 80.109375 258.707031 80.109375 M 259.929688 67.238281 C 257.972656 67.238281 255.363281 69.449219 255.363281 69.449219 C 255.363281 69.449219 255.238281 72.96875 257.292969 73.855469 C 257.546875 73.96875 257.816406 74.015625 258.085938 74.015625 C 259.980469 74.015625 262.046875 71.652344 262.046875 71.652344 C 262.046875 71.652344 263.71875 69.234375 260.75 67.398438 C 260.496094 67.289062 260.222656 67.238281 259.929688 67.238281 M 263.203125 55.40625 C 259.359375 55.40625 255.453125 59.300781 255.453125 59.300781 C 255.453125 59.300781 254.589844 64.375 258.15625 64.964844 C 258.359375 65 258.570312 65.015625 258.789062 65.015625 C 262.382812 65.015625 267.664062 60.6875 267.664062 60.378906 C 267.664062 60.058594 267.445312 55.628906 263.507812 55.414062 C 263.40625 55.40625 263.304688 55.40625 263.203125 55.40625 " fill-opacity="1" fill-rule="nonzero"/><path fill="#edd922" d="M 258.789062 65.015625 C 258.570312 65.015625 258.359375 65 258.15625 64.964844 C 254.589844 64.375 255.453125 59.300781 255.453125 59.300781 C 255.453125 59.300781 259.359375 55.40625 263.203125 55.40625 C 263.304688 55.40625 263.40625 55.40625 263.507812 55.414062 C 267.445312 55.628906 267.664062 60.054688 267.664062 60.378906 C 267.664062 60.6875 262.382812 65.015625 258.789062 65.015625 " fill-opacity="1" fill-rule="nonzero"/><path fill="#edd922" d="M 258.089844 74.011719 C 257.816406 74.011719 257.550781 73.964844 257.292969 73.851562 C 255.238281 72.96875 255.363281 69.449219 255.363281 69.449219 C 255.363281 69.449219 257.972656 67.238281 259.933594 67.238281 C 260.222656 67.238281 260.5 67.285156 260.75 67.398438 C 263.71875 69.234375 262.046875 71.652344 262.046875 71.652344 C 262.046875 71.652344 259.980469 74.011719 258.089844 74.011719 " fill-opacity="1" fill-rule="nonzero"/><path fill="#e36f19" d="M 275.984375 103.300781 C 293.320312 95.847656 298.992188 89.371094 301.261719 83.378906 C 303.53125 77.382812 299.15625 54.226562 299.15625 54.226562 C 299.15625 54.226562 307.582031 68.152344 306.449219 83.054688 C 305.640625 94.066406 285.058594 102.976562 275.984375 103.300781 " fill-opacity="1" fill-rule="nonzero"/><g clip-path="url(#450562d625)"><path fill="#e8a81b" d="M 280.011719 36.746094 C 280.011719 36.746094 278.621094 29.21875 279.394531 26.820312 C 280.167969 24.429688 284.617188 23.515625 284.617188 23.515625 C 284.617188 23.515625 285.988281 24.769531 286.328125 26.140625 C 286.671875 27.507812 283.476562 36.746094 283.476562 36.746094 C 283.476562 36.746094 281.453125 38.113281 280.011719 36.746094 " fill-opacity="1" fill-rule="nonzero"/></g><path fill="#e8a81b" d="M 252.785156 45.273438 C 252.785156 45.273438 246.476562 40.929688 245.324219 38.691406 C 244.175781 36.453125 246.679688 32.660156 246.679688 32.660156 C 246.679688 32.660156 248.535156 32.578125 249.746094 33.304688 C 250.957031 34.03125 255.234375 42.824219 255.234375 42.824219 C 255.234375 42.824219 254.769531 45.21875 252.785156 45.273438 " fill-opacity="1" fill-rule="nonzero"/><path fill="#e8a81b" d="M 239.5625 70.539062 C 239.5625 70.539062 232.03125 71.929688 229.632812 71.15625 C 227.234375 70.382812 226.324219 65.9375 226.324219 65.9375 C 226.324219 65.9375 227.578125 64.566406 228.949219 64.226562 C 230.316406 63.882812 239.5625 67.074219 239.5625 67.074219 C 239.5625 67.074219 240.933594 69.097656 239.5625 70.539062 " fill-opacity="1" fill-rule="nonzero"/><path fill="#e8a81b" d="M 248.09375 97.75 C 248.09375 97.75 243.75 104.054688 241.507812 105.203125 C 239.265625 106.351562 235.472656 103.847656 235.472656 103.847656 C 235.472656 103.847656 235.390625 101.996094 236.121094 100.785156 C 236.84375 99.574219 245.640625 95.300781 245.640625 95.300781 C 245.640625 95.300781 248.042969 95.761719 248.09375 97.75 " fill-opacity="1" fill-rule="nonzero"/><path fill="#e8a81b" d="M 273.375 110.960938 C 273.375 110.960938 274.765625 118.492188 273.988281 120.886719 C 273.21875 123.28125 268.769531 124.195312 268.769531 124.195312 C 268.769531 124.195312 267.398438 122.9375 267.054688 121.570312 C 266.714844 120.203125 269.90625 110.960938 269.90625 110.960938 C 269.90625 110.960938 271.933594 109.59375 273.375 110.960938 " fill-opacity="1" fill-rule="nonzero"/><path fill="#e8a81b" d="M 300.601562 102.4375 C 300.601562 102.4375 306.910156 106.777344 308.058594 109.019531 C 309.207031 111.257812 306.707031 115.050781 306.707031 115.050781 C 306.707031 115.050781 304.847656 115.128906 303.640625 114.402344 C 302.425781 113.679688 298.152344 104.886719 298.152344 104.886719 C 298.152344 104.886719 298.613281 102.488281 300.601562 102.4375 " fill-opacity="1" fill-rule="nonzero"/><path fill="#e8a81b" d="M 313.820312 77.171875 C 313.820312 77.171875 321.355469 75.78125 323.753906 76.554688 C 326.148438 77.328125 327.058594 81.777344 327.058594 81.777344 C 327.058594 81.777344 325.804688 83.144531 324.433594 83.484375 C 323.066406 83.828125 313.820312 80.632812 313.820312 80.632812 C 313.820312 80.632812 312.449219 78.613281 313.820312 77.171875 " fill-opacity="1" fill-rule="nonzero"/><path fill="#e8a81b" d="M 305.292969 49.957031 C 305.292969 49.957031 309.636719 43.652344 311.878906 42.507812 C 314.121094 41.359375 317.914062 43.859375 317.914062 43.859375 C 317.914062 43.859375 317.996094 45.714844 317.269531 46.921875 C 316.539062 48.132812 307.742188 52.410156 307.742188 52.410156 C 307.742188 52.410156 305.347656 51.945312 305.292969 49.957031 " fill-opacity="1" fill-rule="nonzero"/><path fill="#c7b4b8" d="M 250.710938 203.296875 C 245.5625 191.390625 230.171875 181.246094 230.171875 181.246094 L 230.171875 175.617188 L 199.53125 170.683594 L 168.894531 175.617188 L 168.894531 181.246094 C 168.894531 181.246094 153.5 191.390625 148.351562 203.296875 C 146.292969 217.703125 150.265625 294.136719 152.324219 300.015625 C 157.027344 307.070312 177.613281 310.894531 199.53125 310.894531 C 221.449219 310.894531 242.03125 307.070312 246.742188 300.015625 C 248.800781 294.136719 252.769531 217.703125 250.710938 203.296875 " fill-opacity="1" fill-rule="nonzero"/><path fill="#91a321" d="M 147.871094 210.480469 C 147.269531 231.09375 149.683594 279.308594 151.527344 295.191406 C 159.085938 298.347656 174.5 303.054688 199.53125 303.25 C 225.308594 303.449219 240.617188 297.226562 247.75 293.246094 C 249.632812 274.949219 251.957031 226.460938 251.105469 208.125 C 243.539062 211.859375 228.160156 217.476562 199.53125 217.699219 C 166.925781 218.835938 152.675781 213.136719 147.871094 210.480469 " fill-opacity="1" fill-rule="nonzero"/><path fill="#596620" d="M 198.125 276.972656 L 189.257812 276.972656 C 186.804688 276.972656 185.09375 276.558594 184.121094 275.722656 C 183.148438 274.886719 182.664062 273.261719 182.664062 270.851562 L 182.664062 241.230469 C 182.664062 238.703125 183.148438 236.933594 184.121094 235.921875 C 185.09375 234.914062 186.84375 234.40625 189.371094 234.40625 L 197.132812 234.40625 C 202.503906 234.40625 206.742188 235.398438 209.851562 237.378906 C 212.769531 239.246094 215.027344 241.832031 216.621094 245.136719 C 218.140625 248.246094 218.898438 251.609375 218.898438 255.222656 C 218.898438 261.753906 217.085938 266.984375 213.472656 270.910156 C 209.738281 274.953125 204.621094 276.972656 198.125 276.972656 M 192.347656 243.445312 L 192.347656 268.054688 L 196.785156 268.054688 C 204.484375 268.054688 208.335938 263.765625 208.335938 255.195312 C 208.335938 247.363281 204.425781 243.445312 196.609375 243.445312 L 192.347656 243.445312 " fill-opacity="1" fill-rule="nonzero"/><path fill="#a5a7a6" d="M 199.53125 310.894531 C 189.445312 310.894531 179.644531 310.085938 171.539062 308.523438 C 179.644531 310.085938 189.445312 310.894531 199.53125 310.894531 " fill-opacity="1" fill-rule="nonzero"/><path fill="#e4d7da" d="M 171.539062 308.523438 C 162.03125 306.691406 154.863281 303.824219 152.324219 300.015625 C 152.3125 299.992188 152.304688 299.964844 152.296875 299.933594 C 152.304688 299.964844 152.3125 299.992188 152.324219 300.015625 C 154.863281 303.824219 162.03125 306.691406 171.539062 308.523438 " fill-opacity="1" fill-rule="nonzero"/><path fill="#e4d7da" d="M 152.296875 299.933594 C 152.292969 299.929688 152.292969 299.929688 152.292969 299.925781 C 152.292969 299.929688 152.292969 299.929688 152.296875 299.933594 M 152.292969 299.925781 C 152.289062 299.921875 152.289062 299.917969 152.289062 299.917969 C 152.289062 299.917969 152.289062 299.921875 152.292969 299.925781 M 152.289062 299.914062 C 152.289062 299.910156 152.289062 299.910156 152.285156 299.90625 C 152.289062 299.910156 152.289062 299.910156 152.289062 299.914062 M 152.285156 299.902344 C 152.285156 299.902344 152.285156 299.898438 152.285156 299.898438 C 152.285156 299.898438 152.285156 299.902344 152.285156 299.902344 M 152.28125 299.890625 L 152.28125 299.890625 " fill-opacity="1" fill-rule="nonzero"/><path fill="#b79fa6" d="M 199.53125 310.894531 C 189.445312 310.894531 179.644531 310.085938 171.539062 308.523438 C 162.03125 306.691406 154.863281 303.824219 152.324219 300.015625 C 152.3125 299.992188 152.304688 299.964844 152.296875 299.933594 C 152.292969 299.929688 152.292969 299.929688 152.292969 299.925781 C 152.292969 299.921875 152.292969 299.917969 152.289062 299.917969 C 152.289062 299.917969 152.289062 299.914062 152.289062 299.914062 C 152.289062 299.910156 152.289062 299.910156 152.285156 299.90625 C 152.285156 299.90625 152.285156 299.902344 152.285156 299.902344 C 152.285156 299.902344 152.285156 299.898438 152.285156 299.898438 C 152.28125 299.898438 152.28125 299.894531 152.28125 299.890625 C 152.042969 299.113281 151.78125 297.425781 151.507812 295.039062 C 151.511719 295.089844 151.519531 295.140625 151.527344 295.191406 C 159.085938 298.347656 174.5 303.054688 199.53125 303.25 C 199.9375 303.253906 200.34375 303.253906 200.742188 303.253906 C 208.277344 303.253906 214.898438 302.703125 220.664062 301.828125 C 219.898438 303.863281 219.445312 304.957031 219.445312 304.957031 C 219.445312 304.957031 228.910156 304.660156 239.5 300.839844 C 240.050781 300.027344 240.59375 298.5 241.117188 296.398438 C 243.828125 295.300781 246.023438 294.207031 247.75 293.246094 C 249.632812 274.949219 251.957031 226.460938 251.105469 208.125 C 250.160156 208.59375 249.097656 209.085938 247.902344 209.597656 C 247.832031 206.992188 247.679688 205.152344 247.441406 204.324219 C 245.382812 197.175781 228.292969 182.210938 228.292969 182.210938 L 226.183594 184.71875 C 226.183594 184.71875 236.398438 189.875 239.203125 206.175781 C 239.191406 208.367188 239.144531 210.550781 239.066406 212.722656 C 236.464844 213.480469 233.527344 214.210938 230.226562 214.867188 C 230.367188 212.144531 230.402344 210.585938 230.402344 210.585938 C 230.402344 210.585938 230.085938 191.773438 216.917969 183.835938 C 211.179688 184.539062 205.664062 184.8125 200.550781 184.8125 C 182.136719 184.8125 168.894531 181.246094 168.894531 181.246094 L 168.894531 176.695312 C 174.535156 177.761719 185.679688 178.488281 198.503906 178.488281 C 213.148438 178.488281 225.597656 177.542969 230.171875 176.222656 L 230.171875 181.246094 C 230.171875 181.246094 245.5625 191.390625 250.710938 203.296875 C 252.769531 217.703125 248.800781 294.136719 246.742188 300.015625 C 246.679688 300.105469 246.617188 300.195312 246.554688 300.28125 C 241.511719 307.167969 221.171875 310.894531 199.53125 310.894531 " fill-opacity="1" fill-rule="nonzero"/><path fill="#738323" d="M 200.742188 303.253906 C 200.34375 303.253906 199.9375 303.253906 199.53125 303.25 C 174.5 303.054688 159.085938 298.347656 151.527344 295.191406 C 151.519531 295.140625 151.515625 295.089844 151.507812 295.039062 C 160.273438 296.5625 182.546875 300.152344 197.410156 300.152344 C 201.78125 300.152344 205.515625 299.839844 208.070312 299.074219 C 225.714844 277.761719 229.480469 229.488281 230.230469 214.867188 C 233.527344 214.210938 236.464844 213.480469 239.066406 212.722656 C 237.578125 254 224.722656 291.070312 220.664062 301.824219 C 214.898438 302.703125 208.28125 303.253906 200.742188 303.253906 M 241.117188 296.398438 C 245.28125 279.753906 248.398438 227.160156 247.90625 209.59375 C 249.101562 209.085938 250.164062 208.589844 251.105469 208.125 C 251.957031 226.460938 249.632812 274.949219 247.75 293.246094 C 246.027344 294.207031 243.828125 295.300781 241.117188 296.398438 " fill-opacity="1" fill-rule="nonzero"/><path fill="#91a321" d="M 232.039062 147.292969 C 215.269531 147.242188 175.855469 147.292969 175.855469 147.292969 L 164.96875 147.292969 C 164.96875 147.292969 160.753906 160.636719 164.96875 175.109375 C 164.96875 176.976562 179.984375 178.488281 198.503906 178.488281 C 217.023438 178.488281 232.039062 176.976562 232.039062 175.109375 C 232.039062 175.109375 234.488281 154.988281 232.039062 147.292969 " fill-opacity="1" fill-rule="nonzero"/><path fill="#738323" d="M 166.730469 172.46875 C 166.179688 170.363281 165.824219 166.855469 165.824219 162.882812 C 165.824219 156.4375 166.765625 151.21875 167.929688 151.21875 C 168.5 151.21875 169.011719 152.453125 169.390625 154.460938 C 168.878906 154.320312 168.390625 154.164062 167.933594 153.996094 C 167.933594 153.996094 167.847656 162.667969 167.933594 166.785156 C 168.421875 167.050781 169.082031 167.261719 169.875 167.429688 C 169.71875 169.429688 169.46875 171.144531 169.152344 172.390625 C 168.308594 172.417969 167.496094 172.445312 166.730469 172.46875 M 173.191406 172.25 C 172.964844 171.015625 172.789062 169.503906 172.683594 167.808594 C 173.898438 167.90625 175.242188 167.953125 176.652344 167.960938 C 176.550781 169.539062 176.382812 170.957031 176.175781 172.128906 C 175.160156 172.175781 174.160156 172.210938 173.191406 172.25 M 179.789062 171.972656 C 179.609375 170.796875 179.476562 169.425781 179.394531 167.933594 C 180.742188 167.898438 182.105469 167.84375 183.441406 167.769531 C 183.363281 169.257812 183.234375 170.628906 183.066406 171.8125 C 181.964844 171.867188 180.867188 171.921875 179.789062 171.972656 M 186.417969 171.625 C 186.269531 170.429688 186.160156 169.066406 186.101562 167.601562 C 187.59375 167.496094 188.996094 167.378906 190.222656 167.265625 C 190.171875 168.769531 190.066406 170.171875 189.917969 171.410156 C 188.757812 171.488281 187.585938 171.558594 186.417969 171.625 M 193.109375 171.191406 C 192.964844 169.9375 192.867188 168.523438 192.820312 167.011719 C 194.117188 166.878906 194.898438 166.785156 194.898438 166.785156 L 194.898438 155.761719 C 194.898438 155.761719 194.425781 155.792969 193.59375 155.839844 C 193.953125 154.28125 194.40625 153.347656 194.898438 153.347656 C 196.0625 153.347656 197.003906 158.570312 197.003906 165.011719 C 197.003906 167.160156 196.898438 169.175781 196.714844 170.902344 C 195.539062 171.003906 194.332031 171.101562 193.109375 171.191406 M 199.789062 170.621094 C 199.625 168.957031 199.527344 167.042969 199.527344 165.011719 C 199.527344 158.570312 200.472656 153.347656 201.636719 153.347656 C 202.804688 153.347656 203.746094 158.570312 203.746094 165.011719 C 203.746094 166.878906 203.664062 168.644531 203.527344 170.210938 C 202.34375 170.355469 201.089844 170.492188 199.789062 170.621094 M 206.148438 169.859375 C 206.027344 168.382812 205.960938 166.742188 205.960938 165.011719 C 205.960938 158.570312 206.902344 153.347656 208.070312 153.347656 C 209.230469 153.347656 210.175781 158.570312 210.175781 165.011719 C 210.175781 166.476562 210.128906 167.878906 210.039062 169.167969 C 208.917969 169.417969 207.609375 169.644531 206.148438 169.859375 M 212.816406 168.367188 C 212.742188 167.171875 212.703125 165.894531 212.703125 164.5625 C 212.703125 158.125 213.644531 152.902344 214.808594 152.902344 C 215.585938 152.902344 216.261719 155.222656 216.628906 158.671875 C 215.859375 162.839844 214.980469 166.320312 214.050781 167.59375 C 213.832031 167.867188 213.414062 168.121094 212.816406 168.367188 M 186.808594 156.039062 C 187.175781 154.359375 187.644531 153.347656 188.15625 153.347656 C 188.664062 153.347656 189.128906 154.34375 189.492188 155.996094 C 188.660156 156.019531 187.761719 156.035156 186.808594 156.039062 M 182.847656 156.007812 C 181.910156 155.984375 180.960938 155.949219 180 155.902344 C 180.375 154.039062 180.871094 152.902344 181.414062 152.902344 C 181.96875 152.902344 182.472656 154.078125 182.847656 156.007812 M 176.148438 155.617188 C 175.164062 155.523438 174.199219 155.40625 173.269531 155.261719 C 173.640625 153.417969 174.132812 152.296875 174.671875 152.296875 C 175.246094 152.296875 175.765625 153.5625 176.148438 155.617188 " fill-opacity="1" fill-rule="nonzero"/><path fill="#d7cacc" d="M 168.519531 216.398438 C 161.421875 215.378906 156.324219 213.972656 152.785156 212.671875 C 153.046875 209.386719 153.414062 206.832031 153.898438 205.296875 C 158.015625 193.242188 170.042969 186.1875 170.042969 186.1875 C 170.042969 186.1875 189.351562 189.832031 203.851562 189.832031 C 205.3125 189.832031 206.726562 189.796875 208.070312 189.714844 C 218.320312 193.832031 208.070312 208.125 208.070312 208.125 C 208.070312 208.125 191.335938 213.605469 176.339844 213.605469 C 174.183594 213.605469 172.070312 213.492188 170.042969 213.234375 C 169.488281 214.140625 168.984375 215.203125 168.519531 216.398438 M 169.820312 191.183594 C 169.820312 191.183594 167.0625 198.386719 166.917969 202.0625 C 166.84375 203.863281 172.179688 204.324219 177.636719 204.324219 C 183.316406 204.324219 189.125 203.824219 189.125 203.824219 C 189.125 203.824219 192.214844 194.125 191.625 194.125 C 191.039062 194.125 169.820312 191.183594 169.820312 191.183594 " fill-opacity="1" fill-rule="nonzero"/><path fill="#acc11c" d="M 164.96875 292.019531 L 153.898438 292.019531 C 153.898438 292.019531 150.988281 235.167969 152.785156 212.671875 C 156.324219 213.972656 161.421875 215.378906 168.519531 216.398438 C 160.882812 236.097656 164.96875 292.019531 164.96875 292.019531 " fill-opacity="1" fill-rule="nonzero"/><path fill="#e2d9d9" d="M 177.636719 204.324219 C 172.179688 204.324219 166.84375 203.863281 166.914062 202.0625 C 167.0625 198.386719 169.820312 191.183594 169.820312 191.183594 C 169.820312 191.183594 191.035156 194.125 191.625 194.125 C 192.214844 194.125 189.125 203.824219 189.125 203.824219 C 189.125 203.824219 183.316406 204.324219 177.636719 204.324219 " fill-opacity="1" fill-rule="nonzero"/><path fill="#a5a7a6" d="M 168.894531 176.695312 C 166.390625 176.222656 164.96875 175.679688 164.96875 175.109375 C 164.925781 174.953125 164.882812 174.800781 164.839844 174.644531 C 164.882812 174.800781 164.925781 174.953125 164.96875 175.109375 C 164.96875 175.679688 166.390625 176.222656 168.894531 176.695312 " fill-opacity="1" fill-rule="nonzero"/><path fill="#a3868d" d="M 198.503906 178.488281 C 185.679688 178.488281 174.535156 177.761719 168.894531 176.695312 C 174.535156 177.761719 185.679688 178.488281 198.503906 178.488281 " fill-opacity="1" fill-rule="nonzero"/><path fill="#738323" d="M 198.503906 178.488281 C 185.675781 178.488281 174.53125 177.761719 168.890625 176.695312 C 166.390625 176.222656 164.96875 175.683594 164.96875 175.109375 C 164.925781 174.953125 164.882812 174.800781 164.839844 174.644531 C 164.640625 173.9375 164.464844 173.234375 164.304688 172.535156 C 165.054688 172.515625 165.867188 172.492188 166.730469 172.46875 C 167.074219 173.773438 167.488281 174.542969 167.933594 174.542969 C 168.386719 174.542969 168.808594 173.746094 169.152344 172.390625 C 170.425781 172.347656 171.777344 172.300781 173.191406 172.246094 C 173.570312 174.332031 174.097656 175.617188 174.671875 175.617188 C 175.261719 175.617188 175.792969 174.285156 176.175781 172.132812 C 177.355469 172.082031 178.5625 172.03125 179.789062 171.972656 C 180.171875 174.570312 180.757812 176.222656 181.414062 176.222656 C 182.082031 176.222656 182.679688 174.5 183.066406 171.8125 C 184.179688 171.753906 185.296875 171.691406 186.417969 171.628906 C 186.800781 174.675781 187.433594 176.671875 188.15625 176.671875 C 188.894531 176.671875 189.542969 174.578125 189.917969 171.410156 C 190.992188 171.339844 192.058594 171.265625 193.109375 171.1875 C 193.480469 174.480469 194.140625 176.671875 194.898438 176.671875 C 195.671875 176.671875 196.351562 174.355469 196.71875 170.902344 C 197.769531 170.8125 198.792969 170.71875 199.789062 170.617188 C 200.148438 174.226562 200.84375 176.671875 201.636719 176.671875 C 202.464844 176.671875 203.183594 174.039062 203.527344 170.210938 C 204.445312 170.097656 205.320312 169.980469 206.148438 169.859375 C 206.480469 173.878906 207.21875 176.671875 208.070312 176.671875 C 208.96875 176.671875 209.734375 173.558594 210.039062 169.167969 C 211.175781 168.917969 212.117188 168.652344 212.816406 168.367188 C 213.101562 172.941406 213.886719 176.222656 214.808594 176.222656 C 215.976562 176.222656 216.917969 171.003906 216.917969 164.5625 C 216.917969 162.414062 216.8125 160.402344 216.628906 158.671875 C 217.296875 155.058594 217.882812 150.929688 218.339844 147.273438 C 223.5625 147.277344 228.347656 147.28125 232.039062 147.292969 C 234.488281 154.988281 232.039062 175.109375 232.039062 175.109375 C 232.039062 176.976562 217.023438 178.488281 198.503906 178.488281 M 221.550781 152.292969 C 220.386719 152.292969 219.441406 157.515625 219.441406 163.957031 C 219.441406 170.398438 220.386719 175.617188 221.550781 175.617188 C 222.714844 175.617188 223.660156 170.398438 223.660156 163.957031 C 223.660156 157.515625 222.714844 152.292969 221.550781 152.292969 M 228.292969 151.21875 C 227.128906 151.21875 226.183594 156.4375 226.183594 162.878906 C 226.183594 169.320312 227.128906 174.542969 228.292969 174.542969 C 229.457031 174.542969 230.398438 169.320312 230.398438 162.878906 C 230.398438 156.4375 229.457031 151.21875 228.292969 151.21875 " fill-opacity="1" fill-rule="nonzero"/><path fill="#515c1f" d="M 208.070312 176.671875 C 207.21875 176.671875 206.484375 173.878906 206.148438 169.859375 C 207.609375 169.644531 208.917969 169.417969 210.039062 169.167969 C 209.734375 173.554688 208.96875 176.671875 208.070312 176.671875 M 201.636719 176.671875 C 200.84375 176.671875 200.148438 174.226562 199.789062 170.617188 C 201.089844 170.492188 202.34375 170.355469 203.527344 170.210938 C 203.179688 174.039062 202.464844 176.671875 201.636719 176.671875 M 194.898438 176.671875 C 194.144531 176.671875 193.484375 174.484375 193.109375 171.1875 C 194.332031 171.097656 195.539062 171.003906 196.71875 170.902344 C 196.351562 174.351562 195.671875 176.671875 194.898438 176.671875 M 188.15625 176.671875 C 187.4375 176.671875 186.800781 174.675781 186.417969 171.625 C 187.589844 171.558594 188.757812 171.488281 189.917969 171.410156 C 189.542969 174.578125 188.894531 176.671875 188.15625 176.671875 M 214.808594 176.222656 C 213.886719 176.222656 213.101562 172.9375 212.816406 168.367188 C 213.414062 168.121094 213.832031 167.863281 214.054688 167.59375 C 214.980469 166.320312 215.863281 162.839844 216.628906 158.671875 C 216.8125 160.402344 216.917969 162.414062 216.917969 164.5625 C 216.917969 171.003906 215.976562 176.222656 214.808594 176.222656 M 181.414062 176.222656 C 180.757812 176.222656 180.175781 174.570312 179.789062 171.972656 C 180.867188 171.921875 181.964844 171.867188 183.066406 171.8125 C 182.679688 174.5 182.085938 176.222656 181.414062 176.222656 M 221.550781 175.617188 C 220.386719 175.617188 219.441406 170.398438 219.441406 163.957031 C 219.441406 157.515625 220.386719 152.296875 221.550781 152.296875 C 222.714844 152.296875 223.660156 157.515625 223.660156 163.957031 C 223.660156 170.398438 222.714844 175.617188 221.550781 175.617188 M 174.671875 175.617188 C 174.097656 175.617188 173.570312 174.332031 173.191406 172.246094 C 174.160156 172.210938 175.160156 172.175781 176.175781 172.132812 C 175.792969 174.28125 175.261719 175.617188 174.671875 175.617188 M 228.292969 174.542969 C 227.128906 174.542969 226.183594 169.320312 226.183594 162.882812 C 226.183594 156.441406 227.128906 151.21875 228.292969 151.21875 C 229.457031 151.21875 230.398438 156.441406 230.398438 162.882812 C 230.398438 169.320312 229.457031 174.542969 228.292969 174.542969 M 167.929688 174.542969 C 167.488281 174.542969 167.070312 173.773438 166.730469 172.46875 C 167.496094 172.445312 168.308594 172.417969 169.152344 172.390625 C 168.808594 173.746094 168.386719 174.542969 167.929688 174.542969 " fill-opacity="1" fill-rule="nonzero"/><path fill="#acc11c" d="M 198.503906 143.910156 C 179.984375 143.910156 164.972656 145.425781 164.972656 147.292969 C 164.972656 149.160156 179.984375 150.671875 198.503906 150.671875 C 217.023438 150.671875 232.039062 149.160156 232.039062 147.292969 C 232.039062 145.425781 217.023438 143.910156 198.503906 143.910156 " fill-opacity="1" fill-rule="nonzero"/><path fill="#acc11c" d="M 177.09375 167.960938 C 176.945312 167.960938 176.800781 167.960938 176.652344 167.960938 C 176.734375 166.710938 176.78125 165.363281 176.78125 163.957031 C 176.78125 160.6875 176.539062 157.734375 176.148438 155.617188 C 177.414062 155.746094 178.714844 155.835938 180.003906 155.902344 C 179.574219 158.035156 179.308594 161.125 179.308594 164.5625 C 179.308594 165.734375 179.339844 166.867188 179.398438 167.933594 C 178.617188 167.953125 177.847656 167.960938 177.09375 167.960938 M 172.683594 167.808594 C 171.636719 167.722656 170.6875 167.601562 169.875 167.429688 C 169.980469 166.03125 170.039062 164.492188 170.039062 162.878906 C 170.039062 159.570312 169.789062 156.582031 169.390625 154.460938 C 170.570312 154.785156 171.882812 155.050781 173.269531 155.261719 C 172.835938 157.398438 172.566406 160.5 172.566406 163.957031 C 172.566406 165.304688 172.605469 166.601562 172.683594 167.808594 M 183.441406 167.769531 C 183.496094 166.75 183.523438 165.675781 183.523438 164.5625 C 183.523438 161.179688 183.261719 158.136719 182.847656 156.007812 C 183.886719 156.03125 184.902344 156.039062 185.875 156.039062 C 186.191406 156.039062 186.503906 156.039062 186.808594 156.039062 C 186.34375 158.175781 186.046875 161.402344 186.046875 165.011719 C 186.046875 165.902344 186.066406 166.765625 186.101562 167.601562 C 185.238281 167.660156 184.347656 167.71875 183.441406 167.769531 M 190.226562 167.265625 C 190.25 166.535156 190.265625 165.78125 190.265625 165.011719 C 190.265625 161.378906 189.964844 158.132812 189.492188 155.996094 C 191.214844 155.953125 192.640625 155.886719 193.597656 155.839844 C 193.105469 157.972656 192.789062 161.289062 192.789062 165.011719 C 192.789062 165.691406 192.800781 166.363281 192.820312 167.011719 C 192.101562 167.085938 191.21875 167.171875 190.226562 167.265625 " fill-opacity="1" fill-rule="nonzero"/><path fill="#98ab20" d="M 176.652344 167.960938 C 175.246094 167.953125 173.898438 167.90625 172.683594 167.808594 C 172.605469 166.601562 172.566406 165.304688 172.566406 163.957031 C 172.566406 160.5 172.835938 157.398438 173.269531 155.261719 C 174.199219 155.402344 175.164062 155.523438 176.148438 155.617188 C 176.539062 157.734375 176.78125 160.6875 176.78125 163.957031 C 176.78125 165.363281 176.734375 166.710938 176.652344 167.960938 M 179.398438 167.933594 C 179.339844 166.867188 179.308594 165.734375 179.308594 164.5625 C 179.308594 161.125 179.574219 158.035156 180.003906 155.902344 C 180.960938 155.949219 181.914062 155.984375 182.847656 156.007812 C 183.261719 158.136719 183.523438 161.179688 183.523438 164.5625 C 183.523438 165.675781 183.496094 166.75 183.441406 167.769531 C 182.109375 167.839844 180.742188 167.898438 179.398438 167.933594 M 186.101562 167.601562 C 186.066406 166.765625 186.046875 165.902344 186.046875 165.011719 C 186.046875 161.402344 186.34375 158.175781 186.808594 156.039062 C 187.761719 156.03125 188.660156 156.015625 189.492188 155.996094 C 189.964844 158.132812 190.265625 161.378906 190.265625 165.011719 C 190.265625 165.78125 190.25 166.535156 190.226562 167.265625 C 188.996094 167.375 187.59375 167.492188 186.101562 167.601562 M 169.875 167.429688 C 169.082031 167.261719 168.421875 167.050781 167.933594 166.785156 C 167.847656 162.667969 167.933594 153.996094 167.933594 153.996094 C 168.390625 154.164062 168.878906 154.316406 169.390625 154.460938 C 169.789062 156.582031 170.039062 159.570312 170.039062 162.878906 C 170.039062 164.492188 169.980469 166.03125 169.875 167.429688 M 192.820312 167.011719 C 192.800781 166.363281 192.789062 165.691406 192.789062 165.011719 C 192.789062 161.289062 193.105469 157.972656 193.597656 155.839844 C 194.425781 155.792969 194.898438 155.761719 194.898438 155.761719 L 194.898438 166.785156 C 194.898438 166.785156 194.117188 166.878906 192.820312 167.011719 " fill-opacity="1" fill-rule="nonzero"/><path fill="#a3868d" d="M 219.441406 304.957031 C 219.441406 304.957031 219.894531 303.863281 220.664062 301.828125 C 229.359375 300.503906 236.109375 298.4375 241.117188 296.402344 C 240.589844 298.5 240.050781 300.027344 239.5 300.839844 C 228.910156 304.660156 219.441406 304.957031 219.441406 304.957031 M 239.066406 212.722656 C 239.144531 210.550781 239.191406 208.371094 239.203125 206.175781 C 236.394531 189.878906 226.183594 184.714844 226.183594 184.714844 L 228.292969 182.210938 C 228.292969 182.210938 245.382812 197.175781 247.441406 204.324219 C 247.679688 205.15625 247.832031 206.992188 247.902344 209.597656 C 245.511719 210.613281 242.597656 211.695312 239.066406 212.722656 " fill-opacity="1" fill-rule="nonzero"/><path fill="#515c1f" d="M 220.664062 301.828125 C 224.71875 291.070312 237.574219 254 239.066406 212.722656 C 242.59375 211.695312 245.511719 210.613281 247.90625 209.597656 C 248.394531 227.160156 245.28125 279.753906 241.117188 296.402344 C 236.109375 298.4375 229.359375 300.503906 220.664062 301.828125 " fill-opacity="1" fill-rule="nonzero"/><path fill="#904527" d="M 67.949219 146.515625 C 63.910156 143.863281 50.125 144.929688 50.125 144.929688 L 43.257812 137.753906 C 43.257812 137.753906 45.492188 134.851562 46.210938 131.515625 C 46.929688 128.183594 39.40625 127.316406 39.40625 127.316406 C 39.40625 127.316406 40.960938 124.160156 41.289062 121.195312 C 40.070312 116.496094 33.046875 107.746094 33.046875 107.746094 L 28.699219 109.738281 L 17.21875 115.007812 L 5.734375 120.273438 L 1.390625 122.265625 C 1.390625 122.265625 3.449219 133.292969 6.21875 137.28125 C 8.683594 138.96875 12.09375 139.84375 12.09375 139.84375 C 12.09375 139.84375 7.84375 146.113281 10.839844 147.742188 C 13.839844 149.371094 17.5 149.570312 17.5 149.570312 L 18.46875 159.453125 C 18.46875 159.453125 8.667969 169.203125 8.050781 173.996094 C 7.433594 178.78125 35.128906 243.996094 52.566406 270.917969 C 60.652344 275.847656 72.78125 269.53125 85.507812 263.695312 C 98.230469 257.859375 110.929688 252.785156 112.464844 243.445312 C 103.40625 212.675781 71.984375 149.171875 67.949219 146.515625 " fill-opacity="1" fill-rule="nonzero"/><path fill="#e36f19" d="M 12.707031 188.433594 C 19.207031 205.105469 31.453125 232.679688 42.605469 253.664062 C 48.996094 253.734375 61.175781 252.519531 78.214844 244.886719 C 93.347656 238.105469 101.566406 230.0625 105.808594 224.503906 C 97 201.980469 83.773438 174.191406 75.398438 158.578125 C 70.460938 163.851562 62 170.773438 47.339844 177.660156 C 29.703125 186.617188 18.601562 188.382812 12.707031 188.433594 " fill-opacity="1" fill-rule="nonzero"/><path fill="#687b99" d="M 39.40625 127.316406 C 39.40625 127.316406 40.960938 124.160156 41.289062 121.195312 C 40.070312 116.496094 33.046875 107.746094 33.046875 107.746094 L 28.699219 109.738281 L 17.21875 115.007812 L 5.734375 120.273438 L 1.390625 122.265625 C 1.390625 122.265625 3.449219 133.292969 6.21875 137.28125 C 8.683594 138.96875 12.09375 139.84375 12.09375 139.84375 C 12.09375 139.84375 24.671875 138.34375 39.40625 127.316406 " fill-opacity="1" fill-rule="nonzero"/><path fill="#da4e1e" d="M 64.761719 230.347656 C 62.527344 230.347656 60.347656 229.890625 58.21875 228.96875 C 53.804688 227.019531 50.40625 223.445312 48.019531 218.25 C 45.675781 213.148438 45.238281 208.238281 46.703125 203.515625 C 48.222656 198.574219 51.503906 194.945312 56.550781 192.628906 C 58.148438 191.898438 59.601562 191.402344 60.914062 191.148438 C 61.921875 190.945312 62.886719 190.84375 63.816406 190.84375 C 64.425781 190.84375 65.015625 190.886719 65.59375 190.972656 C 67.484375 191.304688 68.714844 192.09375 69.285156 193.335938 C 69.710938 194.261719 69.761719 195.214844 69.441406 196.195312 C 69.117188 197.171875 68.488281 197.875 67.566406 198.300781 C 66.765625 198.667969 65.667969 198.890625 64.277344 198.96875 C 62.882812 199.046875 61.464844 199.417969 60.027344 200.074219 C 57.25 201.351562 55.628906 203.460938 55.167969 206.410156 C 54.75 208.957031 55.207031 211.675781 56.539062 214.574219 C 57.882812 217.503906 59.660156 219.5625 61.867188 220.746094 C 63.117188 221.421875 64.410156 221.757812 65.757812 221.757812 C 67.070312 221.757812 68.429688 221.433594 69.832031 220.792969 C 71.078125 220.21875 72.339844 219.304688 73.617188 218.042969 C 74.894531 216.78125 75.785156 216.03125 76.296875 215.796875 C 76.476562 215.714844 76.660156 215.648438 76.839844 215.601562 C 77.535156 218.609375 78.175781 221.625 78.742188 224.625 C 77.339844 226.015625 75.386719 227.285156 72.878906 228.4375 C 70.101562 229.710938 67.394531 230.347656 64.761719 230.347656 " fill-opacity="1" fill-rule="nonzero"/><path fill="#da4e1e" d="M 41.03125 250.660156 C 40.128906 248.929688 39.222656 247.175781 38.316406 245.378906 C 39.988281 245.269531 41.644531 245.113281 43.277344 244.910156 C 44.167969 246.742188 45.019531 248.480469 45.816406 250.105469 C 44.242188 250.328125 42.648438 250.515625 41.03125 250.660156 M 53.027344 248.792969 C 52.40625 247.160156 51.75 245.417969 51.0625 243.589844 C 62.058594 241.210938 71.859375 236.945312 80.039062 232.308594 C 80.335938 234.316406 80.589844 236.304688 80.800781 238.265625 C 78.605469 239.457031 76.296875 240.617188 73.894531 241.71875 C 67.589844 244.613281 60.597656 247.113281 53.027344 248.792969 M 16.644531 198.175781 C 15.875 196.320312 15.148438 194.546875 14.460938 192.839844 C 15.65625 192.742188 17.066406 192.597656 18.667969 192.386719 C 19.414062 194.070312 20.199219 195.824219 21.019531 197.648438 C 19.414062 197.882812 17.949219 198.050781 16.644531 198.175781 M 33.488281 195.046875 C 32.867188 193.214844 32.273438 191.4375 31.71875 189.742188 C 41.175781 187.183594 52.726562 182.636719 64.273438 174.574219 C 64.917969 176.277344 65.578125 178.054688 66.242188 179.910156 C 54.589844 187.875 43.058594 192.4375 33.488281 195.046875 " fill-opacity="1" fill-rule="nonzero"/><path fill="#a5a7a6" d="M 17.699219 151.628906 L 17.5 149.570312 L 17.699219 151.628906 M 50.125 144.929688 C 50.175781 144.925781 52.894531 144.71875 56.257812 144.71875 C 52.894531 144.71875 50.175781 144.925781 50.125 144.929688 M 12.082031 139.867188 C 12.089844 139.851562 12.09375 139.84375 12.09375 139.84375 C 12.09375 139.84375 12.089844 139.851562 12.082031 139.867188 " fill-opacity="1" fill-rule="nonzero"/><path fill="#e4d7da" d="M 59.40625 272.691406 C 56.90625 272.691406 54.605469 272.164062 52.566406 270.917969 L 52.5625 270.914062 C 52.5625 270.914062 52.566406 270.917969 52.566406 270.917969 C 54.605469 272.164062 56.90625 272.691406 59.40625 272.691406 C 64.304688 272.691406 69.980469 270.664062 76.015625 268.027344 C 69.980469 270.664062 64.304688 272.691406 59.40625 272.691406 " fill-opacity="1" fill-rule="nonzero"/><path fill="#712e1d" d="M 59.40625 272.691406 C 56.90625 272.691406 54.605469 272.164062 52.566406 270.921875 C 52.566406 270.917969 52.5625 270.914062 52.5625 270.914062 L 52.546875 270.894531 C 62.828125 266.710938 78.34375 259.746094 81.375 254.703125 C 81.574219 251.160156 81.523438 247.390625 81.257812 243.460938 C 86.726562 240.789062 91.199219 237.964844 94.84375 235.207031 C 96.363281 241.84375 97.171875 247.757812 96.921875 252.375 C 104.691406 249.8125 108.835938 244.660156 108.835938 244.660156 C 108.835938 244.660156 106.273438 238.175781 102.339844 228.558594 C 103.714844 227.109375 104.863281 225.746094 105.808594 224.503906 C 97 201.980469 83.773438 174.191406 75.398438 158.578125 C 74.535156 159.496094 73.566406 160.46875 72.476562 161.480469 C 69.605469 156.019531 67.078125 151.796875 65.148438 149.542969 C 63.363281 148.105469 57.765625 147.851562 53.996094 147.851562 C 51.90625 147.851562 50.382812 147.929688 50.382812 147.929688 C 50.382812 147.929688 59.328125 149.957031 62.425781 151.792969 C 62.425781 151.792969 64.921875 156.863281 68.570312 164.835938 C 66.726562 166.308594 64.632812 167.839844 62.253906 169.40625 C 59.011719 161.371094 56.363281 156.03125 55.335938 155.167969 C 51.667969 152.097656 43.0625 151.035156 43.0625 151.035156 C 43.0625 151.035156 29.117188 157.136719 24.683594 157.136719 C 24.160156 157.136719 23.769531 157.046875 23.546875 156.859375 C 33.253906 154.535156 41.445312 148.648438 41.445312 148.648438 C 41.445312 148.648438 40.363281 146.019531 38.09375 143.804688 C 30.386719 147.703125 22.746094 150.210938 17.699219 151.632812 L 17.5 149.570312 C 27.214844 146.066406 36.605469 139.480469 36.605469 139.480469 C 36.605469 139.480469 38.28125 133.578125 35.039062 133.566406 C 24.75 139.335938 16.222656 141.136719 11.039062 141.664062 C 11.53125 140.707031 11.996094 139.992188 12.082031 139.867188 C 12.089844 139.851562 12.09375 139.847656 12.09375 139.847656 C 12.125 139.839844 24.6875 138.332031 39.402344 127.316406 C 39.402344 127.316406 40.960938 124.164062 41.289062 121.195312 C 40.960938 124.164062 39.402344 127.316406 39.402344 127.316406 C 39.402344 127.316406 46.929688 128.183594 46.210938 131.519531 C 45.492188 134.851562 43.257812 137.753906 43.257812 137.753906 L 50.125 144.933594 C 50.175781 144.925781 52.894531 144.71875 56.257812 144.71875 C 60.476562 144.71875 65.710938 145.046875 67.949219 146.519531 C 71.984375 149.171875 103.40625 212.675781 112.464844 243.445312 C 110.929688 252.785156 98.230469 257.859375 85.507812 263.695312 C 82.285156 265.171875 79.105469 266.679688 76.015625 268.027344 C 69.980469 270.664062 64.304688 272.691406 59.40625 272.691406 " fill-opacity="1" fill-rule="nonzero"/><path fill="#da4e1e" d="M 81.257812 243.460938 C 81.144531 241.757812 80.992188 240.023438 80.800781 238.265625 C 85.597656 235.667969 89.890625 232.917969 93.621094 230.269531 C 94.066406 231.953125 94.476562 233.601562 94.84375 235.207031 C 91.199219 237.964844 86.726562 240.789062 81.257812 243.460938 M 102.339844 228.558594 C 101.84375 227.347656 101.328125 226.089844 100.789062 224.785156 C 102.214844 223.609375 103.496094 222.507812 104.617188 221.503906 C 103.902344 219.714844 103.167969 217.90625 102.410156 216.070312 C 101.335938 217.050781 100.054688 218.1875 98.574219 219.429688 C 92.386719 204.53125 84.371094 185.796875 77.351562 171.214844 C 78.394531 170.285156 79.429688 169.328125 80.460938 168.335938 C 79.5625 166.554688 78.699219 164.871094 77.859375 163.253906 C 76.863281 164.238281 75.859375 165.1875 74.851562 166.109375 C 74.039062 164.484375 73.246094 162.941406 72.480469 161.480469 C 73.570312 160.46875 74.539062 159.496094 75.398438 158.578125 C 83.773438 174.191406 97 201.980469 105.808594 224.503906 C 104.863281 225.746094 103.714844 227.109375 102.339844 228.558594 M 64.273438 174.574219 C 63.582031 172.753906 62.90625 171.023438 62.253906 169.40625 C 64.632812 167.839844 66.726562 166.308594 68.574219 164.835938 C 69.261719 166.34375 69.996094 167.957031 70.757812 169.65625 C 68.605469 171.425781 66.441406 173.0625 64.273438 174.574219 " fill-opacity="1" fill-rule="nonzero"/><path fill="#48597e" d="M 12.09375 139.84375 C 12.054688 139.832031 8.757812 138.976562 6.316406 137.34375 C 13.054688 134.5625 32.261719 126.425781 32.855469 123.675781 C 31.710938 120.671875 28.738281 115.820312 26.671875 112.605469 C 30.796875 110.296875 33.351562 108.414062 33.046875 107.746094 C 33.078125 107.785156 40.074219 116.507812 41.289062 121.195312 C 40.960938 124.160156 39.40625 127.316406 39.40625 127.316406 C 24.6875 138.328125 12.125 139.839844 12.09375 139.84375 " fill-opacity="1" fill-rule="nonzero"/><path fill="#da4e1e" d="M 80.039062 232.308594 C 79.667969 229.773438 79.230469 227.207031 78.742188 224.625 C 80.089844 223.285156 80.925781 221.835938 81.25 220.269531 C 81.441406 219.339844 81.371094 218.507812 81.035156 217.777344 C 80.625 216.886719 79.957031 216.234375 79.03125 215.8125 C 78.5625 215.601562 78.09375 215.496094 77.632812 215.496094 C 77.367188 215.496094 77.101562 215.53125 76.839844 215.601562 C 73.902344 202.867188 69.96875 190.28125 66.242188 179.910156 C 68.515625 178.351562 70.792969 176.667969 73.0625 174.84375 C 79.378906 189.207031 87.085938 208.03125 92.011719 224.566406 C 88.558594 227.089844 84.542969 229.753906 80.039062 232.308594 " fill-opacity="1" fill-rule="nonzero"/><path fill="#cf3822" d="M 78.742188 224.625 C 78.175781 221.625 77.535156 218.609375 76.839844 215.601562 C 77.101562 215.53125 77.367188 215.496094 77.632812 215.496094 C 78.09375 215.496094 78.5625 215.601562 79.03125 215.8125 C 79.957031 216.234375 80.625 216.886719 81.035156 217.777344 C 81.371094 218.507812 81.441406 219.339844 81.25 220.269531 C 80.925781 221.835938 80.089844 223.285156 78.742188 224.625 " fill-opacity="1" fill-rule="nonzero"/><path fill="#cf3822" d="M 80.800781 238.265625 C 80.589844 236.304688 80.335938 234.316406 80.039062 232.308594 C 84.542969 229.753906 88.558594 227.089844 92.011719 224.566406 C 92.589844 226.503906 93.125 228.40625 93.621094 230.269531 C 89.890625 232.917969 85.597656 235.667969 80.800781 238.265625 M 100.789062 224.785156 C 100.085938 223.070312 99.34375 221.277344 98.574219 219.429688 C 100.054688 218.1875 101.335938 217.050781 102.410156 216.070312 C 103.167969 217.90625 103.902344 219.714844 104.617188 221.503906 C 103.496094 222.507812 102.214844 223.609375 100.789062 224.785156 M 66.242188 179.910156 C 65.578125 178.054688 64.917969 176.277344 64.273438 174.574219 C 66.441406 173.0625 68.605469 171.425781 70.757812 169.65625 C 71.5 171.308594 72.269531 173.039062 73.0625 174.84375 C 70.792969 176.667969 68.515625 178.351562 66.242188 179.910156 M 77.351562 171.214844 C 76.503906 169.445312 75.664062 167.738281 74.851562 166.109375 C 75.859375 165.1875 76.863281 164.238281 77.859375 163.253906 C 78.699219 164.871094 79.5625 166.554688 80.460938 168.335938 C 79.429688 169.328125 78.394531 170.285156 77.351562 171.214844 " fill-opacity="1" fill-rule="nonzero"/><path fill="#88a0b4" d="M 16.339844 113.089844 C 7.597656 117.097656 0.902344 121.207031 1.390625 122.265625 C 1.875 123.324219 9.355469 120.933594 18.097656 116.921875 C 26.839844 112.910156 33.53125 108.804688 33.046875 107.746094 C 32.558594 106.6875 25.078125 109.078125 16.339844 113.089844 " fill-opacity="1" fill-rule="nonzero"/><path fill="#46467c" d="M 6.660156 92.019531 C 0.105469 95.027344 9.039062 117.4375 9.039062 117.4375 C 9.316406 118.039062 12.976562 116.949219 17.21875 115.007812 C 21.460938 113.058594 24.671875 110.996094 24.398438 110.394531 C 24.398438 110.394531 13.214844 89.011719 6.660156 92.019531 " fill-opacity="1" fill-rule="nonzero"/><path fill="#a5a7a6" d="M 10.761719 92.617188 C 9.808594 92.050781 8.882812 91.730469 8.007812 91.730469 C 7.542969 91.730469 7.089844 91.820312 6.660156 92.019531 C 7.089844 91.820312 7.542969 91.730469 8.007812 91.730469 C 8.882812 91.730469 9.808594 92.050781 10.761719 92.617188 " fill-opacity="1" fill-rule="nonzero"/><path fill="#6a87a1" d="M 9.527344 117.605469 C 9.257812 117.605469 9.089844 117.550781 9.039062 117.441406 C 9.039062 117.441406 9.027344 117.414062 9.007812 117.359375 C 9.027344 117.414062 9.039062 117.441406 9.039062 117.441406 C 9.089844 117.550781 9.257812 117.605469 9.527344 117.605469 M 10.574219 117.460938 C 12.085938 117.125 14.535156 116.238281 17.21875 115.007812 C 19.09375 114.148438 20.769531 113.261719 22.03125 112.492188 C 20.769531 113.261719 19.09375 114.148438 17.21875 115.007812 C 14.535156 116.238281 12.085938 117.125 10.574219 117.460938 " fill-opacity="1" fill-rule="nonzero"/><path fill="#2d2f52" d="M 9.527344 117.605469 C 9.257812 117.605469 9.089844 117.550781 9.039062 117.4375 C 9.039062 117.4375 9.027344 117.414062 9.007812 117.359375 C 8.96875 117.261719 8.898438 117.085938 8.804688 116.835938 C 11.105469 115.554688 17.582031 111.703125 17.503906 109.0625 C 14.839844 104 9.683594 96.398438 6.640625 92.03125 L 6.660156 92.019531 C 7.089844 91.820312 7.542969 91.730469 8.007812 91.730469 C 8.882812 91.730469 9.808594 92.050781 10.761719 92.617188 C 17.039062 96.328125 24.398438 110.394531 24.398438 110.394531 C 24.550781 110.730469 23.621094 111.519531 22.03125 112.492188 C 20.769531 113.261719 19.09375 114.144531 17.21875 115.007812 C 14.535156 116.234375 12.085938 117.125 10.578125 117.457031 C 10.144531 117.554688 9.789062 117.605469 9.527344 117.605469 " fill-opacity="1" fill-rule="nonzero"/><path fill="#b15c31" d="M 52.667969 263.324219 C 52.640625 263.324219 52.613281 263.324219 52.59375 263.324219 C 52.433594 263.316406 50.46875 259.515625 47.480469 253.484375 C 49.511719 253.320312 51.839844 253.03125 54.453125 252.550781 C 56.863281 258.894531 58.414062 262.90625 58.414062 262.90625 C 58.414062 262.90625 53.632812 263.324219 52.667969 263.324219 " fill-opacity="1" fill-rule="nonzero"/><path fill="#e89519" d="M 47.480469 253.484375 C 46.957031 252.421875 46.402344 251.296875 45.816406 250.105469 C 48.273438 249.757812 50.675781 249.316406 53.027344 248.792969 C 53.527344 250.117188 54.003906 251.375 54.453125 252.550781 C 51.839844 253.03125 49.511719 253.320312 47.480469 253.484375 M 43.277344 244.910156 C 36.621094 231.226562 27.695312 212.445312 21.019531 197.648438 C 24.558594 197.136719 28.785156 196.328125 33.488281 195.046875 C 38.597656 210.148438 45.734375 229.4375 51.0625 243.589844 C 48.527344 244.136719 45.933594 244.585938 43.277344 244.910156 " fill-opacity="1" fill-rule="nonzero"/><path fill="#b15c31" d="M 16.816406 188.160156 C 13.476562 180.441406 11.394531 175.054688 11.640625 174.148438 C 12.757812 170.445312 21.753906 161.0625 21.753906 161.0625 C 21.753906 161.0625 34.574219 155.367188 38.699219 155.351562 C 38.707031 155.351562 38.714844 155.351562 38.71875 155.351562 C 42.847656 155.351562 49.457031 160.367188 49.457031 160.367188 C 49.457031 160.367188 40.019531 168.453125 27.023438 172.539062 C 27.164062 174.617188 28.355469 179.089844 30.195312 184.988281 C 24.664062 186.84375 20.242188 187.757812 16.816406 188.160156 " fill-opacity="1" fill-rule="nonzero"/><path fill="#e89519" d="M 18.667969 192.386719 C 18.015625 190.914062 17.398438 189.503906 16.816406 188.160156 C 20.242188 187.757812 24.664062 186.84375 30.195312 184.988281 C 30.664062 186.484375 31.175781 188.078125 31.71875 189.742188 C 26.664062 191.113281 22.207031 191.917969 18.667969 192.386719 " fill-opacity="1" fill-rule="nonzero"/><path fill="#e7621a" d="M 45.816406 250.105469 C 45.019531 248.480469 44.167969 246.742188 43.277344 244.910156 C 45.933594 244.585938 48.527344 244.136719 51.0625 243.589844 C 51.75 245.417969 52.40625 247.160156 53.027344 248.792969 C 50.675781 249.316406 48.273438 249.757812 45.816406 250.105469 M 21.019531 197.648438 C 20.199219 195.824219 19.414062 194.070312 18.667969 192.386719 C 22.207031 191.917969 26.664062 191.113281 31.71875 189.742188 C 32.273438 191.4375 32.867188 193.214844 33.488281 195.046875 C 28.785156 196.328125 24.558594 197.136719 21.019531 197.648438 " fill-opacity="1" fill-rule="nonzero"/><path fill="#491d16" d="M 96.921875 252.375 C 97.171875 247.757812 96.363281 241.84375 94.84375 235.207031 C 97.886719 232.902344 100.355469 230.644531 102.339844 228.558594 C 106.273438 238.171875 108.835938 244.65625 108.835938 244.65625 C 108.835938 244.65625 104.691406 249.8125 96.921875 252.375 " fill-opacity="1" fill-rule="nonzero"/><path fill="#cf3822" d="M 94.84375 235.207031 C 94.476562 233.601562 94.066406 231.953125 93.621094 230.269531 C 96.3125 228.355469 98.707031 226.496094 100.789062 224.785156 C 101.328125 226.089844 101.84375 227.347656 102.339844 228.558594 C 100.355469 230.644531 97.886719 232.902344 94.84375 235.207031 M 92.011719 224.566406 C 87.085938 208.03125 79.378906 189.207031 73.0625 174.84375 C 74.496094 173.691406 75.929688 172.480469 77.351562 171.214844 C 84.371094 185.796875 92.386719 204.53125 98.574219 219.429688 C 96.699219 221.003906 94.5 222.746094 92.011719 224.566406 " fill-opacity="1" fill-rule="nonzero"/><path fill="#491d16" d="M 68.574219 164.835938 C 64.921875 156.863281 62.425781 151.789062 62.425781 151.789062 C 59.332031 149.957031 50.382812 147.929688 50.382812 147.929688 C 50.382812 147.929688 51.910156 147.851562 53.996094 147.851562 C 57.765625 147.851562 63.363281 148.105469 65.152344 149.539062 C 67.078125 151.796875 69.605469 156.019531 72.480469 161.480469 C 71.320312 162.554688 70.023438 163.675781 68.574219 164.835938 " fill-opacity="1" fill-rule="nonzero"/><path fill="#cf3822" d="M 70.757812 169.65625 C 69.996094 167.957031 69.261719 166.34375 68.574219 164.835938 C 70.023438 163.675781 71.320312 162.554688 72.480469 161.480469 C 73.246094 162.941406 74.039062 164.484375 74.851562 166.109375 C 73.492188 167.347656 72.128906 168.527344 70.757812 169.65625 " fill-opacity="1" fill-rule="nonzero"/><path fill="#be2923" d="M 93.621094 230.269531 C 93.125 228.40625 92.589844 226.503906 92.011719 224.566406 C 94.5 222.746094 96.699219 221.003906 98.574219 219.429688 C 99.34375 221.277344 100.085938 223.070312 100.789062 224.785156 C 98.707031 226.496094 96.3125 228.355469 93.621094 230.269531 M 73.0625 174.84375 C 72.269531 173.039062 71.5 171.308594 70.757812 169.65625 C 72.128906 168.527344 73.492188 167.347656 74.851562 166.109375 C 75.664062 167.738281 76.503906 169.445312 77.351562 171.214844 C 75.929688 172.480469 74.496094 173.691406 73.0625 174.84375 " fill-opacity="1" fill-rule="nonzero"/><path fill="#88a0b4" d="M 7.394531 134.226562 C 5.054688 129.949219 4.730469 124.746094 4.730469 124.746094 L 12.726562 122.113281 L 16.609375 130.5625 C 16.609375 130.5625 11.59375 133.144531 7.394531 134.226562 " fill-opacity="1" fill-rule="nonzero"/><path fill="#91a321" d="M 286.046875 218.101562 C 286.046875 218.101562 346.054688 222.609375 330.953125 154.210938 C 299.382812 156.757812 268.984375 184.394531 286.046875 218.101562 " fill-opacity="1" fill-rule="nonzero"/><path fill="#738323" d="M 286.554688 218.128906 C 286.25 218.117188 286.074219 218.105469 286.050781 218.101562 C 286.074219 218.105469 286.25 218.117188 286.554688 218.128906 M 286.050781 218.101562 C 286.046875 218.101562 286.046875 218.101562 286.046875 218.101562 C 286.046875 218.101562 286.046875 218.101562 286.050781 218.101562 M 296.742188 203.636719 C 295.15625 203.550781 292.949219 202.757812 290.570312 201.648438 C 290.460938 200.652344 290.351562 199.578125 290.261719 198.449219 C 290.820312 198.570312 291.472656 198.660156 292.1875 198.660156 C 292.871094 198.660156 293.617188 198.578125 294.390625 198.367188 C 294.457031 198.839844 294.519531 199.292969 294.582031 199.730469 C 294.992188 199.101562 295.410156 198.464844 295.832031 197.824219 C 297.039062 197.238281 298.289062 196.292969 299.488281 194.820312 C 301.964844 191.777344 305.292969 185.328125 309.191406 178.414062 C 310.882812 176.097656 312.558594 173.871094 314.1875 171.78125 C 314.246094 171.140625 314.324219 170.40625 314.421875 169.628906 C 315.117188 168.539062 315.828125 167.46875 316.546875 166.429688 C 316.617188 167.171875 316.660156 167.933594 316.6875 168.644531 C 320.796875 163.621094 324.488281 159.773438 327.230469 158.128906 C 325.660156 159.796875 322.324219 164.949219 318.199219 171.738281 C 318.4375 171.734375 318.695312 171.734375 318.972656 171.734375 C 320.949219 171.734375 323.839844 171.769531 325.953125 171.945312 C 324.792969 173.570312 318.722656 174.644531 316.21875 175.023438 C 313.957031 178.800781 311.523438 182.9375 309.0625 187.183594 C 311.457031 187.273438 314.847656 187.527344 318.066406 188.203125 C 317.707031 188.671875 317.34375 189.140625 316.964844 189.601562 C 313.90625 190.15625 309.863281 190.679688 306.828125 191.035156 C 304.648438 194.820312 302.472656 198.625 300.398438 202.273438 C 299.222656 202.773438 298.007812 203.230469 296.742188 203.636719 " fill-opacity="1" fill-rule="nonzero"/><path fill="#e4d7da" d="M 290.554688 218.113281 C 290.558594 218.113281 290.558594 218.113281 290.5625 218.113281 C 290.558594 218.113281 290.558594 218.113281 290.554688 218.113281 M 290.621094 218.109375 L 290.625 218.109375 C 290.625 218.109375 290.625 218.109375 290.621094 218.109375 " fill-opacity="1" fill-rule="nonzero"/><path fill="#e4d7da" d="M 331.5625 157.125 C 331.375 156.171875 331.171875 155.195312 330.953125 154.210938 C 331.171875 155.195312 331.375 156.171875 331.5625 157.125 " fill-opacity="1" fill-rule="nonzero"/><path fill="#e4d7da" d="M 290.65625 218.109375 C 304.171875 217.515625 342.121094 211.121094 331.5625 157.125 C 342.121094 211.125 304.167969 217.515625 290.65625 218.109375 M 286.050781 218.101562 C 286.039062 218.085938 286.035156 218.070312 286.027344 218.054688 C 286.03125 218.070312 286.039062 218.085938 286.050781 218.101562 M 286.011719 218.03125 C 286.007812 218.023438 286.003906 218.015625 286 218.007812 C 286.003906 218.015625 286.007812 218.023438 286.011719 218.03125 M 285.988281 217.980469 C 285.984375 217.976562 285.980469 217.96875 285.976562 217.964844 C 285.980469 217.96875 285.988281 217.976562 285.988281 217.980469 M 285.964844 217.933594 C 285.957031 217.925781 285.957031 217.925781 285.953125 217.917969 C 285.957031 217.925781 285.957031 217.925781 285.964844 217.933594 M 285.9375 217.882812 C 285.9375 217.882812 285.9375 217.878906 285.933594 217.875 C 285.9375 217.878906 285.9375 217.882812 285.9375 217.882812 M 285.914062 217.835938 C 285.914062 217.835938 285.914062 217.832031 285.914062 217.832031 C 285.914062 217.832031 285.914062 217.835938 285.914062 217.835938 " fill-opacity="1" fill-rule="nonzero"/><path fill="#738323" d="M 288.277344 218.164062 C 287.519531 218.164062 286.933594 218.144531 286.554688 218.128906 C 286.933594 218.144531 287.519531 218.164062 288.277344 218.164062 C 289.136719 218.164062 290.226562 218.140625 291.488281 218.066406 C 293.082031 215.226562 294.960938 211.875 297.03125 208.21875 C 303.9375 207.335938 315.328125 205.707031 315.121094 204.578125 C 312.988281 204.324219 310.421875 204.234375 307.855469 204.234375 C 304.679688 204.234375 301.5 204.371094 299.128906 204.507812 C 299.546875 203.769531 299.972656 203.023438 300.398438 202.273438 C 307.378906 199.289062 312.785156 194.738281 316.964844 189.601562 C 318.429688 189.339844 319.667969 189.066406 320.464844 188.800781 C 319.691406 188.570312 318.882812 188.371094 318.066406 188.203125 C 329.371094 173.269531 330.949219 154.304688 330.957031 154.210938 C 331.171875 155.195312 331.375 156.171875 331.5625 157.125 C 342.121094 211.121094 304.171875 217.515625 290.65625 218.109375 C 290.644531 218.109375 290.636719 218.109375 290.628906 218.109375 L 290.625 218.109375 C 290.605469 218.113281 290.582031 218.113281 290.5625 218.113281 C 290.5625 218.113281 290.558594 218.113281 290.558594 218.113281 C 289.6875 218.148438 288.917969 218.164062 288.277344 218.164062 M 286.050781 218.101562 L 286.050781 218.101562 M 286.050781 218.101562 C 286.039062 218.085938 286.03125 218.070312 286.027344 218.054688 C 286.023438 218.046875 286.015625 218.039062 286.011719 218.03125 C 286.007812 218.023438 286.003906 218.015625 286 218.007812 C 285.996094 218 285.992188 217.992188 285.988281 217.980469 C 285.988281 217.976562 285.980469 217.96875 285.976562 217.964844 C 285.972656 217.953125 285.96875 217.941406 285.964844 217.933594 C 285.957031 217.925781 285.957031 217.925781 285.953125 217.917969 C 285.949219 217.90625 285.945312 217.898438 285.9375 217.882812 C 285.9375 217.882812 285.9375 217.878906 285.933594 217.875 C 285.929688 217.863281 285.921875 217.847656 285.914062 217.835938 C 285.914062 217.835938 285.914062 217.832031 285.914062 217.832031 C 282.164062 210.316406 280.773438 203.109375 281.222656 196.414062 C 283.964844 198.132812 287.421875 200.171875 290.570312 201.648438 C 290.722656 203.003906 290.886719 204.210938 291.035156 205.207031 C 288.542969 209.09375 286.375 212.546875 284.707031 215.230469 C 285.117188 216.183594 285.5625 217.140625 286.050781 218.101562 " fill-opacity="1" fill-rule="nonzero"/><path fill="#515c1f" d="M 288.273438 218.164062 C 287.519531 218.164062 286.933594 218.144531 286.554688 218.128906 C 286.25 218.117188 286.074219 218.105469 286.050781 218.101562 C 286.046875 218.101562 286.046875 218.101562 286.046875 218.101562 C 285.5625 217.140625 285.117188 216.183594 284.707031 215.230469 C 286.375 212.546875 288.539062 209.097656 291.035156 205.210938 C 290.886719 204.210938 290.722656 203.003906 290.570312 201.648438 C 292.949219 202.757812 295.152344 203.550781 296.742188 203.636719 C 298.007812 203.230469 299.226562 202.773438 300.398438 202.273438 C 299.96875 203.027344 299.546875 203.769531 299.128906 204.507812 C 301.496094 204.371094 304.679688 204.234375 307.851562 204.234375 C 310.421875 204.234375 312.988281 204.324219 315.121094 204.578125 C 315.324219 205.707031 303.933594 207.335938 297.027344 208.21875 C 294.960938 211.875 293.078125 215.226562 291.488281 218.066406 C 290.222656 218.140625 289.136719 218.164062 288.273438 218.164062 M 316.964844 189.601562 C 317.34375 189.140625 317.707031 188.675781 318.066406 188.203125 C 318.882812 188.375 319.6875 188.570312 320.464844 188.800781 C 319.667969 189.066406 318.429688 189.339844 316.964844 189.601562 " fill-opacity="1" fill-rule="nonzero"/><path fill="#acc11c" d="M 290.261719 198.449219 C 289.0625 198.179688 288.308594 197.757812 288.308594 197.757812 C 288.308594 197.757812 283.011719 195.113281 287.574219 183.058594 C 297.578125 163.507812 323.460938 158.128906 323.460938 158.128906 C 321.078125 160.347656 318.761719 163.238281 316.546875 166.429688 C 316.417969 165.019531 316.207031 163.6875 315.855469 162.960938 C 315.175781 164.527344 314.714844 167.261719 314.421875 169.628906 C 312.589844 172.492188 310.839844 175.496094 309.191406 178.414062 C 308.082031 179.941406 306.960938 181.503906 305.847656 183.082031 C 305.800781 180.1875 305.664062 176.339844 305.265625 173.648438 C 307.683594 170.355469 312.871094 164.378906 314.292969 162.480469 C 310.664062 163.855469 300.46875 172.085938 300.46875 172.085938 C 300.46875 172.085938 301.539062 175.128906 303.53125 175.453125 C 302.710938 179.777344 302.53125 184.722656 302.515625 187.867188 C 300.214844 191.21875 297.964844 194.585938 295.832031 197.824219 C 295.34375 198.058594 294.863281 198.238281 294.390625 198.367188 C 294.144531 196.609375 293.863281 194.628906 293.570312 192.601562 C 294.683594 192.34375 295.566406 191.988281 295.566406 191.988281 L 300.175781 180.621094 C 300.175781 180.621094 296.472656 177.5 294.417969 177.5 C 294.230469 177.5 294.054688 177.527344 293.898438 177.585938 C 292.035156 178.269531 290.171875 180.621094 290.171875 180.621094 C 290.171875 180.621094 288.113281 188.460938 289.390625 191.988281 C 289.542969 192.226562 289.75 192.40625 290 192.539062 C 290.011719 194.585938 290.113281 196.59375 290.261719 198.449219 " fill-opacity="1" fill-rule="nonzero"/><path fill="#98ab20" d="M 292.1875 198.664062 C 291.46875 198.664062 290.816406 198.570312 290.261719 198.449219 C 290.113281 196.59375 290.011719 194.585938 290 192.539062 C 290.425781 192.773438 290.972656 192.859375 291.554688 192.859375 C 292.222656 192.859375 292.929688 192.746094 293.570312 192.601562 C 293.863281 194.628906 294.144531 196.609375 294.390625 198.367188 C 293.613281 198.578125 292.871094 198.664062 292.1875 198.664062 M 295.832031 197.824219 C 297.960938 194.585938 300.214844 191.21875 302.515625 187.867188 C 302.53125 184.726562 302.710938 179.777344 303.53125 175.453125 C 303.640625 175.46875 303.753906 175.480469 303.871094 175.480469 C 303.945312 175.480469 304.019531 175.472656 304.09375 175.46875 C 304.265625 175.078125 304.6875 174.441406 305.269531 173.652344 C 305.664062 176.339844 305.800781 180.1875 305.84375 183.082031 C 306.960938 181.503906 308.082031 179.941406 309.191406 178.417969 C 305.292969 185.328125 301.964844 191.777344 299.484375 194.820312 C 298.289062 196.292969 297.039062 197.238281 295.832031 197.824219 M 314.417969 169.632812 C 314.714844 167.261719 315.175781 164.527344 315.855469 162.960938 C 316.207031 163.6875 316.417969 165.019531 316.546875 166.429688 C 315.828125 167.46875 315.117188 168.539062 314.417969 169.632812 " fill-opacity="1" fill-rule="nonzero"/><path fill="#bfd61e" d="M 293.570312 192.597656 C 292.886719 187.917969 292.125 183.003906 291.539062 180.078125 C 290.339844 183.742188 289.972656 188.230469 290 192.539062 C 289.753906 192.40625 289.542969 192.226562 289.390625 191.988281 C 288.113281 188.460938 290.171875 180.621094 290.171875 180.621094 C 290.171875 180.621094 292.035156 178.269531 293.898438 177.582031 C 294.058594 177.527344 294.230469 177.5 294.421875 177.5 C 296.476562 177.5 300.175781 180.621094 300.175781 180.621094 L 295.566406 191.988281 C 295.566406 191.988281 294.683594 192.34375 293.570312 192.597656 " fill-opacity="1" fill-rule="nonzero"/><path fill="#b1c61c" d="M 291.554688 192.859375 C 290.972656 192.859375 290.425781 192.773438 289.996094 192.539062 C 289.96875 188.230469 290.335938 183.742188 291.539062 180.082031 C 292.125 183.003906 292.886719 187.917969 293.570312 192.601562 C 292.933594 192.746094 292.222656 192.859375 291.554688 192.859375 " fill-opacity="1" fill-rule="nonzero"/><path fill="#bfd61e" d="M 303.53125 175.453125 C 301.539062 175.128906 300.46875 172.082031 300.46875 172.082031 C 300.46875 172.082031 310.667969 163.851562 314.292969 162.480469 C 312.871094 164.378906 307.6875 170.355469 305.269531 173.648438 C 305.113281 172.605469 304.921875 171.734375 304.675781 171.164062 C 304.195312 172.441406 303.824219 173.90625 303.53125 175.453125 " fill-opacity="1" fill-rule="nonzero"/><path fill="#b1c61c" d="M 303.871094 175.480469 C 303.753906 175.480469 303.640625 175.46875 303.53125 175.453125 C 303.824219 173.90625 304.199219 172.441406 304.679688 171.164062 C 304.921875 171.734375 305.113281 172.605469 305.269531 173.648438 C 304.6875 174.441406 304.265625 175.078125 304.097656 175.46875 C 304.019531 175.472656 303.945312 175.480469 303.871094 175.480469 " fill-opacity="1" fill-rule="nonzero"/><path fill="#46467c" d="M 143.34375 79.953125 C 147.933594 79.953125 150.230469 81.46875 150.230469 84.5 C 150.230469 87.496094 147.933594 88.988281 143.34375 88.988281 L 135.410156 88.988281 L 135.410156 96.570312 L 142.234375 96.570312 C 146.824219 96.570312 149.121094 98.058594 149.121094 101.03125 C 149.121094 104.007812 146.824219 105.492188 142.234375 105.492188 L 135.410156 105.492188 L 135.410156 113.597656 L 143.636719 113.597656 C 148.226562 113.597656 150.519531 115.085938 150.519531 118.058594 C 150.519531 121.03125 148.226562 122.519531 143.636719 122.519531 L 132.316406 122.519531 C 129.867188 122.519531 128.152344 122.101562 127.183594 121.265625 C 126.210938 120.429688 125.722656 118.808594 125.722656 116.398438 L 125.722656 86.773438 C 125.722656 84.246094 126.210938 82.480469 127.183594 81.46875 C 128.152344 80.457031 129.90625 79.953125 132.433594 79.953125 L 143.34375 79.953125 " fill-opacity="1" fill-rule="nonzero"/><path fill="#e4d7da" d="M 143.636719 122.519531 L 132.316406 122.519531 C 132.113281 122.519531 131.914062 122.515625 131.71875 122.511719 C 131.914062 122.515625 132.113281 122.519531 132.316406 122.519531 L 143.636719 122.519531 " fill-opacity="1" fill-rule="nonzero"/><path fill="#2d2f52" d="M 143.636719 122.519531 L 132.316406 122.519531 C 132.109375 122.519531 131.914062 122.515625 131.71875 122.511719 C 129.585938 122.445312 128.074219 122.03125 127.183594 121.265625 C 127.175781 121.261719 127.171875 121.257812 127.167969 121.25 C 126.472656 120.648438 126.035156 119.632812 125.839844 118.222656 C 129.355469 118.148438 134.242188 117.730469 138.121094 116.234375 C 138.523438 115.792969 138.96875 114.867188 139.433594 113.597656 L 143.636719 113.597656 C 148.226562 113.597656 150.523438 115.085938 150.523438 118.058594 C 150.523438 118.199219 150.515625 118.332031 150.507812 118.464844 C 150.300781 121.167969 148.011719 122.519531 143.636719 122.519531 " fill-opacity="1" fill-rule="nonzero"/><path fill="#2d2f52" d="M 142.238281 105.492188 L 141.761719 105.492188 C 142.4375 102.730469 143.113281 99.6875 143.753906 96.636719 C 147.277344 96.9375 149.070312 98.367188 149.121094 100.921875 C 149.121094 100.925781 149.121094 100.933594 149.121094 100.933594 C 149.121094 100.9375 149.121094 100.9375 149.121094 100.941406 C 149.121094 100.945312 149.121094 100.949219 149.121094 100.949219 C 149.121094 100.953125 149.121094 100.953125 149.121094 100.957031 C 149.121094 100.960938 149.121094 100.964844 149.121094 100.964844 C 149.121094 100.96875 149.121094 100.96875 149.121094 100.972656 C 149.121094 100.976562 149.121094 100.980469 149.121094 100.980469 C 149.121094 100.984375 149.121094 100.988281 149.121094 100.992188 C 149.121094 100.992188 149.121094 100.996094 149.121094 101 C 149.121094 101 149.121094 101.003906 149.121094 101.007812 C 149.121094 101.011719 149.121094 101.011719 149.121094 101.015625 C 149.121094 101.019531 149.121094 101.023438 149.121094 101.03125 C 149.121094 101.4375 149.078125 101.816406 148.996094 102.167969 C 148.449219 104.382812 146.199219 105.492188 142.238281 105.492188 " fill-opacity="1" fill-rule="nonzero"/><path fill="#a5a7a6" d="M 150.226562 84.5625 C 150.226562 84.5625 150.226562 84.558594 150.226562 84.558594 C 150.226562 84.558594 150.226562 84.5625 150.226562 84.5625 M 150.230469 84.546875 C 150.230469 84.546875 150.230469 84.542969 150.230469 84.539062 C 150.230469 84.542969 150.230469 84.546875 150.230469 84.546875 M 150.230469 84.535156 C 150.230469 84.53125 150.230469 84.527344 150.230469 84.523438 C 150.230469 84.527344 150.230469 84.53125 150.230469 84.535156 M 150.230469 84.515625 C 150.230469 84.511719 150.230469 84.507812 150.230469 84.5 C 150.230469 84.507812 150.230469 84.511719 150.230469 84.515625 M 150.230469 84.480469 C 150.230469 84.476562 150.230469 84.476562 150.230469 84.472656 C 150.230469 84.476562 150.230469 84.476562 150.230469 84.480469 " fill-opacity="1" fill-rule="nonzero"/><path fill="#2d2f52" d="M 145.3125 88.867188 C 145.949219 85.574219 146.492188 82.613281 146.890625 80.398438 C 149.082031 81.035156 150.210938 82.375 150.230469 84.449219 C 150.230469 84.449219 150.230469 84.449219 150.230469 84.453125 C 150.230469 84.457031 150.230469 84.464844 150.230469 84.472656 C 150.230469 84.476562 150.230469 84.476562 150.230469 84.480469 C 150.230469 84.484375 150.230469 84.492188 150.230469 84.5 C 150.230469 84.507812 150.230469 84.511719 150.230469 84.519531 C 150.230469 84.519531 150.230469 84.519531 150.230469 84.523438 C 150.230469 84.527344 150.230469 84.53125 150.230469 84.53125 C 150.230469 84.535156 150.230469 84.539062 150.230469 84.542969 C 150.230469 84.542969 150.230469 84.546875 150.230469 84.546875 C 150.230469 84.550781 150.230469 84.554688 150.226562 84.558594 C 150.226562 84.558594 150.226562 84.558594 150.226562 84.5625 C 150.203125 87.050781 148.550781 88.476562 145.3125 88.867188 " fill-opacity="1" fill-rule="nonzero"/><path fill="#5e5aa4" d="M 129.503906 116.234375 L 127.445312 114.765625 C 127.445312 114.765625 127.886719 84.046875 128.328125 83.164062 C 128.769531 82.28125 142.003906 81.839844 142.003906 81.839844 L 142.003906 84.191406 C 142.003906 84.191406 133.03125 85.660156 132.296875 86.835938 C 131.5625 88.011719 129.503906 116.234375 129.503906 116.234375 " fill-opacity="1" fill-rule="nonzero"/></svg>