<svg xmlns="http://www.w3.org/2000/svg" xmlns:xlink="http://www.w3.org/1999/xlink" width="512" zoomAndPan="magnify" viewBox="0 0 384 383.999986" height="512" preserveAspectRatio="xMidYMid meet" version="1.0"><defs><clipPath id="983718e8a8"><path d="M 68.160156 46 L 315.660156 46 L 315.660156 375 L 68.160156 375 Z M 68.160156 46 " clip-rule="nonzero"/></clipPath></defs><path fill="#d3d9ea" d="M 109.050781 58.007812 L 109.234375 46.5625 C 109.234375 46.5625 109.246094 44.128906 112.265625 40.949219 C 114.335938 38.769531 118.507812 36.042969 122.320312 34.277344 C 136.113281 27.894531 159.960938 24.304688 184.253906 24.238281 C 209.855469 24.171875 239.492188 26.070312 256.941406 32.511719 C 262.195312 34.449219 267.214844 37.316406 269.785156 40.269531 C 272.28125 43.136719 272.410156 46.117188 272.410156 46.117188 L 272.542969 56.890625 C 272.542969 56.890625 293.78125 63.578125 304.375 72.429688 C 314.964844 81.285156 314.898438 92.296875 314.898438 92.296875 L 314.863281 321.910156 C 314.863281 321.910156 314.226562 332.742188 309.09375 341.507812 C 303.960938 350.277344 294.328125 356.984375 294.328125 356.984375 C 294.328125 356.984375 290.351562 364.507812 281.714844 368.269531 C 264.011719 375.980469 230.316406 383.03125 196.214844 383.136719 C 167.949219 383.226562 136.566406 380.515625 113.058594 372.363281 C 96.824219 366.730469 91.351562 357.617188 91.351562 357.617188 C 91.351562 357.617188 81.265625 350.988281 75.742188 342.585938 C 70.222656 334.1875 69.257812 324.015625 69.257812 324.015625 L 69.230469 94.539062 C 69.230469 94.539062 68.152344 84.789062 78.109375 75.652344 C 88.0625 66.519531 109.050781 58.007812 109.050781 58.007812 " fill-opacity="1" fill-rule="evenodd"/><path fill="#977f74" d="M 146.257812 148.796875 C 146.257812 148.796875 149.550781 142.199219 154.265625 136.863281 C 157.980469 132.65625 162.417969 129.667969 167.90625 128.328125 C 178.132812 125.835938 185.003906 129.847656 185.003906 129.847656 C 185.003906 129.847656 193.796875 134.003906 197.296875 137.535156 C 200.796875 141.066406 205.5625 142.65625 207.472656 146.199219 C 208.808594 148.691406 209.976562 153.167969 210.03125 157.132812 C 210.109375 163.160156 208.535156 169.234375 208.300781 175.117188 C 208.113281 179.957031 212.785156 185.453125 212.785156 189.015625 C 212.78125 195.105469 208.21875 197.75 208.21875 197.75 L 191.1875 197.691406 C 191.1875 197.691406 105.96875 254.140625 94.738281 241.917969 C 93.464844 240.535156 92.125 237.375 92.554688 234.445312 C 93.359375 228.921875 87.488281 214.238281 92.382812 205.535156 C 97.007812 197.316406 104.074219 192.613281 111.84375 187.039062 C 117.210938 183.179688 123.15625 178.378906 127.910156 173.878906 C 139.25 163.171875 146.257812 148.796875 146.257812 148.796875 " fill-opacity="1" fill-rule="evenodd"/><path fill="#616e8a" d="M 126.277344 281.265625 C 126.277344 281.265625 135.511719 263.253906 140.699219 252.386719 C 145.890625 241.515625 147.757812 238.960938 147.757812 238.960938 L 166.113281 207.65625 C 166.113281 207.65625 171.371094 199.507812 177.828125 197.050781 C 184.285156 194.597656 191.945312 197.835938 191.945312 197.835938 C 191.945312 197.835938 203.257812 192.089844 208.59375 198.371094 C 211.464844 201.746094 214.425781 205.910156 216.894531 211.792969 C 221.28125 222.277344 224.347656 234.9375 224.347656 234.9375 L 231.019531 259.753906 L 235.410156 280.222656 L 239.117188 304.261719 L 206.632812 321.238281 C 206.632812 321.238281 200.589844 327.328125 192.09375 329.742188 C 183.605469 332.15625 172.671875 330.898438 172.671875 330.898438 C 172.671875 330.898438 170.308594 334.003906 164.65625 336.378906 C 159.601562 338.5 151.703125 339.996094 143.992188 338.722656 C 137.574219 337.664062 131.140625 336.292969 124.96875 332.914062 C 115.445312 327.699219 107.375 320.101562 107.375 320.101562 C 107.375 320.101562 109.292969 307.421875 113.898438 298.488281 C 118.503906 289.550781 126.277344 281.265625 126.277344 281.265625 " fill-opacity="1" fill-rule="evenodd"/><path fill="#ffe1c7" d="M 153.988281 163.394531 C 156.589844 162.34375 158.949219 164.851562 162.515625 166.523438 C 164.773438 167.578125 168.226562 168.300781 170.273438 167.566406 C 178.433594 164.632812 180.9375 156.101562 187.152344 151.046875 C 190.808594 148.070312 196.691406 147.25 199.152344 148.652344 C 203.734375 151.257812 203.410156 158.449219 202.714844 163.121094 C 201.902344 168.578125 201.703125 172.886719 200.769531 178.835938 C 199.101562 189.515625 191.007812 198.019531 191.007812 198.019531 C 191.007812 198.019531 187.320312 196.339844 183.992188 196.167969 C 180.664062 195.996094 177.691406 197.335938 177.691406 197.335938 C 177.691406 197.335938 172.148438 200.070312 171.296875 201.160156 C 170.449219 202.25 165.699219 207.667969 165.699219 207.667969 C 165.699219 207.667969 158.664062 193.574219 153.285156 186.667969 C 147.914062 179.75 142.601562 177.863281 142.601562 177.863281 C 142.601562 177.863281 146.953125 177.914062 149.621094 177.054688 C 152.28125 176.191406 153.261719 174.414062 153.261719 174.414062 C 153.261719 174.414062 151.175781 171.535156 151.085938 168.480469 C 151.023438 166.449219 152.292969 164.074219 153.988281 163.394531 " fill-opacity="1" fill-rule="evenodd"/><path fill="#ffe1c7" d="M 204.46875 316.214844 C 204.46875 316.214844 212.429688 317.0625 217.707031 315.359375 C 225.277344 312.910156 225.835938 310.304688 225.835938 310.304688 L 225.3125 307.222656 C 225.3125 307.222656 228.765625 307.464844 231.789062 306.957031 C 234.820312 306.457031 237.425781 305.207031 237.425781 305.207031 C 237.425781 305.207031 240.257812 313.535156 244.484375 319.429688 C 248.710938 325.324219 254.320312 328.78125 254.320312 328.78125 C 254.320312 328.78125 258.664062 331.660156 263.351562 333.691406 C 267.863281 335.644531 273.859375 336.429688 277.316406 337.671875 C 282.046875 339.371094 282.078125 342.367188 282.078125 342.367188 L 280.074219 344.355469 L 274.515625 345.746094 L 273.882812 347.636719 L 268.9375 350.277344 L 262.527344 350.554688 L 261.015625 351.257812 L 257.316406 351.011719 C 257.316406 351.011719 255.683594 351.515625 250.410156 351.757812 C 249.125 351.816406 246.246094 351.914062 244.4375 351.773438 C 241.230469 351.527344 232.929688 349 229.253906 348.476562 C 224.117188 347.738281 213.5 349.125 210.316406 346.617188 C 208.050781 344.832031 209.21875 337.855469 208.792969 332.246094 C 208.1875 324.304688 204.46875 316.214844 204.46875 316.214844 " fill-opacity="1" fill-rule="evenodd"/><path fill="#d3a581" d="M 116.527344 15.304688 C 123.226562 11.285156 132.0625 9.378906 142.449219 7.59375 C 159.777344 4.617188 180.019531 3.6875 200.191406 4.433594 C 217.464844 5.074219 234.917969 7.046875 247.828125 8.851562 C 257.90625 10.257812 266.140625 13.378906 269.292969 16.496094 C 273.566406 20.722656 270.980469 25.722656 268.527344 29.417969 C 266.148438 33.007812 264.59375 35.992188 264.59375 35.992188 C 264.59375 35.992188 264.746094 57.96875 264.558594 61.710938 C 264.277344 67.1875 262.886719 80.875 258.757812 84.695312 C 252.910156 90.113281 242.945312 92.152344 230.957031 93.875 C 201.03125 98.171875 161.222656 94.722656 161.222656 94.722656 C 161.222656 94.722656 144.265625 93.730469 132.214844 89.636719 C 125.582031 87.386719 121.617188 84.234375 120.015625 79.699219 C 118.597656 75.683594 117.507812 69.421875 117.210938 60.976562 C 116.878906 51.296875 117.433594 39.363281 116.964844 34.914062 C 116.648438 31.875 111.195312 25.75 111.148438 22.605469 C 111.121094 20.648438 112.761719 17.558594 116.527344 15.304688 " fill-opacity="1" fill-rule="evenodd"/><path fill="#cacbcd" d="M 101.871094 209.753906 C 101.871094 209.753906 104.496094 202.996094 109.933594 195.589844 C 117.992188 184.621094 131.285156 172.246094 143.742188 178.375 C 150.058594 181.480469 156.078125 191.394531 162.109375 201.605469 C 166.65625 209.304688 171.289062 216.765625 175.59375 223.894531 C 184.441406 238.5625 193.238281 246.847656 193.238281 246.847656 C 193.238281 246.847656 201.582031 250.203125 206.203125 250.613281 C 210.828125 251.023438 211.722656 248.488281 211.722656 248.488281 L 213.019531 245.597656 L 219.792969 241 L 224.183594 235.289062 C 224.183594 235.289062 220.847656 221.414062 216.886719 212.082031 C 212.925781 202.753906 208.148438 198.273438 208.148438 198.273438 L 210.265625 196.328125 C 210.265625 196.328125 215.019531 200.277344 218.042969 203.816406 C 224.070312 210.863281 230.839844 220.429688 232.863281 223 C 237.355469 228.726562 243.054688 238.945312 242.535156 244.097656 C 241.933594 250.101562 238.761719 253.402344 234.417969 256.78125 C 228.261719 261.574219 220.761719 264.9375 220.761719 264.9375 L 216.285156 266.164062 C 216.285156 266.164062 233.070312 276.378906 233.910156 279.730469 C 234.695312 282.878906 231.96875 287.804688 229.558594 290.238281 C 226.738281 293.082031 224.09375 293.195312 224.09375 293.195312 L 198.679688 280.132812 L 174.035156 263.59375 C 174.035156 263.59375 165.476562 255.996094 158.8125 249.726562 C 152.144531 243.460938 147.367188 238.523438 147.367188 238.523438 C 147.367188 238.523438 142.695312 248.394531 137.292969 259.691406 C 131.890625 270.996094 126.140625 284.0625 126.140625 284.0625 C 126.140625 284.0625 118.609375 289.25 113.855469 298.203125 C 109.097656 307.160156 107.121094 319.886719 107.121094 319.886719 L 111.90625 324.414062 C 111.90625 324.414062 107.742188 327.238281 101.472656 317.578125 C 96.433594 309.808594 94.046875 292.824219 93.773438 277.503906 C 93.535156 264.296875 93.980469 254.070312 96.003906 237.132812 C 98.027344 220.195312 101.871094 209.753906 101.871094 209.753906 " fill-opacity="1" fill-rule="evenodd"/><path fill="#ffe1c7" d="M 187.335938 248.523438 C 189.179688 247.925781 193.355469 247.027344 196.046875 247.054688 C 200.121094 247.09375 203.039062 248.320312 206.984375 248.488281 C 211.210938 248.671875 215.132812 247.824219 215.132812 247.824219 C 215.132812 247.824219 219.230469 250.707031 220.527344 254.65625 C 222.328125 260.140625 220.515625 263.554688 220.515625 263.554688 C 220.515625 263.554688 216.722656 265.375 212.164062 269.09375 C 207.496094 272.898438 202.015625 278.625 197.996094 280.40625 C 192.09375 283.023438 188.457031 276.984375 188.457031 276.984375 C 188.457031 276.984375 185.074219 276.949219 183.285156 275.789062 C 181.496094 274.632812 181.308594 272.351562 181.308594 272.351562 C 181.308594 272.351562 179.445312 272.277344 178.277344 271.15625 C 177.117188 270.039062 176.652344 267.878906 176.652344 267.878906 C 176.652344 267.878906 172.671875 265.917969 174.601562 263.207031 C 176.527344 260.492188 185.605469 257.257812 185.605469 257.257812 C 185.605469 257.257812 177.542969 258.679688 177.648438 255.402344 C 177.679688 254.492188 179.523438 253.507812 181.683594 252.078125 C 183.625 250.785156 185.808594 249.019531 187.335938 248.523438 " fill-opacity="1" fill-rule="evenodd"/><path fill="#ffe1c7" d="M 226.585938 292.519531 C 226.585938 292.519531 229.804688 290.246094 231.6875 287.128906 C 233.574219 284.019531 234.128906 280.058594 234.128906 280.058594 C 234.128906 280.058594 236.832031 281.464844 239.527344 282.300781 C 243.246094 283.457031 247.566406 284.324219 250.304688 286.089844 C 255.023438 289.144531 253.011719 292.265625 253.011719 292.265625 L 254.097656 294.964844 L 252.226562 298.78125 L 252.066406 303.039062 L 248.878906 305.824219 L 248.472656 309.945312 C 248.472656 309.945312 243.28125 311.933594 240.136719 309.945312 C 236.996094 307.960938 238.863281 304.222656 238.863281 304.222656 L 233.636719 300.089844 L 230.871094 296.109375 L 226.585938 292.519531 " fill-opacity="1" fill-rule="evenodd"/><path fill="#332e3c" d="M 158.679688 177.574219 C 158.660156 177.574219 158.640625 177.574219 158.621094 177.574219 C 156.292969 177.417969 154.125 176.285156 152.523438 174.386719 C 150.914062 172.480469 150.121094 170.085938 150.351562 167.816406 C 150.613281 165.222656 151.960938 163.164062 153.871094 162.441406 C 155.285156 161.90625 157.609375 161.855469 160.636719 164.667969 C 160.976562 164.980469 161 165.515625 160.679688 165.855469 C 160.363281 166.199219 159.832031 166.214844 159.488281 165.902344 C 157.597656 164.144531 155.859375 163.496094 154.464844 164.019531 C 153.175781 164.507812 152.21875 166.0625 152.027344 167.984375 C 151.84375 169.777344 152.511719 171.761719 153.808594 173.300781 C 155.113281 174.84375 156.863281 175.765625 158.734375 175.890625 C 159.199219 175.921875 159.550781 176.324219 159.519531 176.789062 C 159.488281 177.234375 159.121094 177.574219 158.679688 177.574219 " fill-opacity="1" fill-rule="nonzero"/><path fill="#332e3c" d="M 157.742188 171.875 C 157.425781 171.875 157.125 171.699219 156.980469 171.394531 C 156.628906 170.644531 156.140625 170.0625 155.347656 169.441406 C 154.984375 169.152344 154.921875 168.621094 155.207031 168.257812 C 155.496094 167.890625 156.023438 167.824219 156.390625 168.113281 C 157.386719 168.894531 158.035156 169.683594 158.503906 170.671875 C 158.703125 171.09375 158.523438 171.59375 158.101562 171.792969 C 157.984375 171.847656 157.863281 171.875 157.742188 171.875 " fill-opacity="1" fill-rule="nonzero"/><path fill="#332e3c" d="M 167.550781 168.730469 C 166.011719 168.730469 164.402344 168.421875 162.898438 167.792969 C 162.46875 167.609375 162.269531 167.117188 162.449219 166.6875 C 162.628906 166.261719 163.121094 166.054688 163.550781 166.234375 C 166.234375 167.363281 169.40625 167.300781 171.441406 166.085938 C 175.777344 163.484375 179.078125 159.597656 182.699219 154.558594 C 185.289062 150.957031 188.253906 147.4375 193.476562 147.378906 C 193.980469 147.414062 194.320312 147.746094 194.332031 148.214844 C 194.335938 148.675781 193.960938 149.058594 193.5 149.0625 C 189.472656 149.109375 186.992188 151.472656 184.066406 155.542969 C 180.324219 160.753906 176.886719 164.785156 172.304688 167.53125 C 170.96875 168.332031 169.304688 168.730469 167.550781 168.730469 " fill-opacity="1" fill-rule="nonzero"/><path fill="#332e3c" d="M 202.746094 163.699219 C 202.699219 163.699219 202.652344 163.695312 202.609375 163.6875 C 202.148438 163.613281 201.835938 163.179688 201.910156 162.722656 C 202.84375 157.046875 201.40625 150.304688 199.058594 149.351562 C 198.628906 149.175781 198.417969 148.6875 198.59375 148.253906 C 198.769531 147.824219 199.253906 147.617188 199.691406 147.792969 C 203.398438 149.292969 204.449219 157.660156 203.578125 162.992188 C 203.507812 163.40625 203.148438 163.699219 202.746094 163.699219 " fill-opacity="1" fill-rule="nonzero"/><path fill="#332e3c" d="M 177.519531 197.855469 C 177.375 197.855469 177.230469 197.816406 177.097656 197.742188 C 171.679688 194.632812 166.105469 189.347656 163.542969 184.898438 C 163.3125 184.5 163.449219 183.980469 163.851562 183.75 C 164.253906 183.515625 164.769531 183.652344 165.003906 184.058594 C 167.054688 187.617188 172.152344 192.960938 177.9375 196.277344 C 178.339844 196.511719 178.480469 197.027344 178.25 197.429688 C 178.09375 197.703125 177.808594 197.855469 177.519531 197.855469 " fill-opacity="1" fill-rule="nonzero"/><path fill="#332e3c" d="M 191.285156 198.316406 C 191.042969 198.316406 190.800781 198.207031 190.640625 198.007812 C 190.34375 197.648438 190.390625 197.117188 190.753906 196.824219 C 195.210938 193.152344 199.464844 182.902344 200.488281 175.996094 C 200.558594 175.535156 200.984375 175.21875 201.445312 175.289062 C 201.90625 175.355469 202.222656 175.785156 202.15625 176.246094 C 201.082031 183.453125 196.578125 194.210938 191.820312 198.121094 C 191.667969 198.253906 191.472656 198.316406 191.285156 198.316406 " fill-opacity="1" fill-rule="nonzero"/><path fill="#332e3c" d="M 208.464844 198.511719 C 208.214844 198.511719 207.964844 198.402344 207.796875 198.183594 C 207.515625 197.8125 207.582031 197.285156 207.953125 197 C 214.054688 192.304688 211.78125 187.335938 209.585938 182.53125 C 208.882812 181.003906 208.226562 179.5625 207.84375 178.152344 C 207.09375 175.414062 207.582031 171.449219 208.144531 166.863281 C 209.367188 156.898438 210.753906 145.605469 200.519531 142.019531 C 200.085938 141.863281 199.851562 141.382812 200.007812 140.945312 C 200.160156 140.503906 200.640625 140.273438 201.078125 140.425781 C 212.589844 144.464844 211.054688 157 209.816406 167.070312 C 209.296875 171.296875 208.808594 175.289062 209.46875 177.710938 C 209.816406 178.988281 210.449219 180.367188 211.113281 181.828125 C 213.355469 186.726562 216.140625 192.824219 208.976562 198.339844 C 208.828125 198.457031 208.648438 198.511719 208.464844 198.511719 " fill-opacity="1" fill-rule="nonzero"/><path fill="#332e3c" d="M 150.367188 143.855469 C 150.253906 143.855469 150.132812 143.832031 150.027344 143.78125 C 149.597656 143.59375 149.40625 143.09375 149.59375 142.671875 C 156.640625 126.664062 171.988281 126.527344 178.257812 127.210938 C 184.570312 127.898438 190.898438 131.003906 196.5625 136.203125 C 196.902344 136.511719 196.925781 137.050781 196.613281 137.390625 C 196.296875 137.734375 195.761719 137.757812 195.421875 137.441406 C 190.027344 132.492188 184.027344 129.535156 178.078125 128.886719 C 172.171875 128.246094 157.734375 128.363281 151.136719 143.351562 C 151 143.667969 150.6875 143.855469 150.367188 143.855469 " fill-opacity="1" fill-rule="nonzero"/><path fill="#332e3c" d="M 88.417969 233.800781 C 88.1875 233.800781 87.957031 233.707031 87.792969 233.519531 C 87.480469 233.171875 87.511719 232.640625 87.855469 232.332031 C 91.507812 229.054688 90.738281 224.171875 90.0625 219.863281 C 89.886719 218.714844 89.710938 217.636719 89.625 216.617188 C 89.097656 210.25 90.6875 205.316406 94.941406 200.113281 C 98.046875 196.3125 101.9375 193.421875 105.703125 190.621094 C 106.949219 189.695312 108.199219 188.769531 109.421875 187.804688 C 111.066406 186.511719 112.722656 185.234375 114.375 183.960938 C 121.960938 178.097656 129.132812 172.558594 134.144531 166.5625 C 140.855469 158.527344 144.519531 151.042969 145.78125 148.195312 C 145.972656 147.769531 146.464844 147.578125 146.894531 147.769531 C 147.320312 147.953125 147.511719 148.453125 147.320312 148.878906 C 146.027344 151.789062 142.285156 159.445312 135.4375 167.644531 C 130.308594 173.78125 123.066406 179.375 115.402344 185.296875 C 113.757812 186.566406 112.105469 187.839844 110.464844 189.128906 C 109.226562 190.101562 107.964844 191.039062 106.707031 191.976562 C 102.855469 194.839844 99.21875 197.546875 96.242188 201.179688 C 92.292969 206.011719 90.816406 210.585938 91.304688 216.476562 C 91.386719 217.433594 91.550781 218.488281 91.722656 219.601562 C 92.433594 224.097656 93.3125 229.695312 88.980469 233.585938 C 88.820312 233.730469 88.617188 233.800781 88.417969 233.800781 " fill-opacity="1" fill-rule="nonzero"/><path fill="#332e3c" d="M 179.984375 258.316406 C 178.878906 258.316406 178.09375 258.097656 177.53125 257.648438 C 176.941406 257.183594 176.628906 256.484375 176.609375 255.578125 C 176.5625 253.957031 177.867188 253.222656 179.507812 252.285156 C 180.527344 251.703125 181.792969 250.984375 183.207031 249.859375 C 187.082031 246.773438 195.933594 245.523438 200.1875 246.703125 C 202.15625 247.242188 208.984375 248.871094 214.363281 246.976562 C 214.796875 246.816406 215.28125 247.050781 215.4375 247.488281 C 215.59375 247.929688 215.359375 248.410156 214.921875 248.5625 C 209.078125 250.625 201.824219 248.902344 199.738281 248.324219 C 195.886719 247.261719 187.683594 248.449219 184.253906 251.179688 C 182.738281 252.386719 181.410156 253.140625 180.339844 253.75 C 178.8125 254.621094 178.277344 254.972656 178.289062 255.535156 C 178.304688 256.113281 178.503906 256.269531 178.578125 256.328125 C 178.960938 256.628906 180.039062 256.859375 183.027344 256.230469 C 185.011719 255.816406 185.96875 255.339844 186.898438 254.882812 C 187.875 254.398438 188.796875 253.945312 190.589844 253.730469 C 191.054688 253.667969 191.46875 254.003906 191.523438 254.464844 C 191.578125 254.929688 191.25 255.347656 190.789062 255.402344 C 189.28125 255.585938 188.5625 255.941406 187.644531 256.394531 C 186.671875 256.875 185.5625 257.421875 183.371094 257.882812 C 181.992188 258.171875 180.882812 258.316406 179.984375 258.316406 " fill-opacity="1" fill-rule="nonzero"/><path fill="#332e3c" d="M 176.933594 268.601562 C 176.519531 268.601562 176.175781 268.558594 175.90625 268.464844 C 174.398438 267.925781 173.332031 266.527344 173.191406 264.902344 C 173.070312 263.519531 173.652344 262.320312 174.757812 261.691406 L 175.03125 261.535156 C 176.621094 260.628906 178.121094 259.773438 181.722656 258.265625 C 184.492188 257.101562 187.058594 255.734375 190.027344 254.152344 C 191.0625 253.601562 192.164062 253.015625 193.347656 252.398438 C 193.761719 252.1875 194.269531 252.34375 194.484375 252.757812 C 194.699219 253.167969 194.539062 253.675781 194.128906 253.894531 C 192.945312 254.507812 191.851562 255.09375 190.816406 255.640625 C 187.808594 257.246094 185.214844 258.625 182.371094 259.816406 C 178.863281 261.285156 177.40625 262.121094 175.867188 263 L 175.59375 263.15625 C 174.847656 263.582031 174.835938 264.414062 174.867188 264.753906 C 174.9375 265.550781 175.460938 266.515625 176.472656 266.875 C 177.417969 267.207031 182.035156 265.976562 184.792969 265.238281 C 187.535156 264.503906 189.261719 264.050781 190.167969 264.023438 C 190.640625 264.027344 191.027344 264.375 191.039062 264.839844 C 191.050781 265.304688 190.6875 265.695312 190.222656 265.710938 C 189.460938 265.730469 187.308594 266.308594 185.226562 266.867188 C 181.421875 267.890625 178.597656 268.601562 176.933594 268.601562 " fill-opacity="1" fill-rule="nonzero"/><path fill="#332e3c" d="M 182.367188 273.066406 C 180.59375 273.066406 179.121094 272.898438 178.488281 272.4375 L 178.367188 272.351562 C 177.691406 271.867188 176.425781 270.96875 175.890625 268.53125 C 175.789062 268.078125 176.078125 267.628906 176.535156 267.53125 C 176.984375 267.429688 177.4375 267.714844 177.535156 268.167969 C 177.933594 269.972656 178.78125 270.578125 179.34375 270.976562 L 179.480469 271.074219 C 180.394531 271.742188 187.027344 271.273438 192.410156 270.433594 C 192.871094 270.367188 193.300781 270.679688 193.371094 271.140625 C 193.441406 271.597656 193.128906 272.03125 192.667969 272.101562 C 191.816406 272.234375 186.339844 273.066406 182.367188 273.066406 " fill-opacity="1" fill-rule="nonzero"/><path fill="#332e3c" d="M 188.8125 277.777344 C 187.695312 277.777344 186.636719 277.742188 185.769531 277.644531 C 183.785156 277.425781 181.277344 275.683594 180.332031 272.777344 C 180.191406 272.335938 180.429688 271.863281 180.875 271.71875 C 181.320312 271.570312 181.792969 271.816406 181.933594 272.257812 C 182.695312 274.597656 184.742188 275.835938 185.957031 275.96875 C 189.597656 276.371094 197.171875 275.644531 197.25 275.640625 C 197.710938 275.582031 198.121094 275.933594 198.167969 276.394531 C 198.214844 276.859375 197.875 277.273438 197.414062 277.316406 C 197.164062 277.339844 192.625 277.777344 188.8125 277.777344 " fill-opacity="1" fill-rule="nonzero"/><path fill="#332e3c" d="M 194.796875 281.820312 C 191.878906 281.820312 189.578125 279.757812 187.6875 277.675781 C 187.375 277.332031 187.398438 276.796875 187.746094 276.484375 C 188.09375 276.175781 188.621094 276.199219 188.9375 276.542969 C 190.839844 278.636719 192.964844 280.511719 195.589844 280.070312 C 199.101562 279.46875 204.265625 274.703125 207.347656 271.859375 C 207.832031 271.414062 208.28125 271 208.679688 270.640625 C 210.820312 268.714844 215.273438 264.699219 219.972656 262.632812 C 220.394531 262.445312 220.894531 262.636719 221.078125 263.0625 C 221.269531 263.492188 221.074219 263.988281 220.652344 264.175781 C 216.199219 266.132812 211.71875 270.171875 209.804688 271.894531 C 209.414062 272.253906 208.96875 272.65625 208.488281 273.101562 C 205.0625 276.261719 199.878906 281.042969 195.871094 281.730469 C 195.507812 281.789062 195.144531 281.820312 194.796875 281.820312 " fill-opacity="1" fill-rule="nonzero"/><path fill="#332e3c" d="M 245.824219 352.558594 C 244.011719 352.558594 242.0625 352.382812 239.78125 351.6875 C 234.328125 350.027344 230.582031 349.117188 226.441406 349.0625 C 225.566406 349.046875 224.464844 349.082031 223.253906 349.109375 C 219.792969 349.195312 215.472656 349.304688 212.945312 348.621094 C 207.828125 347.25 207.902344 343.507812 207.996094 338.328125 C 208.03125 336.363281 208.074219 334.128906 207.859375 331.632812 C 207.460938 327.003906 206.402344 323.914062 204.9375 319.640625 C 204.640625 318.765625 204.324219 317.839844 203.992188 316.839844 C 203.847656 316.398438 204.082031 315.921875 204.523438 315.777344 C 204.964844 315.628906 205.441406 315.867188 205.589844 316.308594 C 205.921875 317.304688 206.234375 318.222656 206.535156 319.09375 C 208.035156 323.480469 209.121094 326.652344 209.539062 331.488281 C 209.761719 334.074219 209.71875 336.351562 209.679688 338.359375 C 209.578125 343.765625 209.691406 346.003906 213.382812 346.992188 C 215.675781 347.609375 219.855469 347.507812 223.210938 347.425781 C 224.449219 347.390625 225.578125 347.363281 226.464844 347.378906 C 230.804688 347.433594 234.667969 348.371094 240.277344 350.078125 C 243.390625 351.027344 245.789062 350.910156 248.335938 350.789062 C 249.8125 350.71875 251.34375 350.648438 253.046875 350.789062 C 255.226562 350.964844 255.941406 350.503906 256.167969 350.210938 C 256.476562 349.8125 256.339844 349.164062 256.179688 348.691406 C 255.957031 348.046875 255.15625 347.847656 253.519531 347.496094 L 252.808594 347.335938 C 252.355469 347.234375 252.066406 346.78125 252.171875 346.332031 C 252.273438 345.875 252.722656 345.589844 253.179688 345.695312 L 253.871094 345.847656 C 255.667969 346.234375 257.222656 346.574219 257.765625 348.136719 C 258.203125 349.378906 258.109375 350.453125 257.496094 351.242188 C 256.710938 352.257812 255.203125 352.660156 252.910156 352.46875 C 251.316406 352.335938 249.839844 352.40625 248.410156 352.472656 C 247.566406 352.515625 246.714844 352.558594 245.824219 352.558594 " fill-opacity="1" fill-rule="nonzero"/><path fill="#332e3c" d="M 260.03125 351.996094 C 259.132812 351.996094 258.046875 351.851562 256.753906 351.625 C 256.296875 351.542969 255.992188 351.101562 256.074219 350.648438 C 256.15625 350.191406 256.601562 349.886719 257.046875 349.964844 C 258.699219 350.257812 260.675781 350.53125 261.3125 350.054688 C 261.472656 349.933594 261.664062 349.691406 261.75 348.871094 C 261.824219 348.195312 260.167969 346.898438 256.949219 345.828125 C 256.507812 345.675781 256.265625 345.199219 256.414062 344.757812 C 256.558594 344.320312 257.035156 344.082031 257.480469 344.226562 C 259.8125 345.003906 263.683594 346.664062 263.425781 349.050781 C 263.34375 349.820312 263.148438 350.785156 262.324219 351.398438 C 261.753906 351.828125 261 351.996094 260.03125 351.996094 " fill-opacity="1" fill-rule="nonzero"/><path fill="#332e3c" d="M 263.726562 351.5 C 263.210938 351.5 262.761719 351.4375 262.453125 351.398438 C 261.996094 351.335938 261.675781 350.910156 261.734375 350.449219 C 261.796875 349.988281 262.214844 349.664062 262.6875 349.730469 C 264.417969 349.964844 265.261719 349.703125 265.691406 348.792969 C 265.785156 348.601562 265.785156 348.421875 265.695312 348.207031 C 265.53125 347.808594 264.800781 346.761719 261.609375 345.632812 C 261.171875 345.480469 260.9375 344.996094 261.089844 344.558594 C 261.246094 344.121094 261.730469 343.882812 262.164062 344.046875 C 264.984375 345.039062 266.699219 346.222656 267.25 347.5625 C 267.523438 348.21875 267.507812 348.894531 267.214844 349.515625 C 266.421875 351.175781 264.90625 351.5 263.726562 351.5 " fill-opacity="1" fill-rule="nonzero"/><path fill="#332e3c" d="M 267.910156 351.039062 C 267.386719 351.039062 266.789062 350.976562 266.101562 350.839844 C 265.644531 350.742188 265.355469 350.292969 265.449219 349.839844 C 265.539062 349.382812 265.992188 349.085938 266.445312 349.183594 C 267.96875 349.503906 269.179688 349.359375 269.6875 348.804688 C 269.949219 348.507812 269.929688 348.1875 269.859375 347.972656 C 269.527344 346.910156 267.75 346.144531 265.058594 345.097656 C 264.625 344.929688 264.410156 344.445312 264.578125 344.007812 C 264.746094 343.574219 265.238281 343.363281 265.671875 343.527344 C 268.90625 344.789062 270.914062 345.683594 271.464844 347.472656 C 271.742188 348.347656 271.539062 349.269531 270.933594 349.9375 C 270.519531 350.394531 269.628906 351.039062 267.910156 351.039062 " fill-opacity="1" fill-rule="nonzero"/><path fill="#332e3c" d="M 270.929688 349.585938 C 270.480469 349.585938 270.109375 349.230469 270.089844 348.777344 C 270.066406 348.316406 270.429688 347.921875 270.890625 347.898438 C 272.261719 347.839844 273.0625 347.179688 273.253906 346.550781 C 273.417969 346.003906 273.136719 345.429688 272.457031 344.9375 C 271.140625 343.976562 267.707031 343.4375 264.382812 342.914062 C 262.308594 342.585938 260.160156 342.25 258.359375 341.789062 C 253.058594 340.4375 246.316406 336.6875 241.707031 333.988281 C 235.007812 330.054688 226.910156 324.117188 223.769531 312.984375 C 223.644531 312.539062 223.90625 312.074219 224.351562 311.949219 C 224.800781 311.820312 225.269531 312.082031 225.390625 312.53125 C 228.367188 323.078125 236.132812 328.761719 242.558594 332.53125 C 247.082031 335.183594 253.679688 338.855469 258.777344 340.15625 C 260.5 340.597656 262.609375 340.929688 264.652344 341.25 C 268.332031 341.828125 271.800781 342.375 273.449219 343.570312 C 274.710938 344.488281 275.242188 345.785156 274.863281 347.035156 C 274.425781 348.5 272.898438 349.5 270.96875 349.582031 C 270.953125 349.585938 270.941406 349.585938 270.929688 349.585938 " fill-opacity="1" fill-rule="nonzero"/><path fill="#332e3c" d="M 209.464844 317.175781 C 201.519531 317.175781 197.984375 314.515625 197.238281 313.308594 C 196.382812 311.921875 191.613281 299.902344 183.070312 277.589844 L 182.589844 276.339844 C 182.425781 275.90625 182.640625 275.421875 183.074219 275.25 C 183.507812 275.082031 183.996094 275.300781 184.164062 275.734375 L 184.640625 276.984375 C 195.796875 306.117188 198.21875 311.691406 198.667969 312.421875 C 199.214844 313.308594 203.40625 316.386719 213.847656 315.234375 C 216.820312 314.90625 223.222656 312.925781 224.777344 310.675781 C 225.101562 310.207031 225.070312 309.90625 225.027344 309.71875 C 224.863281 309.085938 224.601562 307.949219 224.230469 306.300781 C 223.546875 303.300781 222.527344 298.773438 220.957031 292.371094 C 220.851562 291.921875 221.125 291.460938 221.574219 291.355469 C 222.03125 291.242188 222.484375 291.519531 222.59375 291.972656 C 224.164062 298.390625 225.191406 302.925781 225.871094 305.925781 C 226.242188 307.554688 226.492188 308.671875 226.652344 309.296875 C 226.792969 309.832031 226.820312 310.675781 226.164062 311.636719 C 224.070312 314.667969 216.738281 316.609375 214.03125 316.910156 C 212.371094 317.09375 210.847656 317.175781 209.464844 317.175781 " fill-opacity="1" fill-rule="nonzero"/><path fill="#332e3c" d="M 210.671875 249.003906 C 210.289062 249.003906 209.941406 248.738281 209.855469 248.34375 C 209.386719 246.277344 208.925781 244.175781 208.460938 242.054688 C 205.09375 226.796875 201.621094 211.019531 195.847656 203.449219 C 192.292969 198.78125 187.585938 196.625 181.867188 197.035156 C 176.773438 197.398438 172.226562 200.722656 166.675781 208.144531 C 166.394531 208.515625 165.871094 208.589844 165.5 208.3125 C 165.125 208.035156 165.050781 207.507812 165.328125 207.132812 C 171.203125 199.28125 176.113281 195.757812 181.742188 195.355469 C 187.980469 194.902344 193.320312 197.351562 197.1875 202.425781 C 203.1875 210.292969 206.703125 226.253906 210.101562 241.695312 C 210.566406 243.808594 211.03125 245.90625 211.496094 247.972656 C 211.601562 248.425781 211.316406 248.878906 210.859375 248.980469 C 210.800781 248.996094 210.734375 249.003906 210.671875 249.003906 " fill-opacity="1" fill-rule="nonzero"/><path fill="#332e3c" d="M 124.875 288.632812 C 124.769531 288.632812 124.664062 288.609375 124.558594 288.570312 C 124.128906 288.394531 123.921875 287.902344 124.09375 287.472656 C 124.195312 287.21875 134.453125 261.960938 146.6875 238.300781 C 146.898438 237.882812 147.410156 237.726562 147.820312 237.9375 C 148.234375 238.15625 148.394531 238.660156 148.179688 239.074219 C 135.984375 262.664062 125.757812 287.851562 125.65625 288.101562 C 125.523438 288.433594 125.207031 288.632812 124.875 288.632812 " fill-opacity="1" fill-rule="nonzero"/><path fill="#332e3c" d="M 150.640625 339.847656 C 139.269531 339.847656 128.222656 335.910156 124.8125 333.90625 C 119.0625 330.527344 111.296875 325.132812 106.75 320.117188 C 106.4375 319.777344 106.460938 319.242188 106.808594 318.929688 C 107.152344 318.621094 107.683594 318.644531 107.996094 318.988281 C 112.417969 323.863281 120.28125 329.289062 125.664062 332.453125 C 130.949219 335.558594 155.242188 343.523438 169.121094 332.777344 C 178.753906 325.320312 182.277344 300.460938 183.96875 288.507812 C 184.3125 286.089844 184.578125 284.179688 184.832031 282.816406 C 184.914062 282.359375 185.355469 282.054688 185.8125 282.140625 C 186.269531 282.226562 186.574219 282.664062 186.488281 283.121094 C 186.242188 284.449219 185.960938 286.441406 185.632812 288.746094 C 183.78125 301.847656 180.328125 326.230469 170.152344 334.113281 C 164.636719 338.382812 157.574219 339.847656 150.640625 339.847656 " fill-opacity="1" fill-rule="nonzero"/><path fill="#332e3c" d="M 180.824219 332.199219 C 177.933594 332.199219 175.179688 331.894531 172.710938 331.332031 C 172.257812 331.230469 171.972656 330.777344 172.074219 330.324219 C 172.175781 329.871094 172.625 329.582031 173.082031 329.6875 C 182.707031 331.875 196.917969 330.027344 205.359375 320.816406 C 205.679688 320.472656 206.210938 320.453125 206.550781 320.761719 C 206.894531 321.078125 206.917969 321.613281 206.601562 321.957031 C 199.878906 329.289062 189.730469 332.199219 180.824219 332.199219 " fill-opacity="1" fill-rule="nonzero"/><path fill="#332e3c" d="M 109.566406 325.789062 C 108.550781 325.789062 107.644531 325.480469 106.671875 324.699219 C 100.019531 319.363281 95.570312 308.570312 94.152344 294.304688 C 91.421875 266.847656 93.253906 236.894531 98.945312 216.140625 C 102.773438 202.171875 114.355469 184.546875 129.085938 177.898438 C 134.722656 175.351562 145.59375 173.289062 155.027344 188.035156 C 156.484375 190.308594 158.570312 193.875 161.210938 198.390625 C 169.539062 212.632812 183.476562 236.464844 193.785156 246.253906 C 194.125 246.574219 194.140625 247.109375 193.820312 247.449219 C 193.5 247.78125 192.964844 247.800781 192.628906 247.476562 C 182.144531 237.523438 168.671875 214.484375 159.757812 199.242188 C 157.125 194.742188 155.050781 191.191406 153.609375 188.945312 C 144.855469 175.261719 134.921875 177.113281 129.777344 179.433594 C 115.523438 185.871094 104.292969 202.996094 100.570312 216.585938 C 94.929688 237.15625 93.117188 266.871094 95.828125 294.136719 C 97.683594 312.769531 104.078125 320.457031 107.726562 323.382812 C 108.824219 324.265625 109.675781 324.316406 111.84375 323.648438 C 112.292969 323.511719 112.761719 323.761719 112.898438 324.203125 C 113.035156 324.652344 112.789062 325.125 112.339844 325.261719 C 111.28125 325.585938 110.386719 325.789062 109.566406 325.789062 " fill-opacity="1" fill-rule="nonzero"/><path fill="#332e3c" d="M 174.148438 264.511719 C 173.972656 264.511719 173.796875 264.457031 173.648438 264.34375 C 167.609375 259.855469 159.46875 251.765625 151.597656 243.949219 C 142.582031 234.996094 133.257812 225.738281 129.117188 224.140625 C 128.683594 223.972656 128.46875 223.484375 128.636719 223.054688 C 128.804688 222.617188 129.289062 222.398438 129.726562 222.570312 C 134.195312 224.292969 143.222656 233.261719 152.785156 242.753906 C 160.613281 250.53125 168.710938 258.570312 174.648438 262.992188 C 175.023438 263.269531 175.101562 263.796875 174.824219 264.167969 C 174.660156 264.394531 174.40625 264.511719 174.148438 264.511719 " fill-opacity="1" fill-rule="nonzero"/><path fill="#332e3c" d="M 114.589844 216.632812 C 114.121094 216.632812 113.746094 216.253906 113.746094 215.792969 C 113.75 204.355469 120.132812 190.484375 124.542969 185.261719 C 124.847656 184.910156 125.375 184.863281 125.734375 185.164062 C 126.085938 185.464844 126.132812 185.996094 125.832031 186.351562 C 122.101562 190.765625 115.433594 204.378906 115.429688 215.792969 C 115.429688 216.253906 115.050781 216.632812 114.589844 216.632812 " fill-opacity="1" fill-rule="nonzero"/><path fill="#332e3c" d="M 107.632812 324.945312 C 107.257812 324.945312 106.914062 324.691406 106.820312 324.308594 C 105.964844 320.898438 106.6875 317.125 107.425781 313.855469 C 110.152344 301.808594 114.195312 293.882812 121.371094 286.503906 C 121.695312 286.175781 122.230469 286.164062 122.5625 286.488281 C 122.894531 286.8125 122.902344 287.347656 122.578125 287.679688 C 116.714844 293.710938 112.167969 300.535156 109.070312 314.230469 C 108.371094 317.308594 107.691406 320.851562 108.449219 323.902344 C 108.5625 324.351562 108.289062 324.808594 107.839844 324.921875 C 107.769531 324.9375 107.703125 324.945312 107.632812 324.945312 " fill-opacity="1" fill-rule="nonzero"/><path fill="#332e3c" d="M 104.421875 293.058594 C 104.277344 293.058594 104.136719 293.019531 104.003906 292.945312 C 103.601562 292.710938 103.460938 292.199219 103.691406 291.796875 C 106.484375 286.910156 114.253906 281.136719 123.710938 279.554688 C 124.15625 279.46875 124.601562 279.785156 124.679688 280.246094 C 124.753906 280.707031 124.445312 281.140625 123.984375 281.214844 C 115.144531 282.695312 107.683594 288.203125 105.152344 292.632812 C 104.996094 292.902344 104.710938 293.058594 104.421875 293.058594 " fill-opacity="1" fill-rule="nonzero"/><path fill="#332e3c" d="M 94.574219 242.789062 C 94.320312 242.789062 94.074219 242.679688 93.90625 242.464844 C 90.679688 238.265625 91.289062 234.523438 92.425781 231.101562 C 92.574219 230.660156 93.046875 230.425781 93.492188 230.566406 C 93.9375 230.714844 94.171875 231.195312 94.023438 231.636719 C 93.058594 234.535156 92.359375 237.683594 95.242188 241.433594 C 95.523438 241.804688 95.457031 242.332031 95.089844 242.617188 C 94.933594 242.734375 94.753906 242.789062 94.574219 242.789062 " fill-opacity="1" fill-rule="nonzero"/><path fill="#332e3c" d="M 145.253906 178.6875 C 143.28125 178.6875 141.269531 178.390625 139.480469 178.007812 C 139.027344 177.910156 138.734375 177.464844 138.832031 177.007812 C 138.933594 176.550781 139.378906 176.261719 139.835938 176.359375 C 144.140625 177.285156 149.792969 177.675781 152.328125 174.296875 C 152.605469 173.925781 153.136719 173.851562 153.507812 174.128906 C 153.878906 174.40625 153.953125 174.9375 153.675781 175.308594 C 151.757812 177.867188 148.550781 178.6875 145.253906 178.6875 " fill-opacity="1" fill-rule="nonzero"/><path fill="#332e3c" d="M 227.996094 308 C 227.007812 308 226.058594 307.925781 225.195312 307.765625 C 224.738281 307.675781 224.433594 307.234375 224.523438 306.777344 C 224.613281 306.320312 225.0625 306.023438 225.511719 306.105469 C 229.453125 306.859375 235.898438 305.484375 238.039062 303.433594 C 238.375 303.113281 238.90625 303.125 239.234375 303.464844 C 239.554688 303.800781 239.542969 304.332031 239.203125 304.652344 C 237.148438 306.617188 232.203125 308 227.996094 308 " fill-opacity="1" fill-rule="nonzero"/><path fill="#332e3c" d="M 235.496094 281.464844 C 235.101562 281.464844 234.753906 281.183594 234.671875 280.785156 C 233.257812 273.554688 231.75 266.898438 229.929688 259.839844 C 229.816406 259.386719 230.082031 258.929688 230.53125 258.8125 C 230.976562 258.695312 231.445312 258.96875 231.558594 259.417969 C 233.386719 266.507812 234.90625 273.199219 236.328125 280.457031 C 236.414062 280.917969 236.113281 281.359375 235.660156 281.449219 C 235.605469 281.460938 235.550781 281.464844 235.496094 281.464844 " fill-opacity="1" fill-rule="nonzero"/><path fill="#332e3c" d="M 224.15625 235.621094 C 223.785156 235.621094 223.449219 235.382812 223.34375 235.007812 C 218.800781 218.792969 215.179688 208.890625 212.28125 204.722656 C 206.757812 196.792969 204.417969 195.316406 199.105469 196.414062 C 196.507812 196.949219 193.347656 198.148438 192.914062 198.5625 C 192.585938 198.878906 192.050781 198.894531 191.722656 198.582031 C 191.398438 198.265625 191.363281 197.765625 191.667969 197.425781 C 192.523438 196.476562 196.804688 195.167969 198.769531 194.765625 C 205.21875 193.433594 208.148438 195.839844 213.664062 203.757812 C 216.714844 208.140625 220.304688 217.925781 224.964844 234.550781 C 225.085938 235 224.828125 235.464844 224.378906 235.589844 C 224.304688 235.613281 224.230469 235.621094 224.15625 235.621094 " fill-opacity="1" fill-rule="nonzero"/><path fill="#332e3c" d="M 218.761719 266.484375 C 218.515625 266.484375 218.265625 266.371094 218.101562 266.160156 C 217.816406 265.789062 217.878906 265.261719 218.246094 264.972656 C 220.570312 263.148438 221.105469 259.578125 219.671875 255.429688 C 218.265625 251.363281 215.296875 247.925781 213.183594 247.925781 C 212.71875 247.925781 212.34375 247.546875 212.34375 247.082031 C 212.34375 246.617188 212.71875 246.242188 213.183594 246.242188 C 216.5 246.242188 219.816406 250.691406 221.261719 254.878906 C 222.9375 259.742188 222.203125 264.011719 219.285156 266.300781 C 219.128906 266.421875 218.949219 266.484375 218.761719 266.484375 " fill-opacity="1" fill-rule="nonzero"/><path fill="#332e3c" d="M 211.894531 248.785156 C 211.808594 248.785156 211.71875 248.773438 211.628906 248.742188 C 211.1875 248.59375 210.953125 248.117188 211.097656 247.675781 C 211.738281 245.753906 213.308594 244.683594 215.132812 243.449219 C 215.992188 242.863281 216.96875 242.199219 217.96875 241.367188 C 219.746094 239.882812 220.488281 238.777344 221.207031 237.707031 C 221.683594 236.992188 222.179688 236.257812 222.9375 235.484375 C 225.6875 232.695312 230.855469 232.421875 234.449219 233.035156 C 234.90625 233.113281 235.214844 233.550781 235.140625 234.007812 C 235.058594 234.464844 234.617188 234.777344 234.167969 234.699219 C 230.722656 234.109375 226.28125 234.488281 224.136719 236.667969 C 223.488281 237.324219 223.074219 237.933594 222.605469 238.640625 C 221.855469 239.757812 221.011719 241.019531 219.046875 242.664062 C 217.984375 243.546875 216.96875 244.238281 216.078125 244.84375 C 214.382812 245.996094 213.152344 246.828125 212.699219 248.210938 C 212.578125 248.5625 212.25 248.785156 211.894531 248.785156 " fill-opacity="1" fill-rule="nonzero"/><path fill="#332e3c" d="M 218.765625 266.546875 C 218.667969 266.546875 218.570312 266.542969 218.488281 266.53125 C 217.785156 266.421875 217.320312 265.925781 217.308594 265.269531 C 217.296875 264.804688 217.667969 264.417969 218.128906 264.40625 C 218.511719 264.398438 218.765625 264.597656 218.910156 264.882812 C 218.925781 264.886719 218.933594 264.886719 218.949219 264.886719 C 221.898438 264.886719 238.246094 255.257812 241.167969 246.527344 C 243.421875 239.777344 236.597656 229.441406 228.882812 219.285156 C 227.996094 218.113281 227.125 216.957031 226.269531 215.816406 C 220.3125 207.910156 215.171875 201.082031 209.84375 197.03125 C 209.472656 196.75 209.40625 196.21875 209.6875 195.851562 C 209.964844 195.480469 210.488281 195.40625 210.867188 195.691406 C 216.375 199.882812 221.582031 206.796875 227.609375 214.800781 C 228.46875 215.941406 229.335938 217.097656 230.226562 218.261719 C 237.671875 228.070312 245.394531 239.199219 242.765625 247.066406 C 239.6875 256.265625 222.855469 266.546875 218.765625 266.546875 " fill-opacity="1" fill-rule="nonzero"/><path fill="#332e3c" d="M 280.121094 344.476562 C 279.652344 344.476562 279.28125 344.101562 279.28125 343.632812 C 279.28125 343.171875 279.652344 342.792969 280.121094 342.792969 C 280.425781 342.785156 280.929688 342.664062 281.039062 342.476562 C 281.105469 342.363281 281.082031 342.027344 280.773438 341.476562 C 279.273438 338.765625 274.335938 337.675781 272.859375 337.402344 C 267.40625 336.402344 259.21875 333.46875 253.214844 329.171875 C 247.332031 324.964844 241.203125 319.683594 236.570312 305.671875 C 236.425781 305.226562 236.664062 304.75 237.105469 304.605469 C 237.546875 304.457031 238.023438 304.699219 238.171875 305.140625 C 242.648438 318.683594 248.304688 323.589844 254.191406 327.800781 C 259.957031 331.925781 268.066406 334.808594 273.164062 335.746094 C 275.292969 336.132812 280.4375 337.394531 282.25 340.660156 C 282.835938 341.714844 282.914062 342.613281 282.488281 343.335938 C 281.832031 344.445312 280.296875 344.476562 280.121094 344.476562 " fill-opacity="1" fill-rule="nonzero"/><path fill="#332e3c" d="M 278.199219 345.839844 C 277.835938 345.839844 277.40625 345.800781 276.917969 345.703125 C 276.464844 345.617188 276.160156 345.179688 276.25 344.71875 C 276.339844 344.265625 276.777344 343.953125 277.238281 344.050781 C 278.523438 344.296875 278.882812 344.058594 278.910156 343.984375 C 279.128906 343.398438 277.816406 341.265625 276.335938 340.417969 C 275.933594 340.183594 275.796875 339.671875 276.023438 339.265625 C 276.257812 338.859375 276.769531 338.722656 277.171875 338.953125 C 278.96875 339.984375 281.148438 342.796875 280.492188 344.570312 C 280.261719 345.191406 279.675781 345.839844 278.199219 345.839844 " fill-opacity="1" fill-rule="nonzero"/><path fill="#332e3c" d="M 274.9375 346.546875 C 274.730469 346.546875 274.503906 346.535156 274.261719 346.511719 C 273.792969 346.464844 273.457031 346.050781 273.503906 345.589844 C 273.550781 345.128906 273.953125 344.789062 274.421875 344.832031 C 275.46875 344.933594 275.96875 344.742188 276.078125 344.519531 C 276.242188 344.207031 276.019531 343.414062 275.378906 342.683594 C 274.261719 341.414062 272.625 340.65625 272.605469 340.648438 C 272.183594 340.457031 272 339.957031 272.191406 339.53125 C 272.382812 339.109375 272.878906 338.921875 273.304688 339.113281 C 273.386719 339.152344 275.28125 340.023438 276.640625 341.566406 C 277.472656 342.511719 278.210938 344.050781 277.578125 345.285156 C 277.277344 345.882812 276.570312 346.546875 274.9375 346.546875 " fill-opacity="1" fill-rule="nonzero"/><path fill="#332e3c" d="M 273.539062 345.511719 C 273.101562 345.511719 272.734375 345.171875 272.699219 344.726562 C 272.632812 343.714844 271.292969 342.242188 269.179688 341.539062 C 268.738281 341.386719 268.5 340.910156 268.648438 340.46875 C 268.792969 340.03125 269.277344 339.792969 269.710938 339.941406 C 272.289062 340.804688 274.253906 342.765625 274.382812 344.609375 C 274.414062 345.074219 274.066406 345.480469 273.601562 345.507812 C 273.578125 345.507812 273.5625 345.511719 273.539062 345.511719 " fill-opacity="1" fill-rule="nonzero"/><path fill="#332e3c" d="M 190.21875 184.363281 C 189.921875 184.363281 189.628906 184.199219 189.476562 183.917969 C 189.257812 183.507812 189.414062 182.996094 189.824219 182.777344 C 191.957031 181.632812 191.675781 180.960938 191.0625 179.488281 C 190.789062 178.828125 190.480469 178.082031 190.40625 177.230469 C 190.203125 174.769531 192.210938 172.230469 192.296875 172.121094 C 192.589844 171.761719 193.113281 171.699219 193.480469 171.992188 C 193.84375 172.285156 193.902344 172.8125 193.609375 173.175781 C 193.144531 173.761719 191.960938 175.605469 192.085938 177.09375 C 192.132812 177.679688 192.367188 178.242188 192.617188 178.839844 C 193.242188 180.34375 194.101562 182.402344 190.617188 184.261719 C 190.492188 184.328125 190.355469 184.363281 190.21875 184.363281 " fill-opacity="1" fill-rule="nonzero"/><path fill="#332e3c" d="M 192.507812 191.289062 C 192.394531 191.289062 192.273438 191.265625 192.160156 191.214844 C 189.839844 190.160156 186.894531 190.53125 184.316406 191.027344 C 183.859375 191.113281 183.417969 190.820312 183.328125 190.363281 C 183.238281 189.90625 183.539062 189.464844 183.992188 189.375 C 186.835938 188.824219 190.105469 188.429688 192.855469 189.683594 C 193.28125 189.871094 193.46875 190.375 193.273438 190.796875 C 193.136719 191.105469 192.828125 191.289062 192.507812 191.289062 " fill-opacity="1" fill-rule="nonzero"/><path fill="#332e3c" d="M 183.519531 174.328125 C 182.050781 174.328125 180.6875 173.914062 179.394531 173.082031 C 179.003906 172.832031 178.886719 172.308594 179.140625 171.917969 C 179.390625 171.523438 179.914062 171.414062 180.304688 171.664062 C 181.84375 172.65625 183.457031 172.882812 185.371094 172.390625 C 185.824219 172.273438 186.28125 172.542969 186.398438 172.992188 C 186.515625 173.441406 186.246094 173.902344 185.792969 174.019531 C 185.007812 174.226562 184.25 174.328125 183.519531 174.328125 " fill-opacity="1" fill-rule="nonzero"/><path fill="#332e3c" d="M 197.980469 174.796875 C 197.210938 174.796875 196.429688 174.605469 195.632812 174.226562 C 195.210938 174.027344 195.03125 173.527344 195.230469 173.105469 C 195.429688 172.683594 195.933594 172.507812 196.351562 172.707031 C 197.648438 173.316406 198.777344 173.230469 200.011719 172.421875 C 200.402344 172.171875 200.925781 172.277344 201.179688 172.667969 C 201.433594 173.054688 201.324219 173.578125 200.9375 173.832031 C 199.960938 174.476562 198.980469 174.796875 197.980469 174.796875 " fill-opacity="1" fill-rule="nonzero"/><path fill="#332e3c" d="M 184.464844 168.535156 C 183.675781 168.535156 182.871094 168.496094 182.089844 168.460938 C 181.363281 168.429688 180.65625 168.398438 180.003906 168.398438 C 179.542969 168.398438 179.164062 168.019531 179.164062 167.558594 C 179.164062 167.089844 179.542969 166.710938 180.003906 166.710938 C 180.675781 166.710938 181.410156 166.746094 182.164062 166.777344 C 184.933594 166.902344 188.078125 167.042969 188.417969 165.480469 C 188.519531 165.03125 188.96875 164.734375 189.421875 164.839844 C 189.875 164.941406 190.164062 165.390625 190.0625 165.84375 C 189.5625 168.121094 187.128906 168.535156 184.464844 168.535156 " fill-opacity="1" fill-rule="nonzero"/><path fill="#332e3c" d="M 201.875 169.734375 C 201.835938 169.734375 201.792969 169.730469 201.753906 169.726562 C 197.558594 169.140625 196.144531 168.945312 195.910156 166.175781 C 195.875 165.714844 196.21875 165.304688 196.683594 165.269531 C 197.140625 165.230469 197.554688 165.574219 197.589844 166.039062 C 197.707031 167.378906 197.710938 167.460938 201.988281 168.058594 C 202.445312 168.121094 202.769531 168.546875 202.707031 169.007812 C 202.648438 169.429688 202.285156 169.734375 201.875 169.734375 " fill-opacity="1" fill-rule="nonzero"/><path fill="#332e3c" d="M 191.496094 167.757812 C 191.386719 167.757812 191.273438 167.734375 191.164062 167.691406 C 190.738281 167.507812 190.539062 167.011719 190.71875 166.585938 C 190.839844 166.308594 191.164062 165.515625 191.265625 165.15625 C 191.394531 164.710938 191.859375 164.449219 192.304688 164.578125 C 192.753906 164.703125 193.015625 165.167969 192.890625 165.617188 C 192.742188 166.140625 192.320312 167.132812 192.269531 167.246094 C 192.132812 167.566406 191.820312 167.757812 191.496094 167.757812 " fill-opacity="1" fill-rule="nonzero"/><path fill="#332e3c" d="M 224.449219 293.914062 C 224.007812 293.914062 223.589844 293.835938 223.21875 293.671875 C 218.597656 291.652344 213.871094 289.0625 209.695312 286.773438 L 208.101562 285.902344 C 203.292969 283.277344 200.75 282.078125 198.402344 281.078125 C 197.972656 280.894531 197.773438 280.402344 197.957031 279.972656 C 198.136719 279.546875 198.632812 279.347656 199.058594 279.527344 C 201.453125 280.542969 204.042969 281.765625 208.910156 284.421875 L 210.5 285.296875 C 214.648438 287.566406 219.34375 290.140625 223.890625 292.125 C 224.925781 292.582031 227.597656 291.496094 229.605469 288.707031 C 232.300781 284.960938 233.5625 279.898438 232.769531 279.085938 C 230.570312 276.824219 227.949219 275.050781 222.726562 271.515625 C 220.792969 270.207031 218.511719 268.660156 215.753906 266.757812 C 215.371094 266.488281 215.273438 265.964844 215.535156 265.585938 C 215.804688 265.199219 216.324219 265.101562 216.710938 265.371094 C 219.460938 267.269531 221.742188 268.816406 223.667969 270.117188 C 228.984375 273.71875 231.65625 275.527344 233.972656 277.90625 C 236.042969 280.027344 233.117188 286.703125 230.972656 289.691406 C 229.113281 292.273438 226.488281 293.914062 224.449219 293.914062 " fill-opacity="1" fill-rule="nonzero"/><path fill="#332e3c" d="M 242.441406 307.925781 C 242.242188 307.925781 242.039062 307.851562 241.878906 307.707031 C 241.855469 307.691406 239.734375 305.792969 237.386719 303.921875 C 236.84375 303.488281 236.359375 303.128906 235.898438 302.789062 C 234.363281 301.664062 233.042969 300.6875 230.800781 297.777344 C 229.160156 295.640625 228.484375 294.839844 226.34375 293.539062 C 225.949219 293.292969 225.820312 292.78125 226.0625 292.382812 C 226.304688 291.984375 226.820312 291.855469 227.222656 292.097656 C 229.636719 293.566406 230.46875 294.585938 232.132812 296.746094 C 234.234375 299.46875 235.410156 300.335938 236.898438 301.433594 C 237.371094 301.78125 237.875 302.152344 238.433594 302.601562 C 240.828125 304.503906 242.980469 306.433594 243.003906 306.457031 C 243.347656 306.765625 243.378906 307.296875 243.070312 307.640625 C 242.902344 307.828125 242.671875 307.925781 242.441406 307.925781 " fill-opacity="1" fill-rule="nonzero"/><path fill="#332e3c" d="M 243.789062 311.476562 C 241.871094 311.476562 239.894531 311.125 238.660156 309.816406 C 237.652344 308.75 237.316406 307.234375 237.664062 305.3125 C 237.75 304.851562 238.199219 304.554688 238.644531 304.632812 C 239.105469 304.714844 239.402344 305.15625 239.320312 305.613281 C 239.070312 306.996094 239.253906 307.992188 239.882812 308.660156 C 240.871094 309.703125 243.042969 310.019531 246.351562 309.609375 C 247.632812 309.449219 247.640625 309.128906 247.691406 307.925781 C 247.722656 307.214844 247.761719 306.324219 248.226562 305.464844 C 248.46875 305.023438 248.910156 304.710938 249.417969 304.351562 C 250.066406 303.894531 250.804688 303.378906 251.078125 302.617188 C 251.414062 301.703125 251.382812 300.886719 251.355469 299.851562 L 251.339844 299.167969 C 251.332031 298.507812 251.707031 297.863281 252.140625 297.117188 C 252.546875 296.421875 253 295.632812 253.050781 294.929688 C 253.074219 294.519531 252.96875 294.320312 252.769531 293.96875 C 252.421875 293.34375 251.9375 292.484375 252.429688 290.542969 C 252.933594 288.550781 249.285156 286.179688 245.421875 284.859375 C 244.421875 284.519531 243.375 284.304688 242.265625 284.074219 C 239.660156 283.535156 236.707031 282.925781 233.464844 280.488281 C 233.089844 280.207031 233.015625 279.683594 233.292969 279.308594 C 233.566406 278.933594 234.097656 278.859375 234.472656 279.140625 C 237.417969 281.351562 240.054688 281.898438 242.609375 282.425781 C 243.765625 282.664062 244.871094 282.890625 245.964844 283.265625 C 250.230469 284.71875 254.910156 287.601562 254.0625 290.957031 C 253.734375 292.246094 253.953125 292.644531 254.242188 293.144531 C 254.488281 293.582031 254.789062 294.128906 254.734375 295.039062 C 254.660156 296.136719 254.066406 297.148438 253.59375 297.964844 C 253.367188 298.355469 253.023438 298.949219 253.023438 299.144531 L 253.039062 299.800781 C 253.074219 300.921875 253.105469 301.976562 252.664062 303.191406 C 252.203125 304.453125 251.160156 305.1875 250.390625 305.730469 C 250.128906 305.914062 249.773438 306.164062 249.703125 306.273438 C 249.429688 306.785156 249.402344 307.375 249.375 308 C 249.324219 309.242188 249.253906 310.941406 246.554688 311.28125 C 245.71875 311.386719 244.757812 311.476562 243.789062 311.476562 " fill-opacity="1" fill-rule="nonzero"/><path fill="#332e3c" d="M 169.636719 199.527344 C 169.417969 199.527344 169.199219 199.441406 169.035156 199.273438 C 168.707031 198.941406 168.714844 198.40625 169.046875 198.082031 C 169.164062 197.96875 171.902344 195.292969 173.902344 194.21875 C 174.3125 194 174.824219 194.152344 175.046875 194.5625 C 175.265625 194.972656 175.109375 195.484375 174.699219 195.703125 C 172.910156 196.664062 170.253906 199.261719 170.226562 199.289062 C 170.0625 199.445312 169.851562 199.527344 169.636719 199.527344 " fill-opacity="1" fill-rule="nonzero"/><g clip-path="url(#983718e8a8)"><path fill="#332e3c" d="M 190.429688 48.070312 C 148.269531 48.070312 116.894531 53.761719 94.507812 65.460938 C 77.789062 74.203125 70.027344 83.503906 70.074219 94.742188 L 70.074219 320.988281 C 70.449219 343.097656 87.96875 353.972656 88.144531 354.078125 C 88.183594 354.105469 88.222656 354.128906 88.257812 354.164062 C 88.476562 354.347656 110.636719 372.613281 192.574219 372.617188 C 193.050781 372.617188 193.511719 372.617188 193.984375 372.613281 C 228.269531 372.527344 253.074219 368.269531 267.847656 364.710938 C 283.851562 360.851562 291.855469 356.964844 291.929688 356.929688 C 292.167969 356.820312 312.546875 347.527344 313.976562 320.945312 L 313.972656 94.742188 C 313.835938 85.753906 312.1875 76.820312 293.792969 66.515625 C 278.605469 58.007812 242.421875 48.070312 190.429688 48.070312 Z M 192.539062 374.304688 C 111 374.308594 88.695312 356.734375 87.207031 355.484375 C 86.007812 354.71875 68.769531 343.390625 68.386719 321.003906 L 68.386719 94.742188 L 68.386719 94.746094 C 68.335938 82.808594 76.390625 73.03125 93.726562 63.96875 C 116.359375 52.136719 147.992188 46.386719 190.429688 46.386719 C 209.347656 46.386719 229.292969 47.910156 246.601562 50.675781 C 267.058594 53.941406 283.664062 58.910156 294.621094 65.046875 C 311.988281 74.777344 315.480469 83.296875 315.65625 94.730469 L 315.65625 320.988281 C 314.171875 348.6875 292.855469 358.363281 292.640625 358.453125 C 292.351562 358.601562 284.480469 362.429688 268.324219 366.328125 C 253.453125 369.917969 228.484375 374.214844 193.992188 374.300781 C 193.511719 374.304688 193.015625 374.304688 192.539062 374.304688 " fill-opacity="1" fill-rule="nonzero"/></g><path fill="#332e3c" d="M 193.0625 383.941406 C 119.398438 383.941406 99.140625 366.40625 97.734375 365.097656 C 97.21875 364.746094 93.8125 362.316406 90.144531 357.644531 C 89.859375 357.28125 89.921875 356.75 90.289062 356.460938 C 90.65625 356.175781 91.183594 356.238281 91.472656 356.609375 C 95.191406 361.335938 98.695312 363.714844 98.730469 363.738281 C 98.769531 363.761719 98.808594 363.796875 98.84375 363.832031 C 99.039062 364.015625 119.050781 382.257812 193.09375 382.257812 C 193.519531 382.257812 193.9375 382.257812 194.363281 382.257812 C 225.34375 382.171875 247.757812 377.910156 261.105469 374.359375 C 275.566406 370.503906 282.796875 366.625 282.863281 366.582031 C 282.960938 366.539062 289.199219 363.429688 294.632812 355.742188 C 294.902344 355.359375 295.425781 355.269531 295.804688 355.539062 C 296.1875 355.808594 296.273438 356.335938 296.007812 356.710938 C 290.3125 364.78125 283.902344 367.949219 283.636719 368.082031 C 283.382812 368.222656 254.132812 383.773438 194.367188 383.941406 C 193.933594 383.941406 193.496094 383.941406 193.0625 383.941406 " fill-opacity="1" fill-rule="nonzero"/><path fill="#332e3c" d="M 191.996094 369.371094 C 129.835938 369.371094 81.148438 356.621094 81.148438 340.335938 C 81.148438 334.671875 87.085938 329.246094 98.320312 324.640625 C 98.746094 324.464844 99.242188 324.667969 99.417969 325.101562 C 99.59375 325.53125 99.390625 326.023438 98.957031 326.199219 C 88.410156 330.527344 82.832031 335.414062 82.832031 340.335938 C 82.832031 355.164062 132.824219 367.683594 191.996094 367.683594 C 251.167969 367.683594 301.160156 355.164062 301.160156 340.335938 C 301.160156 331.019531 281.207031 322.109375 249.078125 317.085938 C 248.617188 317.015625 248.304688 316.585938 248.375 316.128906 C 248.445312 315.664062 248.867188 315.351562 249.335938 315.421875 C 282.84375 320.664062 302.839844 329.972656 302.839844 340.335938 C 302.839844 356.621094 254.152344 369.371094 191.996094 369.371094 " fill-opacity="1" fill-rule="nonzero"/><path fill="#332e3c" d="M 108.898438 58.289062 C 108.429688 58.289062 108.054688 57.910156 108.054688 57.445312 L 108.078125 49.585938 C 108.042969 42.910156 111.0625 37.605469 126.1875 31.792969 C 145.527344 24.363281 169.292969 23.359375 189.992188 23.359375 C 207.304688 23.359375 239.144531 24.488281 257.9375 32.03125 C 270.792969 37.191406 273.375 42.125 273.484375 48.894531 L 273.492188 56.414062 C 273.492188 56.882812 273.113281 57.261719 272.652344 57.261719 C 272.183594 57.261719 271.808594 56.882812 271.808594 56.421875 L 271.800781 48.910156 C 271.710938 43.683594 270.566406 38.917969 257.308594 33.597656 C 238.78125 26.15625 207.179688 25.046875 189.992188 25.046875 C 169.445312 25.046875 145.871094 26.035156 126.792969 33.367188 C 112.574219 38.832031 109.734375 43.621094 109.757812 49.582031 L 109.738281 57.445312 C 109.738281 57.910156 109.359375 58.289062 108.898438 58.289062 " fill-opacity="1" fill-rule="nonzero"/><path fill="#332e3c" d="M 130.757812 10.1875 L 130.769531 10.1875 Z M 189.789062 4.933594 C 169.015625 4.933594 148.070312 6.753906 130.960938 11.007812 C 120 13.730469 113.957031 16.804688 112.480469 20.40625 C 111.296875 23.300781 113.15625 26.335938 115.125 29.542969 C 116.527344 31.84375 117.984375 34.21875 118.171875 36.554688 L 118.058594 55.832031 C 118.042969 56.058594 117 74.171875 122.75 82.84375 C 127.882812 90.578125 153.1875 95.097656 192.179688 95.238281 C 230.421875 95.363281 256.511719 89.949219 260.148438 81.074219 C 264.363281 70.765625 263.714844 55.019531 263.707031 54.863281 L 263.648438 36.457031 C 263.648438 36.410156 263.652344 36.355469 263.660156 36.304688 C 263.933594 34.796875 265.121094 33.015625 266.492188 30.953125 C 268.804688 27.480469 271.679688 23.160156 270.222656 19.46875 C 268.902344 16.125 264.144531 13.472656 256.078125 11.578125 C 238.644531 7.480469 214.339844 4.933594 189.789062 4.933594 Z M 193.273438 96.925781 C 192.890625 96.925781 192.523438 96.921875 192.171875 96.921875 C 168.921875 96.839844 128.804688 95.019531 121.347656 83.773438 C 115.285156 74.628906 116.328125 56.539062 116.378906 55.773438 L 116.492188 36.621094 C 116.339844 34.757812 115.050781 32.652344 113.6875 30.425781 C 111.585938 26.996094 109.414062 23.453125 110.921875 19.765625 C 112.636719 15.578125 118.875 12.273438 130.554688 9.371094 C 168.132812 0.0351562 224.082031 2.328125 256.464844 9.933594 C 265.222656 11.992188 270.234375 14.910156 271.792969 18.851562 C 273.570312 23.363281 270.421875 28.089844 267.890625 31.886719 C 266.703125 33.679688 265.574219 35.371094 265.335938 36.535156 L 265.390625 54.824219 C 265.417969 55.449219 266.0625 71.058594 261.707031 81.710938 C 255.980469 95.699219 209.28125 96.925781 193.273438 96.925781 " fill-opacity="1" fill-rule="nonzero"/><path fill="#332e3c" d="M 255.15625 80.800781 C 254.902344 80.800781 254.648438 80.6875 254.480469 80.464844 C 251.414062 76.351562 226.699219 72.101562 190.65625 72.101562 C 159.023438 72.101562 131.6875 75.578125 127.074219 80.191406 C 126.742188 80.515625 126.207031 80.515625 125.882812 80.191406 C 125.554688 79.859375 125.554688 79.324219 125.886719 78.996094 C 130.859375 74.023438 158.101562 70.417969 190.65625 70.417969 C 219.691406 70.417969 251.402344 73.523438 255.832031 79.453125 C 256.109375 79.828125 256.035156 80.355469 255.660156 80.636719 C 255.507812 80.75 255.332031 80.800781 255.15625 80.800781 " fill-opacity="1" fill-rule="nonzero"/><path fill="#332e3c" d="M 79.359375 328.746094 C 79.011719 328.746094 78.683594 328.527344 78.5625 328.179688 C 77.179688 324.191406 76.4375 319.960938 76.363281 315.601562 L 76.363281 100.390625 C 76.316406 89.027344 83.871094 79.710938 100.132812 71.085938 C 121.347656 59.828125 151 54.351562 190.777344 54.351562 C 221.421875 54.351562 265.386719 59.003906 288.429688 72.113281 C 304.71875 81.375 308.003906 89.488281 308.171875 100.378906 L 308.171875 315.589844 C 307.949219 319.726562 307.269531 323.65625 306.140625 327.320312 C 306.003906 327.765625 305.535156 328.015625 305.089844 327.875 C 304.644531 327.738281 304.394531 327.265625 304.53125 326.820312 C 305.617188 323.292969 306.273438 319.496094 306.484375 315.542969 L 306.484375 100.390625 C 306.359375 91.851562 304.8125 83.363281 287.601562 73.574219 C 264.839844 60.632812 221.214844 56.039062 190.777344 56.039062 C 151.28125 56.039062 121.890625 61.445312 100.921875 72.574219 C 85.273438 80.875 78.003906 89.710938 78.050781 100.386719 L 78.050781 315.589844 C 78.117188 319.753906 78.828125 323.808594 80.152344 327.628906 C 80.304688 328.066406 80.074219 328.546875 79.632812 328.699219 C 79.542969 328.726562 79.445312 328.746094 79.359375 328.746094 " fill-opacity="1" fill-rule="nonzero"/><path fill="#332e3c" d="M 235.074219 136.324219 C 234.605469 136.324219 234.234375 135.945312 234.234375 135.480469 L 234.234375 121.382812 C 234.234375 120.917969 234.605469 120.539062 235.074219 120.539062 C 235.539062 120.539062 235.914062 120.917969 235.914062 121.382812 L 235.914062 135.480469 C 235.914062 135.945312 235.539062 136.324219 235.074219 136.324219 " fill-opacity="1" fill-rule="nonzero"/><path fill="#332e3c" d="M 222.183594 148.625 C 221.71875 148.625 221.34375 148.246094 221.34375 147.78125 L 221.34375 133.683594 C 221.34375 133.214844 221.71875 132.835938 222.183594 132.835938 C 222.648438 132.835938 223.027344 133.214844 223.027344 133.683594 L 223.027344 147.78125 C 223.027344 148.246094 222.648438 148.625 222.183594 148.625 " fill-opacity="1" fill-rule="nonzero"/><path fill="#332e3c" d="M 203.875 122.714844 C 203.410156 122.714844 203.03125 122.335938 203.03125 121.871094 L 203.03125 107.773438 C 203.03125 107.3125 203.410156 106.933594 203.875 106.933594 C 204.335938 106.933594 204.71875 107.3125 204.71875 107.773438 L 204.71875 121.871094 C 204.71875 122.335938 204.335938 122.714844 203.875 122.714844 " fill-opacity="1" fill-rule="nonzero"/><path fill="#332e3c" d="M 258.949219 113.945312 C 258.484375 113.945312 258.105469 113.566406 258.105469 113.101562 L 258.105469 99.003906 C 258.105469 98.535156 258.484375 98.160156 258.949219 98.160156 C 259.410156 98.160156 259.792969 98.535156 259.792969 99.003906 L 259.792969 113.101562 C 259.792969 113.566406 259.410156 113.945312 258.949219 113.945312 " fill-opacity="1" fill-rule="nonzero"/><path fill="#332e3c" d="M 258.949219 174.429688 C 258.484375 174.429688 258.105469 174.054688 258.105469 173.589844 L 258.105469 159.492188 C 258.105469 159.023438 258.484375 158.648438 258.949219 158.648438 C 259.410156 158.648438 259.792969 159.023438 259.792969 159.492188 L 259.792969 173.589844 C 259.792969 174.054688 259.410156 174.429688 258.949219 174.429688 " fill-opacity="1" fill-rule="nonzero"/><path fill="#332e3c" d="M 272.246094 136.019531 C 271.78125 136.019531 271.402344 135.644531 271.402344 135.179688 L 271.402344 121.082031 C 271.402344 120.613281 271.78125 120.234375 272.246094 120.234375 C 272.710938 120.234375 273.089844 120.613281 273.089844 121.082031 L 273.089844 135.179688 C 273.089844 135.644531 272.710938 136.019531 272.246094 136.019531 " fill-opacity="1" fill-rule="nonzero"/><path fill="#332e3c" d="M 282.824219 147.210938 C 282.359375 147.210938 281.980469 146.832031 281.980469 146.371094 L 281.980469 132.269531 C 281.980469 131.804688 282.359375 131.429688 282.824219 131.429688 C 283.289062 131.429688 283.667969 131.804688 283.667969 132.269531 L 283.667969 146.371094 C 283.667969 146.832031 283.289062 147.210938 282.824219 147.210938 " fill-opacity="1" fill-rule="nonzero"/><path fill="#332e3c" d="M 149.769531 119.386719 C 149.304688 119.386719 148.925781 119.011719 148.925781 118.542969 L 148.925781 104.445312 C 148.925781 103.980469 149.304688 103.605469 149.769531 103.605469 C 150.234375 103.605469 150.613281 103.980469 150.613281 104.445312 L 150.613281 118.542969 C 150.613281 119.011719 150.234375 119.386719 149.769531 119.386719 " fill-opacity="1" fill-rule="nonzero"/><path fill="#332e3c" d="M 242.324219 196.207031 C 241.863281 196.207031 241.484375 195.828125 241.484375 195.363281 L 241.484375 181.265625 C 241.484375 180.796875 241.863281 180.421875 242.324219 180.421875 C 242.792969 180.421875 243.167969 180.796875 243.167969 181.265625 L 243.167969 195.363281 C 243.167969 195.828125 242.792969 196.207031 242.324219 196.207031 " fill-opacity="1" fill-rule="nonzero"/><path fill="#332e3c" d="M 131.109375 132.695312 C 130.644531 132.695312 130.269531 132.320312 130.269531 131.851562 L 130.269531 117.753906 C 130.269531 117.289062 130.644531 116.910156 131.109375 116.910156 C 131.574219 116.910156 131.949219 117.289062 131.949219 117.753906 L 131.949219 131.851562 C 131.949219 132.320312 131.574219 132.695312 131.109375 132.695312 " fill-opacity="1" fill-rule="nonzero"/><path fill="#332e3c" d="M 95.75 117.269531 C 95.285156 117.269531 94.90625 116.894531 94.90625 116.425781 L 94.90625 102.328125 C 94.90625 101.863281 95.285156 101.488281 95.75 101.488281 C 96.214844 101.488281 96.59375 101.863281 96.59375 102.328125 L 96.59375 116.425781 C 96.59375 116.894531 96.214844 117.269531 95.75 117.269531 " fill-opacity="1" fill-rule="nonzero"/><path fill="#332e3c" d="M 105.121094 165.355469 C 104.652344 165.355469 104.273438 164.980469 104.273438 164.515625 L 104.273438 150.414062 C 104.273438 149.949219 104.652344 149.574219 105.121094 149.574219 C 105.582031 149.574219 105.960938 149.949219 105.960938 150.414062 L 105.960938 164.515625 C 105.960938 164.980469 105.582031 165.355469 105.121094 165.355469 " fill-opacity="1" fill-rule="nonzero"/><path fill="#332e3c" d="M 273.757812 223.121094 C 273.289062 223.121094 272.914062 222.742188 272.914062 222.277344 L 272.914062 208.179688 C 272.914062 207.714844 273.289062 207.339844 273.757812 207.339844 C 274.222656 207.339844 274.597656 207.714844 274.597656 208.179688 L 274.597656 222.277344 C 274.597656 222.742188 274.222656 223.121094 273.757812 223.121094 " fill-opacity="1" fill-rule="nonzero"/><path fill="#332e3c" d="M 94.84375 184.410156 C 94.378906 184.410156 94 184.035156 94 183.566406 L 94 169.46875 C 94 169.003906 94.378906 168.628906 94.84375 168.628906 C 95.308594 168.628906 95.6875 169.003906 95.6875 169.46875 L 95.6875 183.566406 C 95.6875 184.035156 95.308594 184.410156 94.84375 184.410156 " fill-opacity="1" fill-rule="nonzero"/><path fill="#332e3c" d="M 134.335938 39.410156 C 134.0625 39.410156 133.796875 39.28125 133.632812 39.035156 L 133.554688 38.917969 C 133.382812 38.886719 133.226562 38.808594 133.097656 38.683594 L 132.777344 38.363281 C 132.445312 38.035156 132.445312 37.5 132.777344 37.171875 C 133.105469 36.839844 133.640625 36.839844 133.96875 37.164062 L 134.042969 37.242188 C 134.3125 37.253906 134.5625 37.390625 134.710938 37.617188 L 135.035156 38.101562 C 135.292969 38.484375 135.191406 39.007812 134.804688 39.269531 C 134.660156 39.363281 134.496094 39.410156 134.335938 39.410156 " fill-opacity="1" fill-rule="nonzero"/><path fill="#332e3c" d="M 136.417969 20.152344 C 136.292969 20.152344 136.164062 20.128906 136.042969 20.066406 C 135.625 19.855469 135.457031 19.351562 135.664062 18.933594 L 135.738281 18.667969 C 135.738281 18.445312 135.828125 18.234375 135.984375 18.074219 L 136.304688 17.75 C 136.632812 17.421875 137.167969 17.421875 137.496094 17.753906 C 137.828125 18.082031 137.828125 18.617188 137.496094 18.945312 L 137.421875 19.019531 C 137.417969 19.140625 137.386719 19.257812 137.332031 19.367188 L 137.171875 19.691406 C 137.023438 19.984375 136.726562 20.152344 136.417969 20.152344 " fill-opacity="1" fill-rule="nonzero"/><path fill="#332e3c" d="M 160.792969 41.015625 C 160.664062 41.015625 160.535156 40.988281 160.414062 40.925781 L 160.242188 40.839844 C 160.011719 40.726562 160.011719 40.726562 159.832031 40.601562 L 159.523438 40.394531 C 159.136719 40.132812 159.03125 39.609375 159.289062 39.222656 C 159.550781 38.835938 160.070312 38.726562 160.457031 38.988281 L 160.789062 39.210938 C 160.875 39.269531 160.875 39.269531 160.988281 39.328125 L 161.167969 39.417969 C 161.585938 39.625 161.753906 40.132812 161.546875 40.550781 C 161.398438 40.84375 161.101562 41.015625 160.792969 41.015625 " fill-opacity="1" fill-rule="nonzero"/><path fill="#332e3c" d="M 161.753906 17.585938 C 161.628906 17.585938 161.5 17.558594 161.382812 17.5 C 160.964844 17.296875 160.792969 16.789062 161 16.375 L 161.15625 16.050781 C 161.363281 15.632812 161.867188 15.464844 162.285156 15.664062 C 162.703125 15.875 162.875 16.375 162.667969 16.792969 L 162.507812 17.117188 C 162.363281 17.414062 162.0625 17.585938 161.753906 17.585938 " fill-opacity="1" fill-rule="nonzero"/><path fill="#332e3c" d="M 176.347656 32.191406 C 176.257812 32.191406 176.167969 32.175781 176.078125 32.144531 L 175.117188 31.824219 C 174.671875 31.675781 174.4375 31.199219 174.585938 30.757812 C 174.730469 30.320312 175.207031 30.074219 175.652344 30.226562 L 176.609375 30.546875 C 177.054688 30.695312 177.292969 31.171875 177.144531 31.613281 C 177.027344 31.96875 176.699219 32.191406 176.347656 32.191406 " fill-opacity="1" fill-rule="nonzero"/><path fill="#332e3c" d="M 191.738281 12.128906 C 191.578125 12.128906 191.414062 12.085938 191.273438 11.988281 L 190.988281 11.800781 C 190.914062 11.746094 190.875 11.714844 190.835938 11.695312 C 190.800781 11.675781 190.761719 11.664062 190.691406 11.640625 C 190.578125 11.597656 190.410156 11.539062 190.144531 11.425781 C 189.710938 11.253906 189.5 10.765625 189.675781 10.332031 C 189.84375 9.902344 190.339844 9.691406 190.769531 9.863281 C 191.015625 9.960938 191.175781 10.019531 191.277344 10.0625 C 191.585938 10.175781 191.648438 10.207031 191.9375 10.40625 L 192.207031 10.585938 C 192.589844 10.84375 192.699219 11.367188 192.441406 11.753906 C 192.277344 12 192.007812 12.128906 191.738281 12.128906 " fill-opacity="1" fill-rule="nonzero"/><path fill="#332e3c" d="M 203.285156 16.625 C 203.179688 16.625 203.070312 16.605469 202.96875 16.5625 C 202.539062 16.390625 202.328125 15.898438 202.5 15.464844 C 202.59375 15.238281 202.648438 15.085938 202.6875 14.976562 C 202.828125 14.582031 202.902344 14.46875 203.214844 14.167969 L 203.488281 13.902344 C 203.820312 13.570312 204.351562 13.570312 204.683594 13.902344 C 205.007812 14.230469 205.007812 14.765625 204.683594 15.09375 L 204.382812 15.390625 C 204.328125 15.433594 204.296875 15.464844 204.269531 15.492188 L 204.273438 15.546875 C 204.230469 15.664062 204.167969 15.835938 204.0625 16.09375 C 203.933594 16.425781 203.613281 16.625 203.285156 16.625 " fill-opacity="1" fill-rule="nonzero"/><path fill="#332e3c" d="M 229.261719 16.140625 C 229.195312 16.140625 229.125 16.132812 229.054688 16.117188 C 228.816406 16.058594 228.679688 16.015625 228.589844 15.992188 L 228.472656 15.984375 L 228.296875 15.984375 C 227.832031 15.984375 227.453125 15.605469 227.453125 15.140625 C 227.453125 14.675781 227.832031 14.296875 228.296875 14.296875 L 228.460938 14.296875 C 228.71875 14.289062 228.804688 14.300781 229.058594 14.375 C 229.132812 14.394531 229.253906 14.429688 229.460938 14.480469 C 229.914062 14.59375 230.191406 15.054688 230.078125 15.503906 C 229.984375 15.890625 229.636719 16.140625 229.261719 16.140625 " fill-opacity="1" fill-rule="nonzero"/><path fill="#332e3c" d="M 209.855469 38.769531 C 209.660156 38.769531 209.464844 38.699219 209.304688 38.558594 C 208.800781 38.121094 208.546875 37.9375 208.398438 37.828125 C 208.039062 37.570312 207.953125 37.449219 207.730469 36.992188 L 207.664062 36.859375 C 207.453125 36.441406 207.617188 35.933594 208.039062 35.726562 C 208.453125 35.519531 208.957031 35.6875 209.167969 36.105469 L 209.238281 36.246094 C 209.289062 36.351562 209.316406 36.417969 209.347656 36.460938 C 209.546875 36.582031 209.839844 36.792969 210.410156 37.289062 C 210.761719 37.597656 210.796875 38.128906 210.488281 38.480469 C 210.324219 38.667969 210.089844 38.769531 209.855469 38.769531 " fill-opacity="1" fill-rule="nonzero"/><path fill="#332e3c" d="M 246.097656 40.691406 C 245.9375 40.691406 245.777344 40.648438 245.628906 40.550781 C 245.242188 40.292969 245.140625 39.773438 245.394531 39.382812 L 246.039062 38.417969 C 246.296875 38.035156 246.820312 37.925781 247.207031 38.1875 C 247.59375 38.449219 247.699219 38.96875 247.4375 39.355469 L 246.796875 40.316406 C 246.632812 40.558594 246.367188 40.691406 246.097656 40.691406 " fill-opacity="1" fill-rule="nonzero"/><path fill="#332e3c" d="M 252.507812 21.597656 C 252.386719 21.597656 252.253906 21.570312 252.136719 21.511719 C 251.71875 21.300781 251.542969 20.796875 251.753906 20.378906 L 252.078125 19.734375 C 252.289062 19.320312 252.792969 19.152344 253.210938 19.359375 C 253.625 19.566406 253.792969 20.078125 253.582031 20.492188 L 253.261719 21.132812 C 253.113281 21.425781 252.816406 21.597656 252.507812 21.597656 " fill-opacity="1" fill-rule="nonzero"/><path fill="#332e3c" d="M 143.316406 82.734375 C 143.210938 82.734375 143.105469 82.714844 143.003906 82.675781 L 142.203125 82.351562 C 141.765625 82.179688 141.554688 81.691406 141.730469 81.261719 C 141.902344 80.824219 142.394531 80.613281 142.824219 80.789062 L 143.625 81.109375 C 144.058594 81.28125 144.265625 81.773438 144.097656 82.203125 C 143.964844 82.53125 143.648438 82.734375 143.316406 82.734375 " fill-opacity="1" fill-rule="nonzero"/><path fill="#332e3c" d="M 144.597656 66.6875 C 144.453125 66.6875 144.3125 66.652344 144.175781 66.578125 C 143.777344 66.34375 143.632812 65.832031 143.867188 65.425781 C 144.097656 65.019531 144.210938 64.800781 144.277344 64.664062 C 144.449219 64.328125 144.507812 64.257812 144.804688 63.960938 L 144.960938 63.804688 C 145.292969 63.476562 145.824219 63.476562 146.152344 63.804688 C 146.484375 64.136719 146.484375 64.667969 146.152344 64.996094 L 145.992188 65.160156 C 145.910156 65.238281 145.867188 65.28125 145.832031 65.320312 L 145.78125 65.421875 C 145.707031 65.574219 145.582031 65.820312 145.328125 66.261719 C 145.171875 66.535156 144.890625 66.6875 144.597656 66.6875 " fill-opacity="1" fill-rule="nonzero"/><path fill="#332e3c" d="M 177.46875 64.601562 C 177.382812 64.601562 177.292969 64.585938 177.203125 64.558594 C 176.847656 64.441406 176.660156 64.382812 176.546875 64.347656 C 176.285156 64.269531 176.285156 64.273438 175.964844 64.113281 L 175.808594 64.03125 C 175.394531 63.824219 175.222656 63.316406 175.429688 62.902344 C 175.640625 62.488281 176.148438 62.316406 176.5625 62.523438 L 176.71875 62.601562 C 176.894531 62.691406 176.894531 62.691406 177.035156 62.734375 C 177.15625 62.773438 177.355469 62.832031 177.734375 62.960938 C 178.175781 63.105469 178.414062 63.582031 178.265625 64.023438 C 178.152344 64.375 177.820312 64.601562 177.46875 64.601562 " fill-opacity="1" fill-rule="nonzero"/><path fill="#332e3c" d="M 184.683594 87.386719 C 184.425781 87.386719 184.175781 87.269531 184.011719 87.050781 L 183.703125 86.632812 C 183.578125 86.460938 183.574219 86.460938 183.417969 86.308594 L 183.125 86.015625 C 182.796875 85.6875 182.796875 85.152344 183.125 84.824219 C 183.457031 84.496094 183.988281 84.496094 184.316406 84.824219 L 184.601562 85.105469 C 184.859375 85.359375 184.859375 85.359375 185.0625 85.636719 L 185.359375 86.039062 C 185.636719 86.410156 185.558594 86.9375 185.1875 87.21875 C 185.035156 87.332031 184.863281 87.386719 184.683594 87.386719 " fill-opacity="1" fill-rule="nonzero"/><path fill="#332e3c" d="M 192.703125 81.449219 C 192.632812 81.449219 192.566406 81.441406 192.496094 81.421875 C 192.046875 81.3125 191.773438 80.851562 191.882812 80.402344 L 191.984375 79.996094 C 192.042969 79.753906 192.042969 79.753906 192.128906 79.5 L 192.21875 79.21875 C 192.367188 78.777344 192.839844 78.539062 193.289062 78.683594 C 193.726562 78.832031 193.96875 79.308594 193.820312 79.75 L 193.722656 80.039062 C 193.660156 80.21875 193.660156 80.21875 193.621094 80.394531 L 193.519531 80.8125 C 193.425781 81.191406 193.078125 81.449219 192.703125 81.449219 " fill-opacity="1" fill-rule="nonzero"/><path fill="#332e3c" d="M 222.042969 86.582031 C 221.917969 86.582031 221.789062 86.558594 221.667969 86.496094 C 221.25 86.289062 221.085938 85.785156 221.289062 85.363281 L 221.773438 84.402344 C 221.980469 83.988281 222.488281 83.816406 222.902344 84.023438 C 223.320312 84.230469 223.488281 84.738281 223.277344 85.152344 L 222.796875 86.117188 C 222.652344 86.414062 222.351562 86.582031 222.042969 86.582031 " fill-opacity="1" fill-rule="nonzero"/><path fill="#332e3c" d="M 208.414062 64.921875 C 208.285156 64.921875 208.160156 64.894531 208.039062 64.835938 C 207.566406 64.597656 207.316406 64.492188 207.160156 64.429688 C 206.78125 64.265625 206.691406 64.195312 206.367188 63.867188 L 206.214844 63.710938 C 205.886719 63.382812 205.886719 62.851562 206.214844 62.519531 C 206.546875 62.191406 207.078125 62.191406 207.40625 62.519531 L 207.566406 62.679688 C 207.644531 62.761719 207.691406 62.8125 207.730469 62.84375 L 207.816406 62.875 C 207.988281 62.945312 208.265625 63.066406 208.789062 63.328125 C 209.207031 63.535156 209.378906 64.039062 209.167969 64.457031 C 209.019531 64.753906 208.722656 64.921875 208.414062 64.921875 " fill-opacity="1" fill-rule="nonzero"/><path fill="#332e3c" d="M 248.339844 67.328125 C 248.183594 67.328125 248.019531 67.285156 247.875 67.191406 C 247.488281 66.933594 247.382812 66.410156 247.640625 66.019531 L 247.960938 65.535156 C 248.21875 65.148438 248.746094 65.046875 249.128906 65.304688 C 249.515625 65.5625 249.617188 66.085938 249.359375 66.472656 L 249.042969 66.953125 C 248.878906 67.199219 248.613281 67.328125 248.339844 67.328125 " fill-opacity="1" fill-rule="nonzero"/></svg>