<svg xmlns="http://www.w3.org/2000/svg" xmlns:xlink="http://www.w3.org/1999/xlink" width="512" zoomAndPan="magnify" viewBox="0 0 384 383.999986" height="512" preserveAspectRatio="xMidYMid meet" version="1.0"><path fill="#85bcc5" d="M 302.507812 192.402344 C 300.5625 215.539062 299.238281 238.742188 298.519531 261.867188 C 297.796875 284.976562 297.8125 308.179688 298.460938 331.292969 C 299.027344 351.460938 285.867188 368.425781 267.183594 372.339844 C 262.34375 375.722656 252.4375 378.683594 239.300781 380.714844 C 226.113281 382.753906 209.679688 383.976562 191.832031 383.976562 C 184.597656 383.976562 177.589844 383.773438 170.941406 383.398438 C 184.007812 382.667969 195.746094 381.25 205.167969 379.367188 C 214.589844 377.488281 220.214844 369.378906 224.148438 366.691406 C 242.941406 362.777344 229.65625 343.839844 229.300781 323.679688 C 228.894531 300.566406 228.847656 277.367188 229.300781 254.253906 C 229.753906 231.132812 230.589844 207.9375 231.792969 184.789062 C 233.136719 158.863281 218.113281 152.875 202.835938 144.96875 C 187.402344 136.980469 200.011719 134.570312 200.355469 100.398438 C 200.519531 83.617188 209.300781 66.988281 222.460938 50.285156 L 232.054688 50.285156 C 245.445312 50.285156 258.890625 50.285156 272.308594 50.285156 C 257.925781 66.988281 247.96875 83.609375 246.859375 100.398438 C 244.601562 134.566406 259.957031 144.589844 275.054688 152.582031 C 289.992188 160.488281 304.695312 166.464844 302.507812 192.402344 " fill-opacity="1" fill-rule="evenodd"/><path fill="#92cfd8" d="M 170.914062 383.402344 C 157.835938 382.671875 146.144531 381.257812 136.722656 379.367188 C 127.378906 377.496094 120.332031 375.03125 116.484375 372.339844 C 97.800781 368.425781 84.695312 351.460938 85.261719 331.292969 C 85.910156 308.179688 85.839844 284.976562 85.148438 261.867188 C 84.453125 238.742188 83.105469 215.539062 81.15625 192.402344 C 78.972656 166.464844 93.621094 160.488281 108.585938 152.542969 C 123.707031 144.515625 139.046875 134.527344 136.75 100.398438 C 135.621094 83.609375 125.65625 66.988281 111.273438 50.285156 C 111.417969 50.285156 111.558594 50.285156 111.726562 50.285156 C 111.980469 50.285156 112.238281 50.285156 112.519531 50.285156 C 112.660156 50.285156 112.804688 50.285156 112.972656 50.285156 C 113.230469 50.285156 113.484375 50.285156 113.765625 50.285156 C 113.9375 50.285156 114.105469 50.285156 114.246094 50.285156 C 114.5 50.285156 114.757812 50.285156 115.039062 50.285156 C 115.179688 50.285156 115.351562 50.285156 115.492188 50.285156 C 115.746094 50.285156 116.03125 50.285156 116.3125 50.285156 C 116.425781 50.285156 116.597656 50.285156 116.738281 50.285156 C 133.324219 50.285156 149.882812 50.285156 166.441406 50.285156 C 183.03125 50.285156 199.589844 50.285156 216.148438 50.285156 C 216.433594 50.285156 216.6875 50.285156 216.941406 50.285156 C 217.109375 50.285156 217.253906 50.285156 217.421875 50.285156 C 217.675781 50.285156 217.933594 50.285156 218.1875 50.285156 C 218.355469 50.285156 218.496094 50.285156 218.667969 50.285156 C 218.921875 50.285156 219.175781 50.285156 219.460938 50.285156 C 219.601562 50.285156 219.769531 50.285156 219.941406 50.285156 C 220.195312 50.285156 220.480469 50.285156 220.734375 50.285156 C 220.875 50.285156 221.046875 50.285156 221.1875 50.285156 C 221.46875 50.285156 221.726562 50.285156 221.980469 50.285156 C 222.121094 50.285156 222.289062 50.285156 222.460938 50.285156 C 209.300781 66.988281 200.519531 83.617188 200.355469 100.398438 C 200.011719 134.570312 215.773438 144.59375 231.207031 152.582031 C 246.484375 160.488281 261.511719 166.476562 260.164062 192.402344 C 258.960938 215.550781 258.125 238.746094 257.671875 261.867188 C 257.21875 284.980469 257.265625 308.179688 257.671875 331.292969 C 258.03125 351.453125 244.453125 368.425781 225.660156 372.339844 C 221.726562 375.03125 214.589844 377.488281 205.167969 379.367188 C 195.738281 381.25 183.992188 382.671875 170.914062 383.402344 " fill-opacity="1" fill-rule="evenodd"/><path fill="#ffffff" d="M 149.574219 100.398438 C 149.261719 94.867188 154.074219 90.375 160.300781 90.375 C 166.527344 90.375 171.707031 94.867188 171.847656 100.398438 C 172.046875 108.882812 171.480469 117.101562 169.867188 124.894531 C 168.226562 132.996094 165.480469 140.714844 161.460938 147.859375 C 159.195312 151.890625 156.507812 155.769531 153.367188 159.457031 C 150.222656 163.140625 146.6875 166.558594 142.667969 169.707031 C 139.328125 172.355469 135.875 174.660156 132.335938 176.773438 C 129.304688 178.578125 125.738281 180.5 122.089844 182.417969 C 121.71875 182.609375 121.351562 182.800781 121.011719 182.992188 C 121.011719 183.03125 121.011719 183.03125 121.011719 183.03125 C 122.144531 182.417969 122.824219 182.070312 121.011719 183.03125 C 118.210938 184.492188 114.984375 186.21875 113.339844 187.679688 C 113.230469 187.753906 113.171875 187.949219 113.113281 188.214844 C 112.945312 189.136719 113 190.710938 113.113281 192.402344 C 113.964844 208.105469 114.699219 223.8125 115.351562 239.480469 C 115.492188 245.046875 111.21875 249.539062 105.785156 249.539062 C 100.347656 249.539062 95.792969 245.046875 95.566406 239.480469 C 94.773438 223.8125 93.867188 208.105469 92.761719 192.402344 C 92.539062 189.445312 92.421875 186.449219 93.019531 183.1875 C 93.753906 179.230469 95.425781 175.582031 98.847656 172.472656 C 102.359375 169.324219 106.632812 167.097656 110.339844 165.136719 C 112.691406 163.910156 111.699219 164.445312 110.339844 165.175781 C 110.679688 165.023438 111.046875 164.832031 111.386719 164.640625 C 114.417969 163.0625 117.417969 161.453125 120.757812 159.457031 C 123.589844 157.804688 126.363281 156 128.964844 153.886719 C 131.996094 151.503906 134.601562 149.011719 136.804688 146.398438 C 139.015625 143.789062 140.910156 140.984375 142.527344 138.027344 C 145.46875 132.691406 147.367188 126.851562 148.46875 120.710938 C 149.660156 114.21875 149.96875 107.421875 149.574219 100.398438 Z M 121.011719 182.992188 C 116.113281 185.605469 119.171875 183.992188 121.011719 183.03125 C 121.011719 183.03125 121.011719 183.03125 121.011719 182.992188 Z M 110.339844 165.175781 C 108.558594 166.097656 106.265625 167.363281 110.339844 165.175781 " fill-opacity="1" fill-rule="evenodd"/><path fill="#92cfd8" d="M 191.832031 26.785156 C 218.980469 26.785156 243.25 30.085938 260.332031 35.421875 C 277.160156 40.683594 286.851562 48.097656 285.695312 56.199219 C 285.464844 57.8125 285.25 59.347656 285.046875 60.921875 C 283.976562 69.0625 272.746094 76.433594 255.777344 81.773438 C 239.0625 87.03125 216.546875 90.375 191.832031 90.375 C 167.121094 90.375 144.515625 87.039062 127.777344 81.773438 C 110.832031 76.441406 99.683594 69.058594 98.59375 60.921875 C 98.382812 59.34375 98.144531 57.8125 97.914062 56.199219 C 96.757812 48.097656 106.421875 40.683594 123.25 35.421875 C 140.332031 30.085938 164.6875 26.785156 191.832031 26.785156 " fill-opacity="1" fill-rule="evenodd"/><path fill="#b2dde6" d="M 191.832031 27.246094 C 218.382812 27.246094 242.113281 30.207031 258.890625 35 C 275.429688 39.726562 285.046875 46.371094 284 53.664062 C 283.007812 60.960938 271.988281 67.570312 255.210938 72.367188 C 238.671875 77.089844 216.316406 80.082031 191.832031 80.082031 C 167.292969 80.082031 144.910156 77.089844 128.371094 72.367188 C 111.597656 67.570312 100.605469 60.960938 99.613281 53.664062 C 98.566406 46.371094 108.152344 39.726562 124.691406 35 C 141.46875 30.207031 165.28125 27.246094 191.832031 27.246094 " fill-opacity="1" fill-rule="evenodd"/><path fill="#85bcc5" d="M 191.832031 29.433594 C 214.789062 29.433594 235.402344 31.753906 250.03125 35.539062 C 264.5 39.28125 273.042969 44.527344 272.308594 50.285156 C 271.628906 56.046875 262.085938 61.25 247.484375 65.03125 C 233.011719 68.777344 213.375 71.136719 191.832031 71.136719 C 170.265625 71.136719 150.570312 68.777344 136.097656 65.03125 C 121.5 61.25 112.011719 56.046875 111.273438 50.285156 C 110.59375 44.527344 119.082031 39.28125 133.550781 35.539062 C 148.179688 31.753906 168.878906 29.433594 191.832031 29.433594 " fill-opacity="1" fill-rule="evenodd"/><path fill="#74aeb8" d="M 191.859375 337.78125 C 213.289062 337.78125 232.707031 340.128906 246.832031 343.886719 C 260.984375 347.65625 269.929688 352.871094 270.128906 358.632812 C 270.382812 364.394531 261.75 369.625 247.652344 373.378906 C 233.472656 377.152344 213.742188 379.484375 191.859375 379.484375 C 169.953125 379.484375 150.167969 377.144531 136.015625 373.378906 C 121.890625 369.617188 113.3125 364.394531 113.539062 358.632812 C 113.765625 352.871094 122.65625 347.65625 136.835938 343.886719 C 150.960938 340.132812 170.433594 337.78125 191.859375 337.78125 " fill-opacity="1" fill-rule="evenodd"/><path fill="#86bec7" d="M 191.859375 337.78125 C 209.085938 337.78125 217.113281 338.703125 227.925781 340.203125 C 238.707031 341.695312 248.078125 343.886719 255.183594 346.539062 C 250.539062 359.554688 239.445312 369.460938 225.660156 372.339844 C 221.894531 374.953125 215.101562 377.257812 206.1875 379.136719 C 201.511719 379.367188 205.25 379.484375 191.859375 379.484375 C 178.472656 379.484375 150.167969 377.144531 136.015625 373.378906 C 121.890625 369.617188 113.3125 364.394531 113.539062 358.632812 C 113.765625 352.871094 122.65625 347.65625 136.835938 343.886719 C 150.960938 340.132812 174.636719 337.78125 191.859375 337.78125 " fill-opacity="1" fill-rule="evenodd"/><path fill="#6f5b27" d="M 248.050781 84.152344 C 247.03125 88.570312 240.035156 92.511719 229.734375 95.441406 C 219.65625 98.3125 206.3125 100.128906 191.804688 100.128906 C 177.300781 100.128906 163.898438 98.308594 153.820312 95.441406 C 143.492188 92.507812 136.496094 88.570312 135.476562 84.152344 C 131.285156 72.785156 127.035156 61.441406 122.851562 50.09375 C 118.65625 38.707031 114.558594 27.359375 110.539062 15.996094 C 124.039062 16.074219 137.628906 16.113281 151.128906 16.148438 C 164.660156 16.183594 178.21875 16.265625 191.777344 16.304688 C 205.277344 16.335938 218.78125 16.417969 232.3125 16.457031 C 245.8125 16.496094 259.34375 16.53125 272.875 16.566406 C 268.824219 27.820312 264.765625 39.085938 260.589844 50.363281 C 256.414062 61.625 252.238281 72.902344 248.050781 84.152344 " fill-opacity="1" fill-rule="evenodd"/><path fill="#7c662e" d="M 217.449219 98.128906 C 209.722656 99.398438 203.679688 100.128906 191.804688 100.128906 C 179.929688 100.128906 163.898438 98.308594 153.820312 95.441406 C 143.492188 92.507812 136.496094 88.570312 135.476562 84.152344 C 131.285156 72.785156 127.035156 61.441406 122.851562 50.09375 C 118.65625 38.707031 114.558594 27.359375 110.539062 15.996094 C 131.230469 16.074219 151.980469 16.148438 172.640625 16.226562 C 193.363281 16.304688 214.054688 16.378906 234.746094 16.417969 C 231.914062 30.046875 228.957031 43.667969 226.054688 57.273438 C 223.152344 70.890625 220.253906 84.539062 217.449219 98.128906 " fill-opacity="1" fill-rule="evenodd"/><path fill="#8d7a48" d="M 191.832031 -0.0195312 C 214.972656 -0.0195312 235.765625 1.792969 250.539062 4.703125 C 265.171875 7.589844 273.777344 11.578125 273.042969 15.996094 C 272.25 20.410156 262.542969 24.40625 247.765625 27.320312 C 233.160156 30.203125 213.402344 32.003906 191.804688 32.003906 C 170.179688 32.003906 150.421875 30.210938 135.757812 27.320312 C 121.011719 24.414062 111.332031 20.410156 110.539062 15.996094 C 109.773438 11.578125 118.378906 7.582031 133.011719 4.703125 C 147.84375 1.785156 168.695312 -0.0195312 191.832031 -0.0195312 " fill-opacity="1" fill-rule="evenodd"/><path fill="#786e50" d="M 256.117188 62.417969 C 253.453125 69.675781 250.738281 76.894531 248.050781 84.152344 C 247.03125 88.570312 240.035156 92.511719 229.734375 95.441406 C 219.65625 98.3125 206.3125 100.128906 191.804688 100.128906 C 177.300781 100.128906 163.898438 98.308594 153.820312 95.441406 C 143.492188 92.507812 136.496094 88.570312 135.476562 84.152344 C 132.816406 76.894531 130.128906 69.636719 127.4375 62.382812 C 134.824219 65.03125 144.421875 67.25 155.402344 68.753906 C 166.300781 70.246094 178.742188 71.136719 191.832031 71.136719 C 204.925781 71.136719 217.226562 70.253906 228.179688 68.753906 C 239.105469 67.257812 248.699219 65.070312 256.117188 62.417969 " fill-opacity="1" fill-rule="evenodd"/><path fill="#92cfd8" d="M 208.730469 70.636719 C 203.609375 80.390625 200.550781 90.144531 200.355469 99.9375 C 197.550781 100.050781 200.523438 100.128906 191.804688 100.128906 C 183.085938 100.128906 163.898438 98.308594 153.820312 95.441406 C 143.492188 92.507812 136.496094 88.570312 135.476562 84.152344 C 132.816406 76.894531 130.128906 69.636719 127.4375 62.382812 C 134.824219 65.03125 144.421875 67.25 155.402344 68.753906 C 166.300781 70.246094 182.378906 71.136719 191.832031 71.136719 C 201.289062 71.136719 203.242188 70.945312 208.730469 70.636719 " fill-opacity="1" fill-rule="evenodd"/><path fill="#ffffff" d="M 151.269531 94.675781 C 153.140625 92.0625 156.453125 90.375 160.300781 90.375 C 165.992188 90.375 170.773438 94.097656 171.679688 98.9375 C 165.054688 98.128906 159.03125 96.921875 153.820312 95.441406 C 152.945312 95.195312 152.09375 94.945312 151.269531 94.675781 " fill-opacity="1" fill-rule="evenodd"/><path fill="#828074" d="M 256.117188 62.417969 C 253.484375 69.601562 250.792969 76.742188 248.132812 83.921875 C 232.480469 87.953125 212.992188 90.375 191.832031 90.375 C 170.675781 90.375 151.074219 87.953125 135.390625 83.882812 C 132.730469 76.742188 130.097656 69.5625 127.4375 62.382812 C 134.824219 65.03125 144.421875 67.25 155.402344 68.753906 C 166.300781 70.246094 178.742188 71.136719 191.832031 71.136719 C 204.925781 71.136719 217.226562 70.253906 228.179688 68.753906 C 239.105469 67.257812 248.699219 65.070312 256.117188 62.417969 " fill-opacity="1" fill-rule="evenodd"/><path fill="#939393" d="M 256.117188 62.417969 C 254.785156 66.027344 253.425781 69.601562 252.097656 73.210938 C 235.90625 77.472656 214.847656 80.082031 191.832031 80.082031 C 168.820312 80.082031 147.648438 77.472656 131.457031 73.210938 C 130.128906 69.601562 128.796875 65.992188 127.4375 62.382812 C 134.824219 65.03125 144.421875 67.25 155.402344 68.753906 C 166.300781 70.246094 178.742188 71.136719 191.832031 71.136719 C 204.925781 71.136719 217.226562 70.253906 228.179688 68.753906 C 239.105469 67.257812 248.699219 65.070312 256.117188 62.417969 " fill-opacity="1" fill-rule="evenodd"/><path fill="#807657" d="M 223.480469 69.371094 C 221.441406 78.929688 219.402344 88.53125 217.449219 98.128906 C 209.722656 99.398438 203.679688 100.128906 191.804688 100.128906 C 179.929688 100.128906 163.898438 98.308594 153.820312 95.441406 C 143.492188 92.507812 136.496094 88.570312 135.476562 84.152344 C 132.816406 76.894531 130.128906 69.636719 127.4375 62.382812 C 134.824219 65.03125 144.421875 67.25 155.402344 68.753906 C 166.300781 70.246094 179.664062 71.136719 191.832031 71.136719 C 204.003906 71.136719 213.742188 70.484375 223.480469 69.371094 " fill-opacity="1" fill-rule="evenodd"/><path fill="#888478" d="M 208.730469 70.636719 C 203.578125 80.390625 200.550781 90.144531 200.355469 99.972656 C 197.863281 100.089844 199.363281 100.128906 191.804688 100.128906 C 184.246094 100.128906 163.898438 98.308594 153.820312 95.441406 C 143.492188 92.507812 136.496094 88.570312 135.476562 84.152344 C 132.816406 76.894531 130.128906 69.636719 127.4375 62.382812 C 134.824219 65.03125 144.421875 67.25 155.402344 68.753906 C 166.300781 70.246094 182.378906 71.136719 191.832031 71.136719 C 201.289062 71.136719 203.242188 70.945312 208.730469 70.636719 " fill-opacity="1" fill-rule="evenodd"/><path fill="#a6a49d" d="M 151.269531 94.675781 C 153.140625 92.0625 156.453125 90.375 160.300781 90.375 C 165.933594 90.375 170.691406 94.023438 171.652344 98.820312 C 165.085938 98.015625 158.75 96.84375 153.820312 95.441406 C 152.945312 95.195312 152.09375 94.945312 151.269531 94.675781 " fill-opacity="1" fill-rule="evenodd"/><path fill="#888478" d="M 223.480469 69.371094 C 222.09375 75.898438 220.679688 82.425781 219.320312 88.953125 C 210.65625 89.875 207.21875 90.375 191.832031 90.375 C 176.449219 90.375 151.074219 87.953125 135.390625 83.882812 C 132.730469 76.742188 130.097656 69.5625 127.4375 62.382812 C 134.824219 65.03125 144.421875 67.25 155.402344 68.753906 C 166.300781 70.246094 179.664062 71.136719 191.832031 71.136719 C 204.003906 71.136719 213.742188 70.484375 223.480469 69.371094 " fill-opacity="1" fill-rule="evenodd"/><path fill="#969696" d="M 223.480469 69.371094 C 222.800781 72.441406 222.148438 75.515625 221.527344 78.585938 C 212.183594 79.546875 208.546875 80.082031 191.832031 80.082031 C 175.117188 80.082031 147.648438 77.472656 131.457031 73.210938 C 130.128906 69.601562 128.796875 65.992188 127.4375 62.382812 C 134.824219 65.03125 144.421875 67.25 155.402344 68.753906 C 166.300781 70.246094 179.664062 71.136719 191.832031 71.136719 C 204.003906 71.136719 213.742188 70.484375 223.480469 69.371094 " fill-opacity="1" fill-rule="evenodd"/><path fill="#8e8e8d" d="M 201.457031 90.183594 C 198.289062 90.296875 204.046875 90.375 191.832031 90.375 C 179.621094 90.375 151.074219 87.953125 135.390625 83.882812 C 135.363281 83.882812 135.363281 83.847656 135.363281 83.808594 C 135.335938 83.730469 135.308594 83.652344 135.308594 83.578125 C 135.277344 83.539062 135.222656 83.5 135.222656 83.460938 C 135.164062 83.347656 135.136719 83.230469 135.109375 83.117188 C 135.078125 83.039062 135.050781 82.960938 135.050781 82.886719 C 134.996094 82.847656 134.996094 82.808594 134.996094 82.769531 C 134.882812 82.5 134.738281 82.195312 134.628906 81.886719 C 134.601562 81.851562 134.601562 81.808594 134.601562 81.773438 C 134.570312 81.65625 134.515625 81.542969 134.515625 81.425781 C 134.457031 81.347656 134.429688 81.273438 134.402344 81.195312 C 134.34375 81.160156 134.34375 81.117188 134.34375 81.082031 C 134.175781 80.660156 134.03125 80.199219 133.863281 79.738281 C 133.835938 79.699219 133.808594 79.621094 133.808594 79.546875 C 133.777344 79.507812 133.75 79.46875 133.722656 79.390625 C 133.722656 79.351562 133.664062 79.277344 133.664062 79.199219 C 133.636719 79.160156 133.609375 79.121094 133.609375 79.046875 C 133.582031 79.007812 133.523438 78.929688 133.550781 78.855469 C 133.523438 78.816406 133.496094 78.777344 133.496094 78.699219 C 133.46875 78.660156 133.4375 78.585938 133.4375 78.507812 C 133.410156 78.46875 133.382812 78.429688 133.382812 78.355469 C 133.351562 78.316406 133.324219 78.277344 133.324219 78.203125 C 133.183594 77.933594 133.097656 77.664062 132.984375 77.355469 C 132.957031 77.316406 132.929688 77.242188 132.929688 77.164062 C 132.902344 77.125 132.871094 77.085938 132.871094 77.011719 C 132.816406 76.894531 132.757812 76.78125 132.730469 76.664062 C 132.703125 76.628906 132.671875 76.589844 132.671875 76.511719 C 132.617188 76.359375 132.535156 76.167969 132.476562 75.976562 C 132.449219 75.9375 132.449219 75.898438 132.449219 75.820312 C 132.417969 75.78125 132.363281 75.707031 132.363281 75.628906 C 132.363281 75.589844 132.304688 75.550781 132.304688 75.515625 C 132.277344 75.476562 132.25 75.398438 132.25 75.320312 C 132.222656 75.285156 132.195312 75.246094 132.195312 75.167969 C 132.164062 75.128906 132.109375 75.054688 132.109375 74.976562 C 131.996094 74.628906 131.855469 74.285156 131.742188 73.9375 C 131.710938 73.902344 131.710938 73.863281 131.710938 73.824219 C 131.65625 73.746094 131.625 73.671875 131.597656 73.59375 C 131.488281 73.285156 131.34375 72.941406 131.230469 72.597656 C 131.203125 72.554688 131.203125 72.519531 131.203125 72.480469 C 130.945312 71.90625 130.804688 71.367188 130.578125 70.789062 C 130.550781 70.714844 130.523438 70.636719 130.46875 70.558594 C 130.4375 70.523438 130.4375 70.484375 130.4375 70.445312 C 130.410156 70.367188 130.410156 70.292969 130.351562 70.214844 C 130.269531 69.984375 130.183594 69.753906 130.128906 69.523438 C 130.097656 69.523438 130.070312 69.484375 130.070312 69.445312 C 129.984375 69.253906 129.929688 69.0625 129.84375 68.832031 C 129.816406 68.832031 129.816406 68.832031 129.816406 68.792969 C 129.789062 68.714844 129.757812 68.640625 129.730469 68.523438 C 129.703125 68.523438 129.703125 68.484375 129.703125 68.449219 C 129.644531 68.371094 129.644531 68.292969 129.589844 68.179688 C 129.589844 68.179688 129.589844 68.140625 129.558594 68.101562 C 129.558594 68.023438 129.503906 67.949219 129.503906 67.832031 C 129.476562 67.832031 129.449219 67.792969 129.449219 67.757812 C 129.417969 67.679688 129.390625 67.605469 129.335938 67.488281 C 129.304688 67.488281 129.304688 67.488281 129.304688 67.449219 C 129.304688 67.371094 129.25 67.257812 129.222656 67.144531 C 128.882812 66.375 128.625 65.566406 128.34375 64.761719 C 128.316406 64.761719 128.316406 64.761719 128.316406 64.761719 C 128.285156 64.644531 128.230469 64.53125 128.203125 64.414062 C 128.144531 64.339844 128.117188 64.222656 128.0625 64.109375 C 128.0625 64.109375 128.0625 64.109375 128.0625 64.070312 C 128.03125 63.992188 128.003906 63.878906 127.945312 63.761719 C 127.945312 63.761719 127.945312 63.761719 127.945312 63.726562 C 127.890625 63.648438 127.863281 63.53125 127.832031 63.417969 C 127.75 63.300781 127.722656 63.1875 127.695312 63.070312 C 127.636719 62.957031 127.578125 62.839844 127.550781 62.726562 C 127.523438 62.609375 127.492188 62.496094 127.4375 62.382812 C 127.695312 62.496094 127.890625 62.574219 128.144531 62.648438 C 128.371094 62.726562 128.625 62.804688 128.851562 62.878906 C 129.082031 62.957031 129.335938 63.035156 129.589844 63.109375 C 129.816406 63.1875 130.070312 63.300781 130.351562 63.378906 C 130.550781 63.457031 130.835938 63.53125 131.0625 63.609375 C 131.34375 63.6875 131.597656 63.761719 131.855469 63.839844 C 132.082031 63.917969 132.363281 63.992188 132.617188 64.070312 C 132.871094 64.148438 133.128906 64.222656 133.410156 64.300781 C 133.664062 64.378906 133.921875 64.453125 134.203125 64.492188 C 134.457031 64.570312 134.738281 64.644531 135.023438 64.722656 C 135.277344 64.800781 135.535156 64.875 135.816406 64.953125 C 136.097656 65.03125 136.382812 65.105469 136.667969 65.144531 C 136.949219 65.222656 137.203125 65.300781 137.515625 65.375 C 137.769531 65.453125 138.082031 65.53125 138.335938 65.566406 C 138.617188 65.644531 138.929688 65.722656 139.210938 65.796875 C 139.523438 65.875 139.808594 65.914062 140.089844 65.992188 C 140.375 66.066406 140.683594 66.105469 140.941406 66.183594 C 141.25 66.257812 141.5625 66.335938 141.847656 66.375 C 142.15625 66.453125 142.46875 66.527344 142.78125 66.566406 C 143.089844 66.640625 143.375 66.71875 143.683594 66.757812 C 143.996094 66.835938 144.308594 66.871094 144.621094 66.949219 C 144.902344 67.027344 145.242188 67.066406 145.527344 67.144531 C 145.835938 67.179688 146.175781 67.257812 146.488281 67.296875 C 146.796875 67.371094 147.136719 67.410156 147.449219 67.488281 C 147.761719 67.527344 148.074219 67.605469 148.386719 67.640625 C 148.722656 67.71875 149.0625 67.757812 149.375 67.832031 C 149.714844 67.871094 150.027344 67.949219 150.367188 67.988281 C 150.675781 68.023438 151.015625 68.101562 151.355469 68.140625 C 151.667969 68.179688 152.007812 68.253906 152.347656 68.292969 C 152.6875 68.332031 152.996094 68.410156 153.367188 68.449219 C 153.675781 68.484375 154.015625 68.5625 154.386719 68.601562 C 154.695312 68.640625 155.0625 68.679688 155.402344 68.753906 C 155.714844 68.792969 156.082031 68.832031 156.394531 68.871094 C 156.761719 68.945312 157.101562 68.984375 157.441406 69.023438 C 157.835938 69.0625 158.148438 69.101562 158.488281 69.140625 C 158.886719 69.214844 159.226562 69.253906 159.5625 69.292969 C 159.902344 69.332031 160.273438 69.371094 160.613281 69.40625 C 160.980469 69.445312 161.320312 69.484375 161.6875 69.523438 C 162.054688 69.5625 162.394531 69.601562 162.792969 69.636719 C 163.160156 69.675781 163.5 69.714844 163.839844 69.753906 C 164.234375 69.792969 164.605469 69.832031 164.945312 69.867188 C 165.339844 69.90625 165.679688 69.945312 166.074219 69.984375 C 166.414062 70.023438 166.8125 70.023438 167.152344 70.0625 C 167.546875 70.097656 167.914062 70.136719 168.285156 70.175781 C 168.652344 70.214844 169.019531 70.214844 169.386719 70.253906 C 169.785156 70.292969 170.152344 70.328125 170.519531 70.328125 C 170.886719 70.367188 171.253906 70.40625 171.652344 70.445312 C 172.019531 70.445312 172.386719 70.484375 172.785156 70.523438 C 173.152344 70.523438 173.519531 70.558594 173.945312 70.597656 C 174.339844 70.597656 174.707031 70.636719 175.105469 70.636719 C 175.472656 70.675781 175.871094 70.714844 176.265625 70.714844 C 176.660156 70.753906 177.027344 70.753906 177.425781 70.789062 C 177.792969 70.789062 178.191406 70.828125 178.585938 70.828125 C 178.984375 70.867188 179.378906 70.867188 179.746094 70.867188 C 180.171875 70.90625 180.539062 70.90625 180.933594 70.945312 C 181.359375 70.945312 181.730469 70.945312 182.125 70.984375 C 182.546875 70.984375 182.917969 70.984375 183.3125 71.019531 C 183.738281 71.019531 184.136719 71.019531 184.53125 71.058594 C 184.925781 71.058594 185.324219 71.058594 185.746094 71.058594 C 186.144531 71.058594 186.542969 71.097656 186.9375 71.097656 C 187.332031 71.097656 187.757812 71.097656 188.152344 71.097656 C 188.550781 71.097656 188.976562 71.097656 189.371094 71.136719 C 189.765625 71.136719 190.164062 71.136719 190.589844 71.136719 C 190.984375 71.136719 191.382812 71.136719 191.832031 71.136719 C 191.976562 71.136719 192.144531 71.136719 192.316406 71.136719 C 192.316406 71.136719 192.316406 71.136719 192.34375 71.136719 C 192.511719 71.136719 192.683594 71.136719 192.851562 71.136719 C 192.851562 71.136719 192.851562 71.136719 192.878906 71.136719 C 192.964844 71.136719 193.050781 71.136719 193.164062 71.136719 C 193.25 71.136719 193.304688 71.136719 193.390625 71.136719 C 193.390625 71.136719 193.417969 71.136719 193.449219 71.136719 C 193.503906 71.136719 193.617188 71.136719 193.703125 71.136719 C 193.757812 71.136719 193.84375 71.136719 193.925781 71.136719 L 193.957031 71.136719 C 194.042969 71.136719 194.15625 71.136719 194.238281 71.136719 C 194.324219 71.136719 194.410156 71.136719 194.523438 71.136719 C 194.605469 71.136719 194.664062 71.136719 194.777344 71.097656 C 194.835938 71.097656 194.890625 71.097656 194.945312 71.097656 C 194.976562 71.097656 195.003906 71.097656 195.058594 71.097656 C 195.144531 71.097656 195.230469 71.097656 195.34375 71.097656 C 199.902344 71.058594 204.371094 70.90625 208.730469 70.636719 C 205.277344 77.164062 202.789062 83.652344 201.457031 90.183594 " fill-opacity="1" fill-rule="evenodd"/><path fill="#96bdb3" d="M 204.515625 79.8125 C 200.355469 80.007812 205.507812 80.082031 191.832031 80.082031 C 178.164062 80.082031 147.648438 77.472656 131.457031 73.210938 C 131.457031 73.132812 131.402344 73.058594 131.371094 72.941406 C 131.34375 72.941406 131.34375 72.902344 131.34375 72.863281 C 131.316406 72.824219 131.285156 72.75 131.285156 72.671875 C 131.257812 72.671875 131.257812 72.632812 131.230469 72.597656 C 131.203125 72.597656 131.203125 72.554688 131.203125 72.519531 C 131.175781 72.480469 131.144531 72.441406 131.144531 72.367188 C 131.117188 72.324219 131.117188 72.289062 131.117188 72.25 C 131.089844 72.25 131.089844 72.210938 131.089844 72.171875 C 131.03125 72.136719 131.03125 72.09375 131.03125 72.019531 C 131.003906 71.980469 130.945312 71.941406 130.945312 71.90625 C 130.945312 71.90625 130.945312 71.863281 130.945312 71.828125 C 130.863281 71.632812 130.804688 71.445312 130.75 71.214844 C 130.722656 71.214844 130.722656 71.214844 130.722656 71.175781 C 130.691406 71.136719 130.664062 71.058594 130.636719 70.984375 C 130.609375 70.984375 130.609375 70.945312 130.636719 70.90625 C 130.609375 70.90625 130.578125 70.867188 130.578125 70.828125 C 130.550781 70.789062 130.550781 70.753906 130.523438 70.675781 C 130.496094 70.636719 130.496094 70.597656 130.46875 70.558594 C 130.4375 70.558594 130.4375 70.523438 130.4375 70.484375 C 130.410156 70.445312 130.382812 70.40625 130.382812 70.328125 C 130.382812 70.292969 130.351562 70.253906 130.351562 70.214844 C 130.351562 70.214844 130.351562 70.175781 130.351562 70.136719 C 130.238281 69.945312 130.183594 69.753906 130.128906 69.523438 C 130.097656 69.523438 130.097656 69.523438 130.070312 69.484375 C 130.042969 69.40625 130.011719 69.292969 129.984375 69.175781 C 129.957031 69.175781 129.957031 69.175781 129.957031 69.140625 C 129.929688 69.101562 129.898438 69.0625 129.871094 68.984375 C 129.871094 68.945312 129.871094 68.910156 129.84375 68.832031 C 129.816406 68.832031 129.816406 68.832031 129.816406 68.792969 C 129.816406 68.753906 129.789062 68.714844 129.789062 68.640625 C 129.757812 68.601562 129.730469 68.5625 129.730469 68.523438 C 129.730469 68.523438 129.730469 68.523438 129.730469 68.484375 C 129.703125 68.449219 129.644531 68.371094 129.644531 68.292969 C 129.617188 68.253906 129.589844 68.21875 129.589844 68.179688 C 129.589844 68.179688 129.589844 68.179688 129.589844 68.140625 C 129.558594 68.101562 129.53125 68.023438 129.503906 67.949219 C 129.476562 67.910156 129.476562 67.871094 129.503906 67.832031 C 129.476562 67.832031 129.476562 67.832031 129.449219 67.792969 C 129.417969 67.757812 129.390625 67.71875 129.390625 67.640625 C 129.363281 67.605469 129.363281 67.5625 129.335938 67.488281 C 129.304688 67.488281 129.304688 67.488281 129.304688 67.449219 C 129.277344 67.410156 129.304688 67.371094 129.277344 67.296875 C 129.25 67.257812 129.222656 67.21875 129.222656 67.144531 C 129.222656 67.144531 129.222656 67.144531 129.222656 67.101562 C 129.191406 67.066406 129.136719 67.027344 129.136719 66.949219 C 129.136719 66.914062 129.082031 66.871094 129.082031 66.796875 C 129.050781 66.71875 129.023438 66.605469 128.964844 66.488281 C 128.9375 66.488281 128.9375 66.488281 128.964844 66.453125 C 128.882812 66.410156 128.882812 66.335938 128.851562 66.257812 C 128.824219 66.222656 128.824219 66.183594 128.824219 66.144531 C 128.796875 66.144531 128.796875 66.144531 128.796875 66.105469 C 128.769531 66.066406 128.769531 66.027344 128.769531 65.953125 C 128.742188 65.914062 128.710938 65.875 128.710938 65.796875 C 128.710938 65.796875 128.710938 65.796875 128.710938 65.761719 C 128.683594 65.722656 128.65625 65.683594 128.625 65.605469 C 128.570312 65.492188 128.542969 65.375 128.511719 65.261719 C 128.484375 65.222656 128.457031 65.183594 128.457031 65.105469 C 128.402344 64.953125 128.34375 64.761719 128.257812 64.570312 C 128.230469 64.53125 128.203125 64.492188 128.203125 64.414062 C 128.117188 64.261719 128.0625 64.109375 128.003906 63.917969 C 127.976562 63.878906 127.976562 63.839844 127.945312 63.761719 C 127.945312 63.726562 127.890625 63.648438 127.890625 63.570312 C 127.863281 63.53125 127.832031 63.496094 127.832031 63.417969 C 127.75 63.300781 127.722656 63.1875 127.695312 63.070312 C 127.664062 63.035156 127.636719 62.996094 127.636719 62.917969 C 127.578125 62.878906 127.578125 62.804688 127.550781 62.726562 C 127.523438 62.6875 127.523438 62.648438 127.523438 62.574219 C 127.492188 62.535156 127.464844 62.457031 127.4375 62.382812 C 127.695312 62.496094 127.890625 62.574219 128.144531 62.648438 C 128.371094 62.726562 128.625 62.804688 128.851562 62.878906 C 129.082031 62.957031 129.335938 63.035156 129.589844 63.109375 C 129.816406 63.1875 130.070312 63.300781 130.351562 63.378906 C 130.550781 63.457031 130.835938 63.53125 131.0625 63.609375 C 131.34375 63.6875 131.597656 63.761719 131.855469 63.839844 C 132.082031 63.917969 132.363281 63.992188 132.617188 64.070312 C 132.871094 64.148438 133.128906 64.222656 133.410156 64.300781 C 133.664062 64.378906 133.921875 64.453125 134.203125 64.492188 C 134.457031 64.570312 134.738281 64.644531 135.023438 64.722656 C 135.277344 64.800781 135.535156 64.875 135.816406 64.953125 C 136.097656 65.03125 136.382812 65.105469 136.667969 65.144531 C 136.949219 65.222656 137.203125 65.300781 137.515625 65.375 C 137.769531 65.453125 138.082031 65.53125 138.335938 65.566406 C 138.617188 65.644531 138.929688 65.722656 139.210938 65.796875 C 139.523438 65.875 139.808594 65.914062 140.089844 65.992188 C 140.375 66.066406 140.683594 66.105469 140.941406 66.183594 C 141.25 66.257812 141.5625 66.335938 141.847656 66.375 C 142.15625 66.453125 142.46875 66.527344 142.78125 66.566406 C 143.089844 66.640625 143.375 66.71875 143.683594 66.757812 C 143.996094 66.835938 144.308594 66.871094 144.621094 66.949219 C 144.902344 67.027344 145.242188 67.066406 145.527344 67.144531 C 145.835938 67.179688 146.175781 67.257812 146.488281 67.296875 C 146.796875 67.371094 147.136719 67.410156 147.449219 67.488281 C 147.761719 67.527344 148.074219 67.605469 148.386719 67.640625 C 148.722656 67.71875 149.0625 67.757812 149.375 67.832031 C 149.714844 67.871094 150.027344 67.949219 150.367188 67.988281 C 150.675781 68.023438 151.015625 68.101562 151.355469 68.140625 C 151.667969 68.179688 152.007812 68.253906 152.347656 68.292969 C 152.6875 68.332031 152.996094 68.410156 153.367188 68.449219 C 153.675781 68.484375 154.015625 68.5625 154.386719 68.601562 C 154.695312 68.640625 155.0625 68.679688 155.402344 68.753906 C 155.714844 68.792969 156.082031 68.832031 156.394531 68.871094 C 156.761719 68.945312 157.101562 68.984375 157.441406 69.023438 C 157.835938 69.0625 158.148438 69.101562 158.488281 69.140625 C 158.886719 69.214844 159.226562 69.253906 159.5625 69.292969 C 159.902344 69.332031 160.273438 69.371094 160.613281 69.40625 C 160.980469 69.445312 161.320312 69.484375 161.6875 69.523438 C 162.054688 69.5625 162.394531 69.601562 162.792969 69.636719 C 163.160156 69.675781 163.5 69.714844 163.839844 69.753906 C 164.234375 69.792969 164.605469 69.832031 164.945312 69.867188 C 165.339844 69.90625 165.679688 69.945312 166.074219 69.984375 C 166.414062 70.023438 166.8125 70.023438 167.152344 70.0625 C 167.546875 70.097656 167.914062 70.136719 168.285156 70.175781 C 168.652344 70.214844 169.019531 70.214844 169.386719 70.253906 C 169.785156 70.292969 170.152344 70.328125 170.519531 70.328125 C 170.886719 70.367188 171.253906 70.40625 171.652344 70.445312 C 172.019531 70.445312 172.386719 70.484375 172.785156 70.523438 C 173.152344 70.523438 173.519531 70.558594 173.945312 70.597656 C 174.339844 70.597656 174.707031 70.636719 175.105469 70.636719 C 175.472656 70.675781 175.871094 70.714844 176.265625 70.714844 C 176.660156 70.753906 177.027344 70.753906 177.425781 70.789062 C 177.792969 70.789062 178.191406 70.828125 178.585938 70.828125 C 178.984375 70.867188 179.378906 70.867188 179.746094 70.867188 C 180.171875 70.90625 180.539062 70.90625 180.933594 70.945312 C 181.359375 70.945312 181.730469 70.945312 182.125 70.984375 C 182.546875 70.984375 182.917969 70.984375 183.3125 71.019531 C 183.738281 71.019531 184.136719 71.019531 184.53125 71.058594 C 184.925781 71.058594 185.324219 71.058594 185.746094 71.058594 C 186.144531 71.058594 186.542969 71.097656 186.9375 71.097656 C 187.332031 71.097656 187.757812 71.097656 188.152344 71.097656 C 188.550781 71.097656 188.976562 71.097656 189.371094 71.136719 C 189.765625 71.136719 190.164062 71.136719 190.589844 71.136719 C 190.984375 71.136719 191.382812 71.136719 191.832031 71.136719 C 191.976562 71.136719 192.144531 71.136719 192.316406 71.136719 C 192.316406 71.136719 192.316406 71.136719 192.34375 71.136719 C 192.511719 71.136719 192.683594 71.136719 192.851562 71.136719 C 192.851562 71.136719 192.851562 71.136719 192.878906 71.136719 C 192.964844 71.136719 193.050781 71.136719 193.164062 71.136719 C 193.25 71.136719 193.304688 71.136719 193.390625 71.136719 C 193.390625 71.136719 193.417969 71.136719 193.449219 71.136719 C 193.503906 71.136719 193.617188 71.136719 193.703125 71.136719 C 193.757812 71.136719 193.84375 71.136719 193.925781 71.136719 L 193.957031 71.136719 C 194.042969 71.136719 194.15625 71.136719 194.238281 71.136719 C 194.324219 71.136719 194.410156 71.136719 194.523438 71.136719 C 194.605469 71.136719 194.664062 71.136719 194.777344 71.097656 C 194.835938 71.097656 194.890625 71.097656 194.945312 71.097656 C 194.976562 71.097656 195.003906 71.097656 195.058594 71.097656 C 195.144531 71.097656 195.230469 71.097656 195.34375 71.097656 C 199.902344 71.058594 204.371094 70.90625 208.730469 70.636719 C 207.089844 73.707031 205.703125 76.742188 204.515625 79.8125 " fill-opacity="1" fill-rule="evenodd"/><path fill="#546c6f" d="M 173.40625 234.101562 L 164.324219 281.789062 L 144.316406 304.347656 L 148.816406 302.679688 L 153.886719 304.230469 L 176.148438 289.707031 L 182.707031 253.816406 L 173.40625 234.101562 " fill-opacity="1" fill-rule="evenodd"/><path fill="#c9cdc7" d="M 150.503906 307.246094 C 148.113281 308.546875 145.652344 309.398438 143.253906 309.460938 C 136.296875 309.652344 138.984375 306.761719 142.738281 305.097656 C 144.933594 304.125 146.824219 302.992188 148.476562 301.757812 L 150.503906 307.246094 " fill-opacity="1" fill-rule="evenodd"/><path fill="#d1d5cf" d="M 144.09375 306.566406 C 144.09375 306.566406 141.53125 306.785156 140.546875 307.394531 C 138.871094 308.425781 139.648438 306.808594 140.832031 305.917969 C 141.332031 305.542969 142.191406 305.074219 143.003906 305.09375 C 144.378906 305.128906 144.09375 306.566406 144.09375 306.566406 " fill-opacity="1" fill-rule="evenodd"/><path fill="#546c6f" d="M 127.300781 343.824219 L 123.535156 340.933594 L 120.582031 342.136719 C 115.152344 337.40625 113.285156 336.871094 111.234375 339.054688 L 124.175781 349.011719 L 127.300781 343.824219 " fill-opacity="1" fill-rule="evenodd"/><path fill="#546c6f" d="M 187.113281 332.167969 L 164.152344 284.742188 L 156.929688 284.011719 L 121.476562 341.152344 L 127.808594 345.027344 L 153.898438 321.308594 L 159.582031 307.445312 L 170.304688 348.851562 L 187.113281 332.167969 " fill-opacity="1" fill-rule="evenodd"/><path fill="#546c6f" d="M 251.667969 250.894531 L 214.300781 230.734375 L 199.550781 229.203125 L 173.40625 234.101562 L 170.304688 348.851562 L 182.707031 362.246094 L 207.097656 362.246094 L 251.667969 250.894531 " fill-opacity="1" fill-rule="evenodd"/><path fill="#d3ecef" d="M 215.726562 232.988281 L 191.582031 318.179688 L 196.335938 245.488281 L 198.402344 231.003906 L 215.726562 232.988281 " fill-opacity="1" fill-rule="evenodd"/><path fill="#c2656c" d="M 203.867188 235.957031 L 202.8125 238.761719 L 203.730469 240.675781 L 191.078125 300.554688 L 193.511719 306.703125 L 197.816406 301.691406 L 205.421875 240.960938 L 207.097656 239.484375 L 206.832031 236.457031 L 205.347656 236.207031 L 203.867188 235.957031 " fill-opacity="1" fill-rule="evenodd"/><path fill="#d3ecef" d="M 214.648438 236.789062 L 208.417969 242.667969 L 204.964844 238.28125 L 215.726562 232.988281 L 214.648438 236.789062 " fill-opacity="1" fill-rule="evenodd"/><path fill="#d3ecef" d="M 197.792969 235.273438 L 200.269531 241.296875 L 204.964844 238.28125 L 198.402344 231.003906 L 197.792969 235.273438 " fill-opacity="1" fill-rule="evenodd"/><path fill="#c9cdc7" d="M 213.511719 215.8125 L 215.703125 233.074219 L 204.964844 238.28125 L 198.246094 232.089844 L 199.253906 222 L 213.511719 215.8125 " fill-opacity="1" fill-rule="evenodd"/><path fill="#d1d5cf" d="M 191.847656 210.894531 L 192.375 212.675781 L 192.492188 225.960938 L 194.742188 226.550781 L 195.285156 231.972656 L 194.566406 234.433594 L 195.75 236.589844 C 205.601562 236.550781 204.140625 235.175781 211.308594 228.019531 L 208.832031 218.007812 L 208.996094 214.507812 L 199.980469 205.144531 L 191.847656 210.894531 " fill-opacity="1" fill-rule="evenodd"/><path fill="#3b5357" d="M 212.898438 207.429688 L 214.9375 221.171875 L 202.609375 219.253906 L 204.988281 212.65625 L 203.109375 209.539062 L 195.414062 210.257812 L 192.339844 212.875 L 190.613281 210.570312 L 192.683594 205.589844 L 198.96875 202.621094 L 206.535156 202.976562 L 212.898438 207.429688 " fill-opacity="1" fill-rule="evenodd"/><path fill="#d1d5cf" d="M 207.109375 216.125 C 208.398438 215.679688 209.992188 216.90625 210.671875 218.871094 C 211.351562 220.835938 210.859375 222.789062 209.570312 223.234375 C 208.285156 223.679688 206.691406 222.449219 206.011719 220.488281 C 205.332031 218.523438 205.824219 216.574219 207.109375 216.125 " fill-opacity="1" fill-rule="evenodd"/><path fill="#c9cdc7" d="M 198.199219 225.367188 L 195.179688 225.289062 L 192.492188 225.960938 L 194.742188 226.550781 L 198.199219 225.367188 " fill-opacity="1" fill-rule="evenodd"/><path fill="#000000" d="M 195.710938 217.945312 L 198.910156 217.308594 C 198.167969 218.820312 196.632812 218.332031 195.710938 217.945312 " fill-opacity="1" fill-rule="evenodd"/><path fill="#c9cdc7" d="M 195.75 236.589844 L 197.261719 236.238281 L 196.03125 233.9375 L 196.238281 232.242188 L 196.386719 233.570312 L 198.378906 235.929688 L 203.226562 234.722656 L 211.308594 228.019531 C 211.308594 228.019531 203.699219 237.015625 203.453125 237.175781 C 203.207031 237.335938 195.75 236.589844 195.75 236.589844 " fill-opacity="1" fill-rule="evenodd"/><path fill="#c9cdc7" d="M 194.847656 228.214844 L 194.878906 227.617188 L 195.363281 227.667969 L 195.570312 227.632812 L 196.109375 227.289062 L 198.28125 228.109375 L 195.859375 227.957031 L 194.847656 228.214844 " fill-opacity="1" fill-rule="evenodd"/><path fill="#c9cdc7" d="M 196.753906 228.125 L 195.269531 228.472656 L 194.894531 228.4375 L 195.125 228.9375 L 195.390625 228.773438 L 195.957031 228.925781 L 196.753906 228.125 " fill-opacity="1" fill-rule="evenodd"/><path fill="#546c6f" d="M 186.175781 337.304688 L 164.164062 294.144531 L 156.523438 295.59375 L 138.554688 354.46875 L 145.191406 358.34375 L 158.71875 331.054688 L 159.972656 322.585938 L 174.207031 349.511719 L 186.175781 337.304688 " fill-opacity="1" fill-rule="evenodd"/><path fill="#c9cdc7" d="M 144.578125 308.828125 C 144.578125 308.828125 142.328125 307.582031 141.675781 306.625 C 140.566406 305 140.617188 306.796875 141.335938 308.089844 C 141.640625 308.636719 142.234375 309.414062 142.984375 309.730469 C 144.25 310.257812 144.578125 308.828125 144.578125 308.828125 " fill-opacity="1" fill-rule="evenodd"/><path fill="#d1d5cf" d="M 153.914062 313.964844 C 149.949219 314.328125 146.03125 314.140625 142.753906 312.921875 C 135.257812 310.136719 139.601562 306.539062 144.074219 308.046875 C 146.929688 309.007812 149.59375 309.25 152.085938 309.007812 L 153.914062 313.964844 " fill-opacity="1" fill-rule="evenodd"/><path fill="#546c6f" d="M 241.117188 272.105469 L 196.546875 308.320312 L 148.1875 315.289062 L 147.410156 308.148438 L 192.460938 294.566406 L 231.984375 257.734375 L 241.117188 272.105469 " fill-opacity="1" fill-rule="evenodd"/><path fill="#546c6f" d="M 144.238281 357.058594 L 140.472656 354.171875 L 137.519531 355.371094 C 132.089844 350.640625 130.226562 350.105469 128.171875 352.289062 L 141.113281 362.246094 L 144.238281 357.058594 " fill-opacity="1" fill-rule="evenodd"/><path fill="#96aeb2" d="M 171.828125 292.527344 C 172.570312 275.402344 172.339844 283.96875 172.519531 266.828125 C 171.773438 283.953125 172.007812 275.386719 171.828125 292.527344 " fill-opacity="1" fill-rule="evenodd"/><path fill="#96aeb2" d="M 164.8125 286.113281 C 167.503906 292.3125 166.03125 289.273438 169.230469 295.230469 C 166.539062 289.027344 168.011719 292.066406 164.8125 286.113281 " fill-opacity="1" fill-rule="evenodd"/><path fill="#96aeb2" d="M 192.332031 294.605469 C 162.300781 303.363281 177.277344 298.847656 147.410156 308.148438 C 177.441406 299.390625 162.464844 303.90625 192.332031 294.605469 " fill-opacity="1" fill-rule="evenodd"/><path fill="#96aeb2" d="M 148.1875 315.289062 C 148.472656 315.25 196.46875 308.617188 196.664062 308.46875 L 226.820312 283.71875 L 196.46875 308.144531 C 164.3125 312.871094 180.386719 310.492188 148.1875 315.289062 " fill-opacity="1" fill-rule="evenodd"/><path fill="#96aeb2" d="M 168.101562 301.867188 C 167.980469 301.621094 164.4375 293.984375 164.140625 294.011719 C 163.902344 294.035156 156.492188 295.203125 156.367188 295.542969 C 156.367188 295.542969 153.445312 305.675781 153.441406 305.699219 L 156.652344 295.738281 C 161.589844 294.84375 159.179688 295.3125 164.09375 294.300781 L 168.101562 301.867188 " fill-opacity="1" fill-rule="evenodd"/><path fill="#96aeb2" d="M 150.617188 314.941406 C 147.527344 324.097656 148.9375 319.480469 146.386719 328.804688 C 149.480469 319.644531 148.070312 324.265625 150.617188 314.941406 " fill-opacity="1" fill-rule="evenodd"/><path fill="#96aeb2" d="M 173.117188 311.695312 C 187.210938 339.847656 180.039062 325.835938 194.636719 353.730469 C 180.539062 325.578125 187.714844 339.589844 173.117188 311.695312 " fill-opacity="1" fill-rule="evenodd"/></svg>