<svg xmlns="http://www.w3.org/2000/svg" xmlns:xlink="http://www.w3.org/1999/xlink" width="512" zoomAndPan="magnify" viewBox="0 0 384 383.999986" height="512" preserveAspectRatio="xMidYMid meet" version="1.0"><path fill="#000000" d="M 367.371094 176.539062 L 357.207031 191.605469 L 137.09375 43.464844 L 147.257812 28.398438 C 151.917969 21.472656 161.367188 19.625 168.277344 24.28125 L 363.25 155.511719 C 370.183594 160.171875 372.035156 169.613281 367.371094 176.539062 Z M 296.46875 281.734375 L 307.644531 202.03125 L 336.902344 221.730469 Z M 275.742188 350.863281 C 274.582031 359.121094 266.910156 364.914062 258.644531 363.757812 L 25.851562 331.164062 C 17.585938 330.007812 11.761719 322.316406 12.949219 314.054688 L 27.230469 212.113281 L 290.050781 248.945312 Z M 34.804688 158.175781 C 35.964844 149.890625 43.636719 144.121094 51.902344 145.28125 L 284.699219 177.898438 C 292.988281 179.03125 298.785156 186.699219 297.601562 194.980469 L 295.085938 212.953125 L 32.265625 176.144531 Z M 116.8125 73.589844 L 247.71875 161.699219 L 73.835938 137.316406 Z M 369.34375 146.488281 L 174.394531 15.261719 C 162.480469 7.246094 146.246094 10.378906 138.203125 22.3125 L 61.796875 135.640625 L 53.433594 134.480469 C 39.199219 132.484375 26 142.445312 24 156.671875 L 2.167969 312.527344 C 0.144531 326.753906 10.109375 339.941406 24.320312 341.9375 L 257.117188 374.554688 C 271.351562 376.550781 284.550781 366.566406 286.550781 352.367188 L 293.011719 306.363281 L 376.402344 182.605469 C 384.445312 170.722656 381.261719 154.5 369.34375 146.488281 " fill-opacity="1" fill-rule="nonzero"/><path fill="#000000" d="M 152.90625 258.117188 L 265.160156 273.871094 L 266.394531 264.972656 L 154.164062 249.242188 L 152.90625 258.117188 " fill-opacity="1" fill-rule="nonzero"/><path fill="#000000" d="M 150.242188 277.347656 L 262.46875 293.050781 L 263.703125 284.152344 L 151.476562 268.421875 L 150.242188 277.347656 " fill-opacity="1" fill-rule="nonzero"/></svg>