<svg xmlns="http://www.w3.org/2000/svg" xmlns:xlink="http://www.w3.org/1999/xlink" width="512" zoomAndPan="magnify" viewBox="0 0 384 383.999986" height="512" preserveAspectRatio="xMidYMid meet" version="1.0"><defs><clipPath id="d73e7755cf"><path d="M 0 125 L 279 125 L 279 311.277344 L 0 311.277344 Z M 0 125 " clip-rule="nonzero"/></clipPath><clipPath id="3ee95b3277"><path d="M 132 72.777344 L 384 72.777344 L 384 248 L 132 248 Z M 132 72.777344 " clip-rule="nonzero"/></clipPath></defs><g clip-path="url(#d73e7755cf)"><path fill="#414649" d="M 0 297.933594 L 0 139.078125 C 0 138.207031 0.0859375 137.347656 0.253906 136.496094 C 0.421875 135.640625 0.675781 134.8125 1.007812 134.011719 C 1.339844 133.207031 1.746094 132.445312 2.230469 131.722656 C 2.714844 131 3.261719 130.332031 3.878906 129.714844 C 4.492188 129.101562 5.160156 128.550781 5.882812 128.070312 C 6.605469 127.585938 7.371094 127.179688 8.171875 126.847656 C 8.976562 126.515625 9.804688 126.261719 10.65625 126.09375 C 11.511719 125.921875 12.371094 125.839844 13.242188 125.839844 L 278.066406 125.839844 L 278.066406 297.933594 C 278.066406 298.804688 277.984375 299.664062 277.8125 300.515625 C 277.644531 301.371094 277.394531 302.195312 277.058594 303 C 276.726562 303.804688 276.320312 304.566406 275.835938 305.289062 C 275.355469 306.011719 274.804688 306.679688 274.191406 307.296875 C 273.574219 307.910156 272.90625 308.457031 272.183594 308.941406 C 271.460938 309.425781 270.699219 309.832031 269.894531 310.164062 C 269.089844 310.496094 268.261719 310.75 267.410156 310.917969 C 266.558594 311.085938 265.695312 311.171875 264.828125 311.171875 L 13.242188 311.171875 C 12.371094 311.171875 11.511719 311.085938 10.65625 310.917969 C 9.804688 310.75 8.976562 310.496094 8.171875 310.164062 C 7.371094 309.832031 6.605469 309.425781 5.882812 308.941406 C 5.160156 308.457031 4.492188 307.910156 3.878906 307.296875 C 3.261719 306.679688 2.714844 306.011719 2.230469 305.289062 C 1.746094 304.566406 1.339844 303.804688 1.007812 303 C 0.675781 302.195312 0.421875 301.371094 0.253906 300.515625 C 0.0859375 299.664062 0 298.804688 0 297.933594 Z M 0 297.933594 " fill-opacity="1" fill-rule="nonzero"/></g><path fill="#f8cb3f" d="M 231.722656 244.980469 C 232.375 244.980469 233.023438 245.011719 233.671875 245.078125 C 234.316406 245.140625 234.960938 245.238281 235.597656 245.363281 C 236.234375 245.488281 236.867188 245.648438 237.488281 245.835938 C 238.113281 246.027344 238.722656 246.246094 239.324219 246.492188 C 239.925781 246.742188 240.511719 247.019531 241.085938 247.328125 C 241.660156 247.632812 242.21875 247.96875 242.757812 248.328125 C 243.300781 248.691406 243.820312 249.078125 244.324219 249.488281 C 244.828125 249.902344 245.308594 250.339844 245.769531 250.796875 C 246.226562 251.257812 246.664062 251.738281 247.078125 252.242188 C 247.488281 252.746094 247.875 253.265625 248.238281 253.808594 C 248.597656 254.347656 248.933594 254.90625 249.238281 255.476562 C 249.546875 256.050781 249.824219 256.640625 250.074219 257.238281 C 250.324219 257.839844 250.542969 258.453125 250.730469 259.074219 C 250.917969 259.695312 251.078125 260.328125 251.203125 260.964844 C 251.332031 261.601562 251.425781 262.246094 251.488281 262.894531 C 251.554688 263.539062 251.585938 264.1875 251.585938 264.839844 C 251.585938 265.488281 251.554688 266.136719 251.488281 266.785156 C 251.425781 267.433594 251.332031 268.074219 251.203125 268.714844 C 251.078125 269.351562 250.917969 269.980469 250.730469 270.601562 C 250.542969 271.226562 250.324219 271.835938 250.074219 272.4375 C 249.824219 273.039062 249.546875 273.625 249.238281 274.199219 C 248.933594 274.773438 248.597656 275.332031 248.238281 275.871094 C 247.875 276.410156 247.488281 276.933594 247.078125 277.4375 C 246.664062 277.9375 246.226562 278.421875 245.769531 278.878906 C 245.308594 279.339844 244.828125 279.777344 244.324219 280.1875 C 243.820312 280.601562 243.300781 280.988281 242.757812 281.351562 C 242.21875 281.710938 241.660156 282.042969 241.085938 282.351562 C 240.511719 282.65625 239.925781 282.9375 239.324219 283.183594 C 238.722656 283.433594 238.113281 283.652344 237.488281 283.839844 C 236.867188 284.03125 236.234375 284.1875 235.597656 284.316406 C 234.960938 284.441406 234.316406 284.535156 233.671875 284.601562 C 233.023438 284.664062 232.375 284.695312 231.722656 284.695312 C 231.074219 284.695312 230.425781 284.664062 229.777344 284.601562 C 229.128906 284.535156 228.488281 284.441406 227.847656 284.316406 C 227.210938 284.1875 226.582031 284.03125 225.957031 283.839844 C 225.335938 283.652344 224.722656 283.433594 224.121094 283.183594 C 223.523438 282.9375 222.933594 282.65625 222.359375 282.351562 C 221.785156 282.042969 221.230469 281.710938 220.6875 281.351562 C 220.148438 280.988281 219.625 280.601562 219.125 280.1875 C 218.621094 279.777344 218.140625 279.339844 217.679688 278.878906 C 217.21875 278.421875 216.78125 277.9375 216.371094 277.4375 C 215.957031 276.933594 215.570312 276.410156 215.207031 275.871094 C 214.847656 275.332031 214.511719 274.773438 214.207031 274.199219 C 213.898438 273.625 213.621094 273.039062 213.375 272.4375 C 213.125 271.835938 212.90625 271.226562 212.714844 270.601562 C 212.527344 269.980469 212.371094 269.351562 212.242188 268.714844 C 212.117188 268.074219 212.019531 267.433594 211.957031 266.785156 C 211.894531 266.136719 211.863281 265.488281 211.863281 264.839844 C 211.863281 264.1875 211.894531 263.539062 211.957031 262.894531 C 212.019531 262.246094 212.117188 261.601562 212.242188 260.964844 C 212.371094 260.328125 212.527344 259.695312 212.714844 259.074219 C 212.90625 258.453125 213.125 257.839844 213.375 257.238281 C 213.621094 256.640625 213.898438 256.050781 214.207031 255.476562 C 214.511719 254.90625 214.847656 254.347656 215.207031 253.808594 C 215.570312 253.265625 215.957031 252.746094 216.371094 252.242188 C 216.78125 251.738281 217.21875 251.257812 217.679688 250.796875 C 218.140625 250.339844 218.621094 249.902344 219.125 249.488281 C 219.625 249.078125 220.148438 248.691406 220.6875 248.328125 C 221.230469 247.96875 221.785156 247.632812 222.359375 247.328125 C 222.933594 247.019531 223.523438 246.742188 224.121094 246.492188 C 224.722656 246.246094 225.335938 246.027344 225.957031 245.835938 C 226.582031 245.648438 227.210938 245.488281 227.847656 245.363281 C 228.488281 245.238281 229.128906 245.140625 229.777344 245.078125 C 230.425781 245.011719 231.074219 244.980469 231.722656 244.980469 Z M 231.722656 244.980469 " fill-opacity="1" fill-rule="nonzero"/><path fill="#e2434b" d="M 205.242188 244.980469 C 205.890625 244.980469 206.539062 245.011719 207.1875 245.078125 C 207.835938 245.140625 208.476562 245.238281 209.117188 245.363281 C 209.753906 245.488281 210.382812 245.648438 211.007812 245.835938 C 211.628906 246.027344 212.242188 246.246094 212.839844 246.492188 C 213.441406 246.742188 214.03125 247.019531 214.605469 247.328125 C 215.175781 247.632812 215.734375 247.96875 216.277344 248.328125 C 216.816406 248.691406 217.339844 249.078125 217.839844 249.488281 C 218.34375 249.902344 218.824219 250.339844 219.285156 250.796875 C 219.746094 251.257812 220.179688 251.738281 220.59375 252.242188 C 221.007812 252.746094 221.394531 253.265625 221.753906 253.808594 C 222.117188 254.347656 222.449219 254.90625 222.757812 255.476562 C 223.0625 256.050781 223.34375 256.640625 223.589844 257.238281 C 223.839844 257.839844 224.058594 258.453125 224.246094 259.074219 C 224.4375 259.695312 224.59375 260.328125 224.722656 260.964844 C 224.847656 261.601562 224.941406 262.246094 225.007812 262.894531 C 225.070312 263.539062 225.101562 264.1875 225.101562 264.839844 C 225.101562 265.488281 225.070312 266.136719 225.007812 266.785156 C 224.941406 267.433594 224.847656 268.074219 224.722656 268.714844 C 224.59375 269.351562 224.4375 269.980469 224.246094 270.601562 C 224.058594 271.226562 223.839844 271.835938 223.589844 272.4375 C 223.34375 273.039062 223.0625 273.625 222.757812 274.199219 C 222.449219 274.773438 222.117188 275.332031 221.753906 275.871094 C 221.394531 276.410156 221.007812 276.933594 220.59375 277.4375 C 220.179688 277.9375 219.746094 278.421875 219.285156 278.878906 C 218.824219 279.339844 218.34375 279.777344 217.839844 280.1875 C 217.339844 280.601562 216.816406 280.988281 216.277344 281.351562 C 215.734375 281.710938 215.175781 282.042969 214.605469 282.351562 C 214.03125 282.65625 213.441406 282.9375 212.839844 283.183594 C 212.242188 283.433594 211.628906 283.652344 211.007812 283.839844 C 210.382812 284.03125 209.753906 284.1875 209.117188 284.316406 C 208.476562 284.441406 207.835938 284.535156 207.1875 284.601562 C 206.539062 284.664062 205.890625 284.695312 205.242188 284.695312 C 204.589844 284.695312 203.941406 284.664062 203.292969 284.601562 C 202.644531 284.535156 202.003906 284.441406 201.367188 284.316406 C 200.726562 284.1875 200.097656 284.03125 199.476562 283.839844 C 198.851562 283.652344 198.242188 283.433594 197.640625 283.183594 C 197.039062 282.9375 196.453125 282.65625 195.878906 282.351562 C 195.304688 282.042969 194.746094 281.710938 194.207031 281.351562 C 193.664062 280.988281 193.144531 280.601562 192.640625 280.1875 C 192.136719 279.777344 191.65625 279.339844 191.195312 278.878906 C 190.734375 278.421875 190.300781 277.9375 189.886719 277.4375 C 189.472656 276.933594 189.085938 276.410156 188.726562 275.871094 C 188.363281 275.332031 188.03125 274.773438 187.722656 274.199219 C 187.417969 273.625 187.140625 273.039062 186.890625 272.4375 C 186.640625 271.835938 186.421875 271.226562 186.234375 270.601562 C 186.046875 269.980469 185.886719 269.351562 185.761719 268.714844 C 185.632812 268.074219 185.539062 267.433594 185.472656 266.785156 C 185.410156 266.136719 185.378906 265.488281 185.378906 264.839844 C 185.378906 264.1875 185.410156 263.539062 185.472656 262.894531 C 185.539062 262.246094 185.632812 261.601562 185.761719 260.964844 C 185.886719 260.328125 186.046875 259.695312 186.234375 259.074219 C 186.421875 258.453125 186.640625 257.839844 186.890625 257.238281 C 187.140625 256.640625 187.417969 256.050781 187.722656 255.476562 C 188.03125 254.90625 188.363281 254.347656 188.726562 253.808594 C 189.085938 253.265625 189.472656 252.746094 189.886719 252.242188 C 190.300781 251.738281 190.734375 251.257812 191.195312 250.796875 C 191.65625 250.339844 192.136719 249.902344 192.640625 249.488281 C 193.144531 249.078125 193.664062 248.691406 194.207031 248.328125 C 194.746094 247.96875 195.304688 247.632812 195.878906 247.328125 C 196.453125 247.019531 197.039062 246.742188 197.640625 246.492188 C 198.242188 246.246094 198.851562 246.027344 199.476562 245.835938 C 200.097656 245.648438 200.726562 245.488281 201.367188 245.363281 C 202.003906 245.238281 202.644531 245.140625 203.292969 245.078125 C 203.941406 245.011719 204.589844 244.980469 205.242188 244.980469 Z M 205.242188 244.980469 " fill-opacity="1" fill-rule="nonzero"/><path fill="#f8cb3f" d="M 26.480469 178.792969 L 26.480469 165.554688 C 26.480469 164.683594 26.566406 163.824219 26.738281 162.96875 C 26.90625 162.117188 27.15625 161.289062 27.488281 160.488281 C 27.824219 159.683594 28.230469 158.921875 28.714844 158.199219 C 29.195312 157.476562 29.746094 156.808594 30.359375 156.191406 C 30.976562 155.578125 31.644531 155.027344 32.367188 154.546875 C 33.089844 154.0625 33.851562 153.65625 34.65625 153.324219 C 35.460938 152.988281 36.289062 152.738281 37.140625 152.570312 C 37.992188 152.398438 38.855469 152.316406 39.722656 152.316406 L 66.207031 152.316406 C 67.074219 152.316406 67.9375 152.398438 68.789062 152.570312 C 69.640625 152.738281 70.46875 152.988281 71.273438 153.324219 C 72.078125 153.65625 72.839844 154.0625 73.5625 154.546875 C 74.285156 155.027344 74.953125 155.578125 75.570312 156.191406 C 76.183594 156.808594 76.734375 157.476562 77.214844 158.199219 C 77.699219 158.921875 78.105469 159.683594 78.441406 160.488281 C 78.773438 161.289062 79.023438 162.117188 79.191406 162.96875 C 79.363281 163.824219 79.449219 164.683594 79.449219 165.554688 L 79.449219 178.792969 C 79.449219 179.660156 79.363281 180.519531 79.191406 181.375 C 79.023438 182.226562 78.773438 183.054688 78.441406 183.855469 C 78.105469 184.660156 77.699219 185.421875 77.214844 186.144531 C 76.734375 186.867188 76.183594 187.539062 75.570312 188.152344 C 74.953125 188.765625 74.285156 189.316406 73.5625 189.796875 C 72.839844 190.28125 72.078125 190.6875 71.273438 191.023438 C 70.46875 191.355469 69.640625 191.605469 68.789062 191.773438 C 67.9375 191.945312 67.074219 192.027344 66.207031 192.027344 L 39.722656 192.027344 C 38.855469 192.027344 37.992188 191.945312 37.140625 191.773438 C 36.289062 191.605469 35.460938 191.355469 34.65625 191.023438 C 33.851562 190.6875 33.089844 190.28125 32.367188 189.796875 C 31.644531 189.316406 30.976562 188.765625 30.359375 188.152344 C 29.746094 187.539062 29.195312 186.867188 28.714844 186.144531 C 28.230469 185.421875 27.824219 184.660156 27.488281 183.855469 C 27.15625 183.054688 26.90625 182.226562 26.738281 181.375 C 26.566406 180.519531 26.480469 179.660156 26.480469 178.792969 Z M 26.480469 178.792969 " fill-opacity="1" fill-rule="nonzero"/><path fill="#e9eef2" d="M 19.863281 225.125 L 19.863281 211.886719 L 99.308594 211.886719 L 99.308594 225.125 Z M 19.863281 225.125 " fill-opacity="1" fill-rule="nonzero"/><path fill="#e9eef2" d="M 125.792969 225.125 L 125.792969 211.886719 L 139.035156 211.886719 L 139.035156 225.125 Z M 125.792969 225.125 " fill-opacity="1" fill-rule="nonzero"/><path fill="#e9eef2" d="M 19.863281 258.21875 L 19.863281 244.980469 L 33.101562 244.980469 L 33.101562 258.21875 Z M 19.863281 258.21875 " fill-opacity="1" fill-rule="nonzero"/><path fill="#e9eef2" d="M 46.34375 258.21875 L 46.34375 244.980469 L 59.585938 244.980469 L 59.585938 258.21875 Z M 46.34375 258.21875 " fill-opacity="1" fill-rule="nonzero"/><path fill="#e9eef2" d="M 152.273438 225.125 L 152.273438 211.886719 L 205.242188 211.886719 L 205.242188 225.125 Z M 152.273438 225.125 " fill-opacity="1" fill-rule="nonzero"/><path fill="#e9eef2" d="M 72.828125 258.21875 L 72.828125 244.980469 L 99.308594 244.980469 L 99.308594 258.21875 Z M 72.828125 258.21875 " fill-opacity="1" fill-rule="nonzero"/><g clip-path="url(#3ee95b3277)"><path fill="#f5cead" d="M 207.359375 72.886719 L 384 72.886719 L 384 125.839844 C 384 126.921875 383.972656 128.003906 383.917969 129.085938 C 383.867188 130.167969 383.785156 131.25 383.679688 132.328125 C 383.574219 133.40625 383.441406 134.480469 383.28125 135.550781 C 383.125 136.621094 382.9375 137.6875 382.726562 138.75 C 382.515625 139.8125 382.277344 140.871094 382.015625 141.921875 C 381.75 142.972656 381.464844 144.015625 381.148438 145.054688 C 380.832031 146.089844 380.492188 147.117188 380.128906 148.136719 C 379.765625 149.15625 379.375 150.167969 378.960938 151.167969 C 378.542969 152.167969 378.105469 153.160156 377.644531 154.140625 C 377.179688 155.117188 376.691406 156.085938 376.179688 157.039062 C 375.671875 157.996094 375.136719 158.9375 374.578125 159.867188 C 374.023438 160.796875 373.441406 161.710938 372.839844 162.613281 C 372.238281 163.511719 371.617188 164.398438 370.96875 165.269531 C 370.324219 166.136719 369.660156 166.992188 368.972656 167.828125 C 368.285156 168.667969 367.574219 169.488281 366.847656 170.289062 C 366.121094 171.09375 365.375 171.875 364.609375 172.640625 C 363.839844 173.410156 363.058594 174.15625 362.253906 174.882812 C 361.453125 175.609375 360.632812 176.316406 359.792969 177.003906 C 358.957031 177.691406 358.101562 178.359375 357.230469 179.003906 C 356.363281 179.648438 355.476562 180.273438 354.574219 180.875 C 353.675781 181.476562 352.757812 182.054688 351.828125 182.613281 C 350.898438 183.167969 349.957031 183.703125 349.003906 184.214844 C 348.046875 184.722656 347.078125 185.210938 346.097656 185.675781 C 345.121094 186.136719 344.128906 186.578125 343.128906 186.992188 C 342.128906 187.40625 341.117188 187.796875 340.097656 188.160156 C 339.078125 188.523438 338.046875 188.863281 337.011719 189.179688 C 335.972656 189.492188 334.929688 189.78125 333.878906 190.046875 C 332.828125 190.308594 331.769531 190.546875 330.707031 190.757812 C 329.644531 190.96875 328.578125 191.152344 327.507812 191.3125 C 326.433594 191.472656 325.359375 191.605469 324.28125 191.710938 C 323.203125 191.816406 322.125 191.894531 321.039062 191.949219 C 319.957031 192.003906 318.875 192.027344 317.792969 192.027344 L 248.011719 241.871094 C 247.195312 242.445312 246.355469 242.980469 245.484375 243.472656 C 244.617188 243.96875 243.730469 244.417969 242.820312 244.824219 C 241.90625 245.230469 240.980469 245.59375 240.03125 245.910156 C 239.085938 246.226562 238.125 246.496094 237.152344 246.722656 C 236.179688 246.945312 235.199219 247.121094 234.210938 247.25 C 233.222656 247.375 232.226562 247.457031 231.230469 247.488281 C 230.234375 247.519531 229.234375 247.503906 228.238281 247.4375 C 227.246094 247.371094 226.253906 247.257812 225.269531 247.097656 C 224.285156 246.9375 223.308594 246.726562 222.34375 246.472656 C 221.378906 246.214844 220.429688 245.914062 219.496094 245.566406 C 218.5625 245.214844 217.644531 244.824219 216.746094 244.386719 C 215.851562 243.949219 214.976562 243.46875 214.128906 242.945312 C 213.277344 242.425781 212.453125 241.863281 211.660156 241.257812 C 210.863281 240.65625 210.097656 240.015625 209.363281 239.339844 C 208.632812 238.664062 207.933594 237.953125 207.269531 237.210938 C 206.605469 236.464844 205.976562 235.6875 205.386719 234.882812 C 204.800781 234.078125 204.25 233.246094 203.742188 232.386719 C 203.234375 231.527344 202.769531 230.648438 202.347656 229.742188 C 201.925781 228.839844 201.546875 227.917969 201.214844 226.976562 C 200.882812 226.035156 200.597656 225.082031 200.355469 224.113281 C 200.117188 223.144531 199.925781 222.167969 199.777344 221.179688 C 199.632812 220.191406 199.539062 219.199219 199.488281 218.203125 C 199.441406 217.207031 199.441406 216.210938 199.488281 215.214844 C 199.539062 214.21875 199.636719 213.226562 199.78125 212.238281 C 199.925781 211.25 200.117188 210.273438 200.355469 209.304688 C 200.597656 208.335938 200.882812 207.382812 201.214844 206.441406 C 201.550781 205.5 201.925781 204.578125 202.351562 203.675781 C 202.773438 202.773438 203.238281 201.890625 203.746094 201.03125 C 204.253906 200.171875 204.800781 199.339844 205.390625 198.535156 C 205.980469 197.730469 206.609375 196.957031 207.273438 196.210938 C 207.9375 195.464844 208.636719 194.757812 209.367188 194.078125 C 210.101562 193.402344 210.867188 192.765625 211.664062 192.160156 L 264.828125 152.316406 L 264.828125 125.839844 L 132.414062 125.839844 L 132.941406 124.449219 C 133.648438 122.570312 134.421875 120.71875 135.265625 118.898438 C 136.109375 117.078125 137.019531 115.292969 138 113.539062 C 138.980469 111.789062 140.023438 110.078125 141.136719 108.402344 C 142.246094 106.730469 143.417969 105.101562 144.648438 103.519531 C 145.882812 101.9375 147.175781 100.402344 148.523438 98.914062 C 149.875 97.429688 151.277344 95.996094 152.738281 94.617188 C 154.195312 93.238281 155.703125 91.914062 157.261719 90.652344 C 158.820312 89.386719 160.425781 88.179688 162.078125 87.039062 C 163.726562 85.894531 165.417969 84.816406 167.152344 83.800781 C 168.882812 82.785156 170.652344 81.835938 172.457031 80.953125 C 174.261719 80.074219 176.09375 79.261719 177.960938 78.519531 C 179.828125 77.777344 181.71875 77.105469 183.636719 76.507812 C 185.550781 75.90625 187.488281 75.382812 189.445312 74.929688 C 191.402344 74.476562 193.375 74.097656 195.359375 73.796875 C 197.34375 73.492188 199.339844 73.265625 201.34375 73.113281 C 203.34375 72.960938 205.351562 72.886719 207.359375 72.886719 Z M 207.359375 72.886719 " fill-opacity="1" fill-rule="nonzero"/></g><path fill="#e5be9e" d="M 258.207031 105.980469 L 271.449219 105.980469 L 271.449219 152.316406 L 264.828125 152.316406 L 264.828125 125.839844 L 258.207031 125.839844 Z M 258.207031 105.980469 " fill-opacity="1" fill-rule="nonzero"/></svg>