<svg xmlns="http://www.w3.org/2000/svg" xmlns:xlink="http://www.w3.org/1999/xlink" width="512" zoomAndPan="magnify" viewBox="0 0 384 383.999986" height="512" preserveAspectRatio="xMidYMid meet" version="1.0"><defs><clipPath id="2fc1de9743"><path d="M 14.878906 1 L 368.878906 1 L 368.878906 384 L 14.878906 384 Z M 14.878906 1 " clip-rule="nonzero"/></clipPath></defs><g clip-path="url(#2fc1de9743)"><path fill="#000000" d="M 365.511719 283.855469 C 360.800781 288.511719 355.535156 292.347656 349.820312 295.570312 C 334.652344 304.117188 319.242188 312.164062 303.292969 319.183594 C 263.40625 336.710938 223.558594 354.328125 183.636719 371.742188 C 175.890625 375.113281 167.851562 377.816406 159.90625 380.664062 C 155.234375 382.339844 150.394531 383.347656 145.351562 382.9375 C 142.613281 382.714844 139.972656 382.171875 137.570312 380.832031 C 137.328125 380.703125 137.050781 380.402344 136.917969 380.125 C 134.925781 379.863281 133.027344 379.359375 131.316406 378.464844 C 131.261719 378.503906 131.203125 378.542969 131.128906 378.558594 C 129.734375 379.175781 128.320312 379.0625 126.90625 378.707031 C 123.761719 377.945312 120.949219 376.457031 118.34375 374.574219 C 111.902344 369.9375 106.617188 364.183594 102.636719 357.328125 C 99.75 352.375 97.070312 347.253906 94.835938 341.964844 C 88.453125 326.804688 82.386719 311.53125 76.113281 296.316406 C 65.894531 271.507812 55.511719 246.773438 45.421875 221.929688 C 36.898438 200.902344 28.859375 179.707031 21.710938 158.179688 C 19.03125 150.132812 17.078125 141.902344 15.570312 133.574219 C 15.066406 130.761719 15.085938 127.839844 14.878906 124.988281 C 14.953125 118.171875 16.128906 111.636719 18.898438 105.378906 C 19.757812 103.441406 20.742188 101.636719 22.621094 100.535156 C 23.144531 100.238281 23.871094 99.976562 24.390625 100.109375 C 24.410156 100.109375 24.410156 100.109375 24.429688 100.125 C 25.171875 98.953125 25.933594 97.78125 26.792969 96.664062 C 26.792969 96.402344 26.847656 96.121094 26.960938 95.972656 C 28.28125 94.390625 29.507812 92.65625 31.128906 91.429688 C 33.660156 89.511719 36.453125 87.910156 39.207031 86.289062 C 68.40625 69.152344 98.558594 53.828125 129.230469 39.484375 C 139.914062 34.476562 150.597656 29.410156 161.414062 24.679688 C 179.839844 16.613281 198.5625 9.351562 217.804688 3.484375 C 220.839844 2.554688 223.96875 1.808594 227.09375 1.285156 C 231.878906 0.503906 236.007812 1.863281 238.914062 5.90625 C 240.960938 8.753906 242.914062 11.699219 244.609375 14.769531 C 255.347656 34.382812 266.066406 54.011719 276.640625 73.71875 C 293.910156 105.957031 311.089844 138.25 328.230469 170.5625 C 333.535156 180.582031 338.578125 190.753906 343.640625 200.902344 C 344.777344 203.175781 345.597656 205.613281 346.304688 208.054688 C 346.582031 209.042969 346.414062 210.289062 346.082031 211.292969 C 345.839844 212.003906 345.28125 212.523438 344.628906 212.804688 C 344.105469 213.976562 343.082031 214.945312 341.875 215.707031 C 342.132812 216.304688 342.117188 217.03125 341.6875 217.664062 C 339.269531 221.257812 339.976562 224.519531 342.359375 227.757812 C 348.5 236.160156 353.992188 244.96875 358.867188 254.148438 C 361.34375 258.785156 363.519531 263.59375 365.734375 268.378906 C 366.589844 270.257812 367.203125 272.253906 367.835938 274.226562 C 368.9375 277.894531 368.433594 280.96875 365.511719 283.855469 Z M 365.511719 283.855469 " fill-opacity="1" fill-rule="nonzero"/></g><path fill="#82a190" d="M 360.859375 275.363281 C 356.113281 280.539062 350.007812 283.707031 343.957031 286.871094 C 327.5625 295.496094 310.921875 303.597656 293.949219 311.007812 C 272.152344 320.527344 250.359375 330.007812 228.601562 339.597656 C 210.640625 347.511719 192.753906 355.613281 174.8125 363.546875 C 169.265625 365.988281 163.589844 368.128906 157.96875 370.402344 C 152.8125 372.488281 147.414062 372.859375 141.960938 372.339844 C 140.566406 372.207031 139.191406 371.6875 137.832031 371.203125 C 137.476562 371.074219 137.03125 370.457031 137.050781 370.105469 C 137.066406 369.957031 137.085938 369.769531 137.140625 369.601562 C 135.300781 369.601562 133.457031 369.230469 131.761719 368.539062 C 131.6875 368.613281 131.613281 368.6875 131.519531 368.746094 C 130.945312 369.15625 130.03125 369.453125 129.363281 369.320312 C 127.722656 369.023438 126.589844 367.8125 125.527344 366.621094 C 122.160156 362.765625 120.222656 358.242188 119.832031 353.175781 C 119.125 344.214844 120.914062 335.6875 124.523438 327.511719 C 126.308594 323.507812 129.101562 320.226562 132.507812 317.472656 C 137.253906 313.652344 142.371094 310.414062 147.621094 307.359375 C 160.722656 299.722656 174.160156 292.664062 187.671875 285.773438 C 210.714844 274.019531 233.609375 262.007812 257.078125 251.152344 C 280.546875 240.292969 304.054688 229.582031 327.578125 218.835938 C 330.484375 217.515625 333.441406 216.324219 336.421875 215.148438 C 337.445312 214.742188 338.5625 214.441406 339.660156 214.386719 C 340.683594 214.332031 341.5 214.925781 341.835938 215.707031 C 343.027344 214.945312 344.070312 213.976562 344.589844 212.804688 C 343.625 213.230469 342.449219 213.121094 341.6875 212.320312 C 340.628906 211.183594 339.808594 209.765625 339.101562 208.351562 C 334.617188 199.523438 330.335938 190.585938 325.699219 181.851562 C 309.097656 150.503906 292.421875 119.214844 275.726562 87.945312 C 263.386719 64.832031 250.972656 41.757812 238.578125 18.699219 C 237.292969 16.316406 235.804688 14.042969 234.464844 11.660156 C 232.882812 8.847656 230.628906 7.003906 227.410156 6.464844 C 226.945312 6.390625 226.5 6.203125 226.535156 6.203125 C 213.933594 11.082031 201.800781 15.925781 189.554688 20.488281 C 171.445312 27.230469 153.875 35.257812 136.433594 43.507812 C 118.269531 52.113281 100.140625 60.847656 82.179688 69.863281 C 68.78125 76.585938 55.640625 83.886719 42.371094 90.851562 C 37.847656 93.234375 33.25 95.453125 28.652344 97.667969 C 28.242188 97.871094 27.441406 97.574219 27.015625 97.257812 C 26.902344 97.183594 26.847656 96.902344 26.847656 96.625 C 25.992188 97.742188 25.210938 98.914062 24.484375 100.089844 C 24.949219 100.21875 25.433594 100.816406 25.636719 101.316406 C 25.769531 101.652344 25.394531 102.195312 25.210938 102.640625 C 20.742188 112.511719 20.222656 122.71875 22.363281 133.164062 C 24.984375 146.035156 29.339844 158.382812 33.808594 170.695312 C 43.691406 197.867188 54.503906 224.648438 65.523438 251.375 C 76.894531 278.976562 88.117188 306.652344 99.472656 334.253906 C 101.40625 338.964844 103.621094 343.582031 105.816406 348.183594 C 110.863281 358.707031 118.679688 366.75 128.265625 373.214844 C 129.457031 374.015625 130.648438 374.816406 131.726562 375.746094 C 132.527344 376.4375 132.191406 377.890625 131.261719 378.429688 C 132.972656 379.324219 134.890625 379.84375 136.882812 380.085938 C 136.808594 379.9375 136.75 379.789062 136.769531 379.675781 C 136.863281 379.117188 137.199219 378.375 137.644531 378.167969 C 138.632812 377.722656 139.746094 377.332031 140.808594 377.347656 C 147.972656 377.441406 154.636719 375.429688 161.28125 373.007812 C 174.179688 368.277344 186.707031 362.730469 199.25 357.160156 C 232.511719 342.429688 265.769531 327.695312 299.046875 313.003906 C 316.003906 305.515625 332.402344 296.949219 348.519531 287.804688 C 351.851562 285.902344 355.238281 284.117188 358.570312 282.234375 C 362.160156 280.222656 362.308594 279.738281 360.859375 275.363281 Z M 273.734375 193.042969 C 273.289062 196.300781 272.285156 198.761719 270.871094 201.03125 C 270.554688 201.535156 270.03125 201.984375 269.511719 202.261719 C 269.304688 202.375 268.636719 202 268.488281 201.683594 C 268.300781 201.3125 268.355469 200.753906 268.449219 200.304688 C 268.972656 197.625 270.21875 195.277344 272.097656 193.304688 C 272.320312 193.0625 272.898438 193.15625 273.734375 193.042969 Z M 262.753906 198.519531 C 264 194.941406 265.191406 191.3125 268.207031 188.703125 C 268.300781 188.609375 268.503906 188.628906 268.988281 188.535156 C 269.695312 189.96875 269.417969 191.238281 268.804688 192.355469 C 267.3125 195.089844 266.476562 198.238281 264.058594 200.324219 C 262.902344 200.0625 262.492188 199.28125 262.753906 198.519531 Z M 114.902344 312.554688 C 114.101562 312.070312 113.246094 311.511719 112.722656 310.765625 C 111.996094 309.742188 111.511719 308.53125 111.011719 307.359375 C 104.347656 291.976562 97.851562 276.515625 91.003906 261.207031 C 75.015625 225.488281 60.332031 189.242188 46.035156 152.8125 C 41.199219 140.484375 36.601562 128.042969 31.945312 115.660156 C 31.390625 114.1875 31.074219 112.625 30.757812 111.078125 C 30.699219 110.78125 31.183594 110.183594 31.539062 110.054688 C 31.871094 109.921875 32.542969 110.070312 32.765625 110.351562 C 33.363281 111.078125 33.902344 111.898438 34.292969 112.753906 C 36.785156 118.285156 39.410156 123.761719 41.679688 129.386719 C 59.789062 174.585938 77.359375 220.011719 96.753906 264.671875 C 100.960938 274.339844 105.335938 283.929688 109.449219 293.632812 C 111.8125 299.21875 113.785156 304.957031 115.90625 310.636719 C 116.074219 311.066406 116.035156 311.566406 116.109375 312.164062 C 115.683594 312.3125 115.125 312.703125 114.902344 312.554688 Z M 114.902344 312.554688 " fill-opacity="1" fill-rule="nonzero"/><path fill="#ffffff" d="M 347.847656 276.871094 C 346.878906 277.375 345.929688 277.894531 344.980469 278.398438 C 316.414062 293.390625 287.042969 306.667969 257.507812 319.59375 C 232.660156 330.472656 207.847656 341.421875 183.019531 352.355469 C 174.699219 356.023438 166.382812 359.691406 158.042969 363.34375 C 156.292969 364.105469 154.507812 364.816406 152.683594 365.390625 C 151.660156 365.726562 150.523438 365.726562 149.222656 365.914062 C 146.691406 362.972656 144.046875 360.195312 141.738281 357.160156 C 135.242188 348.667969 133.085938 338.796875 133.027344 328.328125 C 133.027344 327.101562 133.4375 326.132812 134.3125 325.367188 C 135.875 324.007812 137.382812 322.539062 139.097656 321.402344 C 143.488281 318.496094 147.917969 315.628906 152.460938 312.964844 C 167.777344 304.023438 183.671875 296.183594 199.398438 287.988281 C 234.242188 269.832031 269.789062 253.199219 305.5625 236.960938 C 315.296875 232.546875 324.882812 227.777344 334.523438 223.175781 C 335.042969 222.933594 335.65625 222.84375 336.53125 222.617188 C 337.054688 230.03125 334.78125 237.144531 336.664062 244.242188 C 333.574219 245.582031 330.96875 246.71875 328.34375 247.835938 C 282.242188 267.484375 236.53125 288.027344 191.527344 310.117188 C 178.777344 316.375 166.308594 323.191406 153.6875 329.765625 C 150.859375 331.234375 148.011719 332.707031 145.199219 334.214844 C 144.402344 334.644531 143.675781 335.238281 142.949219 335.707031 C 143.191406 337.082031 144.085938 337.046875 144.792969 336.839844 C 146 336.507812 147.210938 336.023438 148.347656 335.464844 C 152.644531 333.339844 156.964844 331.292969 161.1875 329 C 183.394531 316.988281 206.304688 306.445312 229.105469 295.644531 C 252.460938 284.5625 276.210938 274.300781 299.902344 263.925781 C 310.570312 259.253906 321.046875 254.113281 331.601562 249.175781 C 333.050781 248.507812 334.484375 247.816406 335.898438 247.148438 C 337.3125 248.207031 337.203125 249.734375 337.445312 251.113281 C 338.488281 257.128906 340.347656 262.902344 343.027344 268.378906 C 344.40625 271.246094 346.136719 273.910156 347.847656 276.871094 Z M 317.230469 240.273438 C 316.636719 240.496094 315.890625 240.722656 315.183594 241.039062 C 308.242188 244.261719 301.261719 247.445312 294.359375 250.742188 C 269.902344 262.4375 245.484375 274.226562 221.007812 285.902344 C 206.601562 292.777344 192.085938 299.371094 177.734375 306.316406 C 168.539062 310.765625 159.550781 315.609375 150.488281 320.320312 C 148.515625 321.347656 146.652344 322.59375 144.792969 323.824219 C 144.308594 324.140625 143.804688 324.792969 144.363281 325.386719 C 144.605469 325.648438 145.292969 325.742188 145.648438 325.59375 C 148.273438 324.4375 150.894531 323.265625 153.484375 321.996094 C 164.390625 316.707031 175.222656 311.234375 186.203125 306.09375 C 214.25 293.019531 242.542969 280.429688 270.386719 266.90625 C 285.03125 259.792969 299.867188 253.070312 313.75 244.519531 C 315.109375 243.683594 316.46875 242.863281 317.734375 241.914062 C 318.347656 241.484375 318.03125 240.832031 317.230469 240.273438 Z M 146.949219 345.074219 C 147.957031 345.929688 148.664062 345.5 149.371094 345.167969 C 155.417969 342.316406 161.523438 339.542969 167.535156 336.582031 C 182.851562 329.054688 198.023438 321.214844 213.453125 313.894531 C 246.191406 298.382812 279.078125 283.203125 311.3125 266.683594 C 313.433594 265.585938 315.59375 264.542969 317.695312 263.40625 C 318.328125 263.050781 318.851562 262.472656 319.6875 261.765625 C 318.851562 261.488281 318.386719 261.152344 318.050781 261.246094 C 317.136719 261.488281 316.246094 261.839844 315.371094 262.25 C 299.027344 269.851562 282.613281 277.300781 266.363281 285.101562 C 228.953125 303.019531 191.378906 320.601562 154.878906 340.359375 C 152.925781 341.421875 150.820312 342.242188 148.867188 343.304688 C 148.140625 343.695312 147.601562 344.457031 146.949219 345.074219 Z M 222.125 318.867188 C 223.835938 320.394531 225.082031 319.742188 226.199219 319.222656 C 229.085938 317.863281 231.894531 316.335938 234.742188 314.921875 C 262.773438 301.082031 290.96875 287.597656 319.445312 274.671875 C 321.328125 273.816406 323.207031 272.941406 325.066406 272.011719 C 325.457031 271.824219 325.71875 271.375 325.996094 271.023438 C 326.074219 270.929688 325.996094 270.6875 325.921875 270.558594 C 325.847656 270.425781 325.664062 270.242188 325.570312 270.277344 C 324.675781 270.464844 323.726562 270.558594 322.890625 270.929688 C 314.699219 274.46875 306.417969 277.859375 298.339844 281.640625 C 276.25 291.992188 254.230469 302.515625 232.195312 312.984375 C 229.753906 314.136719 227.355469 315.40625 224.972656 316.726562 C 224.078125 317.230469 223.277344 317.992188 222.125 318.867188 Z M 181.476562 347.402344 C 182.628906 347.402344 183.28125 347.550781 183.820312 347.363281 C 185.179688 346.898438 186.484375 346.339844 187.804688 345.742188 C 203.085938 338.945312 218.382812 332.203125 233.609375 325.3125 C 239.117188 322.816406 244.476562 320.003906 249.894531 317.285156 C 250.84375 316.820312 251.660156 316.09375 252.59375 315.441406 C 251.308594 314.121094 250.339844 314.957031 249.371094 315.386719 C 241.351562 318.90625 233.496094 322.835938 225.308594 325.871094 C 210.605469 331.308594 196.90625 338.742188 182.984375 345.78125 C 182.5 346.023438 182.203125 346.601562 181.476562 347.402344 Z M 264.652344 308.511719 C 265.675781 308.664062 266.179688 308.90625 266.53125 308.753906 C 268.171875 308.121094 269.769531 307.394531 271.351562 306.667969 C 289.332031 298.402344 307.292969 290.132812 325.273438 281.863281 C 328.175781 280.519531 331.078125 279.199219 333.964844 277.839844 C 334.652344 277.523438 335.472656 277.226562 335.453125 276.089844 C 335.0625 275.976562 334.578125 275.625 334.242188 275.753906 C 321.585938 280.09375 270.050781 302.925781 264.652344 308.511719 Z M 156.273438 350.808594 C 156.480469 350.957031 156.628906 351.125 156.742188 351.125 C 157.484375 351.03125 158.285156 350.996094 158.992188 350.734375 C 166.046875 348.183594 172.765625 344.886719 179.371094 341.367188 C 188.640625 336.414062 197.964844 331.550781 207.234375 326.597656 C 208.277344 326.039062 209.710938 325.796875 209.933594 324.269531 C 209.1875 323.394531 208.480469 323.878906 207.792969 324.234375 C 201.835938 327.25 195.863281 330.265625 189.90625 333.300781 C 179.558594 338.59375 169.5625 344.550781 158.675781 348.742188 C 158.082031 348.964844 157.503906 349.261719 157 349.671875 C 156.667969 349.933594 156.515625 350.417969 156.273438 350.808594 Z M 156.273438 350.808594 " fill-opacity="1" fill-rule="nonzero"/><path fill="#688375" d="M 137.140625 369.601562 C 135.300781 369.601562 133.457031 369.230469 131.761719 368.539062 C 132.230469 368 132.042969 367.253906 131.613281 366.621094 C 131.148438 365.96875 130.628906 365.355469 130.144531 364.722656 C 127.964844 361.871094 126.71875 358.648438 126.03125 355.128906 C 125.15625 350.585938 126.03125 346.210938 126.886719 341.832031 C 127.296875 339.746094 127.371094 337.417969 129.007812 335.648438 C 129.140625 336.039062 129.304688 336.320312 129.324219 336.636719 C 129.9375 347.570312 133.921875 357.105469 141.179688 365.300781 C 141.554688 365.707031 141.71875 366.304688 142.019531 366.902344 C 140.398438 367.496094 139.039062 367.886719 137.792969 368.519531 C 137.476562 368.6875 137.253906 369.15625 137.140625 369.601562 Z M 342.65625 238.785156 C 341.316406 246.363281 347.4375 265.007812 354.214844 273.816406 C 355.050781 273.667969 355.964844 273.445312 356.894531 273.332031 C 357.9375 273.203125 358.976562 273.164062 360.039062 273.089844 C 358.363281 266.925781 347.699219 245.917969 342.65625 238.785156 Z M 342.65625 238.785156 " fill-opacity="1" fill-rule="nonzero"/></svg>