<svg xmlns="http://www.w3.org/2000/svg" xmlns:xlink="http://www.w3.org/1999/xlink" width="512" zoomAndPan="magnify" viewBox="0 0 384 383.999986" height="512" preserveAspectRatio="xMidYMid meet" version="1.0"><defs><clipPath id="69fed65eec"><path d="M 90 33.601562 L 204 33.601562 L 204 152 L 90 152 Z M 90 33.601562 " clip-rule="nonzero"/></clipPath></defs><path fill="#ffffff" d="M 123.28125 206.074219 C 123.28125 219.109375 118.894531 248.03125 123.28125 259.914062 C 131.890625 283.25 130.515625 292.070312 122.46875 310.828125 C 122.46875 310.828125 113.152344 308.910156 108.054688 317.859375 C 106.203125 321.113281 101.515625 332.597656 110.0625 332.597656 C 118.46875 332.597656 135.214844 331.511719 140.152344 331.511719 C 147.527344 331.511719 150.210938 324.8125 150.210938 314.09375 C 150.210938 304.71875 168.402344 283.441406 164.125 275.910156 C 157.769531 264.691406 156.585938 263.429688 158.347656 256.8125 C 162.070312 242.785156 169.050781 227.910156 169.660156 208.082031 C 170.164062 191.75 159.675781 161.859375 136.527344 161.859375 C 119.953125 161.859375 123.28125 168.816406 123.28125 206.074219 " fill-opacity="1" fill-rule="nonzero"/><path fill="#ffffff" d="M 152.421875 300.5 C 148.421875 294.875 144.417969 288.117188 137.507812 285.71875 C 134.789062 284.777344 131.992188 284.410156 129.117188 284.238281 C 128.609375 292.585938 126.367188 299.699219 121.972656 309.941406 C 121.972656 309.941406 112.632812 308.914062 107.375 318.148438 C 105.46875 321.503906 100.632812 333.355469 109.449219 333.355469 C 118.121094 333.355469 134.554688 333.394531 139.65625 333.394531 C 147.261719 333.394531 150.867188 325.320312 150.867188 314.257812 C 150.867188 311.449219 152.304688 306.6875 154.445312 302.449219 C 153.6875 301.523438 153.117188 301.476562 152.421875 300.5 " fill-opacity="1" fill-rule="nonzero"/><path fill="#231f20" d="M 108.140625 332.71875 C 107.882812 331.164062 108.167969 329.609375 108.707031 328.15625 C 109.265625 326.707031 110.136719 325.339844 111.3125 324.226562 C 112.480469 323.105469 113.960938 322.269531 115.535156 321.902344 C 117.105469 321.539062 118.75 321.625 120.1875 322.253906 C 118.753906 322.882812 117.503906 323.4375 116.394531 324.117188 C 115.28125 324.785156 114.304688 325.542969 113.390625 326.410156 C 112.46875 327.28125 111.621094 328.246094 110.769531 329.304688 C 109.917969 330.363281 109.089844 331.492188 108.140625 332.71875 " fill-opacity="1" fill-rule="nonzero"/><path fill="#231f20" d="M 106.234375 324.304688 C 105.957031 322.960938 106.148438 321.558594 106.6875 320.269531 C 107.246094 318.980469 108.222656 317.804688 109.460938 317.015625 C 110.691406 316.210938 112.128906 315.820312 113.492188 315.78125 C 114.871094 315.742188 116.191406 316.015625 117.417969 316.644531 C 116.175781 317.269531 115.007812 317.660156 113.949219 318.109375 C 112.886719 318.546875 111.949219 318.996094 111.097656 319.542969 C 110.242188 320.09375 109.460938 320.738281 108.6875 321.539062 C 107.898438 322.347656 107.167969 323.265625 106.234375 324.304688 " fill-opacity="1" fill-rule="nonzero"/><path fill="#231f20" d="M 117.796875 333.222656 C 117.523438 331.878906 117.710938 330.476562 118.257812 329.1875 C 118.8125 327.898438 119.789062 326.71875 121.027344 325.929688 C 122.261719 325.128906 123.695312 324.738281 125.058594 324.703125 C 126.433594 324.664062 127.75 324.9375 128.988281 325.5625 C 127.746094 326.1875 126.578125 326.578125 125.523438 327.023438 C 124.453125 327.460938 123.515625 327.917969 122.65625 328.464844 C 121.808594 329.015625 121.027344 329.65625 120.25 330.460938 C 119.46875 331.261719 118.734375 332.183594 117.796875 333.222656 " fill-opacity="1" fill-rule="nonzero"/><path fill="#ffffff" d="M 282.234375 248.339844 C 261.042969 243.789062 210.460938 238.898438 184.714844 281.230469 C 184.472656 281.632812 184.226562 282.023438 183.976562 282.398438 L 183.945312 282.296875 C 183.84375 282.503906 183.734375 282.710938 183.628906 282.914062 C 183.4375 283.203125 183.238281 283.496094 183.050781 283.773438 L 183.054688 284.011719 C 169.171875 309.152344 128.722656 306.792969 128.722656 306.792969 C 123.605469 289.171875 95.65625 286.578125 100.808594 304.285156 C 102.691406 310.773438 105.535156 320.53125 105.535156 320.53125 C 110.222656 333.589844 118.148438 332.328125 126.214844 331.070312 C 129.597656 330.542969 133 330.015625 136.207031 330.542969 C 149.859375 332.792969 167.375 333.953125 177.429688 332.734375 C 179.164062 332.519531 186.5 330.507812 187.652344 329.503906 C 187.65625 329.519531 188.878906 328.992188 190.433594 328.476562 C 192.414062 327.808594 194.933594 327.144531 196.132812 327.582031 C 257.054688 349.933594 308.179688 337.300781 314.421875 296.03125 C 317.40625 276.246094 301.53125 252.480469 282.234375 248.339844 " fill-opacity="1" fill-rule="nonzero"/><path fill="#ffffff" d="M 155.613281 306.824219 C 155.132812 306.804688 154.878906 306.792969 154.878906 306.792969 C 154.707031 306.207031 154.515625 305.640625 154.292969 305.089844 C 154.734375 305.675781 155.171875 306.25 155.613281 306.824219 " fill-opacity="1" fill-rule="nonzero"/><path fill="#ffffff" d="M 154.15625 311.742188 C 153.699219 309.589844 153.101562 306.421875 152.535156 304.296875 C 140.296875 305.636719 128.734375 305.628906 128.734375 305.628906 C 123.507812 287.644531 94.539062 286.164062 99.792969 304.230469 C 101.71875 310.867188 104.617188 320.820312 104.617188 320.820312 C 109.433594 334.234375 117.777344 333.082031 126.171875 331.929688 C 129.609375 331.457031 133.058594 330.984375 136.273438 331.515625 C 141.304688 332.34375 147.90625 332.851562 154.464844 332.601562 C 155.605469 325.679688 155.664062 318.898438 154.15625 311.742188 " fill-opacity="1" fill-rule="nonzero"/><path fill="#231f20" d="M 99.730469 296.835938 C 101.160156 296.15625 102.730469 295.996094 104.28125 296.105469 C 105.832031 296.234375 107.390625 296.691406 108.789062 297.507812 C 110.1875 298.3125 111.402344 299.503906 112.195312 300.914062 C 112.984375 302.320312 113.359375 303.917969 113.160156 305.472656 C 112.148438 304.269531 111.269531 303.230469 110.304688 302.351562 C 109.355469 301.472656 108.351562 300.75 107.261719 300.109375 C 106.175781 299.472656 105.007812 298.925781 103.753906 298.410156 C 102.496094 297.882812 101.1875 297.40625 99.730469 296.835938 " fill-opacity="1" fill-rule="nonzero"/><path fill="#231f20" d="M 107.296875 292.65625 C 108.503906 292.015625 109.90625 291.804688 111.300781 291.972656 C 112.695312 292.144531 114.097656 292.757812 115.199219 293.71875 C 116.3125 294.679688 117.09375 295.941406 117.507812 297.246094 C 117.921875 298.558594 118.03125 299.898438 117.78125 301.25 C 116.824219 300.234375 116.125 299.222656 115.398438 298.332031 C 114.691406 297.4375 113.984375 296.660156 113.214844 295.992188 C 112.457031 295.324219 111.621094 294.757812 110.636719 294.238281 C 109.640625 293.710938 108.550781 293.269531 107.296875 292.65625 " fill-opacity="1" fill-rule="nonzero"/><path fill="#231f20" d="M 100.722656 306.070312 C 101.933594 305.433594 103.335938 305.226562 104.726562 305.390625 C 106.125 305.558594 107.53125 306.171875 108.628906 307.140625 C 109.742188 308.097656 110.515625 309.359375 110.941406 310.65625 C 111.351562 311.972656 111.464844 313.3125 111.210938 314.671875 C 110.253906 313.65625 109.554688 312.640625 108.832031 311.75 C 108.117188 310.851562 107.414062 310.078125 106.648438 309.414062 C 105.878906 308.746094 105.046875 308.175781 104.066406 307.65625 C 103.066406 307.125 101.980469 306.683594 100.722656 306.070312 " fill-opacity="1" fill-rule="nonzero"/><path fill="#f3aa46" d="M 318.78125 328.328125 C 351.574219 284.699219 333.617188 206.785156 265.78125 177.101562 C 196.886719 146.953125 203.78125 108.765625 203.78125 108.765625 L 122.945312 143.285156 C 122.945312 143.285156 122.945312 180.386719 122.945312 229.851562 C 122.945312 260.992188 157.554688 321.355469 180.753906 328.328125 L 318.78125 328.328125 " fill-opacity="1" fill-rule="nonzero"/><path fill="#ef773b" d="M 266.171875 176.933594 C 197.285156 146.785156 204.171875 108.601562 204.171875 108.601562 L 182.449219 117.878906 C 183.402344 124.835938 189.398438 156.433594 220.859375 175.425781 C 256.378906 196.863281 286.996094 215.621094 286.996094 255.8125 C 286.996094 282.34375 297.398438 311.785156 311.867188 328.164062 L 319.175781 328.164062 C 351.96875 284.535156 334.011719 206.613281 266.171875 176.933594 " fill-opacity="1" fill-rule="nonzero"/><path fill="#f3aa46" d="M 340.453125 250.53125 C 340.453125 250.53125 353.976562 223.429688 344.542969 194.34375 C 335.113281 165.253906 365.386719 147.507812 370.875 142.914062 C 370.875 142.914062 357.667969 172.386719 363.867188 187.808594 C 375.046875 215.617188 384.011719 268.121094 330.4375 296.480469 C 330.4375 296.480469 322.984375 264.347656 340.453125 250.53125 " fill-opacity="1" fill-rule="nonzero"/><path fill="#ffffff" d="M 344.542969 194.34375 C 344.644531 194.570312 351.996094 195.636719 355.007812 194.65625 C 362.109375 192.34375 364.207031 189.121094 363.867188 187.808594 C 359.234375 170.054688 372.476562 140.242188 372.476562 140.242188 C 366.992188 144.847656 330.484375 160.304688 344.542969 194.34375 " fill-opacity="1" fill-rule="nonzero"/><path fill="#f3aa46" d="M 121.492188 34.53125 C 121.492188 34.53125 110.792969 36.109375 99.335938 41.015625 C 86.398438 46.5625 72.09375 53.5 63.988281 60.097656 C 56.808594 65.949219 54.328125 70.460938 56.777344 78.402344 C 61.050781 92.261719 71.164062 126.019531 76.570312 144.117188 C 78.726562 151.324219 83.398438 154.183594 87.714844 150.796875 C 96.035156 144.285156 108.316406 132.152344 108.855469 116.984375 C 109.679688 93.9375 121.492188 34.53125 121.492188 34.53125 " fill-opacity="1" fill-rule="nonzero"/><g clip-path="url(#69fed65eec)"><path fill="#f3aa46" d="M 199.492188 92.0625 L 191.769531 47.335938 L 179.394531 35.039062 C 179.394531 35.039062 170.691406 33.636719 168.304688 33.886719 C 162.507812 34.5 152.574219 36.625 146.734375 36.605469 L 146.734375 36.664062 L 146.730469 36.605469 C 140.890625 36.65625 130.949219 34.585938 125.144531 34.003906 C 122.753906 33.769531 108.152344 37.078125 101.75 47.585938 C 95.839844 57.273438 94.277344 92.347656 94.277344 92.347656 C 90.683594 99.035156 85.539062 120.238281 97.929688 128.476562 C 117.921875 141.769531 122.386719 151.949219 139.90625 151.902344 L 147.046875 151.886719 L 147.050781 151.832031 L 147.054688 151.886719 L 154.1875 151.863281 C 171.707031 151.816406 176.113281 141.605469 196.035156 128.203125 C 208.382812 119.898438 203.121094 98.726562 199.492188 92.0625 " fill-opacity="1" fill-rule="nonzero"/></g><path fill="#ffffff" d="M 157.648438 100.890625 L 152.402344 36.164062 C 151.015625 36.308594 148.222656 36.472656 146.804688 36.519531 C 145.449219 36.570312 143.8125 36.628906 141.332031 36.292969 L 136.160156 101.238281 C 122.945312 104.214844 111.015625 112.34375 111.042969 123.175781 C 111.0625 129.652344 119.804688 143.910156 124.726562 148.304688 C 128.960938 150.585938 133.566406 151.886719 139.835938 151.863281 L 146.972656 151.847656 L 146.980469 151.792969 L 146.980469 151.847656 L 154.117188 151.828125 C 160.386719 151.808594 164.976562 150.488281 169.203125 148.183594 C 174.109375 143.761719 182.90625 126.796875 182.882812 120.324219 C 182.855469 109.53125 170.871094 103.117188 157.648438 100.890625 " fill-opacity="1" fill-rule="nonzero"/><path fill="#231f20" d="M 182.886719 86.652344 C 182.90625 90.4375 180.957031 93.511719 178.546875 93.519531 C 176.148438 93.527344 174.183594 90.460938 174.175781 86.671875 C 174.167969 82.890625 176.109375 79.808594 178.519531 79.804688 C 180.925781 79.796875 182.878906 82.863281 182.886719 86.652344 " fill-opacity="1" fill-rule="nonzero"/><path fill="#231f20" d="M 119.558594 86.820312 C 119.570312 90.609375 117.632812 93.683594 115.226562 93.6875 C 112.816406 93.699219 110.859375 90.632812 110.847656 86.847656 C 110.835938 83.0625 112.78125 79.988281 115.1875 79.976562 C 117.589844 79.96875 119.550781 83.039062 119.558594 86.820312 " fill-opacity="1" fill-rule="nonzero"/><path fill="#f3aa46" d="M 178.886719 34.964844 C 178.886719 34.964844 179.488281 35.011719 197.292969 38.453125 C 208.90625 40.691406 222.503906 44.457031 235.703125 50.761719 C 243.699219 54.582031 242.765625 65.980469 240.5 74.085938 C 236.160156 89.601562 227.582031 124.835938 223.792969 140.515625 C 222.640625 145.316406 216.832031 146.804688 210.679688 143.585938 C 201.34375 138.699219 189.574219 129.777344 189.539062 115.878906 C 189.445312 81.609375 189.339844 70.460938 189.289062 51.777344 C 189.261719 43.800781 178.886719 34.964844 178.886719 34.964844 " fill-opacity="1" fill-rule="nonzero"/><path fill="#231f20" d="M 127.625 99.429688 C 128.792969 94.601562 136.683594 93.425781 146.589844 93.394531 C 158.566406 93.363281 164.324219 94.523438 165.324219 99.324219 C 166.5 104.976562 155.222656 114.730469 145.925781 114.757812 C 138.367188 114.78125 126.21875 105.277344 127.625 99.429688 " fill-opacity="1" fill-rule="nonzero"/><path fill="#231f20" d="M 187 120.53125 L 186.71875 120.550781 L 186.71875 120.554688 C 183.878906 123.585938 180.769531 126.40625 177.425781 128.878906 C 175.742188 130.105469 174.007812 131.238281 172.171875 132.164062 C 170.355469 133.089844 168.417969 133.816406 166.484375 134.039062 C 166.003906 134.089844 165.535156 134.113281 165.050781 134.089844 C 164.566406 134.074219 164.070312 134.027344 163.585938 133.957031 C 162.609375 133.8125 161.660156 133.566406 160.730469 133.238281 C 158.875 132.574219 157.144531 131.570312 155.542969 130.382812 C 153.949219 129.191406 152.488281 127.8125 151.148438 126.324219 C 150.480469 125.578125 149.84375 124.804688 149.242188 124.007812 C 148.941406 123.613281 148.648438 123.210938 148.367188 122.804688 C 148.09375 122.410156 147.796875 121.96875 147.582031 121.605469 C 147.441406 121.371094 147.234375 121.152344 146.976562 121.003906 C 146.828125 120.917969 147.5625 113.257812 147.5625 113.257812 L 144.457031 113.265625 C 144.457031 113.265625 144.804688 121.210938 144.574219 121.578125 L 144.558594 121.613281 C 144.332031 121.972656 144.050781 122.414062 143.777344 122.820312 C 143.492188 123.222656 143.203125 123.625 142.902344 124.027344 C 142.300781 124.824219 141.664062 125.597656 141.003906 126.347656 C 139.671875 127.835938 138.21875 129.222656 136.628906 130.421875 C 135.039062 131.613281 133.304688 132.617188 131.460938 133.289062 C 130.535156 133.621094 129.582031 133.875 128.613281 134.019531 C 128.128906 134.089844 127.648438 134.140625 127.152344 134.160156 L 126.976562 134.167969 L 126.441406 134.167969 C 126.203125 134.160156 125.964844 134.140625 125.722656 134.117188 C 123.804688 133.902344 121.867188 133.179688 120.046875 132.269531 C 118.214844 131.347656 116.46875 130.226562 114.789062 129.007812 C 111.441406 126.554688 108.320312 123.753906 105.472656 120.730469 L 105.464844 120.722656 C 105.367188 120.621094 105.207031 120.609375 105.09375 120.699219 C 104.980469 120.792969 104.960938 120.953125 105.058594 121.066406 C 107.753906 124.285156 110.707031 127.285156 113.980469 129.992188 C 115.621094 131.339844 117.355469 132.597656 119.234375 133.6875 C 121.109375 134.765625 123.148438 135.695312 125.4375 136.082031 C 125.714844 136.128906 126.003906 136.175781 126.300781 136.199219 C 126.445312 136.207031 126.585938 136.222656 126.746094 136.226562 L 126.957031 136.238281 L 127.179688 136.242188 C 127.746094 136.253906 128.320312 136.226562 128.890625 136.175781 C 130.023438 136.074219 131.148438 135.84375 132.238281 135.523438 C 134.414062 134.871094 136.429688 133.847656 138.273438 132.625 C 140.121094 131.398438 141.796875 129.972656 143.339844 128.433594 C 144.109375 127.664062 144.847656 126.867188 145.554688 126.035156 C 145.738281 125.824219 145.910156 125.609375 146.085938 125.390625 C 146.261719 125.605469 146.429688 125.820312 146.605469 126.03125 C 147.324219 126.855469 148.066406 127.648438 148.84375 128.410156 C 150.394531 129.9375 152.082031 131.347656 153.9375 132.5625 C 155.789062 133.773438 157.8125 134.785156 159.988281 135.417969 C 161.078125 135.734375 162.203125 135.957031 163.335938 136.050781 C 163.902344 136.101562 164.472656 136.117188 165.039062 136.105469 C 165.621094 136.097656 166.210938 136.03125 166.78125 135.933594 C 169.054688 135.53125 171.082031 134.585938 172.949219 133.5 C 174.8125 132.402344 176.535156 131.128906 178.167969 129.773438 C 181.417969 127.046875 184.351562 124.03125 187.019531 120.796875 L 187 120.53125 " fill-opacity="1" fill-rule="nonzero"/><path fill="#f3aa46" d="M 308.390625 248.339844 C 287.191406 243.789062 236.613281 238.898438 210.863281 281.230469 C 210.621094 281.632812 210.371094 282.023438 210.125 282.398438 L 210.09375 282.296875 C 209.996094 282.503906 209.886719 282.710938 209.785156 282.914062 C 209.589844 283.203125 209.394531 283.496094 209.199219 283.773438 L 209.203125 284.011719 C 195.320312 309.152344 154.878906 306.792969 154.878906 306.792969 C 149.757812 289.171875 121.808594 286.578125 126.957031 304.285156 C 128.851562 310.773438 131.6875 320.53125 131.6875 320.53125 C 136.375 333.589844 144.296875 332.328125 152.363281 331.070312 C 155.746094 330.542969 159.152344 330.015625 162.359375 330.542969 C 176.011719 332.792969 193.523438 333.953125 203.582031 332.734375 C 205.316406 332.519531 212.65625 330.507812 213.804688 329.503906 C 213.804688 329.519531 215.027344 328.992188 216.582031 328.476562 C 218.566406 327.808594 221.082031 327.144531 222.285156 327.582031 C 283.207031 349.933594 334.332031 337.300781 340.570312 296.03125 C 343.558594 276.246094 327.679688 252.480469 308.390625 248.339844 " fill-opacity="1" fill-rule="nonzero"/><path fill="#ffffff" d="M 340.929688 291.082031 C 340.929688 290.75 340.925781 290.425781 340.917969 290.097656 C 340.921875 290.097656 340.917969 290.097656 340.921875 290.097656 C 340.929688 290.425781 340.933594 290.75 340.929688 291.082031 " fill-opacity="1" fill-rule="nonzero"/><path fill="#f7bc61" d="M 178.28125 304.5 C 189.921875 300.832031 202.808594 295.550781 209.203125 283.96875 L 209.203125 284.011719 C 202.542969 296.070312 189.765625 301.800781 178.28125 304.5 M 209.199219 283.773438 L 209.199219 283.730469 C 209.394531 283.453125 209.589844 283.164062 209.785156 282.871094 C 209.886719 282.667969 209.996094 282.464844 210.09375 282.25 L 210.125 282.359375 C 210.371094 281.980469 210.621094 281.589844 210.863281 281.1875 C 228.460938 252.257812 257.65625 245.382812 281.144531 245.382812 C 282.886719 245.382812 284.597656 245.421875 286.273438 245.488281 C 286.277344 245.503906 286.277344 245.519531 286.28125 245.53125 C 284.605469 245.464844 282.894531 245.425781 281.148438 245.425781 C 257.660156 245.425781 228.460938 252.296875 210.863281 281.230469 C 210.621094 281.632812 210.371094 282.023438 210.125 282.398438 L 210.09375 282.296875 C 209.996094 282.503906 209.886719 282.710938 209.785156 282.914062 C 209.589844 283.203125 209.394531 283.496094 209.199219 283.773438 " fill-opacity="1" fill-rule="nonzero"/><path fill="#f39051" d="M 331.300781 264.164062 C 325.378906 256.269531 317.246094 250.242188 308.390625 248.339844 C 302.757812 247.128906 295.042969 245.898438 286.28125 245.53125 C 286.277344 245.519531 286.277344 245.503906 286.273438 245.488281 C 295.039062 245.855469 302.753906 247.089844 308.390625 248.296875 C 317.25 250.203125 325.386719 256.242188 331.3125 264.132812 C 331.304688 264.140625 331.304688 264.15625 331.300781 264.164062 " fill-opacity="1" fill-rule="nonzero"/><path fill="#f7bc61" d="M 340.917969 290.097656 C 340.664062 281.097656 337.011719 271.769531 331.300781 264.164062 C 331.304688 264.15625 331.304688 264.140625 331.3125 264.132812 C 337.027344 271.746094 340.671875 281.085938 340.921875 290.097656 C 340.917969 290.097656 340.921875 290.097656 340.917969 290.097656 " fill-opacity="1" fill-rule="nonzero"/><path fill="#f7bc61" d="M 158.796875 318.394531 C 156.332031 318.394531 154.878906 318.308594 154.878906 318.308594 C 152.722656 310.890625 164.652344 308.800781 178.28125 304.5 C 189.765625 301.800781 202.542969 296.070312 209.203125 284.011719 L 209.203125 283.96875 L 209.199219 283.773438 C 209.394531 283.496094 209.589844 283.203125 209.785156 282.914062 C 209.886719 282.710938 209.996094 282.503906 210.09375 282.296875 L 210.125 282.398438 C 210.371094 282.023438 210.621094 281.632812 210.863281 281.230469 C 228.460938 252.296875 257.660156 245.425781 281.148438 245.425781 C 282.894531 245.425781 284.605469 245.464844 286.28125 245.53125 C 295.042969 245.898438 302.757812 247.128906 308.390625 248.339844 C 317.246094 250.242188 325.378906 256.269531 331.300781 264.164062 C 337.011719 271.769531 340.664062 281.097656 340.917969 290.097656 C 340.925781 290.425781 340.929688 290.75 340.929688 291.082031 C 340.929688 292.734375 340.8125 294.375 340.570312 295.988281 C 340.535156 296.230469 340.488281 296.472656 340.449219 296.714844 C 337.777344 279.910156 320.433594 263.613281 304.570312 260.210938 C 297.871094 258.769531 289.128906 257.300781 279.492188 257.300781 C 258.664062 257.300781 233.667969 264.175781 216.070312 293.121094 C 215.824219 293.519531 215.574219 293.90625 215.332031 294.289062 L 215.296875 294.183594 C 215.203125 294.390625 215.09375 294.597656 214.984375 294.804688 C 214.792969 295.09375 214.601562 295.386719 214.402344 295.664062 L 214.410156 295.898438 C 203.003906 316.554688 170.160156 318.394531 158.796875 318.394531 " fill-opacity="1" fill-rule="nonzero"/><path fill="#ffffff" d="M 180.308594 311.742188 C 179.851562 309.589844 179.257812 306.421875 178.6875 304.296875 C 166.453125 305.636719 154.886719 305.628906 154.886719 305.628906 C 149.65625 287.644531 120.691406 286.164062 125.941406 304.230469 C 127.871094 310.867188 130.769531 320.820312 130.769531 320.820312 C 137.5625 339.730469 151.355469 329.695312 162.425781 331.515625 C 167.453125 332.34375 174.054688 332.851562 180.613281 332.601562 C 181.757812 325.679688 181.8125 318.898438 180.308594 311.742188 " fill-opacity="1" fill-rule="nonzero"/><path fill="#231f20" d="M 125.886719 296.835938 C 127.3125 296.15625 128.882812 295.996094 130.429688 296.105469 C 131.980469 296.234375 133.539062 296.691406 134.9375 297.507812 C 136.335938 298.3125 137.550781 299.503906 138.34375 300.914062 C 139.136719 302.320312 139.511719 303.917969 139.308594 305.472656 C 138.304688 304.269531 137.421875 303.230469 136.453125 302.351562 C 135.507812 301.472656 134.503906 300.75 133.414062 300.109375 C 132.328125 299.472656 131.15625 298.925781 129.902344 298.410156 C 128.644531 297.882812 127.335938 297.40625 125.886719 296.835938 " fill-opacity="1" fill-rule="nonzero"/><path fill="#231f20" d="M 133.441406 292.65625 C 134.65625 292.015625 136.058594 291.804688 137.453125 291.972656 C 138.84375 292.144531 140.25 292.757812 141.355469 293.71875 C 142.46875 294.679688 143.242188 295.941406 143.664062 297.246094 C 144.078125 298.558594 144.183594 299.898438 143.929688 301.25 C 142.976562 300.234375 142.277344 299.222656 141.550781 298.332031 C 140.839844 297.4375 140.140625 296.660156 139.371094 295.992188 C 138.605469 295.324219 137.769531 294.757812 136.789062 294.238281 C 135.789062 293.710938 134.699219 293.269531 133.441406 292.65625 " fill-opacity="1" fill-rule="nonzero"/><path fill="#231f20" d="M 126.871094 306.070312 C 128.085938 305.433594 129.488281 305.226562 130.878906 305.390625 C 132.277344 305.558594 133.679688 306.171875 134.78125 307.140625 C 135.898438 308.097656 136.671875 309.359375 137.089844 310.65625 C 137.503906 311.972656 137.613281 313.3125 137.355469 314.671875 C 136.40625 313.65625 135.710938 312.640625 134.980469 311.75 C 134.269531 310.851562 133.566406 310.078125 132.796875 309.414062 C 132.039062 308.746094 131.203125 308.175781 130.214844 307.65625 C 129.222656 307.125 128.128906 306.683594 126.871094 306.070312 " fill-opacity="1" fill-rule="nonzero"/><path fill="#f3aa46" d="M 140.996094 213.855469 C 140.996094 226.890625 148.957031 237.21875 160.355469 259.324219 C 171.757812 281.4375 169.742188 292.070312 161.699219 310.828125 C 161.699219 310.828125 152.378906 308.910156 147.28125 317.859375 C 145.429688 321.113281 140.746094 332.597656 149.292969 332.597656 C 157.699219 332.597656 174.441406 331.511719 179.382812 331.511719 C 186.761719 331.511719 189.4375 324.8125 189.4375 314.09375 C 189.4375 304.71875 207.628906 283.441406 203.351562 275.910156 C 196.996094 264.691406 195.8125 263.429688 197.570312 256.8125 C 201.304688 242.785156 208.273438 227.910156 208.886719 208.082031 C 209.390625 191.75 194.808594 164.207031 171.652344 164.207031 C 155.074219 164.207031 140.996094 176.597656 140.996094 213.855469 " fill-opacity="1" fill-rule="nonzero"/><path fill="#ffffff" d="M 191.640625 300.5 C 187.648438 294.875 183.644531 288.117188 176.734375 285.71875 C 174.019531 284.777344 171.21875 284.410156 168.34375 284.238281 C 167.839844 292.585938 165.589844 299.699219 161.195312 309.941406 C 161.195312 309.941406 151.859375 308.914062 146.601562 318.148438 C 144.695312 321.503906 139.859375 333.355469 148.679688 333.355469 C 157.351562 333.355469 173.78125 333.394531 178.882812 333.394531 C 186.488281 333.394531 190.097656 325.320312 190.097656 314.257812 C 190.097656 311.449219 191.527344 306.6875 193.675781 302.449219 C 192.917969 301.523438 192.339844 301.476562 191.640625 300.5 " fill-opacity="1" fill-rule="nonzero"/><path fill="#231f20" d="M 147.367188 332.71875 C 147.109375 331.164062 147.394531 329.609375 147.933594 328.15625 C 148.488281 326.707031 149.363281 325.339844 150.539062 324.226562 C 151.707031 323.105469 153.1875 322.269531 154.761719 321.902344 C 156.332031 321.539062 157.972656 321.625 159.410156 322.253906 C 157.976562 322.882812 156.730469 323.4375 155.617188 324.117188 C 154.507812 324.785156 153.535156 325.542969 152.613281 326.410156 C 151.695312 327.28125 150.847656 328.246094 150 329.304688 C 149.148438 330.363281 148.320312 331.492188 147.367188 332.71875 " fill-opacity="1" fill-rule="nonzero"/><path fill="#231f20" d="M 145.460938 324.304688 C 145.183594 322.960938 145.375 321.558594 145.917969 320.269531 C 146.46875 318.980469 147.453125 317.804688 148.6875 317.015625 C 149.921875 316.210938 151.355469 315.820312 152.71875 315.78125 C 154.09375 315.742188 155.414062 316.015625 156.648438 316.644531 C 155.40625 317.269531 154.234375 317.660156 153.179688 318.109375 C 152.113281 318.546875 151.175781 318.996094 150.320312 319.542969 C 149.46875 320.09375 148.683594 320.738281 147.910156 321.539062 C 147.125 322.347656 146.394531 323.265625 145.460938 324.304688 " fill-opacity="1" fill-rule="nonzero"/><path fill="#231f20" d="M 157.027344 333.222656 C 156.746094 331.878906 156.9375 330.476562 157.484375 329.1875 C 158.042969 327.898438 159.015625 326.71875 160.257812 325.929688 C 161.484375 325.128906 162.917969 324.738281 164.28125 324.703125 C 165.660156 324.664062 166.980469 324.9375 168.210938 325.5625 C 166.972656 326.1875 165.800781 326.578125 164.746094 327.023438 C 163.683594 327.460938 162.738281 327.917969 161.886719 328.464844 C 161.03125 329.015625 160.257812 329.65625 159.480469 330.460938 C 158.695312 331.261719 157.960938 332.183594 157.027344 333.222656 " fill-opacity="1" fill-rule="nonzero"/><path fill="#bdbcbc" d="M 143.394531 336.597656 C 139.042969 336.597656 132.496094 336.597656 132.496094 336.597656 C 119.855469 335.8125 123.855469 325.84375 120.8125 319.46875 C 101.210938 278.523438 118.71875 244.855469 131.773438 247.273438 C 139.359375 248.679688 144.179688 257.167969 142.765625 265.433594 C 140.765625 277.09375 137.460938 319.628906 137.460938 319.628906 C 149.269531 319.628906 155.257812 336.597656 143.394531 336.597656 " fill-opacity="1" fill-rule="nonzero"/><path fill="#231f20" d="M 149.296875 333.292969 C 149.457031 332.503906 149.285156 331.734375 148.988281 331.03125 C 148.671875 330.335938 148.1875 329.695312 147.570312 329.203125 C 146.351562 328.207031 144.566406 327.820312 143.152344 328.5625 C 143.824219 329.003906 144.386719 329.332031 144.910156 329.679688 C 145.425781 330.015625 145.890625 330.359375 146.347656 330.726562 C 146.796875 331.09375 147.25 331.480469 147.722656 331.910156 C 148.203125 332.335938 148.691406 332.789062 149.296875 333.292969 " fill-opacity="1" fill-rule="nonzero"/><path fill="#231f20" d="M 145.042969 336.265625 C 145.347656 335.523438 145.316406 334.734375 145.136719 333.988281 C 144.941406 333.25 144.539062 332.539062 143.976562 331.96875 C 142.851562 330.816406 141.082031 330.320312 139.644531 330.96875 C 140.269531 331.453125 140.820312 331.816406 141.292969 332.195312 C 141.773438 332.570312 142.1875 332.941406 142.585938 333.339844 C 142.976562 333.738281 143.355469 334.175781 143.75 334.65625 L 145.042969 336.265625 " fill-opacity="1" fill-rule="nonzero"/><path fill="#ffffff" d="M 129.03125 214.054688 C 129.925781 217.984375 130.25 222.09375 130.273438 226.074219 C 130.332031 234.824219 132.316406 281.601562 69.613281 306.183594 C 56.050781 311.5 43.210938 318.992188 29.1875 322.558594 C 28.570312 322.714844 27.933594 322.882812 27.285156 323.054688 C 28.152344 324.550781 29.085938 326.003906 30.128906 327.390625 L 110.054688 327.390625 C 123.480469 323.347656 143.527344 288.394531 143.527344 270.367188 C 143.527344 241.722656 143.527344 220.242188 143.527344 220.242188 L 129.03125 214.054688 " fill-opacity="1" fill-rule="nonzero"/><path fill="#bdbcbc" d="M 96.71875 200.257812 C 96.71875 200.257812 100.707031 222.367188 60.820312 239.824219 C 39.636719 249.089844 26.867188 266.492188 22.5625 284.511719 C 19.273438 282.046875 15.386719 277.957031 17.175781 273.195312 C 17.742188 271.675781 18.527344 269.8125 19.425781 267.65625 C 22.859375 259.453125 27.554688 248.210938 28.808594 236.945312 C 30.878906 218.363281 22.167969 209.082031 14.5 204.5625 C 11.539062 202.8125 7.710938 203.808594 5.957031 206.769531 C 4.210938 209.734375 5.203125 213.554688 8.164062 215.300781 C 22.699219 223.855469 15.660156 244.332031 7.917969 262.851562 C 6.964844 265.117188 6.144531 267.078125 5.492188 268.820312 C 0.00390625 283.453125 13.078125 294.335938 20.9375 298.140625 C 20.917969 308.890625 23.96875 319.1875 30.128906 327.390625 L 110.054688 327.390625 C 123.480469 323.347656 143.527344 288.394531 143.527344 270.367188 C 143.527344 241.722656 143.527344 220.242188 143.527344 220.242188 L 96.71875 200.257812 " fill-opacity="1" fill-rule="nonzero"/><path fill="#bdbcbc" d="M 128.222656 336.597656 C 123.867188 336.597656 117.332031 336.597656 117.332031 336.597656 C 104.683594 335.8125 108.691406 325.84375 105.640625 319.46875 C 86.050781 278.523438 103.546875 244.855469 116.597656 247.273438 C 124.191406 248.679688 129.007812 257.167969 127.597656 265.433594 C 125.601562 277.09375 122.292969 319.628906 122.292969 319.628906 C 134.101562 319.628906 140.089844 336.597656 128.222656 336.597656 " fill-opacity="1" fill-rule="nonzero"/><path fill="#231f20" d="M 134.125 333.292969 C 134.285156 332.503906 134.117188 331.734375 133.8125 331.03125 C 133.5 330.335938 133.019531 329.695312 132.402344 329.203125 C 131.175781 328.207031 129.398438 327.820312 127.984375 328.5625 C 128.65625 329.003906 129.222656 329.332031 129.738281 329.679688 C 130.253906 330.015625 130.71875 330.359375 131.171875 330.726562 C 131.632812 331.09375 132.085938 331.480469 132.558594 331.910156 C 133.03125 332.335938 133.527344 332.789062 134.125 333.292969 " fill-opacity="1" fill-rule="nonzero"/><path fill="#231f20" d="M 129.878906 336.265625 C 130.179688 335.523438 130.152344 334.734375 129.960938 333.988281 C 129.769531 333.25 129.371094 332.539062 128.8125 331.96875 C 127.6875 330.816406 125.914062 330.320312 124.476562 330.96875 C 125.105469 331.453125 125.648438 331.816406 126.121094 332.195312 C 126.605469 332.570312 127.011719 332.941406 127.417969 333.339844 C 127.808594 333.738281 128.183594 334.175781 128.582031 334.65625 L 129.878906 336.265625 " fill-opacity="1" fill-rule="nonzero"/><path fill="#bdbcbc" d="M 93.664062 171.507812 C 93.664062 171.507812 88.183594 147.25 99.347656 139.667969 C 99.347656 139.667969 117.058594 142.921875 121.953125 156.488281 C 121.953125 156.488281 111.675781 169.996094 93.664062 171.507812 " fill-opacity="1" fill-rule="nonzero"/><path fill="#ffffff" d="M 100.085938 168.855469 C 100.085938 168.855469 96.605469 153.449219 103.691406 148.628906 C 103.691406 148.628906 114.945312 150.699219 118.042969 159.3125 C 118.042969 159.3125 111.523438 167.894531 100.085938 168.855469 " fill-opacity="1" fill-rule="nonzero"/><path fill="#bdbcbc" d="M 165.714844 187.117188 C 165.714844 187.117188 180.761719 167.308594 173.746094 155.789062 C 173.746094 155.789062 156.277344 151.425781 146.203125 161.742188 C 146.203125 161.742188 149.960938 178.289062 165.714844 187.117188 " fill-opacity="1" fill-rule="nonzero"/><path fill="#ffffff" d="M 160.976562 182.046875 C 160.976562 182.046875 170.535156 169.46875 166.082031 162.148438 C 166.082031 162.148438 154.984375 159.378906 148.582031 165.929688 C 148.582031 165.929688 150.96875 176.4375 160.976562 182.046875 " fill-opacity="1" fill-rule="nonzero"/><path fill="#bdbcbc" d="M 84.808594 184.742188 C 76.527344 204.054688 97.390625 216.863281 120.421875 221.855469 C 143.457031 226.839844 168.84375 223.785156 168.230469 202.808594 C 167.519531 178.914062 152.261719 160.34375 134.605469 156.523438 C 116.949219 152.695312 94.578125 161.980469 84.808594 184.742188 " fill-opacity="1" fill-rule="nonzero"/><path fill="#ffffff" d="M 127.945312 187.703125 C 147.429688 191.921875 161.082031 205.171875 158.453125 217.296875 C 158.207031 218.410156 157.832031 219.472656 157.347656 220.484375 C 147.941406 224.933594 133.789062 224.746094 120.421875 221.855469 C 106.921875 218.925781 94.175781 213.3125 87.601562 205.28125 C 87.585938 204.191406 87.683594 203.09375 87.921875 202.019531 C 90.550781 189.890625 108.472656 183.480469 127.945312 187.703125 " fill-opacity="1" fill-rule="nonzero"/><path fill="#231f20" d="M 105.015625 177.46875 C 104.300781 180.207031 105.128906 182.796875 106.871094 183.257812 C 108.613281 183.707031 110.605469 181.851562 111.316406 179.109375 C 112.042969 176.378906 111.210938 173.78125 109.464844 173.332031 C 107.726562 172.875 105.734375 174.726562 105.015625 177.46875 " fill-opacity="1" fill-rule="nonzero"/><path fill="#231f20" d="M 150.847656 189.425781 C 150.125 192.160156 150.957031 194.75 152.699219 195.207031 C 154.4375 195.664062 156.429688 193.808594 157.148438 191.066406 C 157.867188 188.332031 157.03125 185.734375 155.292969 185.285156 C 153.550781 184.832031 151.558594 186.6875 150.847656 189.425781 " fill-opacity="1" fill-rule="nonzero"/><path fill="#f8a3d6" d="M 126.234375 214.726562 L 125.851562 216.378906 C 125.417969 218.242188 123.566406 219.402344 121.695312 218.964844 C 119.839844 218.53125 118.683594 216.679688 119.113281 214.820312 L 119.476562 213.261719 C 119.476562 213.261719 121.160156 213.085938 122.304688 211.847656 C 123.515625 210.535156 123.949219 210.214844 124.421875 212.019531 C 124.945312 214.066406 126.234375 214.726562 126.234375 214.726562 " fill-opacity="1" fill-rule="nonzero"/><path fill="#231f20" d="M 132.042969 208.332031 L 131.742188 208.296875 C 131.113281 208.296875 130.570312 208.726562 130.425781 209.34375 L 129.875 211.710938 C 129.757812 212.203125 129.488281 212.625 129.117188 212.878906 C 128.609375 213.230469 127.910156 213.300781 127.007812 213.085938 C 126.203125 212.90625 125.742188 212.453125 125.5 211.628906 C 125.265625 210.816406 125.359375 209.964844 125.414062 209.601562 C 125.460938 209.457031 125.492188 209.320312 125.515625 209.242188 L 127.675781 199.921875 L 127.792969 199.210938 L 125.179688 198.617188 L 122.855469 208.632812 L 122.800781 208.90625 C 122.652344 209.429688 122.355469 210.175781 121.8125 210.773438 C 121.234375 211.414062 120.621094 211.605469 119.816406 211.421875 C 118.960938 211.226562 118.371094 210.867188 118.054688 210.363281 C 117.71875 209.820312 117.785156 209.226562 117.859375 208.921875 L 118.402344 206.5625 C 118.484375 206.214844 118.425781 205.851562 118.234375 205.542969 C 118.042969 205.230469 117.746094 205.023438 117.382812 204.933594 C 116.671875 204.773438 115.933594 205.234375 115.769531 205.949219 L 115.222656 208.308594 C 114.710938 210.519531 115.742188 213.253906 119.207031 214.054688 C 120.660156 214.390625 122.066406 214.085938 123.203125 213.171875 C 123.820312 214.484375 124.929688 215.382812 126.402344 215.722656 C 126.925781 215.84375 127.441406 215.902344 127.925781 215.902344 C 129.226562 215.902344 130.128906 215.46875 130.660156 215.101562 C 131.902344 214.234375 132.351562 212.988281 132.511719 212.320312 L 133.054688 209.953125 C 133.222656 209.234375 132.769531 208.503906 132.042969 208.332031 " fill-opacity="1" fill-rule="nonzero"/><path fill="#231f20" d="M 116.386719 195.460938 C 115.542969 199.078125 119.453125 203.078125 125.105469 204.386719 C 130.769531 205.703125 136.042969 203.828125 136.875 200.207031 C 137.71875 196.585938 133.8125 192.582031 128.15625 191.277344 C 122.496094 189.960938 117.222656 191.835938 116.386719 195.460938 " fill-opacity="1" fill-rule="nonzero"/><path fill="#231f20" d="M 114.542969 191.558594 C 114.757812 191.558594 114.972656 191.46875 115.117188 191.28125 C 115.375 190.960938 115.316406 190.496094 115 190.242188 C 114.792969 190.082031 94.671875 174.386719 74.582031 174.617188 C 74.179688 174.621094 73.84375 174.953125 73.851562 175.363281 C 73.855469 175.769531 74.191406 176.089844 74.589844 176.089844 L 74.597656 176.089844 C 74.757812 176.089844 74.914062 176.089844 75.0625 176.089844 C 94.453125 176.089844 113.890625 191.246094 114.085938 191.402344 C 114.21875 191.507812 114.378906 191.558594 114.542969 191.558594 " fill-opacity="1" fill-rule="nonzero"/><path fill="#231f20" d="M 112.890625 193.492188 C 113.144531 193.492188 113.394531 193.359375 113.527344 193.121094 C 113.734375 192.765625 113.609375 192.3125 113.257812 192.113281 C 113.019531 191.980469 89.34375 178.558594 68.792969 179.605469 C 68.386719 179.617188 68.078125 179.96875 68.09375 180.378906 C 68.117188 180.78125 68.472656 181.097656 68.867188 181.070312 C 88.980469 180.046875 112.289062 193.265625 112.523438 193.394531 C 112.640625 193.457031 112.769531 193.492188 112.890625 193.492188 " fill-opacity="1" fill-rule="nonzero"/><path fill="#231f20" d="M 112.199219 195.988281 C 112.46875 195.988281 112.730469 195.839844 112.859375 195.582031 C 113.042969 195.21875 112.894531 194.777344 112.539062 194.589844 C 112.347656 194.492188 93.226562 184.949219 70.878906 186.285156 C 70.46875 186.3125 70.15625 186.660156 70.179688 187.066406 C 70.203125 187.476562 70.5625 187.792969 70.960938 187.761719 C 92.894531 186.457031 111.679688 195.808594 111.863281 195.910156 C 111.96875 195.960938 112.085938 195.988281 112.199219 195.988281 " fill-opacity="1" fill-rule="nonzero"/><path fill="#231f20" d="M 111.816406 198.453125 C 112.132812 198.453125 112.429688 198.25 112.523438 197.933594 C 112.640625 197.542969 112.429688 197.128906 112.042969 197.011719 C 111.855469 196.957031 93.554688 191.355469 77.664062 192.972656 C 77.261719 193.011719 76.964844 193.371094 77.003906 193.78125 C 77.050781 194.1875 77.402344 194.488281 77.816406 194.441406 C 93.414062 192.855469 111.417969 198.363281 111.601562 198.417969 L 111.816406 198.453125 " fill-opacity="1" fill-rule="nonzero"/><path fill="#231f20" d="M 181.484375 208.410156 C 181.71875 208.410156 181.949219 208.300781 182.097656 208.09375 C 182.328125 207.757812 182.246094 207.300781 181.910156 207.070312 C 165.367188 195.707031 139.875 197.578125 139.621094 197.597656 C 139.214844 197.628906 138.910156 197.988281 138.941406 198.390625 C 138.972656 198.796875 139.3125 199.097656 139.738281 199.070312 C 139.980469 199.050781 164.96875 197.21875 181.070312 208.285156 C 181.199219 208.371094 181.339844 208.410156 181.484375 208.410156 " fill-opacity="1" fill-rule="nonzero"/><path fill="#231f20" d="M 183.328125 215.722656 C 183.554688 215.722656 183.777344 215.625 183.921875 215.429688 C 184.167969 215.105469 184.097656 214.640625 183.773438 214.398438 C 167.277344 202.109375 140.125 200.105469 139.851562 200.089844 C 139.449219 200.0625 139.09375 200.363281 139.0625 200.769531 C 139.039062 201.175781 139.347656 201.535156 139.753906 201.554688 C 140.019531 201.578125 166.75 203.550781 182.886719 215.582031 C 183.023438 215.679688 183.179688 215.722656 183.328125 215.722656 " fill-opacity="1" fill-rule="nonzero"/><path fill="#231f20" d="M 177.925781 220.242188 C 178.152344 220.242188 178.375 220.136719 178.519531 219.945312 C 178.765625 219.621094 178.699219 219.160156 178.375 218.914062 C 160.550781 205.398438 139.347656 202.691406 139.128906 202.664062 C 138.726562 202.617188 138.355469 202.90625 138.308594 203.304688 C 138.261719 203.710938 138.546875 204.082031 138.957031 204.128906 C 139.160156 204.152344 159.992188 206.824219 177.484375 220.085938 C 177.613281 220.195312 177.765625 220.242188 177.925781 220.242188 " fill-opacity="1" fill-rule="nonzero"/><path fill="#231f20" d="M 168.289062 221.898438 C 168.507812 221.898438 168.722656 221.808594 168.863281 221.628906 C 169.121094 221.316406 169.078125 220.855469 168.765625 220.59375 C 156.460938 210.417969 138.132812 204.898438 137.953125 204.847656 C 137.558594 204.726562 137.148438 204.953125 137.03125 205.347656 C 136.914062 205.734375 137.140625 206.144531 137.527344 206.261719 C 137.710938 206.316406 155.753906 211.746094 167.820312 221.730469 C 167.957031 221.84375 168.125 221.898438 168.289062 221.898438 " fill-opacity="1" fill-rule="nonzero"/><path fill="#bdbcbc" d="M 35.929688 290.3125 C 46.175781 287.878906 70.632812 285.265625 83.089844 307.894531 C 83.203125 308.105469 83.320312 308.320312 83.441406 308.519531 L 83.457031 308.460938 C 83.507812 308.574219 83.554688 308.6875 83.605469 308.796875 C 83.703125 308.953125 83.792969 309.109375 83.890625 309.257812 L 83.890625 309.382812 C 90.597656 322.820312 110.160156 321.558594 110.160156 321.558594 C 112.632812 312.136719 126.144531 310.753906 123.660156 320.214844 C 122.742188 323.6875 121.367188 328.902344 121.367188 328.902344 C 119.105469 335.882812 115.269531 335.210938 111.371094 334.535156 C 109.738281 334.253906 108.089844 333.96875 106.539062 334.253906 C 99.933594 335.453125 91.472656 336.074219 86.605469 335.421875 C 85.769531 335.3125 82.21875 334.234375 81.660156 333.695312 C 81.660156 333.707031 81.070312 333.429688 80.320312 333.148438 C 79.359375 332.792969 78.144531 332.4375 77.566406 332.671875 C 48.109375 344.617188 23.378906 337.867188 20.375 315.808594 C 18.925781 305.230469 26.601562 292.53125 35.929688 290.3125 " fill-opacity="1" fill-rule="nonzero"/><path fill="#ffffff" d="M 20.199219 313.15625 C 20.199219 310.679688 20.640625 308.140625 21.441406 305.695312 C 21.441406 305.699219 21.445312 305.707031 21.445312 305.710938 C 20.644531 308.148438 20.199219 310.683594 20.199219 313.15625 " fill-opacity="1" fill-rule="nonzero"/><path fill="#cdcccc" d="M 106.21875 321.5 C 105.296875 321.441406 104.253906 321.339844 103.121094 321.179688 C 104.183594 321.328125 105.21875 321.425781 106.21875 321.5 M 95.042969 319.097656 C 90.65625 317.34375 86.386719 314.375 83.890625 309.382812 L 83.890625 309.257812 C 83.792969 309.109375 83.703125 308.953125 83.605469 308.796875 C 83.554688 308.6875 83.507812 308.574219 83.457031 308.460938 L 83.441406 308.519531 C 83.320312 308.320312 83.203125 308.105469 83.089844 307.894531 C 74.578125 292.429688 60.460938 288.753906 49.101562 288.753906 C 43.84375 288.753906 39.175781 289.546875 35.929688 290.3125 C 29.5 291.839844 23.855469 298.347656 21.445312 305.710938 C 21.445312 305.707031 21.441406 305.699219 21.441406 305.695312 C 23.855469 298.332031 29.5 291.820312 35.929688 290.292969 C 39.175781 289.523438 43.84375 288.734375 49.101562 288.734375 C 60.460938 288.734375 74.578125 292.40625 83.089844 307.871094 C 83.203125 308.085938 83.320312 308.292969 83.441406 308.496094 L 83.457031 308.445312 C 83.507812 308.554688 83.554688 308.660156 83.605469 308.773438 C 83.703125 308.925781 83.792969 309.082031 83.890625 309.234375 L 83.890625 309.359375 C 85.992188 313.554688 89.351562 316.371094 93.167969 318.253906 C 93.792969 318.5625 94.414062 318.839844 95.042969 319.097656 " fill-opacity="1" fill-rule="nonzero"/><path fill="#cdcccc" d="M 97.613281 324.992188 C 91.953125 324.992188 85.605469 322.96875 81.375 315.734375 L 81.375 315.609375 C 81.277344 315.457031 81.1875 315.304688 81.085938 315.152344 C 81.042969 315.039062 80.992188 314.929688 80.941406 314.820312 L 80.925781 314.875 C 80.808594 314.667969 80.6875 314.464844 80.570312 314.25 C 72.0625 298.78125 59.972656 295.101562 49.902344 295.101562 C 45.242188 295.101562 41.011719 295.890625 37.769531 296.660156 C 30.109375 298.480469 21.71875 307.1875 20.425781 316.171875 C 20.40625 316.042969 20.386719 315.914062 20.375 315.785156 C 20.253906 314.921875 20.199219 314.042969 20.199219 313.15625 C 20.199219 310.683594 20.644531 308.148438 21.445312 305.710938 C 23.855469 298.347656 29.5 291.839844 35.929688 290.3125 C 39.175781 289.546875 43.84375 288.753906 49.101562 288.753906 C 60.460938 288.753906 74.578125 292.429688 83.089844 307.894531 C 83.203125 308.105469 83.320312 308.320312 83.441406 308.519531 L 83.457031 308.460938 C 83.507812 308.574219 83.554688 308.6875 83.605469 308.796875 C 83.703125 308.953125 83.792969 309.109375 83.890625 309.257812 L 83.890625 309.382812 C 86.386719 314.375 90.65625 317.34375 95.042969 319.097656 C 97.796875 320.214844 100.535156 320.828125 103.121094 321.179688 C 104.253906 321.339844 105.296875 321.441406 106.21875 321.5 C 107.585938 321.601562 108.890625 321.652344 110.105469 321.695312 C 110.882812 321.726562 104.804688 324.992188 97.613281 324.992188 " fill-opacity="1" fill-rule="nonzero"/><path fill="#231f20" d="M 124.171875 316.238281 C 123.480469 315.875 122.726562 315.785156 121.980469 315.847656 C 121.222656 315.917969 120.472656 316.160156 119.804688 316.59375 C 119.121094 317.027344 118.53125 317.660156 118.148438 318.414062 C 117.765625 319.167969 117.585938 320.023438 117.683594 320.855469 C 118.171875 320.207031 118.59375 319.652344 119.066406 319.183594 C 119.527344 318.714844 120.007812 318.324219 120.535156 317.984375 C 121.0625 317.648438 121.628906 317.351562 122.230469 317.078125 C 122.835938 316.796875 123.472656 316.542969 124.171875 316.238281 " fill-opacity="1" fill-rule="nonzero"/><path fill="#231f20" d="M 120.519531 314.003906 C 119.933594 313.660156 119.257812 313.546875 118.578125 313.632812 C 117.910156 313.730469 117.226562 314.054688 116.691406 314.570312 C 116.15625 315.078125 115.78125 315.761719 115.578125 316.453125 C 115.378906 317.152344 115.320312 317.875 115.453125 318.597656 C 115.914062 318.054688 116.246094 317.511719 116.59375 317.035156 C 116.941406 316.558594 117.28125 316.140625 117.652344 315.785156 C 118.023438 315.429688 118.429688 315.125 118.90625 314.847656 C 119.386719 314.566406 119.914062 314.328125 120.519531 314.003906 " fill-opacity="1" fill-rule="nonzero"/><path fill="#231f20" d="M 123.699219 321.175781 C 123.113281 320.832031 122.433594 320.722656 121.761719 320.8125 C 121.085938 320.902344 120.40625 321.226562 119.875 321.742188 C 119.332031 322.253906 118.960938 322.933594 118.757812 323.625 C 118.554688 324.328125 118.5 325.039062 118.625 325.769531 C 119.085938 325.226562 119.425781 324.683594 119.777344 324.207031 C 120.121094 323.730469 120.464844 323.3125 120.832031 322.957031 C 121.199219 322.601562 121.601562 322.300781 122.082031 322.019531 C 122.5625 321.738281 123.085938 321.5 123.699219 321.175781 " fill-opacity="1" fill-rule="nonzero"/></svg>