<svg xmlns="http://www.w3.org/2000/svg" xmlns:xlink="http://www.w3.org/1999/xlink" width="512" zoomAndPan="magnify" viewBox="0 0 384 383.999986" height="512" preserveAspectRatio="xMidYMid meet" version="1.0"><defs><clipPath id="9c970b7b5c"><path d="M 185.300781 362 L 192.820312 362 L 192.820312 380.734375 L 185.300781 380.734375 Z M 185.300781 362 " clip-rule="nonzero"/></clipPath><clipPath id="89c33f03a4"><path d="M 135.578125 168.984375 C 134.421875 183.152344 147.957031 196.875 148.59375 198.527344 C 152.457031 208.617188 152.28125 223.835938 155.566406 234.5 C 157.316406 240.175781 159.53125 248.046875 163.792969 252.453125 C 167.828125 256.625 168.726562 248.863281 170.875 250.757812 C 175.609375 254.945312 173.371094 264.863281 180.019531 268.039062 C 186.453125 271.117188 188.589844 262.09375 192.792969 268.03125 C 203.386719 282.988281 210.820312 328.933594 208.109375 332.222656 C 201.25 340.546875 156.628906 330.636719 165.125 355.191406 C 166.390625 358.851562 172.835938 375.105469 175.953125 378.496094 C 180.859375 383.828125 214.226562 378.753906 217.535156 372.460938 C 219.890625 367.980469 214.25 355.683594 214.582031 355.4375 C 215.515625 354.761719 222.28125 356.664062 229.089844 355.996094 C 236.605469 355.253906 241.441406 354.246094 244.28125 352.726562 C 244.375 352.679688 247.191406 368.148438 250.328125 371.414062 C 254.371094 375.628906 288.328125 375.558594 293.484375 369.035156 C 301.828125 358.484375 285.3125 332.011719 284.148438 329.03125 C 283.5625 327.53125 284.730469 314.761719 285.328125 307.734375 C 287.050781 287.53125 286.824219 268.023438 286.054688 247.894531 C 286.011719 246.824219 288.695312 247.722656 289.328125 246.070312 C 290.863281 242.066406 289.570312 235.8125 288.808594 231.777344 C 285.527344 214.425781 275.632812 196.0625 271.675781 181.050781 C 270.605469 176.988281 272.285156 170.390625 273.765625 162.578125 C 275.148438 155.25 273.828125 127.40625 266.535156 121.304688 C 266.316406 121.125 262.742188 130.34375 254.984375 134.488281 C 246.292969 139.136719 235.414062 135.234375 228.191406 129.714844 C 213.144531 118.207031 206.140625 99.691406 194.394531 85.382812 C 189.640625 79.589844 182.222656 72.890625 174.578125 78.167969 C 168.339844 82.472656 166.644531 90.0625 168.546875 97.0625 C 173.796875 116.339844 185.394531 136.023438 180.515625 156.742188 C 177.816406 168.191406 161.96875 180.929688 149.699219 177.277344 C 145.691406 176.082031 138.3125 172.125 135.578125 168.984375 Z M 135.578125 168.984375 " clip-rule="nonzero"/></clipPath><clipPath id="6db299ab25"><path d="M 262 356 L 268 356 L 268 376 L 262 376 Z M 262 356 " clip-rule="nonzero"/></clipPath><clipPath id="a1f35af432"><path d="M 135.578125 168.984375 C 134.421875 183.152344 147.957031 196.875 148.59375 198.527344 C 152.457031 208.617188 152.28125 223.835938 155.566406 234.5 C 157.316406 240.175781 159.53125 248.046875 163.792969 252.453125 C 167.828125 256.625 168.726562 248.863281 170.875 250.757812 C 175.609375 254.945312 173.371094 264.863281 180.019531 268.039062 C 186.453125 271.117188 188.589844 262.09375 192.792969 268.03125 C 203.386719 282.988281 210.820312 328.933594 208.109375 332.222656 C 201.25 340.546875 156.628906 330.636719 165.125 355.191406 C 166.390625 358.851562 172.835938 375.105469 175.953125 378.496094 C 180.859375 383.828125 214.226562 378.753906 217.535156 372.460938 C 219.890625 367.980469 214.25 355.683594 214.582031 355.4375 C 215.515625 354.761719 222.28125 356.664062 229.089844 355.996094 C 236.605469 355.253906 241.441406 354.246094 244.28125 352.726562 C 244.375 352.679688 247.191406 368.148438 250.328125 371.414062 C 254.371094 375.628906 288.328125 375.558594 293.484375 369.035156 C 301.828125 358.484375 285.3125 332.011719 284.148438 329.03125 C 283.5625 327.53125 284.730469 314.761719 285.328125 307.734375 C 287.050781 287.53125 286.824219 268.023438 286.054688 247.894531 C 286.011719 246.824219 288.695312 247.722656 289.328125 246.070312 C 290.863281 242.066406 289.570312 235.8125 288.808594 231.777344 C 285.527344 214.425781 275.632812 196.0625 271.675781 181.050781 C 270.605469 176.988281 272.285156 170.390625 273.765625 162.578125 C 275.148438 155.25 273.828125 127.40625 266.535156 121.304688 C 266.316406 121.125 262.742188 130.34375 254.984375 134.488281 C 246.292969 139.136719 235.414062 135.234375 228.191406 129.714844 C 213.144531 118.207031 206.140625 99.691406 194.394531 85.382812 C 189.640625 79.589844 182.222656 72.890625 174.578125 78.167969 C 168.339844 82.472656 166.644531 90.0625 168.546875 97.0625 C 173.796875 116.339844 185.394531 136.023438 180.515625 156.742188 C 177.816406 168.191406 161.96875 180.929688 149.699219 177.277344 C 145.691406 176.082031 138.3125 172.125 135.578125 168.984375 Z M 135.578125 168.984375 " clip-rule="nonzero"/></clipPath><clipPath id="a344b8ed03"><path d="M 200.335938 359 L 207.855469 359 L 207.855469 379.980469 L 200.335938 379.980469 Z M 200.335938 359 " clip-rule="nonzero"/></clipPath><clipPath id="bb9dec5280"><path d="M 135.578125 168.984375 C 134.421875 183.152344 147.957031 196.875 148.59375 198.527344 C 152.457031 208.617188 152.28125 223.835938 155.566406 234.5 C 157.316406 240.175781 159.53125 248.046875 163.792969 252.453125 C 167.828125 256.625 168.726562 248.863281 170.875 250.757812 C 175.609375 254.945312 173.371094 264.863281 180.019531 268.039062 C 186.453125 271.117188 188.589844 262.09375 192.792969 268.03125 C 203.386719 282.988281 210.820312 328.933594 208.109375 332.222656 C 201.25 340.546875 156.628906 330.636719 165.125 355.191406 C 166.390625 358.851562 172.835938 375.105469 175.953125 378.496094 C 180.859375 383.828125 214.226562 378.753906 217.535156 372.460938 C 219.890625 367.980469 214.25 355.683594 214.582031 355.4375 C 215.515625 354.761719 222.28125 356.664062 229.089844 355.996094 C 236.605469 355.253906 241.441406 354.246094 244.28125 352.726562 C 244.375 352.679688 247.191406 368.148438 250.328125 371.414062 C 254.371094 375.628906 288.328125 375.558594 293.484375 369.035156 C 301.828125 358.484375 285.3125 332.011719 284.148438 329.03125 C 283.5625 327.53125 284.730469 314.761719 285.328125 307.734375 C 287.050781 287.53125 286.824219 268.023438 286.054688 247.894531 C 286.011719 246.824219 288.695312 247.722656 289.328125 246.070312 C 290.863281 242.066406 289.570312 235.8125 288.808594 231.777344 C 285.527344 214.425781 275.632812 196.0625 271.675781 181.050781 C 270.605469 176.988281 272.285156 170.390625 273.765625 162.578125 C 275.148438 155.25 273.828125 127.40625 266.535156 121.304688 C 266.316406 121.125 262.742188 130.34375 254.984375 134.488281 C 246.292969 139.136719 235.414062 135.234375 228.191406 129.714844 C 213.144531 118.207031 206.140625 99.691406 194.394531 85.382812 C 189.640625 79.589844 182.222656 72.890625 174.578125 78.167969 C 168.339844 82.472656 166.644531 90.0625 168.546875 97.0625 C 173.796875 116.339844 185.394531 136.023438 180.515625 156.742188 C 177.816406 168.191406 161.96875 180.929688 149.699219 177.277344 C 145.691406 176.082031 138.3125 172.125 135.578125 168.984375 Z M 135.578125 168.984375 " clip-rule="nonzero"/></clipPath><clipPath id="2af1664239"><path d="M 277.019531 354.410156 L 283.035156 354.410156 L 283.035156 375.46875 L 277.019531 375.46875 Z M 277.019531 354.410156 " clip-rule="nonzero"/></clipPath><clipPath id="01281a86eb"><path d="M 135.578125 168.984375 C 134.421875 183.152344 147.957031 196.875 148.59375 198.527344 C 152.457031 208.617188 152.28125 223.835938 155.566406 234.5 C 157.316406 240.175781 159.53125 248.046875 163.792969 252.453125 C 167.828125 256.625 168.726562 248.863281 170.875 250.757812 C 175.609375 254.945312 173.371094 264.863281 180.019531 268.039062 C 186.453125 271.117188 188.589844 262.09375 192.792969 268.03125 C 203.386719 282.988281 210.820312 328.933594 208.109375 332.222656 C 201.25 340.546875 156.628906 330.636719 165.125 355.191406 C 166.390625 358.851562 172.835938 375.105469 175.953125 378.496094 C 180.859375 383.828125 214.226562 378.753906 217.535156 372.460938 C 219.890625 367.980469 214.25 355.683594 214.582031 355.4375 C 215.515625 354.761719 222.28125 356.664062 229.089844 355.996094 C 236.605469 355.253906 241.441406 354.246094 244.28125 352.726562 C 244.375 352.679688 247.191406 368.148438 250.328125 371.414062 C 254.371094 375.628906 288.328125 375.558594 293.484375 369.035156 C 301.828125 358.484375 285.3125 332.011719 284.148438 329.03125 C 283.5625 327.53125 284.730469 314.761719 285.328125 307.734375 C 287.050781 287.53125 286.824219 268.023438 286.054688 247.894531 C 286.011719 246.824219 288.695312 247.722656 289.328125 246.070312 C 290.863281 242.066406 289.570312 235.8125 288.808594 231.777344 C 285.527344 214.425781 275.632812 196.0625 271.675781 181.050781 C 270.605469 176.988281 272.285156 170.390625 273.765625 162.578125 C 275.148438 155.25 273.828125 127.40625 266.535156 121.304688 C 266.316406 121.125 262.742188 130.34375 254.984375 134.488281 C 246.292969 139.136719 235.414062 135.234375 228.191406 129.714844 C 213.144531 118.207031 206.140625 99.691406 194.394531 85.382812 C 189.640625 79.589844 182.222656 72.890625 174.578125 78.167969 C 168.339844 82.472656 166.644531 90.0625 168.546875 97.0625 C 173.796875 116.339844 185.394531 136.023438 180.515625 156.742188 C 177.816406 168.191406 161.96875 180.929688 149.699219 177.277344 C 145.691406 176.082031 138.3125 172.125 135.578125 168.984375 Z M 135.578125 168.984375 " clip-rule="nonzero"/></clipPath></defs><path fill="#fcecde" d="M 135.578125 168.984375 C 134.421875 183.152344 147.957031 196.875 148.59375 198.527344 C 152.457031 208.617188 152.28125 223.835938 155.566406 234.5 C 157.316406 240.175781 159.53125 248.046875 163.792969 252.453125 C 167.828125 256.625 168.726562 248.863281 170.875 250.757812 C 175.609375 254.945312 173.371094 264.863281 180.019531 268.039062 C 186.453125 271.117188 188.589844 262.09375 192.792969 268.03125 C 203.386719 282.988281 210.820312 328.933594 208.109375 332.222656 C 201.25 340.546875 156.628906 330.636719 165.125 355.191406 C 166.390625 358.851562 172.835938 375.105469 175.953125 378.496094 C 180.859375 383.828125 214.226562 378.753906 217.535156 372.460938 C 219.890625 367.980469 214.25 355.683594 214.582031 355.4375 C 215.515625 354.761719 222.28125 356.664062 229.089844 355.996094 C 236.605469 355.253906 241.441406 354.246094 244.28125 352.726562 C 244.375 352.679688 247.191406 368.148438 250.328125 371.414062 C 254.371094 375.628906 288.328125 375.558594 293.484375 369.035156 C 301.828125 358.484375 285.3125 332.011719 284.148438 329.03125 C 283.5625 327.53125 284.730469 314.761719 285.328125 307.734375 C 287.050781 287.53125 286.824219 268.023438 286.054688 247.894531 C 286.011719 246.824219 288.695312 247.722656 289.328125 246.070312 C 290.863281 242.066406 289.570312 235.8125 288.808594 231.777344 C 285.527344 214.425781 275.632812 196.0625 271.675781 181.050781 C 270.605469 176.988281 272.285156 170.390625 273.765625 162.578125 C 275.148438 155.25 273.828125 127.40625 266.535156 121.304688 C 266.316406 121.125 262.742188 130.34375 254.984375 134.488281 C 246.292969 139.136719 235.414062 135.234375 228.191406 129.714844 C 213.144531 118.207031 206.140625 99.691406 194.394531 85.382812 C 189.640625 79.589844 182.222656 72.890625 174.578125 78.167969 C 168.339844 82.472656 166.644531 90.0625 168.546875 97.0625 C 173.796875 116.339844 185.394531 136.023438 180.515625 156.742188 C 177.816406 168.191406 161.96875 180.929688 149.699219 177.277344 C 145.691406 176.082031 138.3125 172.125 135.578125 168.984375 " fill-opacity="1" fill-rule="evenodd"/><g clip-path="url(#9c970b7b5c)"><g clip-path="url(#89c33f03a4)"><path fill="#ead2c1" d="M 190.511719 379.066406 L 190.492188 379.070312 L 190.527344 379.066406 Z M 190.445312 379.078125 C 190.359375 379.089844 190.277344 379.113281 190.195312 379.148438 C 190.273438 379.113281 190.355469 379.089844 190.445312 379.078125 Z M 189.507812 379.769531 L 189.550781 379.246094 C 189.609375 378.269531 189.539062 377.277344 189.453125 376.304688 C 189.089844 372.273438 188.269531 367.867188 186.121094 364.386719 C 185.746094 363.773438 185.933594 362.972656 186.539062 362.59375 C 187.148438 362.214844 187.949219 362.40625 188.324219 363.015625 C 190.683594 366.835938 191.636719 371.648438 192.03125 376.070312 C 192.128906 377.171875 192.207031 378.296875 192.136719 379.398438 C 192.136719 379.457031 192.105469 380.097656 192.023438 380.453125 C 191.960938 380.738281 191.851562 380.949219 191.765625 381.074219 C 191.464844 381.507812 191.070312 381.644531 190.71875 381.660156 C 190 381.6875 189.394531 381.128906 189.367188 380.414062 C 189.359375 380.179688 189.410156 379.964844 189.507812 379.769531 " fill-opacity="1" fill-rule="evenodd"/></g></g><g clip-path="url(#6db299ab25)"><g clip-path="url(#a1f35af432)"><path fill="#ead2c1" d="M 265.535156 373.261719 L 265.570312 373.261719 Z M 265.484375 373.261719 C 265.398438 373.269531 265.3125 373.28125 265.230469 373.308594 C 265.3125 373.285156 265.398438 373.269531 265.484375 373.261719 Z M 264.476562 373.851562 L 264.582031 373.332031 C 264.746094 372.371094 264.78125 371.375 264.800781 370.398438 C 264.882812 366.351562 264.550781 361.882812 262.800781 358.183594 C 262.492188 357.535156 262.765625 356.753906 263.410156 356.445312 C 264.058594 356.136719 264.832031 356.414062 265.140625 357.0625 C 267.0625 361.125 267.480469 366.015625 267.390625 370.453125 C 267.371094 371.554688 267.320312 372.679688 267.136719 373.769531 C 267.125 373.828125 267.023438 374.460938 266.90625 374.8125 C 266.8125 375.082031 266.679688 375.28125 266.582031 375.394531 C 266.230469 375.792969 265.824219 375.886719 265.46875 375.859375 C 264.757812 375.808594 264.21875 375.1875 264.269531 374.472656 C 264.289062 374.242188 264.359375 374.03125 264.476562 373.851562 " fill-opacity="1" fill-rule="evenodd"/></g></g><g clip-path="url(#a344b8ed03)"><g clip-path="url(#bb9dec5280)"><path fill="#ead2c1" d="M 201.070312 361.488281 C 201.320312 361.71875 201.542969 361.773438 201.660156 361.789062 C 201.445312 361.742188 201.238281 361.644531 201.070312 361.488281 Z M 205.683594 376.925781 C 205.570312 377.003906 205.445312 377.121094 205.335938 377.308594 C 205.425781 377.152344 205.546875 377.023438 205.683594 376.925781 Z M 207.726562 377.75 C 207.773438 378.023438 207.734375 378.308594 207.597656 378.574219 C 207.304688 379.136719 206.890625 379.222656 206.71875 379.265625 C 206.382812 379.339844 206.074219 379.292969 205.789062 379.128906 C 205.597656 379.019531 205.371094 378.832031 205.230469 378.496094 C 205.191406 378.40625 205.148438 378.273438 205.128906 378.097656 C 205.121094 377.992188 205.144531 377.679688 205.144531 377.546875 C 205.144531 377.238281 205.136719 376.933594 205.121094 376.625 C 205.082031 375.664062 205 374.707031 204.902344 373.746094 C 204.632812 371.046875 204.164062 368.34375 203.222656 365.792969 C 202.820312 364.691406 202.359375 363.613281 201.78125 362.585938 C 201.605469 362.285156 201.410156 361.996094 201.203125 361.710938 C 201.128906 361.613281 200.773438 361.113281 200.757812 361.074219 C 200.417969 360.355469 200.785156 359.871094 200.902344 359.71875 C 201.117188 359.441406 201.414062 359.25 201.832031 359.21875 C 201.917969 359.210938 202.371094 359.121094 202.847656 359.597656 C 202.914062 359.667969 202.976562 359.742188 203.023438 359.820312 C 203.09375 359.910156 203.261719 360.128906 203.296875 360.179688 C 203.558594 360.539062 203.8125 360.914062 204.03125 361.304688 C 204.679688 362.449219 205.203125 363.660156 205.65625 364.894531 C 206.667969 367.652344 207.1875 370.570312 207.480469 373.484375 C 207.578125 374.492188 207.671875 375.503906 207.710938 376.519531 C 207.722656 376.851562 207.730469 377.195312 207.738281 377.527344 C 207.738281 377.574219 207.730469 377.664062 207.726562 377.75 " fill-opacity="1" fill-rule="evenodd"/></g></g><g clip-path="url(#2af1664239)"><g clip-path="url(#01281a86eb)"><path fill="#ead2c1" d="M 277.972656 356.957031 C 278.195312 357.214844 278.414062 357.292969 278.53125 357.324219 C 278.320312 357.253906 278.128906 357.132812 277.972656 356.957031 Z M 280.867188 372.808594 C 280.746094 372.871094 280.609375 372.976562 280.484375 373.152344 C 280.589844 373.007812 280.722656 372.894531 280.867188 372.808594 Z M 282.808594 373.855469 C 282.824219 374.132812 282.757812 374.414062 282.589844 374.660156 C 282.238281 375.1875 281.820312 375.226562 281.644531 375.25 C 281.300781 375.289062 280.996094 375.203125 280.734375 375.011719 C 280.550781 374.882812 280.351562 374.671875 280.246094 374.320312 C 280.21875 374.230469 280.191406 374.089844 280.191406 373.914062 C 280.191406 373.808594 280.25 373.496094 280.265625 373.367188 C 280.296875 373.058594 280.324219 372.757812 280.34375 372.453125 C 280.410156 371.488281 280.429688 370.523438 280.4375 369.5625 C 280.46875 366.847656 280.296875 364.113281 279.644531 361.472656 C 279.363281 360.332031 279.023438 359.207031 278.558594 358.128906 C 278.421875 357.808594 278.257812 357.5 278.082031 357.195312 C 278.023438 357.085938 277.726562 356.550781 277.707031 356.511719 C 277.449219 355.757812 277.867188 355.320312 278 355.179688 C 278.25 354.925781 278.566406 354.769531 278.984375 354.785156 C 279.066406 354.785156 279.527344 354.746094 279.953125 355.273438 C 280.011719 355.351562 280.058594 355.429688 280.101562 355.515625 C 280.160156 355.613281 280.304688 355.851562 280.332031 355.902344 C 280.554688 356.292969 280.765625 356.6875 280.941406 357.101562 C 281.457031 358.3125 281.847656 359.574219 282.160156 360.847656 C 282.863281 363.699219 283.0625 366.660156 283.027344 369.589844 C 283.019531 370.605469 282.996094 371.617188 282.929688 372.628906 C 282.90625 372.964844 282.875 373.300781 282.839844 373.636719 C 282.839844 373.683594 282.824219 373.769531 282.808594 373.855469 " fill-opacity="1" fill-rule="evenodd"/></g></g><path fill="#fdc175" d="M 180.699219 67.300781 C 182.066406 66.746094 184.382812 65.902344 186.328125 65.441406 C 189.953125 64.585938 193.828125 64.257812 193.773438 63.824219 C 193.605469 62.445312 194.265625 46.234375 194.875 40.558594 C 196.3125 27.140625 205.972656 0.171875 222.277344 5.347656 C 238.96875 10.644531 249.03125 33.386719 252.945312 43.140625 C 258.617188 57.285156 260.507812 72.738281 261.28125 87.941406 C 261.558594 93.457031 262.019531 99.992188 262.46875 102.171875 C 262.648438 103.035156 270.132812 108.800781 270.390625 110.007812 C 273.070312 122.621094 258.800781 142.355469 245.511719 144.3125 C 235.59375 145.769531 221.90625 136.484375 211.226562 125.074219 C 206.246094 119.753906 198.90625 112.074219 191.285156 96.050781 C 190.820312 95.078125 189.472656 91.542969 187.839844 87.28125 C 187.761719 87.21875 187.652344 87.058594 187.5 86.789062 C 186.4375 84.894531 185.46875 82.914062 184.386719 82.085938 C 176.628906 76.136719 170.609375 83.609375 172.367188 89.984375 C 173.300781 93.359375 176.992188 102.691406 177.304688 103.441406 C 184.128906 119.824219 184.941406 130.4375 185.582031 137.714844 C 186.941406 153.3125 184.722656 169.746094 177.03125 176.203125 C 166.722656 184.855469 143.355469 182.777344 135.773438 172.371094 C 135.046875 171.371094 134.960938 161.546875 134.4375 160.835938 C 133.117188 159.046875 128.566406 154.351562 124.65625 150.46875 C 113.878906 139.761719 103.664062 128.054688 96.9375 114.386719 C 92.296875 104.957031 82.105469 82.273438 89.292969 66.238281 C 96.304688 50.582031 122.769531 61.308594 133.691406 69.167969 C 138.3125 72.492188 150.796875 82.800781 151.707031 83.84375 C 151.996094 84.171875 155.535156 79.96875 158.722656 78.027344 C 170.671875 70.746094 177.785156 68.15625 180.699219 67.300781 " fill-opacity="1" fill-rule="evenodd"/><path fill="#292d3e" d="M 212.558594 155.78125 C 211.78125 157.800781 210.625 160.519531 205.800781 159.875 C 200.652344 159.191406 191.132812 157.078125 193.558594 150.546875 C 195.46875 145.40625 202.632812 142.007812 207.605469 141.292969 C 209.578125 141.007812 212.734375 140.761719 214.003906 142.71875 C 216.308594 146.273438 214.039062 151.933594 212.558594 155.78125 " fill-opacity="1" fill-rule="evenodd"/><path fill="#292d3e" d="M 212.269531 164.171875 C 212.195312 165.875 211.710938 167.875 210.429688 170.113281 C 205.910156 178 196.335938 176.273438 195.929688 176.210938 C 195.222656 176.109375 194.730469 175.449219 194.835938 174.738281 C 194.9375 174.027344 195.59375 173.535156 196.300781 173.640625 C 196.632812 173.6875 204.5 175.246094 208.183594 168.816406 C 211.15625 163.628906 208.785156 159.996094 208.453125 159.019531 C 208.398438 158.851562 210.167969 156.492188 210.917969 158.195312 C 211.210938 158.863281 212.941406 162.570312 216.660156 163.65625 C 221.683594 165.125 227.625 162.378906 228.671875 156.691406 C 228.804688 155.984375 229.476562 155.515625 230.179688 155.644531 C 230.886719 155.777344 231.351562 156.457031 231.21875 157.160156 C 229.882812 164.429688 222.355469 168.03125 215.933594 166.152344 C 214.488281 165.730469 213.269531 165.003906 212.269531 164.171875 " fill-opacity="1" fill-rule="evenodd"/><path fill="#292d3e" d="M 171.1875 134.40625 C 175.960938 134.40625 179.835938 138.398438 179.835938 143.3125 C 179.835938 148.226562 175.960938 152.21875 171.1875 152.21875 C 166.414062 152.21875 162.535156 148.226562 162.535156 143.3125 C 162.535156 138.398438 166.414062 134.40625 171.1875 134.40625 " fill-opacity="1" fill-rule="evenodd"/><path fill="#ffffff" d="M 173.136719 137.085938 C 174.441406 137.085938 175.5 138.140625 175.5 139.429688 C 175.5 140.730469 174.441406 141.777344 173.136719 141.777344 C 171.832031 141.777344 170.777344 140.730469 170.777344 139.429688 C 170.777344 138.140625 171.832031 137.085938 173.136719 137.085938 " fill-opacity="1" fill-rule="evenodd"/><path fill="#ffffff" d="M 164.664062 142.039062 C 164.539062 145.878906 166.144531 148.210938 169.40625 149.15625 C 170.371094 149.433594 172.878906 149.308594 174.117188 148.554688 C 175.074219 147.976562 175.085938 147.375 174.792969 146.96875 C 174.597656 146.695312 174.105469 146.5625 173.605469 146.769531 C 173.171875 146.953125 172.507812 147.085938 171.785156 147.15625 C 170.875 147.242188 169.835938 147.132812 168.59375 146.421875 C 167.074219 145.554688 166.789062 143.210938 166.640625 141.804688 C 166.613281 141.550781 166.496094 140.105469 165.554688 140.328125 C 164.910156 140.480469 164.6875 141.300781 164.664062 142.039062 " fill-opacity="1" fill-rule="evenodd"/><path fill="#292d3e" d="M 222.785156 111.121094 C 227.5625 111.121094 231.4375 115.117188 231.4375 120.03125 C 231.4375 124.945312 227.5625 128.9375 222.785156 128.9375 C 218.011719 128.9375 214.136719 124.945312 214.136719 120.03125 C 214.136719 115.117188 218.011719 111.121094 222.785156 111.121094 " fill-opacity="1" fill-rule="evenodd"/><path fill="#ffffff" d="M 224.734375 113.804688 C 226.039062 113.804688 227.101562 114.855469 227.101562 116.152344 C 227.101562 117.445312 226.039062 118.496094 224.734375 118.496094 C 223.433594 118.496094 222.378906 117.445312 222.378906 116.152344 C 222.378906 114.855469 223.433594 113.804688 224.734375 113.804688 " fill-opacity="1" fill-rule="evenodd"/><path fill="#ffffff" d="M 216.261719 118.753906 C 216.136719 122.597656 217.746094 124.929688 221.007812 125.875 C 221.96875 126.152344 224.476562 126.03125 225.71875 125.273438 C 226.671875 124.695312 226.6875 124.09375 226.390625 123.6875 C 226.195312 123.414062 225.703125 123.28125 225.207031 123.488281 C 224.773438 123.671875 224.105469 123.804688 223.382812 123.871094 C 222.476562 123.960938 221.433594 123.847656 220.195312 123.140625 C 218.675781 122.273438 218.390625 119.929688 218.238281 118.523438 C 218.210938 118.269531 218.09375 116.820312 217.15625 117.046875 C 216.507812 117.203125 216.289062 118.019531 216.261719 118.753906 " fill-opacity="1" fill-rule="evenodd"/><path fill="#fbb0a2" d="M 135.640625 145 C 133.265625 145.84375 129.316406 141.082031 127.949219 139.824219 C 123.949219 136.140625 120.484375 132.039062 117.207031 127.730469 C 108.058594 115.691406 100.367188 101.863281 96.738281 87.199219 C 95.300781 81.390625 94.53125 72.0625 101.25 69.042969 C 114.988281 62.878906 134.328125 81.96875 142.183594 91.273438 C 144.902344 94.496094 149.554688 99.929688 149.753906 104.5 C 149.96875 109.355469 143.53125 100.246094 141.789062 102.269531 C 139.316406 105.140625 147.292969 114.429688 145.230469 118.144531 C 143.476562 121.304688 139.992188 115.480469 139.316406 118.410156 C 138.015625 124.050781 137.761719 132.285156 137.585938 137.707031 C 137.523438 139.703125 138.136719 144.109375 135.640625 145 " fill-opacity="1" fill-rule="evenodd"/><path fill="#fbb0a2" d="M 246.90625 91.847656 C 249.097656 90.789062 248.457031 84.800781 248.503906 82.992188 C 248.648438 77.710938 248.140625 72.511719 247.359375 67.289062 C 245.179688 52.726562 240.773438 37.945312 233.039062 25.394531 C 229.976562 20.425781 224.019531 13.507812 217.386719 16.082031 C 203.828125 21.347656 204.019531 47.773438 205.179688 59.574219 C 205.582031 63.660156 206.210938 70.589844 209.25 73.859375 C 212.480469 77.332031 210.5 66.652344 213.082031 66.832031 C 216.746094 67.089844 217.8125 78.960938 221.777344 80.082031 C 225.160156 81.035156 223.46875 74.636719 225.964844 76.179688 C 230.757812 79.140625 236.648438 84.605469 240.527344 88.199219 C 241.957031 89.519531 244.605469 92.957031 246.90625 91.847656 " fill-opacity="1" fill-rule="evenodd"/><path fill="#fdc175" d="M 148.097656 197.589844 C 143.230469 205.929688 135.34375 222.925781 131.515625 231.09375 C 120.332031 254.941406 110.328125 279.796875 108.515625 306.335938 C 107.222656 325.28125 110.507812 346.941406 123.039062 356.613281 C 128.363281 360.71875 137.671875 361.753906 146.234375 361.238281 C 155.933594 360.652344 161.742188 362.679688 167.164062 360.601562 C 167.328125 360.535156 163.964844 350.710938 164.746094 348.445312 C 166.058594 344.609375 171.667969 342.25 175.027344 341.164062 C 184.519531 338.09375 192.332031 338.429688 200.914062 340.085938 C 201.734375 340.242188 209.542969 342.4375 210.035156 341.730469 C 213.011719 337.4375 214.109375 323.808594 214.152344 318.949219 C 214.417969 288.683594 210.542969 286.449219 197.421875 267.738281 C 194.800781 264.003906 191.378906 252.972656 187.722656 250.449219 C 183.972656 247.855469 185.902344 262.050781 182.421875 259.472656 C 177.640625 255.9375 173.878906 247.394531 173.601562 241.832031 C 173.410156 237.964844 173.878906 234.761719 173.453125 234.269531 C 172.082031 232.675781 169.40625 239.089844 169.039062 242.523438 C 168.699219 245.664062 167.171875 246.710938 165.136719 244.539062 C 151.722656 230.234375 157.464844 205.175781 156.441406 203.257812 C 155.210938 200.945312 151.601562 198.820312 148.097656 197.589844 " fill-opacity="1" fill-rule="evenodd"/><path fill="#d37a6e" d="M 147.703125 104.386719 C 147.726562 104.351562 147.753906 104.3125 147.769531 104.277344 C 148.238281 103.414062 148.050781 102.34375 147.683594 101.277344 C 147.003906 99.292969 145.574219 97.339844 144.679688 96.308594 C 140.929688 91.996094 132.3125 82.121094 122.410156 75.703125 C 116.035156 71.574219 109.136719 68.84375 102.6875 70.25 C 99.839844 70.871094 98.253906 73.078125 97.488281 75.703125 C 96.652344 78.566406 96.773438 81.933594 97.453125 84.625 C 100.980469 98.589844 110.046875 113.808594 117.902344 125.679688 C 118.296875 126.277344 118.136719 127.085938 117.539062 127.484375 C 116.945312 127.878906 116.140625 127.714844 115.746094 127.121094 C 107.742188 115.019531 98.535156 99.496094 94.941406 85.265625 C 93.996094 81.519531 94.027344 76.644531 95.738281 73.003906 C 96.96875 70.390625 99.03125 68.386719 102.136719 67.707031 C 109.207031 66.164062 116.824219 68.988281 123.8125 73.519531 C 133.953125 80.085938 142.789062 90.179688 146.628906 94.59375 C 147.679688 95.800781 149.335938 98.105469 150.132812 100.425781 C 150.75 102.234375 150.839844 104.050781 150.050781 105.515625 C 149.472656 106.597656 148.738281 106.964844 148.042969 107.042969 C 147.222656 107.128906 146.242188 106.65625 145.28125 105.835938 C 144.679688 105.324219 144.046875 104.683594 143.402344 104.257812 C 143.164062 104.09375 142.945312 103.929688 142.707031 103.953125 C 142.503906 103.976562 142.367188 104.167969 142.175781 104.453125 C 142.171875 104.484375 142.167969 104.582031 142.171875 104.640625 C 142.1875 104.824219 142.238281 105.027344 142.304688 105.246094 C 142.527344 105.96875 142.9375 106.824219 143.40625 107.746094 C 144.351562 109.605469 145.515625 111.714844 146.121094 113.667969 C 146.597656 115.207031 146.722656 116.667969 146.320312 117.902344 C 145.789062 119.523438 144.527344 119.914062 142.953125 119.730469 C 142.277344 119.652344 141.53125 119.449219 140.859375 119.378906 C 140.726562 119.363281 140.597656 119.355469 140.476562 119.359375 C 140.425781 119.359375 140.347656 119.375 140.3125 119.382812 C 139.964844 119.808594 139.714844 120.429688 139.5 121.167969 C 139.109375 122.546875 138.894531 124.300781 138.769531 126.191406 C 138.433594 131.203125 138.726562 137.132812 138.363281 140.058594 C 138.179688 141.527344 137.804688 143.027344 137.136719 144.03125 C 136.519531 144.957031 135.675781 145.535156 134.574219 145.617188 C 133.675781 145.683594 132.523438 145.390625 131.109375 144.410156 C 129.40625 143.234375 127.171875 140.972656 124.265625 137.09375 C 123.832031 136.519531 123.949219 135.703125 124.519531 135.273438 C 125.089844 134.839844 125.902344 134.953125 126.332031 135.53125 C 129 139.085938 131.019531 141.191406 132.574219 142.269531 C 133.085938 142.617188 133.523438 142.847656 133.914062 142.960938 C 134.222656 143.046875 134.472656 143.054688 134.667969 142.925781 C 134.984375 142.714844 135.167969 142.316406 135.328125 141.871094 C 135.5625 141.230469 135.699219 140.472656 135.792969 139.738281 C 136.214844 136.339844 135.742188 128.875 136.414062 123.542969 C 136.742188 120.945312 137.386719 118.816406 138.371094 117.660156 C 138.773438 117.191406 139.285156 116.917969 139.894531 116.808594 C 140.484375 116.703125 141.195312 116.773438 141.925781 116.914062 C 142.441406 117.007812 142.972656 117.132812 143.449219 117.164062 C 143.542969 117.171875 143.632812 117.171875 143.722656 117.164062 C 143.777344 117.160156 143.839844 117.160156 143.855469 117.09375 C 144.113281 116.320312 143.945312 115.410156 143.644531 114.441406 C 143.082031 112.621094 141.980469 110.660156 141.097656 108.929688 C 140.429688 107.609375 139.882812 106.402344 139.679688 105.445312 C 139.46875 104.449219 139.605469 103.632812 140.003906 103.03125 C 140.632812 102.085938 141.324219 101.640625 141.980469 101.453125 C 142.660156 101.265625 143.355469 101.34375 144.039062 101.644531 C 144.75 101.953125 145.472656 102.535156 146.160156 103.148438 C 146.550781 103.496094 146.929688 103.851562 147.292969 104.132812 C 147.414062 104.21875 147.585938 104.320312 147.703125 104.386719 " fill-opacity="1" fill-rule="evenodd"/><path fill="#d37a6e" d="M 221.851562 78.789062 C 221.898438 78.730469 221.980469 78.625 222.03125 78.546875 C 222.191406 78.296875 222.351562 78.003906 222.542969 77.710938 C 223.089844 76.859375 223.847656 75.976562 225.265625 75.457031 C 225.824219 75.242188 226.507812 75.210938 227.289062 75.394531 C 228.140625 75.59375 229.152344 76.066406 230.242188 76.753906 C 234.023438 79.140625 238.96875 84.210938 241.425781 87.207031 C 242.117188 88.050781 243.441406 89.472656 244.808594 90.125 C 245.351562 90.386719 245.902344 90.5625 246.355469 90.1875 C 246.503906 90.066406 246.5625 89.808594 246.65625 89.503906 C 246.902344 88.664062 247.027344 87.496094 247.082031 86.152344 C 247.3125 80.511719 246.234375 71.972656 245.964844 69.890625 C 244.210938 56.488281 241.742188 48.238281 236.058594 33.625 C 234.8125 30.425781 232.683594 26.316406 229.914062 23.078125 C 228.152344 21.019531 226.140625 19.3125 223.921875 18.496094 C 220.652344 17.296875 217.953125 17.386719 215.742188 18.457031 C 213.492188 19.546875 211.769531 21.613281 210.425781 24.195312 C 207.539062 29.738281 206.425781 37.609375 206.265625 44.28125 C 206.246094 45 205.652344 45.570312 204.9375 45.550781 C 204.222656 45.535156 203.65625 44.9375 203.671875 44.21875 C 203.84375 37.164062 205.078125 28.851562 208.128906 22.992188 C 209.753906 19.871094 211.898438 17.429688 214.617188 16.113281 C 217.371094 14.777344 220.730469 14.558594 224.8125 16.054688 C 227.417969 17.007812 229.8125 18.96875 231.878906 21.382812 C 234.84375 24.851562 237.136719 29.253906 238.46875 32.675781 C 244.25 47.539062 246.75 55.925781 248.535156 69.554688 C 248.8125 71.6875 249.910156 80.460938 249.671875 86.257812 C 249.605469 87.855469 249.433594 89.242188 249.140625 90.242188 C 248.867188 91.167969 248.457031 91.820312 248.007812 92.195312 C 246.746094 93.238281 245.214844 93.199219 243.699219 92.480469 C 241.984375 91.664062 240.292969 89.917969 239.425781 88.859375 C 237.097656 86.023438 232.441406 81.214844 228.863281 78.957031 C 228.175781 78.523438 227.539062 78.191406 226.976562 78.003906 C 226.65625 77.898438 226.382812 77.8125 226.164062 77.894531 C 224.875 78.371094 224.566406 79.414062 224.144531 80.054688 C 223.761719 80.632812 223.324219 81.039062 222.769531 81.25 C 222.363281 81.398438 221.882812 81.457031 221.285156 81.332031 C 220.5625 81.179688 219.71875 80.527344 218.957031 79.386719 C 217.710938 77.53125 216.398438 74.246094 215.160156 71.578125 C 214.625 70.417969 214.109375 69.386719 213.613281 68.6875 L 213.59375 68.65625 C 213.476562 69.222656 213.417969 69.90625 213.339844 70.582031 C 213.199219 71.710938 212.984375 72.835938 212.535156 73.628906 C 212.097656 74.402344 211.464844 74.933594 210.582031 75.125 C 209.878906 75.28125 209.054688 75.097656 208.253906 74.460938 C 207.082031 73.523438 205.820312 71.414062 205.273438 68.734375 C 205.132812 68.03125 205.585938 67.339844 206.285156 67.195312 C 206.984375 67.054688 207.671875 67.507812 207.8125 68.214844 C 208.160156 69.917969 208.835938 71.34375 209.578125 72.148438 C 209.738281 72.328125 210.007812 72.503906 210.097656 72.5625 C 210.335938 72.460938 210.386719 72.160156 210.476562 71.859375 C 210.703125 71.105469 210.773438 70.179688 210.875 69.335938 C 210.976562 68.453125 211.125 67.644531 211.378906 67.066406 C 211.683594 66.386719 212.144531 65.941406 212.71875 65.730469 C 213.28125 65.523438 213.871094 65.570312 214.476562 65.929688 C 215.132812 66.320312 215.898438 67.304688 216.628906 68.6875 C 217.800781 70.894531 219.066406 74.1875 220.296875 76.550781 C 220.667969 77.257812 221.03125 77.875 221.386719 78.332031 C 221.539062 78.523438 221.800781 78.746094 221.851562 78.789062 " fill-opacity="1" fill-rule="evenodd"/><path fill="#ead2c1" d="M 202.496094 203.976562 C 205.546875 203.890625 208.582031 203.648438 211.621094 203.394531 C 217.320312 202.921875 230.035156 200.820312 238.664062 197.230469 C 239.324219 196.953125 239.640625 196.191406 239.363281 195.527344 C 239.089844 194.863281 238.332031 194.550781 237.671875 194.828125 C 229.296875 198.3125 216.941406 200.34375 211.40625 200.804688 C 208.414062 201.050781 205.425781 201.289062 202.417969 201.378906 C 201.707031 201.398438 201.140625 201.996094 201.164062 202.71875 C 201.183594 203.433594 201.78125 204 202.496094 203.976562 " fill-opacity="1" fill-rule="evenodd"/><path fill="#ead2c1" d="M 254.734375 189.460938 C 256.238281 188.679688 257.746094 187.898438 259.191406 187.019531 C 262.984375 184.71875 266.949219 181.90625 269.828125 178.476562 C 270.289062 177.921875 270.21875 177.101562 269.671875 176.640625 C 269.125 176.175781 268.308594 176.25 267.847656 176.796875 C 265.144531 180.015625 261.410156 182.636719 257.851562 184.792969 C 256.453125 185.644531 254.996094 186.394531 253.542969 187.148438 C 252.910156 187.480469 252.660156 188.265625 252.988281 188.902344 C 253.320312 189.542969 254.101562 189.792969 254.734375 189.460938 " fill-opacity="1" fill-rule="evenodd"/><path fill="#b96f30" d="M 148.082031 296.902344 C 151.304688 309.367188 158.210938 334.347656 162.597656 346.40625 C 162.839844 347.082031 163.585938 347.429688 164.257812 347.183594 C 164.929688 346.9375 165.277344 346.1875 165.03125 345.515625 C 160.664062 333.515625 153.792969 308.65625 150.589844 296.25 C 150.410156 295.550781 149.703125 295.136719 149.011719 295.316406 C 148.320312 295.496094 147.902344 296.207031 148.082031 296.902344 " fill-opacity="1" fill-rule="evenodd"/><path fill="#fdc175" d="M 284.480469 329.707031 C 284.203125 329.894531 276.011719 328.007812 267.4375 329.601562 C 256.878906 331.566406 245.734375 338.765625 245.804688 338.488281 C 246.050781 337.488281 246.890625 328.457031 247.679688 325.367188 C 248.707031 321.347656 250.605469 314.894531 252.851562 311.277344 C 255.300781 307.335938 259.71875 303.246094 262.535156 299.164062 C 267.230469 292.351562 268.089844 282.269531 268.722656 275.085938 C 268.75 274.777344 270.511719 278.691406 270.816406 278.808594 C 271.671875 279.144531 277.019531 271.019531 278.34375 262.988281 C 278.472656 262.230469 278.734375 257.894531 278.902344 257.839844 C 280.046875 257.457031 281.515625 261.910156 282.21875 261.417969 C 283.277344 260.679688 284.632812 257.363281 285.113281 253.941406 C 285.617188 250.332031 285.917969 247.511719 286.175781 247.585938 C 288.527344 248.289062 288.582031 253.460938 288.8125 255.285156 C 290.023438 264.933594 289.582031 274.730469 289.113281 284.410156 C 288.546875 296.078125 286.464844 307.488281 285.152344 319.070312 C 285.046875 320 284.613281 329.617188 284.480469 329.707031 " fill-opacity="1" fill-rule="evenodd"/><path fill="#ead2c1" d="M 209.441406 343.558594 C 210.726562 346.09375 212.355469 349.742188 213.578125 354.382812 C 213.695312 354.832031 214.15625 355.101562 214.605469 354.980469 C 215.054688 354.859375 215.328125 354.398438 215.207031 353.945312 C 213.945312 349.167969 212.265625 345.402344 210.945312 342.792969 C 210.734375 342.375 210.226562 342.207031 209.8125 342.421875 C 209.398438 342.632812 209.230469 343.144531 209.441406 343.558594 " fill-opacity="1" fill-rule="evenodd"/><path fill="#ead2c1" d="M 245.097656 339.425781 C 243.71875 342.191406 243.253906 346.09375 243.382812 351.339844 C 243.394531 351.808594 243.78125 352.175781 244.246094 352.167969 C 244.714844 352.15625 245.082031 351.765625 245.074219 351.296875 C 244.953125 346.410156 245.320312 342.761719 246.609375 340.1875 C 246.816406 339.769531 246.648438 339.257812 246.230469 339.050781 C 245.816406 338.835938 245.308594 339.007812 245.097656 339.425781 " fill-opacity="1" fill-rule="evenodd"/></svg>