<svg xmlns="http://www.w3.org/2000/svg" xmlns:xlink="http://www.w3.org/1999/xlink" width="512" zoomAndPan="magnify" viewBox="0 0 384 383.999986" height="512" preserveAspectRatio="xMidYMid meet" version="1.0"><defs><clipPath id="34e6cbd872"><path d="M 208 369 L 219 369 L 219 383.105469 L 208 383.105469 Z M 208 369 " clip-rule="nonzero"/></clipPath><clipPath id="c6456eaec0"><path d="M 214.769531 383.011719 C 211.9375 383.078125 198.910156 382.566406 197.472656 382.296875 C 193.390625 381.535156 188.75 379.484375 190.039062 374.757812 C 190.328125 373.695312 190.703125 372.597656 191.265625 371.660156 C 192.804688 369.125 195.5 365.582031 197.757812 363.6875 C 204.1875 358.285156 215.648438 352.546875 224.476562 354.925781 C 225.164062 355.113281 225.585938 356.183594 225.714844 357.039062 C 225.8125 357.683594 225.125 359.71875 226.484375 359.824219 C 227.308594 359.886719 228.265625 359.285156 228.894531 358.847656 C 230.957031 357.410156 234.464844 353.175781 237.035156 356.191406 C 239.324219 358.875 237.855469 361.207031 238.773438 363.878906 C 239.617188 366.339844 244.203125 363.523438 244.726562 366.851562 C 245.046875 368.886719 242.519531 372.589844 241.570312 374.234375 C 240.640625 375.839844 239.753906 377.554688 238.308594 378.765625 C 232.066406 383.988281 222.167969 382.839844 214.769531 383.011719 Z M 214.769531 383.011719 " clip-rule="nonzero"/></clipPath><clipPath id="dfe21b4ca6"><path d="M 197.53125 368.226562 L 207.9375 368.226562 L 207.9375 383.105469 L 197.53125 383.105469 Z M 197.53125 368.226562 " clip-rule="nonzero"/></clipPath><clipPath id="4a1996e948"><path d="M 214.769531 383.011719 C 211.9375 383.078125 198.910156 382.566406 197.472656 382.296875 C 193.390625 381.535156 188.75 379.484375 190.039062 374.757812 C 190.328125 373.695312 190.703125 372.597656 191.265625 371.660156 C 192.804688 369.125 195.5 365.582031 197.757812 363.6875 C 204.1875 358.285156 215.648438 352.546875 224.476562 354.925781 C 225.164062 355.113281 225.585938 356.183594 225.714844 357.039062 C 225.8125 357.683594 225.125 359.71875 226.484375 359.824219 C 227.308594 359.886719 228.265625 359.285156 228.894531 358.847656 C 230.957031 357.410156 234.464844 353.175781 237.035156 356.191406 C 239.324219 358.875 237.855469 361.207031 238.773438 363.878906 C 239.617188 366.339844 244.203125 363.523438 244.726562 366.851562 C 245.046875 368.886719 242.519531 372.589844 241.570312 374.234375 C 240.640625 375.839844 239.753906 377.554688 238.308594 378.765625 C 232.066406 383.988281 222.167969 382.839844 214.769531 383.011719 Z M 214.769531 383.011719 " clip-rule="nonzero"/></clipPath><clipPath id="7a07a9d353"><path d="M 70.410156 127.902344 L 80 127.902344 L 80 144 L 70.410156 144 Z M 70.410156 127.902344 " clip-rule="nonzero"/></clipPath><clipPath id="4a95e7e260"><path d="M 77.214844 185.191406 C 76.925781 185.148438 68.15625 167.570312 66.984375 165.339844 C 61.625 155.144531 56.863281 138.585938 68.5625 130.832031 C 78.363281 124.335938 90.777344 129.300781 94.988281 139.992188 C 96.238281 143.175781 96.746094 146.667969 96.917969 150.070312 C 97.003906 151.660156 96.6875 153.535156 97.027344 155.097656 C 97.484375 157.175781 102.746094 161.914062 102.671875 162.347656 C 102.269531 164.769531 78.554688 183.847656 77.214844 185.191406 Z M 77.214844 185.191406 " clip-rule="nonzero"/></clipPath><clipPath id="10ba992deb"><path d="M 79.332031 127.902344 L 88.996094 127.902344 L 88.996094 143.527344 L 79.332031 143.527344 Z M 79.332031 127.902344 " clip-rule="nonzero"/></clipPath><clipPath id="d6ced539a2"><path d="M 77.214844 185.191406 C 76.925781 185.148438 68.15625 167.570312 66.984375 165.339844 C 61.625 155.144531 56.863281 138.585938 68.5625 130.832031 C 78.363281 124.335938 90.777344 129.300781 94.988281 139.992188 C 96.238281 143.175781 96.746094 146.667969 96.917969 150.070312 C 97.003906 151.660156 96.6875 153.535156 97.027344 155.097656 C 97.484375 157.175781 102.746094 161.914062 102.671875 162.347656 C 102.269531 164.769531 78.554688 183.847656 77.214844 185.191406 Z M 77.214844 185.191406 " clip-rule="nonzero"/></clipPath><clipPath id="0ccd258662"><path d="M 123.191406 367 L 129.882812 367 L 129.882812 383.105469 L 123.191406 383.105469 Z M 123.191406 367 " clip-rule="nonzero"/></clipPath><clipPath id="c7117c2cec"><path d="M 128.699219 330.066406 C 128.355469 331.417969 126.492188 342.152344 125.527344 346.488281 C 125.109375 348.347656 121.597656 351.339844 119.003906 357.90625 C 116.46875 364.320312 114.695312 372.054688 116.785156 379.046875 C 117.839844 382.574219 119.097656 383.171875 127.894531 383.101562 C 136.191406 383.035156 159.664062 382.96875 162.296875 381.335938 C 166.871094 378.5 166.808594 368.539062 167.722656 363.960938 C 168.511719 360.035156 171.3125 348.328125 171.347656 346.972656 C 171.410156 344.898438 163.347656 337.777344 153.039062 333.507812 C 145.152344 330.242188 135.835938 329.214844 128.699219 330.066406 Z M 128.699219 330.066406 " clip-rule="nonzero"/></clipPath><clipPath id="99136b2f50"><path d="M 133.597656 367 L 140.289062 367 L 140.289062 383.105469 L 133.597656 383.105469 Z M 133.597656 367 " clip-rule="nonzero"/></clipPath><clipPath id="c653916854"><path d="M 128.699219 330.066406 C 128.355469 331.417969 126.492188 342.152344 125.527344 346.488281 C 125.109375 348.347656 121.597656 351.339844 119.003906 357.90625 C 116.46875 364.320312 114.695312 372.054688 116.785156 379.046875 C 117.839844 382.574219 119.097656 383.171875 127.894531 383.101562 C 136.191406 383.035156 159.664062 382.96875 162.296875 381.335938 C 166.871094 378.5 166.808594 368.539062 167.722656 363.960938 C 168.511719 360.035156 171.3125 348.328125 171.347656 346.972656 C 171.410156 344.898438 163.347656 337.777344 153.039062 333.507812 C 145.152344 330.242188 135.835938 329.214844 128.699219 330.066406 Z M 128.699219 330.066406 " clip-rule="nonzero"/></clipPath><clipPath id="9b0a4979a1"><path d="M 145.492188 367.480469 L 152.183594 367.480469 L 152.183594 383.105469 L 145.492188 383.105469 Z M 145.492188 367.480469 " clip-rule="nonzero"/></clipPath><clipPath id="b7af56be23"><path d="M 128.699219 330.066406 C 128.355469 331.417969 126.492188 342.152344 125.527344 346.488281 C 125.109375 348.347656 121.597656 351.339844 119.003906 357.90625 C 116.46875 364.320312 114.695312 372.054688 116.785156 379.046875 C 117.839844 382.574219 119.097656 383.171875 127.894531 383.101562 C 136.191406 383.035156 159.664062 382.96875 162.296875 381.335938 C 166.871094 378.5 166.808594 368.539062 167.722656 363.960938 C 168.511719 360.035156 171.3125 348.328125 171.347656 346.972656 C 171.410156 344.898438 163.347656 337.777344 153.039062 333.507812 C 145.152344 330.242188 135.835938 329.214844 128.699219 330.066406 Z M 128.699219 330.066406 " clip-rule="nonzero"/></clipPath></defs><path fill="#fdc175" d="M 76.140625 183.226562 C 77.027344 185.960938 94.394531 223.0625 103.386719 234.859375 C 104.453125 236.261719 114.851562 251.222656 116.179688 251.410156 C 117.621094 251.609375 116.90625 226.21875 117.488281 223.023438 C 118.441406 217.796875 128.273438 190.648438 125.761719 187.527344 C 121.890625 182.710938 116.359375 179.382812 112.453125 174.359375 C 111.105469 172.628906 101.875 161.082031 101.789062 161.21875 C 96.550781 169.550781 85.414062 179.492188 76.140625 183.226562 " fill-opacity="1" fill-rule="evenodd"/><path fill="#fcecde" d="M 214.769531 383.011719 C 211.9375 383.078125 198.910156 382.566406 197.472656 382.296875 C 193.390625 381.535156 188.75 379.484375 190.039062 374.757812 C 190.328125 373.695312 190.703125 372.597656 191.265625 371.660156 C 192.804688 369.125 195.5 365.582031 197.757812 363.6875 C 204.1875 358.285156 215.648438 352.546875 224.476562 354.925781 C 225.164062 355.113281 225.585938 356.183594 225.714844 357.039062 C 225.8125 357.683594 225.125 359.71875 226.484375 359.824219 C 227.308594 359.886719 228.265625 359.285156 228.894531 358.847656 C 230.957031 357.410156 234.464844 353.175781 237.035156 356.191406 C 239.324219 358.875 237.855469 361.207031 238.773438 363.878906 C 239.617188 366.339844 244.203125 363.523438 244.726562 366.851562 C 245.046875 368.886719 242.519531 372.589844 241.570312 374.234375 C 240.640625 375.839844 239.753906 377.554688 238.308594 378.765625 C 232.066406 383.988281 222.167969 382.839844 214.769531 383.011719 " fill-opacity="1" fill-rule="evenodd"/><g clip-path="url(#34e6cbd872)"><g clip-path="url(#c6456eaec0)"><path fill="#ead2c1" d="M 211.300781 385.285156 C 211.601562 384.484375 212.566406 380.886719 214.191406 377.339844 C 215.207031 375.121094 216.476562 372.910156 218.035156 371.511719 C 218.601562 371.007812 218.648438 370.140625 218.148438 369.578125 C 217.648438 369.011719 216.78125 368.957031 216.21875 369.464844 C 211.835938 373.386719 209.265625 382.910156 208.742188 384.324219 C 208.476562 385.03125 208.835938 385.824219 209.539062 386.089844 C 210.25 386.359375 211.035156 385.996094 211.300781 385.285156 " fill-opacity="1" fill-rule="evenodd"/></g></g><g clip-path="url(#dfe21b4ca6)"><g clip-path="url(#4a1996e948)"><path fill="#ead2c1" d="M 200.351562 384.851562 C 200.65625 384.046875 201.652344 380.460938 203.308594 376.925781 C 204.34375 374.71875 205.628906 372.515625 207.199219 371.132812 C 207.765625 370.632812 207.824219 369.761719 207.328125 369.191406 C 206.832031 368.625 205.964844 368.566406 205.394531 369.066406 C 200.984375 372.953125 198.339844 382.453125 197.800781 383.863281 C 197.53125 384.570312 197.882812 385.367188 198.582031 385.636719 C 199.289062 385.910156 200.078125 385.554688 200.351562 384.851562 " fill-opacity="1" fill-rule="evenodd"/></g></g><path fill="#fcecde" d="M 77.214844 185.191406 C 76.925781 185.148438 68.15625 167.570312 66.984375 165.339844 C 61.625 155.144531 56.863281 138.585938 68.5625 130.832031 C 78.363281 124.335938 90.777344 129.300781 94.988281 139.992188 C 96.238281 143.175781 96.746094 146.667969 96.917969 150.070312 C 97.003906 151.660156 96.6875 153.535156 97.027344 155.097656 C 97.484375 157.175781 102.746094 161.914062 102.671875 162.347656 C 102.269531 164.769531 78.554688 183.847656 77.214844 185.191406 " fill-opacity="1" fill-rule="evenodd"/><g clip-path="url(#7a07a9d353)"><g clip-path="url(#4a95e7e260)"><path fill="#ead2c1" d="M 79.777344 142.566406 C 80.050781 137.480469 78.929688 132.722656 77.125 129.460938 C 75.789062 127.039062 74.039062 125.425781 72.222656 124.878906 C 71.5 124.660156 70.738281 125.078125 70.519531 125.804688 C 70.304688 126.527344 70.714844 127.292969 71.4375 127.507812 C 72.699219 127.886719 73.808594 129.117188 74.738281 130.796875 C 76.335938 133.683594 77.289062 137.910156 77.046875 142.417969 C 77.007812 143.175781 77.589844 143.824219 78.339844 143.859375 C 79.09375 143.902344 79.738281 143.324219 79.777344 142.566406 " fill-opacity="1" fill-rule="evenodd"/></g></g><g clip-path="url(#10ba992deb)"><g clip-path="url(#d6ced539a2)"><path fill="#ead2c1" d="M 88.835938 141.695312 C 88.734375 140.207031 88.355469 135.546875 88.035156 134.109375 C 87.050781 129.710938 85.289062 125.824219 81.546875 124.003906 C 80.867188 123.675781 80.050781 123.960938 79.71875 124.640625 C 79.390625 125.324219 79.675781 126.144531 80.351562 126.476562 C 83.359375 127.9375 84.578125 131.175781 85.367188 134.710938 C 85.667969 136.066406 86.011719 140.472656 86.105469 141.882812 C 86.15625 142.640625 86.808594 143.210938 87.5625 143.160156 C 88.316406 143.109375 88.882812 142.453125 88.835938 141.695312 " fill-opacity="1" fill-rule="evenodd"/></g></g><path fill="#fcecde" d="M 128.699219 330.066406 C 128.355469 331.417969 126.492188 342.152344 125.527344 346.488281 C 125.109375 348.347656 121.597656 351.339844 119.003906 357.90625 C 116.46875 364.320312 114.695312 372.054688 116.785156 379.046875 C 117.839844 382.574219 119.097656 383.171875 127.894531 383.101562 C 136.191406 383.035156 159.664062 382.96875 162.296875 381.335938 C 166.871094 378.5 166.808594 368.539062 167.722656 363.960938 C 168.511719 360.035156 171.3125 348.328125 171.347656 346.972656 C 171.410156 344.898438 163.347656 337.777344 153.039062 333.507812 C 145.152344 330.242188 135.835938 329.214844 128.699219 330.066406 " fill-opacity="1" fill-rule="evenodd"/><g clip-path="url(#0ccd258662)"><g clip-path="url(#c7117c2cec)"><path fill="#ead2c1" d="M 125.921875 384.804688 C 126.011719 383.914062 126.035156 380.046875 126.75 376.050781 C 127.195312 373.542969 127.898438 370.976562 129.117188 369.144531 C 129.535156 368.515625 129.371094 367.660156 128.742188 367.238281 C 128.117188 366.820312 127.265625 366.988281 126.847656 367.617188 C 123.429688 372.734375 123.363281 382.964844 123.203125 384.523438 C 123.125 385.277344 123.671875 385.953125 124.421875 386.03125 C 125.175781 386.105469 125.84375 385.554688 125.921875 384.804688 " fill-opacity="1" fill-rule="evenodd"/></g></g><g clip-path="url(#99136b2f50)"><g clip-path="url(#c653916854)"><path fill="#ead2c1" d="M 136.601562 385.082031 C 136.691406 384.191406 136.71875 380.324219 137.429688 376.324219 C 137.871094 373.824219 138.574219 371.25 139.792969 369.421875 C 140.214844 368.796875 140.046875 367.941406 139.421875 367.515625 C 138.792969 367.09375 137.945312 367.265625 137.523438 367.898438 C 134.113281 373.011719 134.042969 383.238281 133.882812 384.800781 C 133.804688 385.554688 134.351562 386.226562 135.101562 386.304688 C 135.851562 386.382812 136.523438 385.835938 136.601562 385.082031 " fill-opacity="1" fill-rule="evenodd"/></g></g><g clip-path="url(#9b0a4979a1)"><g clip-path="url(#b7af56be23)"><path fill="#ead2c1" d="M 148.722656 385.441406 C 148.8125 384.550781 148.835938 380.683594 149.546875 376.6875 C 149.992188 374.179688 150.695312 371.609375 151.914062 369.78125 C 152.332031 369.152344 152.164062 368.300781 151.542969 367.875 C 150.914062 367.457031 150.0625 367.625 149.644531 368.253906 C 146.230469 373.371094 146.160156 383.601562 146 385.160156 C 145.921875 385.914062 146.46875 386.589844 147.21875 386.667969 C 147.972656 386.746094 148.640625 386.191406 148.722656 385.441406 " fill-opacity="1" fill-rule="evenodd"/></g></g><path fill="#fcecde" d="M 220.539062 131.261719 C 215.351562 113.433594 208.347656 71.152344 208.308594 71.128906 C 207.507812 70.609375 196.855469 63.5625 173.730469 67.417969 C 166.0625 68.691406 158.621094 71.785156 151.601562 75.183594 C 147.78125 77.03125 145.996094 78.804688 141.925781 79.886719 C 137.324219 81.105469 124.398438 81.132812 118.167969 81.425781 C 116.902344 81.484375 114.808594 88.230469 110.59375 90.273438 C 108.011719 91.523438 101.652344 91.160156 100.089844 93.765625 C 97.550781 97.988281 97.425781 107.765625 100.09375 111.898438 C 101.398438 113.921875 104.300781 114.964844 105.355469 116.992188 C 106.195312 118.617188 104.589844 121.902344 104.339844 123.554688 C 103.808594 126.996094 104.882812 129.707031 106.824219 132.59375 C 114.714844 144.308594 127.421875 146.066406 131.753906 153.566406 C 133.933594 157.34375 133.695312 163.707031 132.371094 166.726562 C 126.136719 180.96875 123.296875 186.695312 121.378906 193.035156 C 113.4375 219.285156 111.574219 251.363281 118.042969 278.398438 C 122.097656 295.351562 130.054688 311.679688 131.96875 312.433594 C 133.03125 312.851562 147.644531 267.816406 156.777344 255.535156 C 163.25 246.828125 171.355469 239.554688 178.175781 231.128906 C 187.035156 220.191406 194.613281 208.414062 203.101562 197.21875 C 213.433594 183.605469 224.835938 167.871094 225.039062 149.878906 C 225.109375 143.777344 222.210938 137.003906 220.539062 131.261719 " fill-opacity="1" fill-rule="evenodd"/><path fill="#fdc175" d="M 180.550781 66.5625 C 182.921875 66.359375 192.585938 66.144531 199.039062 67.703125 C 204.519531 69.027344 207.148438 71.730469 207.046875 71.71875 C 205.6875 71.566406 203.871094 71.425781 203.300781 71.421875 C 198.253906 71.40625 193.097656 71.921875 188.101562 72.5625 C 171.144531 74.75 135.894531 89.535156 139.816406 112.136719 C 141.878906 124 156.417969 131.953125 172.195312 132.367188 C 210.550781 133.371094 216.34375 131.328125 218.09375 151.992188 C 219.390625 167.320312 214.261719 179.304688 195.792969 187.929688 C 193.296875 189.097656 185.507812 191.660156 185.082031 193.558594 C 184.773438 194.910156 185.007812 200.039062 182.527344 205.164062 C 180.964844 208.398438 178.40625 204.082031 176.980469 211.339844 C 175.640625 218.167969 175.429688 225.597656 171.226562 231.472656 C 169.523438 233.855469 168.695312 224.3125 165.785156 226.667969 C 162.328125 229.464844 162.253906 238.328125 160.03125 242.222656 C 154.566406 251.796875 142.382812 257.550781 139.289062 268.570312 C 135.039062 283.707031 128.839844 329.726562 128.570312 330.519531 C 128.527344 330.636719 131.148438 330.015625 134.667969 330.390625 C 150.183594 332.039062 161.625 338.957031 170.53125 347.570312 C 170.960938 347.980469 164.648438 376.238281 164.945312 376.230469 C 175.886719 375.921875 189.675781 376.242188 189.871094 375.652344 C 190.566406 373.542969 194.277344 366.925781 201.578125 361.644531 C 208.019531 356.984375 216.875 355.441406 223.027344 355.78125 C 226.464844 355.964844 224.886719 360.984375 226.214844 360.929688 C 229.402344 360.796875 233.941406 354.636719 235.46875 354.957031 C 239.328125 355.769531 237.085938 361.789062 237.738281 364.367188 C 238.480469 367.308594 244.269531 365.207031 244.394531 367.359375 C 244.460938 368.476562 241.941406 373.582031 241.976562 373.605469 C 246.136719 376.277344 274.90625 372.328125 282.890625 369.03125 C 290.414062 365.921875 292.296875 362.039062 292.925781 361.515625 C 293.605469 360.953125 297.277344 364.886719 300.859375 365.742188 C 303.984375 366.488281 307.140625 367.597656 309.585938 369.496094 C 310.378906 370.105469 313.511719 374.519531 314.15625 374.359375 C 326.886719 371.246094 321.757812 335.128906 313.488281 328.609375 C 312.226562 327.613281 308.144531 323.773438 307.753906 322.160156 C 307.511719 321.152344 307.746094 314.316406 306.902344 309.726562 C 305.464844 301.894531 301.429688 293.242188 298.054688 286.136719 C 296.011719 281.839844 288.074219 271.1875 287.515625 269.4375 C 286.792969 267.1875 292.125 269.417969 291.554688 267.203125 C 289.667969 259.90625 285.03125 253.707031 278.59375 244.257812 C 277.492188 242.644531 281.535156 244.4375 282.367188 243.175781 C 282.699219 242.671875 281.027344 239.65625 280.585938 238.835938 C 277.53125 233.1875 270.429688 224.882812 268.734375 222.605469 C 263.925781 216.136719 254.964844 204.585938 251.226562 188.378906 C 241.507812 146.269531 258.746094 104.988281 273.796875 65.925781 C 276.785156 58.164062 287.738281 21.59375 277.910156 14.097656 C 259.453125 0.015625 233.210938 39.1875 225.371094 52.144531 C 222.621094 56.691406 219.78125 61.5 216.25 67.625 C 215.304688 69.269531 214.46875 71.300781 213.890625 71.085938 C 213.332031 70.878906 214.503906 67.722656 214.683594 67.183594 C 215.78125 63.875 216.921875 61.058594 217.910156 57.710938 C 220.003906 50.625 228.613281 19.828125 219.160156 15.578125 C 216.523438 14.394531 212.730469 14.644531 208.25 19.261719 C 196.648438 31.21875 181.644531 61.738281 180.550781 66.5625 " fill-opacity="1" fill-rule="evenodd"/><path fill="#fbb0a2" d="M 213.585938 88.570312 C 216.136719 83.0625 220.164062 74.65625 221.738281 71.480469 C 227.234375 60.410156 234.664062 50.464844 241.589844 40.335938 C 247.820312 31.226562 255.550781 21.214844 261.515625 22.089844 C 263.710938 22.410156 263.980469 25.007812 264.015625 26.882812 C 264.109375 31.972656 262.648438 38.847656 258.90625 48.40625 C 252.980469 63.554688 244.507812 78.398438 238.453125 93.378906 C 237.15625 96.59375 232.144531 106.777344 229.515625 108.394531 C 226.699219 110.128906 228.792969 99.175781 227.339844 98.117188 C 225.453125 96.742188 223.492188 101.90625 221.53125 101.261719 C 219.078125 100.449219 220.480469 95.964844 219.546875 94.160156 C 218.324219 91.792969 214.957031 91.433594 213.585938 88.570312 " fill-opacity="1" fill-rule="evenodd"/><path fill="#fbb0a2" d="M 197.957031 67.453125 C 197.9375 67.496094 195.71875 66.96875 191.019531 66.621094 C 187.507812 66.363281 186.050781 66.464844 186.066406 66.425781 C 186.359375 65.585938 190.617188 57.386719 191.78125 55.003906 C 195.191406 48.011719 200.832031 37.953125 204.636719 31.273438 C 206.3125 28.324219 208.410156 25.585938 210.386719 27.0625 C 212.644531 28.75 211.6875 33.886719 211.125 36.207031 C 209.457031 43.082031 199.09375 65.292969 197.957031 67.453125 " fill-opacity="1" fill-rule="evenodd"/><path fill="#d37a6e" d="M 187.867188 65.417969 C 189.523438 62.027344 193.378906 54.28125 194.703125 51.804688 C 198.109375 45.433594 201.167969 39.105469 205.066406 33 C 205.796875 31.851562 206.957031 29.890625 208.339844 28.605469 C 209.074219 27.917969 209.859375 27.398438 210.699219 27.539062 C 211.277344 27.636719 211.472656 28.183594 211.574219 28.824219 C 211.8125 30.308594 211.394531 32.363281 210.925781 33.875 C 208.855469 40.539062 207.078125 45.242188 203.667969 52.527344 C 203.460938 52.972656 203.652344 53.507812 204.09375 53.71875 C 204.542969 53.925781 205.070312 53.734375 205.28125 53.289062 C 208.726562 45.914062 210.527344 41.152344 212.625 34.410156 C 213.171875 32.65625 213.609375 30.265625 213.332031 28.539062 C 213.09375 27.042969 212.339844 26.007812 210.996094 25.777344 C 209.648438 25.550781 208.3125 26.191406 207.128906 27.289062 C 205.632812 28.683594 204.359375 30.792969 203.566406 32.035156 C 199.648438 38.179688 196.558594 44.546875 193.132812 50.960938 C 191.804688 53.441406 187.933594 61.226562 186.269531 64.632812 C 186.050781 65.074219 186.234375 65.609375 186.671875 65.828125 C 187.113281 66.042969 187.648438 65.863281 187.867188 65.417969 " fill-opacity="1" fill-rule="evenodd"/><path fill="#d37a6e" d="M 201.015625 57.902344 C 200.234375 59.660156 198.757812 62.710938 197.699219 65.089844 C 197.5 65.539062 197.699219 66.066406 198.152344 66.269531 C 198.597656 66.472656 199.125 66.269531 199.324219 65.816406 C 200.382812 63.4375 201.859375 60.390625 202.640625 58.628906 C 202.839844 58.179688 202.636719 57.648438 202.191406 57.449219 C 201.742188 57.25 201.214844 57.449219 201.015625 57.902344 " fill-opacity="1" fill-rule="evenodd"/><path fill="#292d3e" d="M 164.488281 89.933594 C 169.523438 89.957031 173.597656 94.183594 173.578125 99.371094 C 173.558594 104.558594 169.453125 108.757812 164.417969 108.738281 C 159.382812 108.714844 155.308594 104.488281 155.328125 99.300781 C 155.347656 94.113281 159.453125 89.914062 164.488281 89.933594 " fill-opacity="1" fill-rule="evenodd"/><path fill="#ffffff" d="M 166.535156 92.773438 C 167.910156 92.777344 169.023438 93.890625 169.015625 95.257812 C 169.015625 96.628906 167.890625 97.734375 166.515625 97.726562 C 165.144531 97.722656 164.03125 96.609375 164.035156 95.238281 C 164.042969 93.875 165.164062 92.765625 166.535156 92.773438 " fill-opacity="1" fill-rule="evenodd"/><path fill="#ffffff" d="M 157.574219 97.960938 C 157.425781 102.015625 159.117188 104.488281 162.554688 105.496094 C 163.566406 105.792969 166.214844 105.671875 167.523438 104.882812 C 168.53125 104.277344 168.550781 103.640625 168.242188 103.210938 C 168.035156 102.921875 167.519531 102.777344 166.988281 102.996094 C 166.535156 103.183594 165.832031 103.324219 165.0625 103.394531 C 164.109375 103.480469 163.011719 103.359375 161.707031 102.605469 C 160.101562 101.6875 159.8125 99.210938 159.660156 97.722656 C 159.632812 97.460938 159.515625 95.929688 158.523438 96.164062 C 157.839844 96.324219 157.605469 97.183594 157.574219 97.960938 " fill-opacity="1" fill-rule="evenodd"/><path fill="#292d3e" d="M 98.542969 95.78125 C 98.632812 91.113281 101.726562 82.496094 102.246094 81.597656 C 104.902344 77.070312 118.136719 79.476562 118.835938 80.28125 C 119.574219 81.125 118.253906 84.113281 117.910156 84.863281 C 115.996094 89.035156 114.378906 92.582031 109.609375 94.363281 C 106.546875 95.503906 102.699219 96.234375 98.542969 95.78125 " fill-opacity="1" fill-rule="evenodd"/><path fill="#292d3e" d="M 104.851562 119.863281 C 106.847656 121.5 110.746094 124.535156 113.003906 125.78125 C 119.710938 129.492188 129.179688 131.097656 136.667969 128.992188 C 137.394531 128.789062 137.816406 128.027344 137.613281 127.300781 C 137.410156 126.570312 136.65625 126.144531 135.929688 126.347656 C 129.09375 128.269531 120.449219 126.769531 114.320312 123.378906 C 112.171875 122.191406 108.480469 119.296875 106.582031 117.738281 C 105.996094 117.257812 105.132812 117.34375 104.65625 117.933594 C 104.183594 118.519531 104.265625 119.386719 104.851562 119.863281 " fill-opacity="1" fill-rule="evenodd"/><path fill="#b96f30" d="M 273.351562 15.851562 C 275.804688 24.878906 271.980469 39.835938 269.765625 47.761719 C 265.136719 64.375 258.277344 79.582031 248.363281 96.253906 C 245.679688 100.765625 241.371094 104.414062 237.445312 108.308594 C 233.246094 112.476562 229.480469 116.914062 228.160156 122.714844 C 227.992188 123.453125 228.453125 124.191406 229.1875 124.359375 C 229.925781 124.527344 230.65625 124.066406 230.824219 123.328125 C 232.023438 118.042969 235.542969 114.054688 239.363281 110.265625 C 243.457031 106.203125 247.910156 102.363281 250.707031 97.664062 C 260.761719 80.761719 267.703125 65.347656 272.398438 48.503906 C 274.710938 40.21875 278.550781 24.5625 275.988281 15.128906 C 275.789062 14.398438 275.035156 13.964844 274.308594 14.164062 C 273.582031 14.363281 273.152344 15.121094 273.351562 15.851562 " fill-opacity="1" fill-rule="evenodd"/><path fill="#b96f30" d="M 215.75 19.109375 C 216.976562 25.320312 216.519531 30.992188 215.972656 34.605469 C 214.207031 46.152344 209.554688 57.210938 205.136719 67.308594 C 204.832031 68 205.148438 68.8125 205.835938 69.121094 C 206.527344 69.421875 207.335938 69.109375 207.636719 68.414062 C 212.152344 58.105469 216.871094 46.808594 218.671875 35.023438 C 219.257812 31.1875 219.734375 25.167969 218.429688 18.574219 C 218.28125 17.832031 217.5625 17.347656 216.820312 17.492188 C 216.078125 17.644531 215.601562 18.367188 215.75 19.109375 " fill-opacity="1" fill-rule="evenodd"/><path fill="#b96f30" d="M 296.324219 360.289062 C 298.347656 357.539062 301.097656 352.808594 302.265625 350.148438 C 305.613281 342.484375 307.695312 333.621094 307.554688 325.214844 C 307.539062 324.453125 306.914062 323.851562 306.164062 323.863281 C 305.410156 323.875 304.808594 324.5 304.820312 325.261719 C 304.957031 333.28125 302.953125 341.738281 299.761719 349.042969 C 298.660156 351.570312 296.042969 356.050781 294.121094 358.65625 C 293.675781 359.269531 293.804688 360.128906 294.410156 360.578125 C 295.015625 361.03125 295.871094 360.898438 296.324219 360.289062 " fill-opacity="1" fill-rule="evenodd"/><path fill="#b96f30" d="M 179.824219 319.367188 C 179 321.707031 178.214844 324.066406 177.410156 326.414062 C 175.082031 333.230469 172.679688 338.640625 170.554688 345.511719 C 170.328125 346.234375 170.730469 347.003906 171.453125 347.230469 C 172.171875 347.457031 172.941406 347.050781 173.164062 346.324219 C 175.28125 339.480469 177.675781 334.09375 180 327.304688 C 180.796875 324.964844 181.582031 322.617188 182.402344 320.285156 C 182.648438 319.570312 182.277344 318.78125 181.566406 318.53125 C 180.855469 318.277344 180.074219 318.652344 179.824219 319.367188 " fill-opacity="1" fill-rule="evenodd"/><path fill="#d37a6e" d="M 215.230469 88.285156 C 215.53125 87.699219 217.855469 82.90625 218.660156 81.234375 C 221.207031 75.984375 223.851562 70.777344 226.523438 65.585938 C 232.953125 53.109375 240.5 42.042969 249.316406 31.070312 C 251.558594 28.273438 254.832031 25.292969 257.824219 23.726562 C 259.578125 22.808594 261.207031 22.328125 262.402344 22.929688 C 262.746094 23.097656 262.972656 23.4375 263.148438 23.855469 C 263.382812 24.417969 263.507812 25.117188 263.5625 25.902344 C 263.851562 29.960938 262.261719 36.082031 261.484375 38.316406 C 258.625 46.546875 245.488281 76.710938 241.8125 83.894531 C 241.589844 84.332031 241.765625 84.871094 242.199219 85.097656 C 242.636719 85.320312 243.171875 85.148438 243.398438 84.710938 C 247.089844 77.492188 260.289062 47.175781 263.164062 38.90625 C 263.984375 36.542969 265.644531 30.066406 265.339844 25.777344 C 265.183594 23.601562 264.46875 21.964844 263.195312 21.328125 C 261.59375 20.523438 259.363281 20.90625 257 22.144531 C 253.816406 23.808594 250.320312 26.972656 247.929688 29.945312 C 239.039062 41.015625 231.425781 52.179688 224.945312 64.765625 C 222.261719 69.96875 219.613281 75.1875 217.0625 80.453125 C 216.257812 82.117188 213.941406 86.886719 213.644531 87.46875 C 213.421875 87.90625 213.597656 88.445312 214.03125 88.671875 C 214.472656 88.898438 215.003906 88.722656 215.230469 88.285156 " fill-opacity="1" fill-rule="evenodd"/><path fill="#d37a6e" d="M 229.148438 107.148438 C 229.164062 107.148438 229.183594 107.144531 229.199219 107.136719 C 229.261719 107.121094 229.328125 107.085938 229.402344 107.046875 C 230.222656 106.574219 231.25 105.109375 232.375 103.265625 C 235.226562 98.59375 238.417969 91.464844 239.4375 89.375 C 239.65625 88.929688 240.191406 88.75 240.628906 88.964844 C 241.070312 89.183594 241.253906 89.71875 241.035156 90.160156 C 240.003906 92.277344 236.773438 99.476562 233.890625 104.199219 C 232.558594 106.382812 231.257812 108.039062 230.28125 108.601562 C 229.632812 108.972656 229.070312 109.007812 228.617188 108.863281 C 228.164062 108.722656 227.769531 108.394531 227.492188 107.867188 C 227.214844 107.339844 227.039062 106.558594 227.007812 105.601562 C 226.972656 104.503906 227.3125 102.605469 227.335938 101.027344 C 227.339844 100.585938 227.320312 100.167969 227.246094 99.824219 C 227.203125 99.625 227.164062 99.453125 227.050781 99.351562 C 226.882812 99.203125 226.726562 99.328125 226.5625 99.445312 C 226.238281 99.671875 225.914062 100 225.574219 100.328125 C 224.339844 101.511719 222.921875 102.5 221.285156 101.539062 C 219.683594 100.597656 219.40625 99.167969 219.511719 97.703125 C 219.554688 97.121094 219.660156 96.535156 219.726562 95.996094 C 219.773438 95.617188 219.816406 95.269531 219.730469 94.992188 C 219.585938 94.527344 219.226562 94.195312 218.800781 93.882812 C 218.230469 93.464844 217.542969 93.105469 216.867188 92.695312 C 215.234375 91.707031 213.722656 90.457031 213.511719 88.054688 C 213.46875 87.5625 213.828125 87.128906 214.320312 87.085938 C 214.808594 87.042969 215.242188 87.40625 215.285156 87.898438 C 215.472656 90.027344 217.1875 90.820312 218.609375 91.648438 C 219.921875 92.417969 221.046875 93.226562 221.429688 94.460938 C 221.648438 95.167969 221.496094 96.164062 221.355469 97.210938 C 221.222656 98.21875 221.066406 99.339844 222.183594 99.992188 C 222.597656 100.238281 222.964844 100.117188 223.304688 99.90625 C 223.882812 99.542969 224.40625 98.957031 224.914062 98.496094 C 226.035156 97.472656 227.132812 97.039062 228.230469 98.011719 C 228.722656 98.453125 229.019531 99.238281 229.09375 100.226562 C 229.214844 101.898438 228.742188 104.265625 228.785156 105.546875 C 228.808594 106.144531 228.878906 106.648438 229.046875 106.992188 C 229.074219 107.050781 229.125 107.121094 229.148438 107.148438 " fill-opacity="1" fill-rule="evenodd"/></svg>