<svg xmlns="http://www.w3.org/2000/svg" xmlns:xlink="http://www.w3.org/1999/xlink" width="512" zoomAndPan="magnify" viewBox="0 0 384 383.999986" height="512" preserveAspectRatio="xMidYMid meet" version="1.0"><path fill="#f08b1f" d="M 204.4375 56.527344 C 211.703125 52.238281 218.019531 46.253906 222.699219 39.226562 C 225.097656 35.601562 224.113281 30.722656 220.488281 28.3125 C 216.875 25.914062 211.984375 26.898438 209.585938 30.511719 C 206.222656 35.582031 201.675781 39.878906 196.453125 42.972656 C 188.921875 47.398438 184.246094 55.550781 184.234375 64.378906 C 184.234375 77.058594 188.59375 89.46875 196.503906 99.335938 C 199.996094 103.703125 205.179688 106.15625 210.609375 106.15625 C 211.867188 106.15625 213.121094 106.015625 214.386719 105.753906 C 240.066406 100.320312 258.710938 77.308594 258.710938 51.035156 C 258.710938 49.898438 258.671875 48.785156 258.613281 47.679688 C 258.351562 43.332031 254.605469 40.058594 250.289062 40.292969 C 245.953125 40.542969 242.648438 44.265625 242.898438 48.605469 C 242.949219 49.40625 242.96875 50.210938 242.96875 51.035156 C 242.96875 69.917969 229.585938 86.464844 211.132812 90.363281 C 210.257812 90.550781 209.355469 90.210938 208.773438 89.496094 C 203.011719 82.308594 199.96875 73.625 199.96875 64.277344 C 199.96875 61.113281 201.683594 58.140625 204.4375 56.527344 " fill-opacity="1" fill-rule="nonzero"/><path fill="#f08b1f" d="M 299.234375 358.726562 C 288.523438 366.925781 274.789062 370.058594 261.554688 367.320312 C 250.238281 364.980469 234.585938 355.269531 234.585938 343.132812 C 234.585938 325.914062 253.433594 321.367188 263.402344 321.367188 C 277.839844 321.367188 290.820312 328.121094 299.035156 339.917969 C 301.703125 343.753906 304.757812 347.066406 308.101562 349.757812 C 305.640625 353.082031 302.679688 356.105469 299.234375 358.726562 Z M 382.355469 305.441406 C 380.480469 288.253906 371.3125 271.796875 357.195312 260.300781 C 353.550781 257.328125 349.578125 255.121094 345.730469 252.980469 C 335.863281 247.5 332.136719 244.769531 332.136719 237.710938 C 332.136719 229.898438 338.492188 223.542969 346.304688 223.542969 C 350.640625 223.542969 354.164062 220.019531 354.164062 215.683594 C 354.164062 211.335938 350.640625 207.8125 346.304688 207.8125 C 329.816406 207.8125 316.402344 221.226562 316.402344 237.710938 C 316.402344 254.6875 328.933594 261.65625 338.089844 266.738281 C 341.484375 268.625 344.695312 270.410156 347.265625 272.5 C 358.03125 281.273438 365.300781 294.226562 366.703125 307.136719 C 367.730469 316.464844 364.925781 325.703125 359.054688 332.488281 C 353.371094 339.035156 345.328125 342.8125 336.394531 343.113281 C 333.964844 343.203125 331.574219 343.011719 329.234375 342.558594 C 330.78125 337.863281 331.726562 332.953125 332.035156 327.941406 C 333.121094 309.777344 326.152344 292.511719 312.871094 280.28125 C 312.488281 279.757812 312.054688 279.289062 311.5625 278.867188 C 299.9375 269.046875 285.972656 262.136719 271.164062 258.925781 C 264.144531 257.398438 256.976562 257.019531 249.867188 257.8125 C 249.144531 257.890625 248.25 257.941406 247.316406 257.992188 C 262.609375 236.90625 266.0625 209.578125 256.523438 184.878906 C 251.675781 172.339844 247.71875 159.328125 244.738281 146.226562 C 244.40625 144.769531 245.21875 143.855469 245.730469 143.433594 C 246.242188 143.03125 247.289062 142.441406 248.613281 143.0625 C 254.828125 145.972656 261.023438 149.15625 267.015625 152.53125 C 278.492188 158.984375 292.496094 159.425781 304.464844 153.703125 C 307.347656 152.328125 314.855469 148.703125 322.085938 144.980469 C 326.785156 142.558594 330.179688 138.222656 331.402344 133.074219 C 332.617188 127.953125 331.535156 122.570312 328.441406 118.3125 C 322.378906 109.980469 317.699219 103.011719 313.632812 96.246094 C 315.238281 92.8125 316.785156 89.347656 318.25 85.882812 C 322.046875 76.898438 321.28125 66.535156 316.222656 58.171875 C 312.105469 51.367188 306.765625 43.304688 300.339844 34.21875 C 284.273438 11.496094 256.375 0.0390625 229.246094 5.019531 L 228.410156 5.179688 C 200.417969 10.402344 174.085938 22.839844 152.257812 41.132812 C 84.578125 97.851562 45.761719 180.964844 45.761719 269.175781 C 45.761719 290.640625 47.660156 310.652344 51.535156 329.789062 C 29.164062 310.332031 15.863281 281.9375 15.863281 251.867188 C 15.863281 247.519531 12.335938 244.007812 8 244.007812 C 3.652344 244.007812 0.128906 247.519531 0.128906 251.867188 C 0.128906 294.367188 23.171875 333.964844 60.25 355.199219 C 61.464844 355.902344 62.820312 356.246094 64.164062 356.246094 C 65.882812 356.246094 67.597656 355.683594 69.015625 354.566406 C 71.535156 352.589844 72.609375 349.289062 71.726562 346.203125 C 64.835938 322.230469 61.492188 297.027344 61.492188 269.175781 C 61.492188 185.632812 98.261719 106.917969 162.355469 53.191406 C 182.125 36.636719 205.960938 25.371094 231.28125 20.640625 L 232.105469 20.492188 C 253.222656 16.605469 274.957031 25.5625 287.488281 43.304688 C 293.691406 52.089844 298.832031 59.828125 302.757812 66.324219 C 305.21875 70.382812 305.589844 75.402344 303.753906 79.757812 C 301.84375 84.257812 299.796875 88.773438 297.660156 93.183594 C 296.515625 95.53125 296.613281 98.292969 297.910156 100.550781 C 302.757812 108.976562 308.25 117.308594 315.722656 127.570312 C 316.222656 128.273438 316.203125 128.976562 316.09375 129.4375 C 316.003906 129.839844 315.710938 130.5625 314.878906 130.992188 C 307.839844 134.628906 300.5 138.164062 297.679688 139.507812 C 290.320312 143.023438 281.746094 142.761719 274.726562 138.816406 C 268.390625 135.261719 261.867188 131.886719 255.300781 128.816406 C 248.875 125.804688 241.421875 126.707031 235.871094 131.183594 C 230.289062 135.671875 227.820312 142.769531 229.394531 149.707031 C 232.539062 163.554688 236.726562 177.300781 241.835938 190.542969 C 249.457031 210.261719 246.734375 232.027344 234.566406 248.773438 C 232.667969 251.386719 230.820312 254.066406 228.992188 256.746094 C 213.089844 254.246094 196.824219 248.082031 186.894531 236.765625 C 205.550781 230.402344 218.84375 212.691406 218.84375 192.078125 C 218.84375 191.617188 218.84375 191.15625 218.832031 190.703125 C 218.734375 187.238281 216.394531 184.238281 213.050781 183.3125 C 210.488281 182.609375 207.949219 181.757812 205.480469 180.753906 C 198.140625 166.835938 185.902344 156.375 171.203125 151.34375 C 171.3125 147.359375 171.90625 141.175781 172.355469 138.03125 C 172.738281 135.339844 171.726562 132.652344 169.648438 130.894531 C 167.578125 129.148438 164.746094 128.585938 162.167969 129.417969 L 161.773438 129.539062 C 116.453125 144.15625 96.523438 197.53125 92.988281 242.601562 C 89.765625 283.65625 92.777344 323.90625 101.695312 359.871094 C 99.996094 359.226562 98.351562 358.445312 96.773438 357.519531 C 93.03125 355.332031 88.210938 356.597656 86.011719 360.339844 C 83.824219 364.097656 85.078125 368.914062 88.832031 371.105469 C 95.960938 375.28125 104.105469 377.570312 112.386719 377.742188 C 114.886719 377.742188 117.289062 376.648438 118.804688 374.660156 C 120.328125 372.660156 120.8125 370.058594 120.097656 367.660156 C 109.183594 330.53125 105.238281 287.710938 108.671875 243.824219 C 111.484375 208.003906 125.320312 166.476562 155.417969 149.425781 C 155.058594 160.613281 157.730469 163.867188 162.417969 165.140625 C 175.769531 168.523438 186.765625 177.640625 192.589844 190.160156 C 193.382812 191.867188 194.757812 193.242188 196.484375 194.015625 C 198.542969 194.949219 200.652344 195.804688 202.789062 196.566406 C 200.699219 211.144531 188.582031 222.621094 173.492188 223.492188 C 170.882812 223.644531 168.511719 225.089844 167.175781 227.347656 C 165.839844 229.597656 165.722656 232.378906 166.855469 234.738281 C 178.300781 258.695312 206.050781 269.910156 231.34375 272.953125 C 231.492188 272.980469 231.644531 272.980469 231.804688 273.003906 C 235.117188 273.382812 238.390625 273.644531 241.574219 273.765625 C 244.835938 273.886719 248.773438 273.753906 251.59375 273.445312 C 257.015625 272.851562 262.46875 273.132812 267.820312 274.296875 C 279.597656 276.855469 290.742188 282.230469 300.148438 289.847656 C 300.460938 290.25 300.8125 290.613281 301.203125 290.953125 C 311.644531 300.011719 317.15625 313.152344 316.324219 326.988281 C 316.164062 329.679688 315.761719 332.308594 315.117188 334.859375 C 314.003906 333.675781 312.941406 332.359375 311.945312 330.921875 C 300.75 314.847656 283.058594 305.632812 263.402344 305.632812 C 241.261719 305.632812 218.84375 318.515625 218.84375 343.132812 C 218.84375 349.097656 220.621094 354.609375 223.5625 359.539062 C 219.617188 361.164062 215.347656 362.019531 210.980469 362.019531 C 207.296875 362.019531 203.683594 361.414062 200.238281 360.230469 C 196.132812 358.824219 191.65625 361.015625 190.25 365.121094 C 188.832031 369.226562 191.023438 373.703125 195.128906 375.121094 C 200.21875 376.867188 205.550781 377.75 210.980469 377.75 C 219.304688 377.75 227.316406 375.640625 234.484375 371.675781 C 241.492188 377.148438 250.039062 381.003906 258.363281 382.730469 C 262.558594 383.59375 266.796875 384.027344 271.011719 384.027344 C 284.566406 384.027344 297.859375 379.597656 308.804688 371.226562 C 314.074219 367.1875 318.574219 362.378906 322.167969 357.019531 C 326.9375 358.402344 331.875 359.015625 336.925781 358.835938 C 350.277344 358.382812 362.367188 352.691406 370.941406 342.800781 C 379.675781 332.710938 383.832031 319.097656 382.355469 305.441406 " fill-opacity="1" fill-rule="nonzero"/></svg>