<svg xmlns="http://www.w3.org/2000/svg" xmlns:xlink="http://www.w3.org/1999/xlink" width="512" zoomAndPan="magnify" viewBox="0 0 384 383.999986" height="512" preserveAspectRatio="xMidYMid meet" version="1.0"><path fill="#d9f2f6" d="M 192 383.992188 C 85.964844 383.992188 0.00390625 298.035156 0.00390625 192 C 0.00390625 142.515625 18.730469 97.402344 49.476562 63.355469 C 52.015625 66.507812 55.4375 69.53125 59.648438 72.402344 C 31.042969 104.039062 13.617188 145.988281 13.617188 192 C 13.617188 290.515625 93.484375 370.378906 192 370.378906 C 290.515625 370.378906 370.378906 290.515625 370.378906 192 C 370.378906 145.988281 352.957031 104.039062 324.347656 72.402344 C 328.558594 69.53125 331.980469 66.5 334.519531 63.355469 C 365.269531 97.398438 383.992188 142.515625 383.992188 192 C 383.992188 298.035156 298.03125 383.992188 192 383.992188 " fill-opacity="1" fill-rule="nonzero"/><path fill="#c6ecf2" d="M 192 370.378906 C 93.484375 370.378906 13.617188 290.515625 13.617188 192 C 13.617188 145.988281 31.042969 104.039062 59.648438 72.402344 C 83.835938 88.886719 134.019531 100.214844 192 100.214844 C 249.980469 100.214844 300.160156 88.886719 324.347656 72.402344 C 352.957031 104.039062 370.378906 145.988281 370.378906 192 C 370.378906 290.515625 290.515625 370.378906 192 370.378906 M 198.722656 276.246094 C 191.753906 276.246094 186.101562 281.898438 186.101562 288.871094 C 186.101562 295.84375 191.753906 301.496094 198.722656 301.496094 C 205.695312 301.496094 211.347656 295.84375 211.347656 288.871094 C 211.347656 281.898438 205.695312 276.246094 198.722656 276.246094 M 88.90625 239.503906 C 83.769531 239.503906 79.605469 243.667969 79.605469 248.804688 C 79.605469 253.9375 83.769531 258.101562 88.90625 258.101562 C 94.039062 258.101562 98.199219 253.9375 98.199219 248.804688 C 98.199219 243.667969 94.039062 239.503906 88.90625 239.503906 M 183.339844 233.453125 C 185.542969 236.09375 187.832031 238.421875 190.21875 240.460938 C 190.648438 240.816406 191.082031 241.175781 191.515625 241.523438 C 193.628906 243.226562 195.796875 244.699219 198 245.984375 C 198.585938 246.316406 199.167969 246.644531 199.765625 246.949219 C 200.023438 247.085938 200.269531 247.222656 200.519531 247.347656 C 201.5625 247.878906 202.601562 248.347656 203.652344 248.804688 L 203.671875 248.808594 C 204.722656 249.257812 205.789062 249.664062 206.855469 250.035156 C 207.582031 250.289062 208.320312 250.519531 209.054688 250.738281 C 209.476562 250.871094 209.886719 250.988281 210.308594 251.097656 C 211.195312 251.34375 212.089844 251.570312 213 251.765625 L 213.011719 251.769531 C 214.996094 252.210938 216.988281 252.546875 218.972656 252.765625 C 219.332031 252.808594 219.6875 252.84375 220.046875 252.882812 C 222.195312 253.09375 224.339844 253.1875 226.464844 253.1875 C 227.789062 253.1875 229.101562 253.148438 230.402344 253.082031 L 231.691406 253.007812 C 233.789062 252.855469 235.84375 252.625 237.855469 252.328125 L 237.875 252.324219 C 238.648438 252.210938 239.398438 252.09375 240.15625 251.964844 C 241.644531 251.707031 243.089844 251.410156 244.507812 251.09375 L 244.515625 251.097656 C 247.765625 250.371094 250.816406 249.519531 253.621094 248.605469 C 254.132812 248.449219 254.617188 248.289062 255.105469 248.125 C 264.296875 245.019531 270.511719 241.589844 271.183594 241.210938 L 271.230469 241.226562 L 271.214844 241.183594 L 271.246094 241.167969 L 271.203125 241.152344 C 269.390625 234.480469 267.246094 228.574219 264.84375 223.363281 C 264.558594 222.738281 264.261719 222.121094 263.96875 221.511719 C 262.375 218.253906 260.683594 215.285156 258.890625 212.566406 C 258.21875 211.535156 257.519531 210.546875 256.816406 209.59375 C 256.3125 208.902344 255.800781 208.21875 255.277344 207.574219 L 255.269531 207.558594 C 255.136719 207.414062 255.027344 207.269531 254.90625 207.128906 C 253.578125 205.476562 252.203125 203.957031 250.796875 202.546875 C 250.425781 202.171875 250.042969 201.8125 249.660156 201.457031 C 247.167969 199.085938 244.589844 197.070312 241.929688 195.363281 C 241.429688 195.03125 240.9375 194.726562 240.429688 194.425781 L 240.417969 194.421875 C 237.683594 192.789062 234.882812 191.460938 232.050781 190.402344 C 231.160156 190.070312 230.265625 189.757812 229.367188 189.484375 L 229.351562 189.480469 C 227.273438 188.828125 225.183594 188.316406 223.089844 187.933594 C 222.632812 187.832031 222.171875 187.761719 221.730469 187.679688 C 218.859375 187.210938 216.003906 186.960938 213.183594 186.882812 C 212.769531 186.878906 212.355469 186.867188 211.945312 186.859375 C 211.910156 186.859375 211.878906 186.859375 211.84375 186.859375 C 211.664062 186.855469 211.488281 186.855469 211.3125 186.855469 C 211.308594 186.855469 211.308594 186.855469 211.304688 186.855469 C 206.613281 186.855469 202.03125 187.332031 197.691406 188.085938 C 197.679688 188.085938 197.671875 188.085938 197.660156 188.089844 C 197.648438 188.089844 197.632812 188.09375 197.617188 188.097656 C 197.585938 188.101562 197.558594 188.105469 197.527344 188.113281 C 180.6875 191.0625 167.628906 198.277344 166.644531 198.828125 L 166.585938 198.8125 L 166.597656 198.847656 L 166.5625 198.863281 L 166.609375 198.878906 C 170.753906 214.078125 176.5625 225.289062 183.339844 233.453125 M 62.394531 166.382812 C 54.050781 166.382812 47.285156 173.148438 47.285156 181.496094 C 47.285156 189.839844 54.050781 196.609375 62.394531 196.609375 C 70.746094 196.609375 77.503906 189.839844 77.503906 181.496094 C 77.503906 173.148438 70.746094 166.382812 62.394531 166.382812 M 171.492188 177.746094 C 167.566406 177.746094 164.375 180.933594 164.375 184.863281 C 164.375 188.796875 167.566406 191.980469 171.492188 191.980469 C 175.429688 191.980469 178.613281 188.796875 178.613281 184.863281 C 178.613281 180.933594 175.429688 177.746094 171.492188 177.746094 M 318.761719 164.585938 C 313.386719 164.585938 309.03125 168.945312 309.03125 174.316406 C 309.03125 179.6875 313.386719 184.042969 318.761719 184.042969 C 324.132812 184.042969 328.484375 179.6875 328.484375 174.316406 C 328.484375 168.945312 324.132812 164.585938 318.761719 164.585938 M 161.257812 167.710938 C 159.277344 167.710938 157.667969 169.316406 157.667969 171.296875 C 157.667969 173.277344 159.277344 174.886719 161.257812 174.886719 C 163.238281 174.886719 164.84375 173.277344 164.84375 171.296875 C 164.84375 169.316406 163.238281 167.710938 161.257812 167.710938 M 172.589844 158.464844 C 169.460938 158.464844 166.925781 160.996094 166.925781 164.125 C 166.925781 167.246094 169.460938 169.78125 172.589844 169.78125 C 175.710938 169.78125 178.246094 167.246094 178.246094 164.125 C 178.246094 160.996094 175.710938 158.464844 172.589844 158.464844 M 184.695312 115.722656 C 97.75 115.722656 27.960938 115.871094 27.960938 126.53125 C 27.960938 137.496094 101.230469 146.386719 191.621094 146.386719 C 282.007812 146.386719 355.285156 137.496094 355.285156 126.53125 C 355.285156 115.871094 286.53125 115.722656 199.632812 115.722656 C 197.15625 115.722656 194.660156 115.722656 192.164062 115.722656 C 189.65625 115.722656 187.171875 115.722656 184.695312 115.722656 " fill-opacity="1" fill-rule="nonzero"/><path fill="#78d3eb" d="M 339.738281 50.113281 C 339.738281 77.785156 273.59375 100.214844 192 100.214844 C 110.40625 100.214844 44.257812 77.785156 44.257812 50.113281 C 44.257812 22.4375 110.40625 0.00390625 192 0.00390625 C 273.59375 0.00390625 339.738281 22.4375 339.738281 50.113281 " fill-opacity="1" fill-rule="nonzero"/><path fill="#a9e3ed" d="M 192 70.96875 C 121.988281 70.96875 70.609375 59.085938 70.609375 43.25 C 70.609375 27.414062 121.988281 13.621094 192 13.621094 C 262.007812 13.621094 315.035156 28.773438 315.035156 44.609375 C 315.035156 60.445312 262.007812 70.96875 192 70.96875 " fill-opacity="1" fill-rule="nonzero"/><path fill="#f9b241" d="M 146.484375 345.730469 C 150.894531 345.734375 156.144531 345.179688 155.183594 350.960938 C 154.355469 355.921875 150.167969 358.652344 145.300781 358.765625 C 141.832031 358.84375 137.667969 355.878906 137.28125 352.273438 C 136.699219 346.9375 142.421875 345.726562 146.484375 345.730469 " fill-opacity="1" fill-rule="nonzero"/><path fill="#d83d41" d="M 166.886719 349.511719 C 171.726562 351.933594 172.101562 358.855469 167.074219 361.054688 C 163.75 362.507812 156.101562 361.96875 152.71875 360.300781 C 147.515625 357.726562 146.59375 350.449219 152.355469 348.648438 C 156.386719 347.390625 163.0625 347.605469 166.886719 349.511719 " fill-opacity="1" fill-rule="nonzero"/><path fill="#6bbbb9" d="M 160.625 339.0625 C 163.9375 339.695312 170.464844 342.832031 167.453125 347.414062 C 165.054688 351.066406 153.328125 352.066406 151.324219 347.417969 C 148.96875 341.925781 156.265625 338.226562 160.625 339.0625 " fill-opacity="1" fill-rule="nonzero"/><path fill="#f9b241" d="M 175.6875 352.605469 C 180.019531 351.753906 185.0625 350.199219 185.234375 356.058594 C 185.382812 361.082031 181.804688 364.574219 177.046875 365.625 C 173.65625 366.367188 169 364.265625 167.925781 360.800781 C 166.320312 355.675781 171.699219 353.382812 175.6875 352.605469 " fill-opacity="1" fill-rule="nonzero"/><path fill="#f9b241" d="M 287.539062 315.628906 C 291.871094 314.777344 296.910156 313.222656 297.085938 319.078125 C 297.230469 324.109375 293.648438 327.59375 288.894531 328.648438 C 285.507812 329.394531 280.851562 327.289062 279.773438 323.824219 C 278.167969 318.699219 283.550781 316.40625 287.539062 315.628906 " fill-opacity="1" fill-rule="nonzero"/><path fill="#d83d41" d="M 197.820312 352.089844 C 203.039062 353.527344 204.742188 360.25 200.230469 363.378906 C 197.257812 365.449219 189.648438 366.394531 186.003906 365.40625 C 180.402344 363.886719 178.089844 356.929688 183.402344 354.046875 C 187.109375 352.035156 193.703125 350.957031 197.820312 352.089844 " fill-opacity="1" fill-rule="nonzero"/><path fill="#6bbbb9" d="M 190.042969 344.652344 C 193.414062 344.636719 200.421875 346.453125 198.351562 351.527344 C 196.703125 355.578125 185.394531 358.820312 182.527344 354.648438 C 179.148438 349.714844 185.601562 344.675781 190.042969 344.652344 " fill-opacity="1" fill-rule="nonzero"/><path fill="#6bbbb9" d="M 318.648438 303.902344 C 322.015625 303.882812 329.023438 305.703125 326.957031 310.777344 C 325.308594 314.824219 313.996094 318.070312 311.136719 313.894531 C 307.757812 308.964844 314.203125 303.925781 318.648438 303.902344 " fill-opacity="1" fill-rule="nonzero"/><path fill="#f9b241" d="M 182.921875 332.261719 C 178.503906 332.261719 173.257812 331.710938 174.21875 337.488281 C 175.046875 342.453125 179.230469 345.183594 184.109375 345.296875 C 187.570312 345.375 191.730469 342.410156 192.128906 338.804688 C 192.703125 333.46875 186.980469 332.257812 182.921875 332.261719 " fill-opacity="1" fill-rule="nonzero"/><path fill="#d83d41" d="M 166.769531 342.054688 C 161.925781 344.476562 161.550781 351.398438 166.582031 353.597656 C 169.902344 355.046875 177.550781 354.507812 180.933594 352.835938 C 186.136719 350.265625 187.0625 342.988281 181.296875 341.1875 C 177.265625 339.933594 170.589844 340.148438 166.769531 342.054688 " fill-opacity="1" fill-rule="nonzero"/><path fill="#63b9ba" d="M 169.011719 329.957031 C 165.699219 330.589844 159.175781 333.726562 162.1875 338.308594 C 164.582031 341.960938 176.3125 342.964844 178.316406 338.316406 C 180.671875 332.820312 173.375 329.121094 169.011719 329.957031 " fill-opacity="1" fill-rule="nonzero"/><path fill="#f9b241" d="M 129.523438 333.886719 C 133.941406 333.890625 139.1875 333.339844 138.222656 339.121094 C 137.398438 344.082031 133.214844 346.816406 128.339844 346.925781 C 124.875 347 120.714844 344.039062 120.320312 340.429688 C 119.742188 335.09375 125.460938 333.886719 129.523438 333.886719 " fill-opacity="1" fill-rule="nonzero"/><path fill="#d83d41" d="M 237.929688 324.476562 C 242.769531 326.894531 243.140625 333.816406 238.117188 336.015625 C 234.796875 337.472656 227.144531 336.929688 223.761719 335.257812 C 218.558594 332.683594 217.636719 325.410156 223.398438 323.609375 C 227.429688 322.351562 234.105469 322.566406 237.929688 324.476562 " fill-opacity="1" fill-rule="nonzero"/><path fill="#d83d41" d="M 228.898438 343.714844 C 233.738281 346.136719 234.113281 353.058594 229.089844 355.257812 C 225.761719 356.710938 218.113281 356.167969 214.730469 354.496094 C 209.527344 351.925781 208.597656 344.648438 214.367188 342.851562 C 218.398438 341.59375 225.078125 341.808594 228.898438 343.714844 " fill-opacity="1" fill-rule="nonzero"/><path fill="#6bbbb9" d="M 118.355469 338.929688 C 121.664062 339.5625 128.191406 342.703125 125.183594 347.28125 C 122.785156 350.9375 111.058594 351.9375 109.054688 347.285156 C 106.695312 341.796875 113.992188 338.097656 118.355469 338.929688 " fill-opacity="1" fill-rule="nonzero"/><path fill="#60b3b3" d="M 203.917969 343.398438 C 207.226562 344.035156 213.75 347.171875 210.742188 351.75 C 208.34375 355.40625 196.617188 356.40625 194.617188 351.757812 C 192.253906 346.265625 199.554688 342.566406 203.917969 343.398438 " fill-opacity="1" fill-rule="nonzero"/><path fill="#f9b241" d="M 223.269531 332.609375 C 227.597656 331.757812 232.640625 330.203125 232.816406 336.0625 C 232.964844 341.089844 229.382812 344.578125 224.625 345.632812 C 221.238281 346.375 216.582031 344.269531 215.496094 340.804688 C 213.902344 335.679688 219.28125 333.390625 223.269531 332.609375 " fill-opacity="1" fill-rule="nonzero"/><path fill="#f8a041" d="M 196.082031 334.234375 C 200.414062 333.386719 205.457031 331.832031 205.628906 337.6875 C 205.777344 342.714844 202.195312 346.203125 197.4375 347.253906 C 194.050781 348 189.398438 345.898438 188.316406 342.433594 C 186.714844 337.3125 192.09375 335.015625 196.082031 334.234375 " fill-opacity="1" fill-rule="nonzero"/><path fill="#d83d41" d="M 214.164062 323.214844 C 219.382812 324.652344 221.089844 331.375 216.582031 334.503906 C 213.601562 336.570312 205.992188 337.515625 202.347656 336.53125 C 196.75 335.011719 194.4375 328.050781 199.746094 325.171875 C 203.457031 323.160156 210.046875 322.082031 214.164062 323.214844 " fill-opacity="1" fill-rule="nonzero"/><path fill="#d83d41" d="M 311.464844 310.332031 C 316.679688 311.773438 318.386719 318.492188 313.878906 321.625 C 310.898438 323.6875 303.292969 324.636719 299.648438 323.648438 C 294.046875 322.128906 291.730469 315.167969 297.042969 312.292969 C 300.753906 310.277344 307.347656 309.195312 311.464844 310.332031 " fill-opacity="1" fill-rule="nonzero"/><path fill="#d83d41" d="M 94.765625 310.332031 C 99.980469 311.773438 101.679688 318.492188 97.171875 321.625 C 94.195312 323.6875 86.585938 324.636719 82.941406 323.648438 C 77.34375 322.128906 75.027344 315.167969 80.335938 312.292969 C 84.046875 310.277344 90.640625 309.195312 94.765625 310.332031 " fill-opacity="1" fill-rule="nonzero"/><path fill="#64aeac" d="M 237.785156 346.273438 C 241.148438 346.257812 248.15625 348.074219 246.09375 353.148438 C 244.449219 357.195312 233.136719 360.441406 230.273438 356.269531 C 226.894531 351.332031 233.339844 346.296875 237.785156 346.273438 " fill-opacity="1" fill-rule="nonzero"/><path fill="#6bbbb9" d="M 207.847656 351.632812 C 211.222656 351.613281 218.226562 353.433594 216.15625 358.503906 C 214.515625 362.554688 203.203125 365.800781 200.339844 361.625 C 196.964844 356.691406 203.410156 351.652344 207.847656 351.632812 " fill-opacity="1" fill-rule="nonzero"/><path fill="#6bbbb9" d="M 65.121094 300.535156 C 68.492188 300.515625 75.496094 302.335938 73.433594 307.410156 C 71.789062 311.460938 60.476562 314.703125 57.609375 310.527344 C 54.234375 305.597656 60.679688 300.558594 65.121094 300.535156 " fill-opacity="1" fill-rule="nonzero"/><path fill="#f9b241" d="M 221.34375 352.136719 C 216.929688 352.140625 211.679688 351.589844 212.644531 357.371094 C 213.472656 362.328125 217.65625 365.0625 222.527344 365.171875 C 225.996094 365.253906 230.15625 362.289062 230.550781 358.679688 C 231.132812 353.34375 225.40625 352.136719 221.34375 352.136719 " fill-opacity="1" fill-rule="nonzero"/><path fill="#c8383b" d="M 230.558594 336.246094 C 225.71875 338.660156 225.34375 345.589844 230.371094 347.785156 C 233.695312 349.238281 241.339844 348.699219 244.726562 347.023438 C 249.925781 344.453125 250.855469 337.175781 245.089844 335.378906 C 241.058594 334.121094 234.378906 334.332031 230.558594 336.246094 " fill-opacity="1" fill-rule="nonzero"/><path fill="#68bbb9" d="M 249.320312 341.726562 C 246.011719 342.355469 239.484375 345.492188 242.496094 350.074219 C 244.894531 353.730469 256.621094 354.730469 258.625 350.082031 C 260.980469 344.589844 253.683594 340.890625 249.320312 341.726562 " fill-opacity="1" fill-rule="nonzero"/><path fill="#6bbbb9" d="M 210.4375 335.929688 C 207.125 336.558594 200.601562 339.699219 203.609375 344.277344 C 206.003906 347.933594 217.730469 348.933594 219.730469 344.285156 C 222.097656 338.792969 214.796875 335.09375 210.4375 335.929688 " fill-opacity="1" fill-rule="nonzero"/><path fill="#f9b241" d="M 285.332031 327.171875 C 289.75 327.175781 294.996094 326.628906 294.035156 332.40625 C 293.207031 337.363281 289.023438 340.097656 284.148438 340.207031 C 280.679688 340.289062 276.523438 337.324219 276.132812 333.714844 C 275.546875 328.378906 281.273438 327.167969 285.332031 327.171875 " fill-opacity="1" fill-rule="nonzero"/><path fill="#d83d41" d="M 138.753906 346.265625 C 143.597656 348.683594 143.96875 355.609375 138.941406 357.808594 C 135.621094 359.261719 127.972656 358.722656 124.589844 357.046875 C 119.386719 354.476562 118.460938 347.199219 124.226562 345.402344 C 128.253906 344.144531 134.9375 344.355469 138.753906 346.265625 " fill-opacity="1" fill-rule="nonzero"/><path fill="#6bbbb9" d="M 263.683594 329.957031 C 266.996094 330.589844 273.515625 333.726562 270.507812 338.308594 C 268.113281 341.960938 256.382812 342.964844 254.382812 338.316406 C 252.019531 332.820312 259.316406 329.121094 263.683594 329.957031 " fill-opacity="1" fill-rule="nonzero"/><path fill="#f9b241" d="M 87.8125 320.996094 C 92.144531 320.148438 97.183594 318.59375 97.355469 324.449219 C 97.503906 329.476562 93.925781 332.96875 89.164062 334.015625 C 85.78125 334.761719 81.128906 332.65625 80.046875 329.191406 C 78.445312 324.070312 83.824219 321.78125 87.8125 320.996094 " fill-opacity="1" fill-rule="nonzero"/><path fill="#d83d41" d="M 107.613281 329.453125 C 111.914062 332.742188 110.980469 339.609375 105.628906 340.820312 C 102.09375 341.628906 94.679688 339.65625 91.671875 337.378906 C 87.046875 333.871094 87.503906 326.554688 93.507812 325.871094 C 97.703125 325.390625 104.21875 326.859375 107.613281 329.453125 " fill-opacity="1" fill-rule="nonzero"/><path fill="#6bbbb9" d="M 139.726562 335.640625 C 143.097656 335.621094 150.105469 337.4375 148.035156 342.511719 C 146.390625 346.5625 135.078125 349.808594 132.210938 345.632812 C 128.832031 340.699219 135.289062 335.660156 139.726562 335.640625 " fill-opacity="1" fill-rule="nonzero"/><path fill="#f9b241" d="M 259.898438 323.324219 C 255.480469 323.328125 250.238281 322.78125 251.199219 328.558594 C 252.023438 333.519531 256.210938 336.253906 261.085938 336.363281 C 264.550781 336.441406 268.710938 333.480469 269.105469 329.867188 C 269.683594 324.53125 263.964844 323.324219 259.898438 323.324219 " fill-opacity="1" fill-rule="nonzero"/><path fill="#d83d41" d="M 131 326.402344 C 126.160156 328.820312 125.789062 335.746094 130.816406 337.945312 C 134.140625 339.398438 141.789062 338.855469 145.167969 337.183594 C 150.367188 334.613281 151.296875 327.335938 145.527344 325.539062 C 141.492188 324.28125 134.820312 324.492188 131 326.402344 " fill-opacity="1" fill-rule="nonzero"/><path fill="#6bbbb9" d="M 156.011719 326.085938 C 152.699219 326.71875 146.171875 329.855469 149.179688 334.4375 C 151.582031 338.09375 163.308594 339.09375 165.3125 334.445312 C 167.667969 328.953125 160.371094 325.253906 156.011719 326.085938 " fill-opacity="1" fill-rule="nonzero"/><path fill="#f9b241" d="M 152.59375 334.539062 C 156.796875 335.894531 161.960938 336.980469 159.273438 342.183594 C 156.96875 346.652344 152.148438 347.976562 147.472656 346.589844 C 144.148438 345.605469 141.097656 341.507812 141.824219 337.953125 C 142.90625 332.695312 148.726562 333.296875 152.59375 334.539062 " fill-opacity="1" fill-rule="nonzero"/><path fill="#f9b241" d="M 81.476562 300.648438 C 85.679688 302 90.847656 303.085938 88.160156 308.292969 C 85.859375 312.761719 81.035156 314.082031 76.363281 312.691406 C 73.039062 311.707031 69.984375 307.613281 70.71875 304.058594 C 71.800781 298.804688 77.613281 299.402344 81.476562 300.648438 " fill-opacity="1" fill-rule="nonzero"/><path fill="#ca393c" d="M 126.800781 326.882812 C 131.640625 329.304688 132.011719 336.226562 126.984375 338.425781 C 123.660156 339.875 116.015625 339.335938 112.632812 337.664062 C 107.433594 335.09375 106.503906 327.816406 112.273438 326.019531 C 116.300781 324.761719 122.980469 324.972656 126.800781 326.882812 " fill-opacity="1" fill-rule="nonzero"/><path fill="#d83d41" d="M 283.429688 322.496094 C 288.269531 324.917969 288.644531 331.839844 283.613281 334.039062 C 280.296875 335.492188 272.648438 334.953125 269.265625 333.28125 C 264.0625 330.707031 263.136719 323.433594 268.902344 321.632812 C 272.929688 320.375 279.609375 320.589844 283.429688 322.496094 " fill-opacity="1" fill-rule="nonzero"/><path fill="#6bbbb9" d="M 296.238281 321.816406 C 299.601562 321.570312 306.714844 322.902344 305.003906 328.105469 C 303.640625 332.257812 292.574219 336.277344 289.433594 332.308594 C 285.722656 327.621094 291.808594 322.148438 296.238281 321.816406 " fill-opacity="1" fill-rule="nonzero"/><path fill="#f9b241" d="M 70.460938 309.585938 C 74.789062 308.734375 79.824219 307.179688 80 313.039062 C 80.148438 318.0625 76.570312 321.554688 71.8125 322.605469 C 68.425781 323.347656 63.769531 321.246094 62.6875 317.78125 C 61.085938 312.660156 66.472656 310.363281 70.460938 309.585938 " fill-opacity="1" fill-rule="nonzero"/><path fill="#f9b241" d="M 107.492188 332.78125 C 111.824219 331.933594 116.871094 330.378906 117.042969 336.234375 C 117.1875 341.261719 113.609375 344.75 108.851562 345.804688 C 105.46875 346.546875 100.8125 344.445312 99.730469 340.980469 C 98.128906 335.855469 103.507812 333.5625 107.492188 332.78125 " fill-opacity="1" fill-rule="nonzero"/><path fill="#ce3a3d" d="M 276.644531 333.082031 C 281.988281 333.886719 284.496094 340.351562 280.390625 343.996094 C 277.679688 346.40625 270.242188 348.261719 266.507812 347.71875 C 260.765625 346.878906 257.636719 340.25 262.558594 336.753906 C 266.003906 334.3125 272.417969 332.449219 276.644531 333.082031 " fill-opacity="1" fill-rule="nonzero"/><path fill="#6bbbb9" d="M 104.3125 321.1875 C 107.679688 321.171875 114.683594 322.988281 112.617188 328.066406 C 110.976562 332.113281 99.660156 335.355469 96.796875 331.183594 C 93.421875 326.253906 99.867188 321.210938 104.3125 321.1875 " fill-opacity="1" fill-rule="nonzero"/><path fill="#6bbbb9" d="M 246.683594 320 C 250.054688 320.175781 256.945312 322.386719 254.59375 327.335938 C 252.71875 331.289062 241.242188 333.882812 238.621094 329.554688 C 235.527344 324.4375 242.25 319.773438 246.683594 320 " fill-opacity="1" fill-rule="nonzero"/><path fill="#f9b241" d="M 259.957031 338.097656 C 255.542969 338.105469 250.296875 337.550781 251.257812 343.328125 C 252.082031 348.292969 256.265625 351.023438 261.140625 351.136719 C 264.605469 351.210938 268.765625 348.25 269.15625 344.640625 C 269.738281 339.308594 264.019531 338.097656 259.957031 338.097656 " fill-opacity="1" fill-rule="nonzero"/><path fill="#d83d41" d="M 241.695312 329.226562 C 236.855469 331.644531 236.480469 338.570312 241.507812 340.769531 C 244.828125 342.21875 252.480469 341.679688 255.863281 340.003906 C 261.058594 337.4375 261.988281 330.15625 256.222656 328.359375 C 252.191406 327.101562 245.511719 327.316406 241.695312 329.226562 " fill-opacity="1" fill-rule="nonzero"/><path fill="#6bbbb9" d="M 78.800781 317.074219 C 75.484375 317.707031 68.96875 320.84375 71.976562 325.425781 C 74.371094 329.082031 86.101562 330.078125 88.101562 325.429688 C 90.464844 319.9375 83.164062 316.242188 78.800781 317.074219 " fill-opacity="1" fill-rule="nonzero"/><path fill="#c8ecf4" d="M 62.394531 196.609375 C 54.050781 196.609375 47.285156 189.839844 47.285156 181.496094 C 47.285156 173.148438 54.050781 166.382812 62.394531 166.382812 C 70.746094 166.382812 77.503906 173.148438 77.503906 181.496094 C 77.503906 189.839844 70.746094 196.609375 62.394531 196.609375 M 62.394531 168.785156 C 55.375 168.785156 49.6875 174.476562 49.6875 181.496094 C 49.6875 188.515625 55.375 194.207031 62.394531 194.207031 C 69.417969 194.207031 75.109375 188.515625 75.109375 181.496094 C 75.109375 176.527344 72.261719 172.230469 68.109375 170.140625 C 67.722656 169.921875 67.316406 169.742188 66.890625 169.601562 C 65.492188 169.074219 63.980469 168.785156 62.394531 168.785156 " fill-opacity="1" fill-rule="nonzero"/><path fill="#caecf6" d="M 62.394531 194.207031 C 55.375 194.207031 49.6875 188.515625 49.6875 181.496094 C 49.6875 174.476562 55.375 168.785156 62.394531 168.785156 C 63.980469 168.785156 65.492188 169.074219 66.890625 169.601562 C 66.203125 169.375 65.476562 169.253906 64.714844 169.253906 C 60.871094 169.253906 57.757812 172.371094 57.757812 176.214844 C 57.757812 180.058594 60.871094 183.171875 64.714844 183.171875 C 68.558594 183.171875 71.675781 180.058594 71.675781 176.214844 C 71.675781 173.605469 70.238281 171.328125 68.109375 170.140625 C 72.261719 172.230469 75.109375 176.527344 75.109375 181.496094 C 75.109375 188.515625 69.417969 194.207031 62.394531 194.207031 " fill-opacity="1" fill-rule="nonzero"/><path fill="#e2f5f9" d="M 68.109375 170.140625 C 67.714844 169.941406 67.308594 169.761719 66.890625 169.601562 C 67.316406 169.742188 67.722656 169.921875 68.109375 170.140625 " fill-opacity="1" fill-rule="nonzero"/><path fill="#e3f5fa" d="M 64.714844 183.171875 C 60.871094 183.171875 57.757812 180.058594 57.757812 176.214844 C 57.757812 172.371094 60.871094 169.253906 64.714844 169.253906 C 65.476562 169.253906 66.203125 169.375 66.890625 169.601562 C 67.308594 169.761719 67.714844 169.941406 68.109375 170.140625 C 70.238281 171.328125 71.675781 173.605469 71.675781 176.214844 C 71.675781 180.058594 68.558594 183.171875 64.714844 183.171875 " fill-opacity="1" fill-rule="nonzero"/><path fill="#c8ecf4" d="M 318.761719 184.042969 C 313.386719 184.042969 309.03125 179.6875 309.03125 174.316406 C 309.03125 168.945312 313.386719 164.585938 318.761719 164.585938 C 324.132812 164.585938 328.484375 168.945312 328.484375 174.316406 C 328.484375 179.6875 324.132812 184.042969 318.761719 184.042969 M 318.761719 166.132812 C 314.238281 166.132812 310.578125 169.796875 310.578125 174.316406 C 310.578125 178.835938 314.238281 182.496094 318.761719 182.496094 C 323.28125 182.496094 326.941406 178.835938 326.941406 174.316406 C 326.941406 171.117188 325.109375 168.34375 322.433594 167 C 322.1875 166.859375 321.929688 166.75 321.65625 166.65625 C 320.757812 166.316406 319.78125 166.132812 318.761719 166.132812 " fill-opacity="1" fill-rule="nonzero"/><path fill="#caecf6" d="M 318.761719 182.496094 C 314.238281 182.496094 310.578125 178.835938 310.578125 174.316406 C 310.578125 169.796875 314.238281 166.132812 318.761719 166.132812 C 319.78125 166.132812 320.757812 166.316406 321.65625 166.65625 C 321.214844 166.511719 320.742188 166.433594 320.25 166.433594 C 317.773438 166.433594 315.773438 168.441406 315.773438 170.914062 C 315.773438 173.390625 317.773438 175.394531 320.25 175.394531 C 322.726562 175.394531 324.734375 173.390625 324.734375 170.914062 C 324.734375 169.234375 323.808594 167.765625 322.433594 167 C 325.109375 168.34375 326.941406 171.117188 326.941406 174.316406 C 326.941406 178.835938 323.28125 182.496094 318.761719 182.496094 " fill-opacity="1" fill-rule="nonzero"/><path fill="#e2f5f9" d="M 322.433594 167 C 322.179688 166.871094 321.921875 166.757812 321.65625 166.65625 C 321.929688 166.75 322.1875 166.859375 322.433594 167 " fill-opacity="1" fill-rule="nonzero"/><path fill="#e3f5fa" d="M 320.25 175.394531 C 317.773438 175.394531 315.773438 173.390625 315.773438 170.914062 C 315.773438 168.441406 317.773438 166.433594 320.25 166.433594 C 320.742188 166.433594 321.214844 166.511719 321.65625 166.65625 C 321.921875 166.757812 322.179688 166.871094 322.433594 167 C 323.808594 167.765625 324.734375 169.234375 324.734375 170.914062 C 324.734375 173.390625 322.726562 175.394531 320.25 175.394531 " fill-opacity="1" fill-rule="nonzero"/><path fill="#c8ecf4" d="M 198.722656 301.496094 C 191.753906 301.496094 186.101562 295.84375 186.101562 288.871094 C 186.101562 281.898438 191.753906 276.246094 198.722656 276.246094 C 205.695312 276.246094 211.347656 281.898438 211.347656 288.871094 C 211.347656 295.84375 205.695312 301.496094 198.722656 301.496094 M 198.722656 278.25 C 192.859375 278.25 188.105469 283.003906 188.105469 288.871094 C 188.105469 294.738281 192.859375 299.492188 198.722656 299.492188 C 204.589844 299.492188 209.34375 294.738281 209.34375 288.871094 C 209.34375 284.71875 206.964844 281.125 203.488281 279.378906 C 203.171875 279.199219 202.835938 279.050781 202.484375 278.9375 C 201.316406 278.492188 200.050781 278.25 198.722656 278.25 " fill-opacity="1" fill-rule="nonzero"/><path fill="#caecf6" d="M 198.722656 299.492188 C 192.859375 299.492188 188.105469 294.738281 188.105469 288.871094 C 188.105469 283.003906 192.859375 278.25 198.722656 278.25 C 200.050781 278.25 201.316406 278.492188 202.484375 278.9375 C 201.910156 278.746094 201.300781 278.644531 200.660156 278.644531 C 197.449219 278.644531 194.847656 281.25 194.847656 284.460938 C 194.847656 287.667969 197.449219 290.277344 200.660156 290.277344 C 203.875 290.277344 206.476562 287.667969 206.476562 284.460938 C 206.476562 282.277344 205.273438 280.371094 203.488281 279.378906 C 206.964844 281.125 209.34375 284.71875 209.34375 288.871094 C 209.34375 294.738281 204.589844 299.492188 198.722656 299.492188 " fill-opacity="1" fill-rule="nonzero"/><path fill="#e2f5f9" d="M 203.488281 279.378906 C 203.164062 279.214844 202.828125 279.066406 202.484375 278.9375 C 202.835938 279.050781 203.171875 279.199219 203.488281 279.378906 " fill-opacity="1" fill-rule="nonzero"/><path fill="#e3f5fa" d="M 200.660156 290.277344 C 197.449219 290.277344 194.847656 287.667969 194.847656 284.460938 C 194.847656 281.25 197.449219 278.644531 200.660156 278.644531 C 201.300781 278.644531 201.910156 278.746094 202.484375 278.9375 C 202.828125 279.066406 203.164062 279.214844 203.488281 279.378906 C 205.273438 280.371094 206.476562 282.277344 206.476562 284.460938 C 206.476562 287.667969 203.875 290.277344 200.660156 290.277344 " fill-opacity="1" fill-rule="nonzero"/><path fill="#c8ecf4" d="M 88.90625 258.101562 C 83.769531 258.101562 79.605469 253.9375 79.605469 248.804688 C 79.605469 243.667969 83.769531 239.503906 88.90625 239.503906 C 94.039062 239.503906 98.199219 243.667969 98.199219 248.804688 C 98.199219 253.9375 94.039062 258.101562 88.90625 258.101562 M 88.90625 240.984375 C 84.582031 240.984375 81.085938 244.484375 81.085938 248.804688 C 81.085938 253.125 84.582031 256.625 88.90625 256.625 C 93.226562 256.625 96.726562 253.125 96.726562 248.804688 C 96.726562 245.734375 94.957031 243.074219 92.382812 241.796875 C 92.164062 241.671875 91.933594 241.574219 91.691406 241.492188 C 90.824219 241.160156 89.886719 240.984375 88.90625 240.984375 " fill-opacity="1" fill-rule="nonzero"/><path fill="#caecf6" d="M 88.90625 256.625 C 84.582031 256.625 81.085938 253.125 81.085938 248.804688 C 81.085938 244.484375 84.582031 240.984375 88.90625 240.984375 C 89.886719 240.984375 90.824219 241.160156 91.691406 241.492188 C 91.265625 241.347656 90.804688 241.269531 90.328125 241.269531 C 87.96875 241.269531 86.046875 243.1875 86.046875 245.554688 C 86.046875 247.917969 87.96875 249.835938 90.328125 249.835938 C 92.691406 249.835938 94.613281 247.917969 94.613281 245.554688 C 94.613281 243.933594 93.710938 242.523438 92.382812 241.796875 C 94.957031 243.074219 96.726562 245.734375 96.726562 248.804688 C 96.726562 253.125 93.226562 256.625 88.90625 256.625 " fill-opacity="1" fill-rule="nonzero"/><path fill="#e2f5f9" d="M 92.382812 241.796875 C 92.15625 241.683594 91.929688 241.582031 91.691406 241.492188 C 91.933594 241.574219 92.164062 241.671875 92.382812 241.796875 " fill-opacity="1" fill-rule="nonzero"/><path fill="#e3f5fa" d="M 90.328125 249.835938 C 87.96875 249.835938 86.046875 247.917969 86.046875 245.554688 C 86.046875 243.1875 87.96875 241.269531 90.328125 241.269531 C 90.804688 241.269531 91.265625 241.347656 91.691406 241.492188 C 91.929688 241.582031 92.15625 241.683594 92.382812 241.796875 C 93.710938 242.523438 94.613281 243.933594 94.613281 245.554688 C 94.613281 247.917969 92.691406 249.835938 90.328125 249.835938 " fill-opacity="1" fill-rule="nonzero"/><path fill="#c8ecf4" d="M 171.492188 191.980469 C 167.566406 191.980469 164.375 188.796875 164.375 184.863281 C 164.375 180.933594 167.566406 177.746094 171.492188 177.746094 C 175.429688 177.746094 178.613281 180.933594 178.613281 184.863281 C 178.613281 188.796875 175.429688 191.980469 171.492188 191.980469 M 171.492188 178.875 C 168.1875 178.875 165.507812 181.554688 165.507812 184.863281 C 165.507812 188.167969 168.1875 190.847656 171.492188 190.847656 C 174.804688 190.847656 177.484375 188.167969 177.484375 184.863281 C 177.484375 182.519531 176.136719 180.488281 174.171875 179.503906 C 173.996094 179.410156 173.816406 179.328125 173.621094 179.265625 C 172.960938 179.011719 172.242188 178.875 171.492188 178.875 " fill-opacity="1" fill-rule="nonzero"/><path fill="#caecf6" d="M 171.492188 190.847656 C 168.1875 190.847656 165.507812 188.167969 165.507812 184.863281 C 165.507812 181.554688 168.1875 178.875 171.492188 178.875 C 172.242188 178.875 172.960938 179.011719 173.621094 179.265625 C 173.296875 179.152344 172.949219 179.097656 172.589844 179.097656 C 170.777344 179.097656 169.3125 180.566406 169.3125 182.375 C 169.3125 184.183594 170.777344 185.652344 172.589844 185.652344 C 174.398438 185.652344 175.863281 184.183594 175.863281 182.375 C 175.863281 181.144531 175.179688 180.066406 174.171875 179.503906 C 176.136719 180.488281 177.484375 182.519531 177.484375 184.863281 C 177.484375 188.167969 174.804688 190.847656 171.492188 190.847656 " fill-opacity="1" fill-rule="nonzero"/><path fill="#e2f5f9" d="M 174.171875 179.503906 C 173.992188 179.417969 173.8125 179.335938 173.621094 179.265625 C 173.816406 179.328125 173.996094 179.410156 174.171875 179.503906 " fill-opacity="1" fill-rule="nonzero"/><path fill="#e3f5fa" d="M 172.589844 185.652344 C 170.777344 185.652344 169.3125 184.183594 169.3125 182.375 C 169.3125 180.566406 170.777344 179.097656 172.589844 179.097656 C 172.949219 179.097656 173.296875 179.152344 173.621094 179.265625 C 173.8125 179.335938 173.992188 179.417969 174.171875 179.503906 C 175.179688 180.066406 175.863281 181.144531 175.863281 182.375 C 175.863281 184.183594 174.398438 185.652344 172.589844 185.652344 " fill-opacity="1" fill-rule="nonzero"/><path fill="#c8ecf4" d="M 161.257812 174.886719 C 159.277344 174.886719 157.667969 173.277344 157.667969 171.296875 C 157.667969 169.316406 159.277344 167.710938 161.257812 167.710938 C 163.238281 167.710938 164.84375 169.316406 164.84375 171.296875 C 164.84375 173.277344 163.238281 174.886719 161.257812 174.886719 M 161.257812 168.28125 C 159.59375 168.28125 158.242188 169.632812 158.242188 171.296875 C 158.242188 172.964844 159.59375 174.316406 161.257812 174.316406 C 162.925781 174.316406 164.273438 172.964844 164.273438 171.296875 C 164.273438 170.105469 163.582031 169.074219 162.582031 168.585938 C 162.507812 168.546875 162.433594 168.511719 162.351562 168.484375 C 162.011719 168.351562 161.644531 168.28125 161.257812 168.28125 " fill-opacity="1" fill-rule="nonzero"/><path fill="#caecf6" d="M 161.257812 174.316406 C 159.59375 174.316406 158.242188 172.964844 158.242188 171.296875 C 158.242188 169.632812 159.59375 168.28125 161.257812 168.28125 C 161.644531 168.28125 162.011719 168.351562 162.351562 168.484375 C 162.179688 168.425781 161.996094 168.390625 161.808594 168.390625 C 160.890625 168.390625 160.152344 169.132812 160.152344 170.042969 C 160.152344 170.957031 160.890625 171.695312 161.808594 171.695312 C 162.71875 171.695312 163.460938 170.957031 163.460938 170.042969 C 163.460938 169.410156 163.101562 168.863281 162.582031 168.585938 C 163.582031 169.074219 164.273438 170.105469 164.273438 171.296875 C 164.273438 172.964844 162.925781 174.316406 161.257812 174.316406 " fill-opacity="1" fill-rule="nonzero"/><path fill="#e2f5f9" d="M 162.582031 168.585938 C 162.503906 168.546875 162.429688 168.511719 162.351562 168.484375 C 162.433594 168.511719 162.507812 168.546875 162.582031 168.585938 " fill-opacity="1" fill-rule="nonzero"/><path fill="#e3f5fa" d="M 161.808594 171.695312 C 160.890625 171.695312 160.152344 170.957031 160.152344 170.042969 C 160.152344 169.132812 160.890625 168.390625 161.808594 168.390625 C 161.996094 168.390625 162.179688 168.425781 162.351562 168.484375 C 162.429688 168.511719 162.503906 168.546875 162.582031 168.585938 C 163.101562 168.863281 163.460938 169.410156 163.460938 170.042969 C 163.460938 170.957031 162.71875 171.695312 161.808594 171.695312 " fill-opacity="1" fill-rule="nonzero"/><path fill="#c8ecf4" d="M 172.589844 169.78125 C 169.460938 169.78125 166.925781 167.246094 166.925781 164.125 C 166.925781 160.996094 169.460938 158.464844 172.589844 158.464844 C 175.710938 158.464844 178.246094 160.996094 178.246094 164.125 C 178.246094 167.246094 175.710938 169.78125 172.589844 169.78125 M 172.589844 159.363281 C 169.957031 159.363281 167.828125 161.492188 167.828125 164.125 C 167.828125 166.753906 169.957031 168.882812 172.589844 168.882812 C 175.21875 168.882812 177.347656 166.753906 177.347656 164.125 C 177.347656 162.25 176.265625 160.628906 174.6875 159.847656 C 174.566406 159.785156 174.441406 159.726562 174.304688 159.679688 C 173.773438 159.476562 173.195312 159.363281 172.589844 159.363281 " fill-opacity="1" fill-rule="nonzero"/><path fill="#caecf6" d="M 172.589844 168.882812 C 169.957031 168.882812 167.828125 166.753906 167.828125 164.125 C 167.828125 161.492188 169.957031 159.363281 172.589844 159.363281 C 173.195312 159.363281 173.773438 159.476562 174.304688 159.679688 C 174.039062 159.589844 173.753906 159.539062 173.457031 159.539062 C 172.015625 159.539062 170.847656 160.707031 170.847656 162.148438 C 170.847656 163.582031 172.015625 164.753906 173.457031 164.753906 C 174.894531 164.753906 176.058594 163.582031 176.058594 162.148438 C 176.058594 161.152344 175.503906 160.292969 174.6875 159.847656 C 176.265625 160.628906 177.347656 162.25 177.347656 164.125 C 177.347656 166.753906 175.21875 168.882812 172.589844 168.882812 " fill-opacity="1" fill-rule="nonzero"/><path fill="#e2f5f9" d="M 174.6875 159.847656 C 174.566406 159.789062 174.4375 159.730469 174.304688 159.679688 C 174.441406 159.726562 174.566406 159.785156 174.6875 159.847656 " fill-opacity="1" fill-rule="nonzero"/><path fill="#e3f5fa" d="M 173.457031 164.753906 C 172.015625 164.753906 170.847656 163.582031 170.847656 162.148438 C 170.847656 160.707031 172.015625 159.539062 173.457031 159.539062 C 173.753906 159.539062 174.039062 159.589844 174.304688 159.679688 C 174.4375 159.730469 174.566406 159.789062 174.6875 159.847656 C 175.503906 160.292969 176.058594 161.152344 176.058594 162.148438 C 176.058594 163.582031 174.894531 164.753906 173.457031 164.753906 " fill-opacity="1" fill-rule="nonzero"/><path fill="#d0eff1" d="M 191.621094 146.386719 C 101.230469 146.386719 27.960938 137.496094 27.960938 126.53125 C 27.960938 115.871094 97.75 115.722656 184.695312 115.722656 C 187.171875 115.722656 189.65625 115.722656 192.164062 115.722656 C 194.660156 115.722656 197.15625 115.722656 199.632812 115.722656 C 286.53125 115.722656 355.285156 115.871094 355.285156 126.53125 C 355.285156 137.496094 282.007812 146.386719 191.621094 146.386719 " fill-opacity="1" fill-rule="nonzero"/><path fill="#f57f3b" d="M 251.101562 181.828125 C 252.785156 182.035156 255.988281 181.894531 257.0625 183.484375 C 257.453125 184.050781 257.925781 184.746094 257.707031 185.472656 C 257.480469 186.179688 256.769531 186.351562 256.140625 186.53125 C 255.398438 186.738281 254.769531 187.148438 254.046875 187.382812 C 253.300781 187.628906 251.945312 187.730469 251.945312 188.816406 C 251.953125 189.542969 252.925781 190.0625 252.46875 190.867188 C 251.113281 193.25 250.269531 193.078125 247.460938 192.472656 C 248.769531 197.960938 247.167969 197.496094 242.363281 197.582031 C 238.230469 197.652344 235.78125 199.664062 232.230469 201.742188 C 227.890625 204.285156 225.339844 203.867188 222.464844 199.566406 C 217.832031 192.648438 223.386719 186.308594 229.710938 184.089844 C 236.320312 181.773438 244.144531 180.976562 251.101562 181.828125 " fill-opacity="1" fill-rule="nonzero"/><path fill="#f57f3b" d="M 224.109375 264.710938 C 225.636719 265.457031 228.238281 267.324219 230.011719 266.582031 C 230.648438 266.316406 231.421875 265.992188 231.632812 265.265625 C 231.835938 264.554688 231.328125 264.015625 230.898438 263.523438 C 230.390625 262.949219 230.085938 262.257812 229.609375 261.664062 C 229.117188 261.054688 228.035156 260.230469 228.632812 259.324219 C 229.027344 258.710938 230.136719 258.8125 230.1875 257.882812 C 230.347656 255.148438 229.546875 254.832031 226.863281 253.808594 C 230.957031 249.925781 229.359375 249.4375 225.378906 246.75 C 221.957031 244.4375 220.996094 241.40625 219.160156 237.738281 C 216.910156 233.238281 214.546875 232.195312 209.789062 234.230469 C 202.136719 237.5 203.320312 245.84375 207.417969 251.152344 C 211.691406 256.695312 217.816406 261.640625 224.109375 264.710938 " fill-opacity="1" fill-rule="nonzero"/><path fill="#f6883b" d="M 304.785156 254.402344 C 303.292969 257.097656 300.714844 257.167969 297.800781 256.957031 C 297.800781 256.957031 305.203125 260.949219 296.28125 264.769531 C 299.589844 270.023438 297.273438 272.761719 293.46875 276.859375 C 290.503906 280.054688 292.433594 278.820312 292.210938 282.558594 C 292.089844 284.648438 290.007812 287.707031 287.988281 287.644531 C 284.980469 287.550781 284.042969 283.734375 283.0625 281.296875 C 282.945312 281 282.816406 280.722656 282.695312 280.472656 C 282.632812 280.335938 282.558594 280.203125 282.488281 280.089844 C 280.511719 276.308594 277.679688 272.984375 275.210938 269.585938 L 275.023438 269.332031 C 274.480469 268.582031 273.953125 267.6875 273.453125 266.691406 C 272.773438 265.367188 272.117188 263.835938 271.476562 262.203125 C 271.222656 261.566406 270.964844 260.898438 270.71875 260.214844 C 269.203125 256.167969 267.714844 251.675781 265.953125 247.773438 L 265.957031 247.757812 C 265.464844 246.667969 264.945312 245.628906 264.417969 244.648438 C 262.832031 241.808594 261.03125 239.550781 258.84375 238.425781 L 261.214844 229.164062 C 264.679688 229.839844 268.855469 228.3125 273.183594 226.046875 C 273.875 225.683594 274.578125 225.308594 275.289062 224.902344 C 276.644531 224.136719 278.019531 223.3125 279.378906 222.484375 L 281.777344 221.035156 C 282.789062 220.417969 283.800781 219.8125 284.777344 219.242188 L 284.785156 219.234375 C 285.839844 218.621094 286.847656 218.050781 287.851562 217.550781 L 287.871094 217.542969 C 288.144531 217.394531 288.421875 217.257812 288.691406 217.121094 C 289.988281 216.488281 291.226562 215.984375 292.371094 215.660156 C 293.011719 215.480469 293.648438 215.308594 294.300781 215.140625 C 295.398438 214.847656 296.503906 214.566406 297.613281 214.28125 C 298.800781 213.96875 299.996094 213.636719 301.148438 213.265625 C 302.566406 212.820312 303.960938 212.316406 305.292969 211.683594 C 306.800781 210.980469 308.859375 209.316406 310.871094 208.820312 C 311.917969 208.5625 312.953125 208.625 313.886719 209.320312 C 315.515625 210.523438 315.257812 214.207031 314.058594 215.929688 C 311.925781 219 311.167969 216.835938 311.511719 221.175781 C 311.960938 226.75 312.085938 230.335938 306.230469 232.414062 C 307.425781 234.644531 308.648438 237.875 308.386719 240.503906 C 307.953125 244.796875 304.496094 243.304688 303.632812 246.152344 C 302.945312 248.453125 306.515625 251.238281 304.785156 254.402344 " fill-opacity="1" fill-rule="nonzero"/><path fill="#f6883b" d="M 304.785156 254.402344 C 303.292969 257.097656 300.714844 257.167969 297.800781 256.957031 C 297.800781 256.957031 305.203125 260.949219 296.28125 264.769531 C 299.589844 270.023438 297.273438 272.761719 293.46875 276.859375 C 290.503906 280.054688 292.433594 278.820312 292.210938 282.558594 C 292.089844 284.648438 290.007812 287.707031 287.988281 287.644531 C 284.980469 287.550781 284.042969 283.734375 283.0625 281.296875 C 282.945312 281 282.816406 280.722656 282.695312 280.472656 C 282.632812 280.335938 282.558594 280.203125 282.488281 280.089844 C 280.511719 276.308594 277.679688 272.984375 275.210938 269.585938 L 275.023438 269.332031 C 274.480469 268.582031 273.953125 267.6875 273.453125 266.691406 C 272.773438 265.367188 272.117188 263.835938 271.476562 262.203125 C 271.222656 261.566406 270.964844 260.898438 270.71875 260.214844 C 269.203125 256.167969 267.714844 251.675781 265.953125 247.773438 L 265.957031 247.757812 C 265.464844 246.667969 264.945312 245.628906 264.417969 244.648438 C 262.832031 241.808594 261.03125 239.550781 258.84375 238.425781 L 261.214844 229.164062 C 264.679688 229.839844 268.855469 228.3125 273.183594 226.046875 C 273.875 225.683594 274.578125 225.308594 275.289062 224.902344 C 276.644531 224.136719 278.019531 223.3125 279.378906 222.484375 L 281.777344 221.035156 C 282.789062 220.417969 283.800781 219.8125 284.777344 219.242188 L 284.785156 219.234375 C 285.839844 218.621094 286.847656 218.050781 287.851562 217.550781 L 287.871094 217.542969 C 288.144531 217.394531 288.421875 217.257812 288.691406 217.121094 C 289.988281 216.488281 291.226562 215.984375 292.371094 215.660156 C 293.011719 215.480469 293.648438 215.308594 294.300781 215.140625 C 295.398438 214.847656 296.503906 214.566406 297.613281 214.28125 C 298.800781 213.96875 299.996094 213.636719 301.148438 213.265625 C 302.566406 212.820312 303.960938 212.316406 305.292969 211.683594 C 306.800781 210.980469 308.859375 209.316406 310.871094 208.820312 C 311.917969 208.5625 312.953125 208.625 313.886719 209.320312 C 315.515625 210.523438 315.257812 214.207031 314.058594 215.929688 C 311.925781 219 311.167969 216.835938 311.511719 221.175781 C 311.960938 226.75 312.085938 230.335938 306.230469 232.414062 C 307.425781 234.644531 308.648438 237.875 308.386719 240.503906 C 307.953125 244.796875 304.496094 243.304688 303.632812 246.152344 C 302.945312 248.453125 306.515625 251.238281 304.785156 254.402344 " fill-opacity="1" fill-rule="nonzero"/><path fill="#f6813b" d="M 270.648438 231.675781 C 274.664062 231.5625 276.996094 228.253906 280.496094 226.890625 C 282.71875 226.023438 285.015625 225.984375 287.253906 225.3125 C 290.476562 224.347656 291.835938 221.1875 294.800781 220.09375 C 296.488281 219.46875 301.144531 220.285156 302.128906 219.730469 C 303.171875 219.148438 304.601562 218.15625 305.890625 218.5625 C 308.464844 219.363281 310.945312 221.609375 309.914062 224.605469 C 308.328125 229.207031 303.75 231.765625 302.148438 236.371094 C 301.085938 239.449219 300.515625 243.117188 298.714844 245.875 C 295.699219 250.511719 292.835938 253.976562 293.273438 259.925781 C 293.40625 261.761719 293.640625 264.171875 292.507812 265.816406 C 290.648438 268.535156 287.269531 269.445312 288.542969 273.914062 C 289.722656 278.035156 289.871094 282.238281 290.410156 286.375 C 291.410156 285.3125 292.144531 283.773438 292.210938 282.558594 C 292.433594 278.820312 290.503906 280.054688 293.46875 276.859375 C 297.273438 272.761719 299.589844 270.023438 296.28125 264.769531 C 305.203125 260.949219 297.800781 256.957031 297.800781 256.957031 C 300.714844 257.167969 303.292969 257.097656 304.785156 254.402344 C 306.515625 251.238281 302.945312 248.453125 303.632812 246.152344 C 304.496094 243.304688 307.953125 244.796875 308.386719 240.503906 C 308.648438 237.875 307.425781 234.644531 306.230469 232.414062 C 312.085938 230.335938 311.960938 226.75 311.511719 221.175781 C 311.167969 216.835938 311.925781 219 314.058594 215.929688 C 315.257812 214.207031 315.515625 210.523438 313.886719 209.320312 C 312.953125 208.625 311.917969 208.5625 310.871094 208.820312 C 308.859375 209.316406 306.800781 210.980469 305.292969 211.683594 C 303.960938 212.316406 302.566406 212.820312 301.148438 213.265625 C 299.996094 213.636719 298.800781 213.96875 297.613281 214.28125 C 296.503906 214.566406 295.398438 214.847656 294.300781 215.140625 C 293.648438 215.308594 293.011719 215.480469 292.371094 215.660156 C 291.226562 215.984375 289.988281 216.488281 288.691406 217.121094 C 288.421875 217.257812 288.144531 217.394531 287.871094 217.542969 L 287.851562 217.550781 C 286.847656 218.050781 285.839844 218.621094 284.785156 219.234375 L 284.777344 219.242188 C 283.800781 219.8125 282.789062 220.417969 281.777344 221.035156 L 279.378906 222.484375 C 278.019531 223.3125 276.644531 224.136719 275.289062 224.902344 C 274.578125 225.308594 273.875 225.683594 273.183594 226.046875 C 269.976562 227.722656 266.855469 228.992188 264.046875 229.265625 C 266.175781 230.660156 268.480469 231.742188 270.648438 231.675781 " fill-opacity="1" fill-rule="nonzero"/><path fill="#f6883b" d="M 271.214844 241.183594 L 271.230469 241.226562 L 271.183594 241.210938 C 270.511719 241.589844 264.296875 245.019531 255.105469 248.125 C 254.617188 248.289062 254.132812 248.449219 253.621094 248.605469 C 250.816406 249.519531 247.765625 250.371094 244.515625 251.097656 L 244.507812 251.09375 C 243.089844 251.410156 241.644531 251.707031 240.15625 251.964844 C 239.398438 252.09375 238.648438 252.210938 237.875 252.324219 L 237.855469 252.328125 C 235.84375 252.625 233.789062 252.855469 231.691406 253.007812 L 230.402344 253.082031 C 227.015625 253.265625 223.53125 253.222656 220.046875 252.882812 C 219.6875 252.84375 219.332031 252.808594 218.972656 252.765625 C 216.988281 252.546875 214.996094 252.210938 213.011719 251.769531 L 213 251.765625 C 212.089844 251.570312 211.195312 251.34375 210.308594 251.097656 C 209.886719 250.988281 209.476562 250.871094 209.054688 250.738281 C 208.320312 250.519531 207.582031 250.289062 206.855469 250.035156 C 205.789062 249.664062 204.722656 249.257812 203.671875 248.808594 L 203.652344 248.804688 C 202.601562 248.347656 201.5625 247.878906 200.519531 247.347656 C 200.269531 247.222656 200.023438 247.085938 199.765625 246.949219 C 199.167969 246.644531 198.585938 246.316406 198 245.984375 C 195.796875 244.699219 193.628906 243.226562 191.515625 241.523438 C 191.082031 241.175781 190.648438 240.816406 190.21875 240.460938 C 187.832031 238.421875 185.542969 236.09375 183.339844 233.453125 C 176.5625 225.289062 170.753906 214.078125 166.609375 198.878906 L 166.5625 198.863281 L 166.597656 198.847656 L 166.585938 198.8125 L 166.644531 198.828125 C 167.628906 198.277344 180.6875 191.0625 197.527344 188.113281 C 202.113281 187.3125 206.972656 186.816406 211.945312 186.859375 C 212.355469 186.867188 212.769531 186.878906 213.183594 186.882812 C 216.003906 186.960938 218.859375 187.210938 221.730469 187.679688 C 222.171875 187.761719 222.632812 187.832031 223.089844 187.933594 C 225.183594 188.316406 227.273438 188.828125 229.351562 189.480469 L 229.367188 189.484375 C 230.265625 189.757812 231.160156 190.070312 232.050781 190.402344 C 234.882812 191.460938 237.683594 192.789062 240.417969 194.421875 L 240.429688 194.425781 C 240.9375 194.726562 241.429688 195.03125 241.929688 195.363281 C 244.589844 197.070312 247.167969 199.085938 249.660156 201.457031 C 250.042969 201.8125 250.425781 202.171875 250.796875 202.546875 C 252.203125 203.957031 253.578125 205.476562 254.90625 207.128906 C 255.027344 207.269531 255.136719 207.414062 255.269531 207.558594 L 255.277344 207.574219 C 255.800781 208.21875 256.3125 208.902344 256.816406 209.59375 C 257.519531 210.546875 258.21875 211.535156 258.890625 212.566406 C 260.683594 215.285156 262.375 218.253906 263.96875 221.511719 C 264.261719 222.121094 264.558594 222.738281 264.84375 223.363281 C 267.246094 228.574219 269.390625 234.480469 271.203125 241.152344 L 271.246094 241.167969 L 271.214844 241.183594 " fill-opacity="1" fill-rule="nonzero"/><path fill="#f6813b" d="M 271.246094 241.167969 L 271.203125 241.152344 C 269.390625 234.480469 267.246094 228.574219 264.84375 223.363281 C 264.558594 222.738281 264.261719 222.121094 263.96875 221.511719 C 262.375 218.253906 260.683594 215.285156 258.890625 212.566406 C 258.21875 211.535156 257.519531 210.546875 256.816406 209.59375 C 256.3125 208.902344 255.800781 208.21875 255.277344 207.574219 L 255.269531 207.558594 C 255.136719 207.414062 255.027344 207.269531 254.90625 207.128906 C 253.578125 205.476562 252.203125 203.957031 250.796875 202.546875 C 250.425781 202.171875 250.042969 201.8125 249.660156 201.457031 C 247.167969 199.085938 244.589844 197.070312 241.929688 195.363281 C 241.429688 195.03125 240.9375 194.726562 240.429688 194.425781 L 240.417969 194.421875 C 237.683594 192.789062 234.882812 191.460938 232.050781 190.402344 C 231.160156 190.070312 230.265625 189.757812 229.367188 189.484375 L 229.351562 189.480469 C 227.273438 188.828125 225.183594 188.316406 223.089844 187.933594 C 222.632812 187.832031 222.171875 187.761719 221.730469 187.679688 C 218.859375 187.210938 216.003906 186.960938 213.183594 186.882812 C 212.769531 186.878906 212.355469 186.867188 211.945312 186.859375 C 206.972656 186.816406 202.113281 187.3125 197.527344 188.113281 C 180.6875 191.0625 167.628906 198.277344 166.644531 198.828125 L 166.585938 198.8125 L 166.597656 198.847656 L 166.5625 198.863281 L 166.609375 198.878906 C 166.980469 200.230469 167.367188 201.539062 167.761719 202.828125 C 174.339844 206.074219 181.6875 206.019531 188.230469 201.984375 C 193.605469 198.671875 196.949219 192.886719 202.390625 189.9375 C 204.222656 188.945312 206.859375 189.199219 208.777344 189.613281 C 212.855469 190.496094 216.558594 191.328125 220.753906 191.554688 C 227.695312 191.929688 230.710938 196.945312 236.839844 199.539062 C 239.703125 200.746094 242.53125 202.035156 244.773438 204.269531 C 247.074219 206.5625 248.535156 209.839844 250.890625 211.972656 C 253.105469 213.96875 254.988281 215.148438 256.289062 217.839844 C 257.898438 221.199219 259.050781 223.648438 261.605469 226.335938 C 265.003906 229.917969 267.429688 233.410156 265.417969 238.335938 C 264.292969 241.109375 261.425781 243.234375 259.589844 245.492188 C 259.207031 245.964844 258.859375 246.4375 258.523438 246.90625 C 265.816406 244.179688 270.597656 241.539062 271.183594 241.210938 L 271.230469 241.226562 L 271.214844 241.183594 L 271.246094 241.167969 " fill-opacity="1" fill-rule="nonzero"/><path fill="#f57d35" d="M 185.109375 235.445312 C 184.546875 234.738281 183.996094 234.011719 183.453125 233.261719 C 188.183594 225.121094 190.449219 221.53125 193.976562 211.367188 C 195.859375 205.933594 197.472656 199.585938 197.703125 193.4375 C 198.523438 192.671875 199.371094 191.949219 200.269531 191.289062 C 200.226562 198.328125 198.351562 205.8125 196.160156 212.128906 C 192.417969 222.921875 190.082031 226.695312 185.109375 235.445312 " fill-opacity="1" fill-rule="nonzero"/><path fill="#f57636" d="M 197.703125 193.4375 C 197.765625 191.894531 197.734375 190.363281 197.605469 188.863281 C 197.585938 188.660156 197.566406 188.460938 197.542969 188.261719 C 198.394531 188.066406 199.253906 187.882812 200.125 187.710938 C 200.230469 188.882812 200.277344 190.082031 200.269531 191.289062 C 199.371094 191.949219 198.523438 192.671875 197.703125 193.4375 " fill-opacity="1" fill-rule="nonzero"/><path fill="#fccf3b" d="M 193.976562 211.367188 C 190.421875 221.613281 188.148438 225.175781 183.339844 233.453125 C 176.5625 225.289062 170.753906 214.078125 166.609375 198.878906 L 166.5625 198.863281 L 166.597656 198.847656 L 166.585938 198.8125 L 166.644531 198.828125 C 167.628906 198.277344 180.6875 191.0625 197.527344 188.113281 C 198.390625 195.78125 196.410156 204.339844 193.976562 211.367188 " fill-opacity="1" fill-rule="nonzero"/><path fill="#fbc43b" d="M 166.609375 198.878906 C 167.085938 200.632812 167.589844 202.324219 168.109375 203.976562 C 170.992188 203.277344 173 199.351562 175.679688 197.390625 C 178.183594 195.558594 181.472656 195.433594 184.386719 195.945312 C 187.132812 196.425781 190.550781 198.242188 192.9375 195.894531 C 194.601562 194.257812 196.152344 192.53125 197.707031 190.800781 C 197.679688 189.894531 197.632812 188.992188 197.527344 188.113281 C 180.6875 191.0625 167.628906 198.277344 166.644531 198.828125 L 166.585938 198.8125 L 166.597656 198.847656 L 166.5625 198.863281 L 166.609375 198.878906 " fill-opacity="1" fill-rule="nonzero"/><path fill="#f9b03b" d="M 168.742188 197.722656 C 167.582031 198.308594 166.839844 198.714844 166.644531 198.828125 L 166.585938 198.8125 L 166.597656 198.847656 L 166.5625 198.863281 L 166.609375 198.878906 C 166.859375 199.808594 167.121094 200.71875 167.386719 201.621094 L 168.742188 197.722656 " fill-opacity="1" fill-rule="nonzero"/><path fill="#bd9934" d="M 179.75 204.199219 C 179.335938 204.199219 178.917969 204.136719 178.503906 203.988281 C 176.523438 203.304688 175.476562 201.136719 176.160156 199.152344 C 176.707031 197.582031 178.175781 196.597656 179.753906 196.597656 C 180.164062 196.597656 180.589844 196.660156 181 196.808594 C 182.980469 197.492188 184.03125 199.65625 183.339844 201.648438 C 182.800781 203.214844 181.324219 204.199219 179.75 204.199219 " fill-opacity="1" fill-rule="nonzero"/><path fill="#000000" d="M 176.816406 199.378906 C 176.257812 201 177.117188 202.769531 178.734375 203.328125 C 180.355469 203.890625 182.125 203.035156 182.679688 201.414062 C 183.246094 199.796875 182.390625 198.027344 180.769531 197.46875 C 179.148438 196.902344 177.382812 197.761719 176.816406 199.378906 " fill-opacity="1" fill-rule="nonzero"/><path fill="#ffffff" d="M 178.035156 198.40625 C 177.828125 199 178.144531 199.648438 178.734375 199.851562 C 179.328125 200.058594 179.984375 199.746094 180.1875 199.152344 C 180.394531 198.558594 180.074219 197.910156 179.484375 197.703125 C 178.890625 197.496094 178.242188 197.8125 178.035156 198.40625 " fill-opacity="1" fill-rule="nonzero"/><path fill="#ffffff" d="M 179.355469 200.445312 C 179.292969 200.632812 179.390625 200.835938 179.582031 200.902344 C 179.761719 200.96875 179.96875 200.867188 180.035156 200.679688 C 180.097656 200.492188 179.992188 200.292969 179.816406 200.226562 C 179.628906 200.160156 179.421875 200.261719 179.355469 200.445312 " fill-opacity="1" fill-rule="nonzero"/><path fill="#f35d3c" d="M 198.746094 224.441406 C 200.242188 228.5625 197.957031 233.140625 193.558594 233.515625 C 194.457031 234.988281 194.773438 236.597656 193.796875 238.574219 C 193.101562 239.96875 192.34375 240.941406 191.515625 241.523438 C 191.082031 241.175781 190.648438 240.816406 190.21875 240.460938 C 193.410156 239.886719 193.042969 235.503906 190.839844 233.25 C 190.566406 232.957031 191.167969 230.945312 191.546875 231.050781 C 196.277344 232.273438 200.015625 228.484375 196.535156 224.273438 C 196.292969 223.980469 196.9375 221.921875 197.332031 222 C 198.667969 222.253906 200.585938 222.734375 201.800781 221.757812 C 205.6875 218.59375 202.554688 216.242188 200.207031 214.953125 C 199.789062 214.707031 200.542969 212.542969 201.007812 212.484375 C 202.429688 212.265625 210.183594 210.515625 207.296875 206.769531 C 206.1875 205.351562 205.035156 204.535156 203.601562 203.585938 C 203.183594 203.308594 203.945312 200.945312 204.441406 200.957031 C 205.835938 201 211.570312 200.671875 209.128906 197.09375 C 208.070312 195.546875 206.988281 194.839844 205.46875 193.945312 C 205.015625 193.675781 205.851562 191.097656 206.34375 191.15625 C 208.851562 191.425781 211.917969 189.082031 211.945312 186.859375 C 212.355469 186.867188 212.769531 186.878906 213.183594 186.882812 C 213.121094 187.292969 213.023438 187.710938 212.875 188.164062 C 212.148438 190.4375 210.929688 192.40625 209.066406 193.351562 C 210.46875 194.96875 210.746094 196.878906 209.984375 199.582031 C 209.429688 201.496094 208.339844 202.621094 206.863281 203.15625 C 210.144531 207.242188 208.171875 212.246094 203.074219 214.230469 C 206.0625 218.011719 203.664062 223.9375 198.746094 224.441406 " fill-opacity="1" fill-rule="nonzero"/><path fill="#f35d3c" d="M 207.449219 228.441406 C 209.183594 232.917969 206.636719 237.957031 201.816406 238.246094 C 202.785156 239.769531 203.148438 241.394531 202.25 243.503906 C 201.535156 245.160156 200.6875 246.292969 199.765625 246.949219 C 199.167969 246.644531 198.585938 246.316406 198 245.984375 C 200.523438 245.953125 201.648438 244.132812 201.359375 240.515625 C 200.628906 239.621094 199.851562 238.75 199.035156 237.929688 C 198.742188 237.632812 199.335938 235.632812 199.734375 235.730469 C 205.101562 237.1875 209.027344 232.898438 205.226562 228.308594 L 205.164062 228.238281 C 204.925781 227.945312 205.570312 225.898438 205.976562 225.964844 C 207.402344 226.242188 209.488281 226.769531 210.796875 225.699219 C 215.105469 222.203125 211.738281 219.613281 209.144531 218.160156 C 208.71875 217.929688 209.476562 215.75 209.925781 215.6875 C 211.535156 215.472656 220.011719 213.507812 216.777344 209.332031 C 215.59375 207.796875 214.351562 206.921875 212.796875 205.890625 C 212.386719 205.617188 213.140625 203.242188 213.636719 203.265625 C 215.242188 203.328125 221.476562 202.859375 218.777344 198.878906 C 217.625 197.207031 216.464844 196.449219 214.808594 195.46875 C 214.363281 195.21875 215.203125 192.628906 215.695312 192.6875 C 218.558594 193.066406 221.859375 190.226562 221.730469 187.679688 C 222.171875 187.761719 222.632812 187.832031 223.089844 187.933594 C 223.027344 188.375 222.917969 188.851562 222.742188 189.34375 C 221.929688 191.757812 220.601562 193.933594 218.546875 194.9375 C 220.144531 196.742188 220.542969 198.894531 219.601562 201.863281 C 218.992188 203.765625 217.824219 204.890625 216.320312 205.449219 C 218.070312 207.230469 218.710938 209.269531 217.738281 212.324219 C 216.851562 215.085938 214.636719 216.667969 212.09375 217.492188 C 215.402344 221.5625 212.8125 227.972656 207.449219 228.441406 " fill-opacity="1" fill-rule="nonzero"/><path fill="#f35d3c" d="M 201.121094 246.152344 C 201.777344 246.882812 202.660156 247.96875 203.652344 248.804688 C 202.601562 248.347656 201.5625 247.878906 200.519531 247.347656 C 200.703125 246.785156 201.125 246.148438 201.121094 246.152344 " fill-opacity="1" fill-rule="nonzero"/><path fill="#f35d3c" d="M 216.421875 232.484375 C 218.148438 236.960938 215.605469 242.007812 210.785156 242.300781 C 211.753906 243.816406 212.121094 245.4375 211.21875 247.550781 C 210.589844 249.011719 209.851562 250.058594 209.054688 250.738281 C 208.320312 250.519531 207.582031 250.289062 206.855469 250.035156 C 209.46875 250.058594 210.625 248.230469 210.335938 244.570312 C 209.597656 243.664062 208.816406 242.808594 208 241.984375 C 207.707031 241.683594 208.320312 239.675781 208.695312 239.785156 C 214.089844 241.253906 218 236.945312 214.195312 232.347656 L 214.148438 232.285156 C 213.902344 232 214.542969 229.945312 214.945312 230.023438 C 216.382812 230.300781 218.460938 230.8125 219.769531 229.757812 C 224.074219 226.261719 220.707031 223.65625 218.105469 222.21875 C 217.683594 221.984375 218.441406 219.808594 218.902344 219.746094 C 220.5 219.515625 228.980469 217.554688 225.757812 213.378906 C 224.570312 211.855469 223.316406 210.980469 221.765625 209.9375 C 221.355469 209.667969 222.121094 207.289062 222.605469 207.3125 C 224.207031 207.386719 230.453125 206.917969 227.742188 202.9375 C 226.597656 201.25 225.433594 200.492188 223.773438 199.523438 C 223.339844 199.261719 224.171875 196.667969 224.667969 196.730469 C 228.457031 197.234375 233.019531 192.101562 229.367188 189.484375 C 230.265625 189.757812 231.160156 190.070312 232.050781 190.402344 C 232.183594 191.285156 232.101562 192.273438 231.710938 193.386719 C 230.898438 195.816406 229.570312 197.980469 227.515625 198.984375 C 229.109375 200.789062 229.515625 202.941406 228.570312 205.910156 C 227.964844 207.808594 226.796875 208.9375 225.296875 209.484375 C 227.039062 211.277344 227.695312 213.316406 226.703125 216.382812 C 225.820312 219.132812 223.617188 220.71875 221.074219 221.554688 C 224.382812 225.609375 221.777344 232.015625 216.421875 232.484375 " fill-opacity="1" fill-rule="nonzero"/><path fill="#f35d3c" d="M 210.980469 249.578125 C 211.515625 250.179688 212.214844 251.023438 213 251.765625 C 212.089844 251.570312 211.195312 251.34375 210.308594 251.097656 C 210.371094 250.507812 210.980469 249.566406 210.980469 249.578125 " fill-opacity="1" fill-rule="nonzero"/><path fill="#f35d3c" d="M 226.292969 235.910156 C 228.023438 240.382812 225.46875 245.429688 220.644531 245.71875 C 221.613281 247.234375 221.984375 248.859375 221.074219 250.972656 C 220.753906 251.71875 220.417969 252.347656 220.046875 252.882812 C 219.6875 252.84375 219.332031 252.808594 218.972656 252.769531 C 219.976562 251.925781 220.378906 250.335938 220.199219 247.992188 C 219.457031 247.085938 218.675781 246.226562 217.855469 245.40625 C 217.578125 245.113281 218.179688 243.101562 218.558594 243.207031 C 223.949219 244.671875 227.871094 240.367188 224.058594 235.773438 L 224.007812 235.707031 C 223.765625 235.425781 224.402344 233.363281 224.808594 233.445312 C 226.242188 233.722656 228.316406 234.234375 229.628906 233.179688 C 233.933594 229.679688 230.582031 227.085938 227.96875 225.640625 C 227.554688 225.410156 228.304688 223.226562 228.765625 223.167969 C 230.363281 222.941406 238.839844 220.976562 235.621094 216.804688 C 234.433594 215.277344 233.191406 214.402344 231.628906 213.359375 C 231.214844 213.09375 231.980469 210.710938 232.480469 210.734375 C 234.070312 210.8125 240.316406 210.335938 237.601562 206.355469 C 236.46875 204.675781 235.3125 203.917969 233.648438 202.949219 C 233.195312 202.679688 234.035156 200.09375 234.523438 200.152344 C 237.671875 200.570312 241.347656 197.113281 240.429688 194.425781 C 240.9375 194.726562 241.429688 195.03125 241.929688 195.363281 C 241.871094 195.820312 241.765625 196.300781 241.589844 196.816406 C 240.761719 199.238281 239.425781 201.410156 237.386719 202.421875 C 238.980469 204.222656 239.386719 206.375 238.433594 209.328125 C 237.820312 211.230469 236.660156 212.355469 235.15625 212.902344 C 236.902344 214.695312 237.554688 216.738281 236.566406 219.808594 C 235.691406 222.554688 233.480469 224.140625 230.929688 224.976562 C 234.25 229.027344 231.65625 235.429688 226.292969 235.910156 " fill-opacity="1" fill-rule="nonzero"/><path fill="#f35d3c" d="M 231.691406 253.011719 C 231.9375 251.589844 231.542969 250.386719 230.8125 249.25 C 235.636719 248.960938 238.191406 243.914062 236.460938 239.4375 C 241.820312 238.957031 244.410156 232.558594 241.101562 228.503906 C 243.644531 227.667969 245.863281 226.085938 246.730469 223.332031 C 247.71875 220.277344 247.070312 218.226562 245.335938 216.433594 C 246.84375 215.878906 247.988281 214.757812 248.601562 212.855469 C 249.554688 209.902344 249.148438 207.75 247.554688 205.9375 C 248.957031 205.257812 250.007812 204.027344 250.796875 202.546875 C 250.425781 202.171875 250.042969 201.8125 249.660156 201.457031 C 248.480469 202.882812 246.5 203.914062 244.707031 203.683594 C 244.203125 203.621094 243.375 206.214844 243.816406 206.476562 C 245.476562 207.445312 246.636719 208.203125 247.769531 209.886719 C 250.480469 213.867188 244.238281 214.335938 242.648438 214.265625 C 242.148438 214.238281 241.386719 216.621094 241.804688 216.890625 C 243.355469 217.933594 244.605469 218.804688 245.789062 220.328125 C 249.023438 224.507812 240.53125 226.464844 238.933594 226.695312 C 238.46875 226.757812 237.722656 228.9375 238.144531 229.167969 C 240.75 230.613281 244.105469 233.207031 239.800781 236.707031 C 238.488281 237.761719 236.410156 237.25 234.972656 236.972656 C 234.570312 236.894531 233.933594 238.953125 234.175781 239.234375 L 234.222656 239.300781 C 238.042969 243.898438 234.117188 248.199219 228.726562 246.734375 C 228.347656 246.628906 227.75 248.640625 228.027344 248.933594 C 228.851562 249.761719 229.625 250.617188 230.363281 251.519531 C 230.410156 252.09375 230.421875 252.609375 230.402344 253.082031 L 231.691406 253.011719 " fill-opacity="1" fill-rule="nonzero"/><path fill="#f35d3c" d="M 246.339844 242.691406 C 247.527344 245.742188 246.722656 249.054688 244.570312 250.945312 L 244.558594 250.941406 C 243.140625 251.253906 241.703125 251.554688 240.207031 251.808594 C 239.453125 251.941406 238.703125 252.058594 237.929688 252.167969 L 237.914062 252.175781 C 237.648438 251.851562 238.242188 249.886719 238.621094 249.992188 C 243.996094 251.457031 247.917969 247.152344 244.121094 242.558594 L 244.070312 242.488281 C 243.820312 242.210938 244.464844 240.148438 244.863281 240.230469 C 246.304688 240.507812 248.378906 241.019531 249.683594 239.964844 C 253.992188 236.46875 250.632812 233.867188 248.023438 232.425781 C 247.609375 232.191406 248.359375 230.015625 248.8125 229.953125 C 250.425781 229.726562 258.902344 227.761719 255.679688 223.589844 C 254.480469 222.058594 253.242188 221.175781 251.6875 220.148438 C 251.277344 219.878906 252.03125 217.492188 252.523438 217.515625 C 254.132812 217.597656 260.371094 217.128906 257.660156 213.144531 C 256.515625 211.457031 255.355469 210.699219 253.691406 209.730469 C 253.261719 209.472656 254.097656 206.878906 254.589844 206.941406 C 254.707031 206.957031 254.835938 206.964844 254.960938 206.972656 C 255.082031 207.113281 255.191406 207.257812 255.320312 207.402344 L 255.332031 207.417969 C 255.851562 208.066406 256.367188 208.746094 256.875 209.4375 C 257.574219 210.390625 258.273438 211.382812 258.945312 212.410156 C 259.085938 213.488281 258.945312 214.714844 258.492188 216.121094 C 257.882812 218.015625 256.71875 219.144531 255.214844 219.699219 C 256.964844 221.484375 257.605469 223.519531 256.625 226.59375 C 255.742188 229.339844 253.523438 230.925781 250.980469 231.757812 C 254.308594 235.808594 251.714844 242.226562 246.339844 242.691406 " fill-opacity="1" fill-rule="nonzero"/><path fill="#f35d3c" d="M 254.75 246.984375 C 254.902344 247.355469 255.011719 247.738281 255.105469 248.125 C 254.617188 248.289062 254.132812 248.449219 253.621094 248.605469 C 253.367188 248.011719 252.984375 247.402344 252.472656 246.796875 C 252.230469 246.503906 252.878906 244.449219 253.273438 244.519531 C 254.710938 244.800781 256.796875 245.316406 258.09375 244.261719 C 262.410156 240.765625 259.046875 238.164062 256.445312 236.71875 C 256.019531 236.488281 256.777344 234.3125 257.230469 234.246094 C 258.84375 234.019531 267.316406 232.070312 264.082031 227.882812 C 262.898438 226.355469 261.65625 225.484375 260.105469 224.441406 C 259.695312 224.171875 260.445312 221.800781 260.945312 221.816406 C 261.542969 221.847656 262.789062 221.804688 263.96875 221.511719 C 264.261719 222.121094 264.558594 222.738281 264.84375 223.363281 C 264.476562 223.628906 264.066406 223.839844 263.632812 223.996094 C 265.367188 225.78125 266.019531 227.828125 265.042969 230.886719 C 264.164062 233.636719 261.945312 235.21875 259.398438 236.054688 C 262.722656 240.113281 260.117188 246.527344 254.75 246.984375 " fill-opacity="1" fill-rule="nonzero"/><path fill="#f35d3c" d="M 269.570312 234.070312 C 276.59375 233.84375 280.269531 229.507812 285.714844 225.714844 C 292.113281 221.253906 300.28125 220.113281 307.511719 217.664062 C 307.910156 217.53125 308.066406 215.90625 308.015625 215.914062 C 301.453125 217.234375 294.773438 219.378906 288.804688 222.40625 C 281.898438 225.898438 278.355469 232.214844 270.015625 232.667969 C 269.660156 232.6875 269.480469 234.074219 269.570312 234.070312 " fill-opacity="1" fill-rule="nonzero"/><path fill="#f35d3c" d="M 269.917969 240.789062 C 270.238281 243.515625 271.613281 245.640625 272.8125 248.078125 C 274.082031 250.691406 273.886719 254.167969 274.574219 257.003906 C 275.496094 260.78125 278.277344 264.355469 280.082031 267.761719 C 282.507812 272.335938 284.808594 276.984375 287.398438 281.46875 C 287.484375 281.617188 288.492188 279.839844 288.230469 279.324219 C 284.558594 272.203125 280.554688 265.230469 276.496094 258.320312 C 274.917969 255.621094 274.746094 252.648438 274.222656 249.636719 C 273.589844 246.015625 271.007812 243.304688 270.421875 239.699219 C 270.375 239.40625 269.882812 240.515625 269.917969 240.789062 " fill-opacity="1" fill-rule="nonzero"/><path fill="#f35d3c" d="M 273.84375 238.535156 C 278.832031 242.039062 280.363281 249.058594 282.371094 254.484375 C 284.140625 259.253906 286.132812 266.570312 291.964844 267.589844 C 292.121094 267.613281 292.347656 266.851562 292.230469 266.746094 C 289.722656 264.425781 287.308594 262.777344 285.621094 259.65625 C 284.316406 257.246094 283.460938 254.492188 282.496094 251.933594 C 280.566406 246.816406 279.042969 240.515625 274.25 237.285156 C 274.15625 237.226562 273.59375 238.359375 273.84375 238.535156 " fill-opacity="1" fill-rule="nonzero"/><path fill="#f35d3c" d="M 279.417969 236.707031 C 283.121094 235.070312 287.007812 234.058594 290.96875 233.242188 C 294.226562 232.570312 297.683594 232.484375 300.84375 231.472656 C 301.003906 231.417969 301.230469 230.539062 301.121094 230.53125 C 297.59375 230.242188 293.644531 231.355469 290.191406 232.066406 C 286.558594 232.820312 283.050781 233.980469 279.703125 235.585938 C 279.445312 235.714844 279.335938 236.742188 279.417969 236.707031 " fill-opacity="1" fill-rule="nonzero"/><path fill="#f35d3c" d="M 282.902344 241.613281 C 286.003906 241.757812 289.105469 241.820312 292.207031 241.847656 C 295.363281 241.875 298.761719 242.339844 301.851562 241.734375 C 302.054688 241.695312 302.390625 240.695312 302.207031 240.636719 C 299.324219 239.652344 295.816406 240.066406 292.792969 240.035156 C 289.667969 240.007812 286.550781 240.011719 283.441406 239.929688 C 283.039062 239.917969 282.75 241.605469 282.902344 241.613281 " fill-opacity="1" fill-rule="nonzero"/><path fill="#f35d3c" d="M 283.070312 246.417969 C 285.484375 247.59375 287.390625 249.566406 289.191406 251.515625 C 290.285156 252.691406 291.3125 253.921875 292.316406 255.175781 C 292.984375 256.027344 293.53125 257.160156 294.460938 257.75 C 294.574219 257.816406 294.804688 257.003906 294.765625 256.886719 C 293.957031 254.609375 291.816406 252.425781 290.230469 250.636719 C 288.308594 248.46875 286.171875 246.265625 283.515625 245.015625 C 283.351562 244.941406 282.808594 246.292969 283.070312 246.417969 " fill-opacity="1" fill-rule="nonzero"/><path fill="#569850" d="M 128.183594 344.335938 C 127.585938 344.335938 127.015625 343.996094 126.746094 343.417969 C 121.910156 332.882812 119.621094 320.8125 120.289062 309.421875 C 120.734375 301.808594 123.46875 295.054688 126.109375 288.519531 C 127.34375 285.464844 128.625 282.300781 129.664062 279.0625 C 134.480469 264.109375 138.464844 250.496094 138.460938 235.335938 C 138.453125 224.152344 137.449219 212.152344 135.296875 197.570312 C 135.148438 196.597656 134.992188 195.59375 134.824219 194.5625 C 133.6875 187.335938 132.394531 179.148438 134.585938 172.390625 C 134.851562 171.5625 135.734375 171.105469 136.574219 171.375 C 137.40625 171.644531 137.855469 172.535156 137.589844 173.363281 C 135.632812 179.40625 136.867188 187.195312 137.949219 194.070312 C 138.117188 195.113281 138.277344 196.125 138.421875 197.105469 C 140.597656 211.84375 141.609375 223.992188 141.617188 235.335938 C 141.628906 250.957031 137.574219 264.816406 132.671875 280.03125 C 131.59375 283.375 130.296875 286.59375 129.035156 289.707031 C 126.375 296.292969 123.855469 302.511719 123.441406 309.609375 C 122.800781 320.484375 124.996094 332.027344 129.621094 342.101562 C 129.984375 342.890625 129.640625 343.828125 128.84375 344.191406 C 128.628906 344.292969 128.40625 344.335938 128.183594 344.335938 " fill-opacity="1" fill-rule="nonzero"/><path fill="#569850" d="M 121.46875 313.523438 C 122.261719 306.410156 136.878906 295.746094 137.273438 307.597656 C 137.664062 313.523438 123.445312 321.820312 118.703125 318.65625 " fill-opacity="1" fill-rule="nonzero"/><path fill="#569850" d="M 123.445312 300.878906 C 117.125 298.90625 98.160156 283.496094 105.273438 278.359375 C 114.359375 271.25 124.234375 291.398438 123.445312 297.71875 " fill-opacity="1" fill-rule="nonzero"/><path fill="#569850" d="M 130.160156 280.335938 C 132.140625 275.992188 135.691406 270.460938 140.039062 268.484375 C 143.59375 266.90625 152.679688 266.90625 151.890625 272.828125 C 151.492188 277.574219 133.320312 281.523438 128.976562 281.523438 " fill-opacity="1" fill-rule="nonzero"/><path fill="#569850" d="M 136.878906 258.210938 C 131.742188 257.425781 113.960938 245.570312 118.3125 240.039062 C 123.839844 233.71875 136.484375 251.496094 136.484375 256.238281 " fill-opacity="1" fill-rule="nonzero"/><path fill="#569850" d="M 139.644531 241.226562 C 140.433594 231.742188 162.949219 221.867188 161.371094 232.535156 C 160.582031 238.460938 142.804688 240.4375 138.0625 240.828125 " fill-opacity="1" fill-rule="nonzero"/><path fill="#569850" d="M 137.664062 220.289062 C 132.140625 220.679688 113.566406 210.808594 121.46875 206.460938 C 127.792969 202.902344 136.484375 213.964844 138.460938 218.707031 " fill-opacity="1" fill-rule="nonzero"/><path fill="#569850" d="M 136.878906 198.160156 C 137.664062 192.238281 149.515625 170.902344 156.234375 182.757812 C 160.980469 191.449219 140.824219 199.347656 136.082031 197.769531 " fill-opacity="1" fill-rule="nonzero"/><path fill="#569850" d="M 133.320312 183.542969 C 128.582031 183.941406 109.222656 175.644531 118.3125 170.507812 C 124.632812 166.953125 131.34375 176.828125 132.527344 181.570312 " fill-opacity="1" fill-rule="nonzero"/><path fill="#508d4a" d="M 124.492188 307.605469 C 124.660156 308.507812 124.8125 309.410156 124.9375 310.308594 C 125.015625 310.878906 124.949219 311.398438 124.792969 311.867188 C 128.007812 309.984375 131.457031 308.453125 134.746094 306.554688 C 135.484375 306.132812 136.210938 305.707031 136.9375 305.292969 C 135.359375 299.636719 128.546875 302.890625 124.492188 307.605469 " fill-opacity="1" fill-rule="nonzero"/><path fill="#508d4a" d="M 122.824219 300.644531 C 123.03125 300.722656 123.253906 300.820312 123.445312 300.878906 L 123.445312 297.71875 C 124.183594 291.792969 115.539062 273.691406 106.960938 277.347656 C 115.039062 282.605469 120.0625 291.386719 122.824219 300.644531 " fill-opacity="1" fill-rule="nonzero"/><path fill="#508d4a" d="M 151.875 272.90625 L 151.890625 272.828125 C 152.679688 266.90625 143.59375 266.90625 140.039062 268.484375 C 137.15625 269.796875 134.640625 272.664062 132.683594 275.71875 C 138.367188 274.171875 145.214844 272.847656 151.875 272.90625 " fill-opacity="1" fill-rule="nonzero"/><path fill="#508d4a" d="M 136 258.003906 C 136.320312 258.101562 136.621094 258.171875 136.878906 258.210938 L 136.484375 256.238281 C 136.484375 251.578125 124.277344 234.347656 118.605469 239.75 C 124.824219 245.484375 131.449219 250.914062 136 258.003906 " fill-opacity="1" fill-rule="nonzero"/><path fill="#508d4a" d="M 160.375 232.746094 C 160.703125 232.6875 161.027344 232.632812 161.359375 232.574219 L 161.371094 232.535156 C 162.71875 223.433594 146.539062 229.289062 141.265625 237.089844 C 147.117188 233.988281 153.707031 233.871094 160.375 232.746094 " fill-opacity="1" fill-rule="nonzero"/><path fill="#508d4a" d="M 131.660156 213.523438 C 133.546875 215.652344 135.382812 217.898438 136.992188 220.285156 C 137.234375 220.300781 137.460938 220.300781 137.664062 220.289062 L 138.460938 218.707031 C 136.5625 214.160156 128.507812 203.851562 122.277344 206.125 C 125.929688 207.691406 129.09375 210.632812 131.660156 213.523438 " fill-opacity="1" fill-rule="nonzero"/><path fill="#508d4a" d="M 154.429688 181.953125 C 154.753906 181.804688 155.082031 181.648438 155.410156 181.5 C 150.648438 175.285156 143.886719 183.070312 139.976562 190.292969 L 140.121094 190.488281 C 144.351562 186.929688 149.355469 184.296875 154.429688 181.953125 " fill-opacity="1" fill-rule="nonzero"/><path fill="#508d4a" d="M 126.375 176.625 C 128.640625 178.207031 130.703125 179.949219 132.632812 181.816406 L 132.527344 181.570312 C 131.34375 176.828125 124.632812 166.953125 118.3125 170.507812 C 117.605469 170.90625 117.09375 171.320312 116.707031 171.757812 C 120.332031 172.898438 123.890625 174.882812 126.375 176.625 " fill-opacity="1" fill-rule="nonzero"/><path fill="#569850" d="M 267.898438 338.957031 C 267.441406 338.957031 266.996094 338.691406 266.792969 338.246094 C 263.058594 330.125 261.296875 320.816406 261.8125 312.035156 C 262.15625 306.164062 264.261719 300.957031 266.296875 295.921875 C 267.25 293.566406 268.234375 291.125 269.035156 288.628906 C 272.75 277.101562 275.820312 266.609375 275.816406 254.921875 C 275.8125 246.300781 275.035156 237.042969 273.375 225.800781 C 273.265625 225.050781 273.148438 224.277344 273.019531 223.484375 C 272.140625 217.914062 271.144531 211.601562 272.828125 206.390625 C 273.035156 205.753906 273.71875 205.398438 274.363281 205.609375 C 275.007812 205.816406 275.351562 206.5 275.148438 207.144531 C 273.640625 211.800781 274.589844 217.808594 275.425781 223.105469 C 275.550781 223.90625 275.675781 224.6875 275.789062 225.445312 C 277.46875 236.8125 278.246094 246.175781 278.253906 254.917969 C 278.261719 266.960938 275.136719 277.648438 271.355469 289.375 C 270.527344 291.957031 269.523438 294.4375 268.554688 296.835938 C 266.503906 301.914062 264.558594 306.707031 264.238281 312.179688 C 263.746094 320.566406 265.441406 329.464844 269.003906 337.226562 C 269.285156 337.839844 269.015625 338.5625 268.40625 338.84375 C 268.242188 338.917969 268.066406 338.957031 267.898438 338.957031 " fill-opacity="1" fill-rule="nonzero"/><path fill="#569850" d="M 262.71875 315.195312 C 263.328125 309.714844 274.601562 301.488281 274.898438 310.628906 C 275.207031 315.195312 264.246094 321.59375 260.589844 319.15625 " fill-opacity="1" fill-rule="nonzero"/><path fill="#569850" d="M 264.246094 305.453125 C 259.371094 303.929688 244.75 292.046875 250.230469 288.089844 C 257.238281 282.605469 264.851562 298.140625 264.246094 303.011719 " fill-opacity="1" fill-rule="nonzero"/><path fill="#569850" d="M 269.421875 289.613281 C 270.945312 286.261719 273.683594 281.996094 277.035156 280.476562 C 279.777344 279.257812 286.785156 279.257812 286.171875 283.824219 C 285.871094 287.480469 271.855469 290.523438 268.507812 290.523438 " fill-opacity="1" fill-rule="nonzero"/><path fill="#569850" d="M 274.601562 272.554688 C 270.640625 271.949219 256.933594 262.8125 260.285156 258.542969 C 264.546875 253.671875 274.292969 267.378906 274.292969 271.03125 " fill-opacity="1" fill-rule="nonzero"/><path fill="#569850" d="M 276.730469 259.460938 C 277.335938 252.148438 294.703125 244.535156 293.480469 252.757812 C 292.875 257.324219 279.167969 258.847656 275.511719 259.152344 " fill-opacity="1" fill-rule="nonzero"/><path fill="#569850" d="M 275.207031 243.316406 C 270.945312 243.621094 256.625 236.003906 262.71875 232.652344 C 267.59375 229.914062 274.292969 238.445312 275.816406 242.097656 " fill-opacity="1" fill-rule="nonzero"/><path fill="#569850" d="M 274.601562 226.261719 C 275.207031 221.691406 284.34375 205.242188 289.519531 214.378906 C 293.175781 221.082031 277.648438 227.171875 273.988281 225.957031 " fill-opacity="1" fill-rule="nonzero"/><path fill="#569850" d="M 271.855469 214.988281 C 268.203125 215.296875 253.277344 208.898438 260.285156 204.941406 C 265.15625 202.195312 270.332031 209.8125 271.246094 213.46875 " fill-opacity="1" fill-rule="nonzero"/><path fill="#508d4a" d="M 265.050781 310.636719 C 265.175781 311.328125 265.292969 312.027344 265.390625 312.714844 C 265.457031 313.15625 265.402344 313.558594 265.285156 313.921875 C 267.765625 312.46875 270.417969 311.289062 272.957031 309.820312 C 273.519531 309.496094 274.082031 309.171875 274.648438 308.847656 C 273.433594 304.488281 268.175781 306.996094 265.050781 310.636719 " fill-opacity="1" fill-rule="nonzero"/><path fill="#508d4a" d="M 263.765625 305.265625 C 263.929688 305.328125 264.101562 305.40625 264.246094 305.453125 L 264.246094 303.011719 C 264.816406 298.441406 258.148438 284.488281 251.535156 287.308594 C 257.761719 291.359375 261.636719 298.132812 263.765625 305.265625 " fill-opacity="1" fill-rule="nonzero"/><path fill="#508d4a" d="M 286.160156 283.882812 L 286.171875 283.824219 C 286.785156 279.257812 279.777344 279.257812 277.035156 280.476562 C 274.816406 281.484375 272.871094 283.695312 271.363281 286.050781 C 275.75 284.859375 281.023438 283.835938 286.160156 283.882812 " fill-opacity="1" fill-rule="nonzero"/><path fill="#508d4a" d="M 273.925781 272.394531 C 274.167969 272.46875 274.398438 272.523438 274.601562 272.554688 L 274.292969 271.03125 C 274.292969 267.441406 264.882812 254.15625 260.511719 258.320312 C 265.3125 262.742188 270.410156 266.929688 273.925781 272.394531 " fill-opacity="1" fill-rule="nonzero"/><path fill="#508d4a" d="M 292.714844 252.921875 C 292.96875 252.878906 293.21875 252.832031 293.476562 252.792969 L 293.480469 252.757812 C 294.523438 245.746094 282.050781 250.253906 277.980469 256.269531 C 282.488281 253.882812 287.574219 253.789062 292.714844 252.921875 " fill-opacity="1" fill-rule="nonzero"/><path fill="#508d4a" d="M 270.578125 238.105469 C 272.035156 239.742188 273.445312 241.476562 274.6875 243.316406 C 274.871094 243.324219 275.050781 243.328125 275.207031 243.316406 L 275.816406 242.097656 C 274.355469 238.59375 268.148438 230.648438 263.339844 232.398438 C 266.15625 233.609375 268.59375 235.871094 270.578125 238.105469 " fill-opacity="1" fill-rule="nonzero"/><path fill="#508d4a" d="M 288.128906 213.765625 C 288.378906 213.648438 288.632812 213.53125 288.886719 213.414062 C 285.21875 208.621094 280.007812 214.628906 276.984375 220.1875 L 277.097656 220.34375 C 280.359375 217.601562 284.21875 215.570312 288.128906 213.765625 " fill-opacity="1" fill-rule="nonzero"/><path fill="#508d4a" d="M 266.503906 209.652344 C 268.246094 210.875 269.839844 212.214844 271.324219 213.65625 L 271.246094 213.46875 C 270.332031 209.8125 265.15625 202.195312 260.285156 204.941406 C 259.742188 205.246094 259.34375 205.566406 259.050781 205.898438 C 261.839844 206.78125 264.589844 208.3125 266.503906 209.652344 " fill-opacity="1" fill-rule="nonzero"/></svg>