<svg xmlns="http://www.w3.org/2000/svg" xmlns:xlink="http://www.w3.org/1999/xlink" width="512" zoomAndPan="magnify" viewBox="0 0 384 383.999986" height="512" preserveAspectRatio="xMidYMid meet" version="1.0"><path fill="#000000" d="M 53.089844 332.828125 C 51.847656 335.707031 50.066406 338.050781 47.316406 339.425781 C 44.894531 338.273438 44.515625 335.082031 40.722656 335.300781 C 36.609375 336.40625 34.421875 339.441406 33.304688 343.539062 C 42.191406 351.6875 66.578125 350.167969 78.644531 343.539062 C 77.71875 340.074219 76.628906 336.769531 72.050781 336.949219 C 68.308594 336.507812 69.847656 341.339844 66.28125 341.066406 C 61.621094 338.582031 60.3125 332.75 53.089844 332.828125 Z M 184.164062 339.425781 C 180.964844 338.5 179.945312 335.402344 176.746094 334.476562 C 175.152344 336.453125 172.117188 336.996094 171.800781 340.246094 C 180.691406 344.460938 200.46875 354.398438 214.667969 346.015625 C 217.800781 339.371094 213.6875 335.015625 208.074219 332.828125 C 205.71875 334.046875 203.097656 335 200.652344 336.125 C 199.117188 334.367188 197.679688 332.507812 196.53125 330.355469 C 189.078125 330.046875 187.566406 335.679688 184.164062 339.425781 Z M 68.753906 161.433594 C 63.421875 151.351562 62.167969 131.726562 50.617188 130.941406 C 45.378906 141.902344 49.5 166.90625 56.386719 177.914062 C 58.605469 181.457031 63.007812 184.445312 65.453125 187.800781 C 68.828125 192.421875 70.914062 197.296875 76.171875 196.863281 C 80.015625 193.5625 82.113281 188.519531 84.417969 183.679688 C 77.871094 177.6875 73.835938 171.035156 68.753906 161.433594 Z M 97.605469 100.449219 C 111.839844 108.234375 124.105469 88.714844 113.269531 78.203125 C 96.984375 73.566406 89.539062 89.386719 97.605469 100.449219 Z M 185.816406 61.71875 C 181.34375 59.6875 176.710938 63.351562 172.625 63.371094 C 168.859375 67.972656 169.191406 74.046875 171.800781 79.847656 C 180.8125 83.703125 192.804688 79.0625 190.761719 66.664062 C 187.066406 67.613281 188.089844 62.753906 185.816406 61.71875 Z M 165.207031 66.664062 C 167.039062 58.355469 177.382812 55.597656 185.816406 56.777344 C 185.039062 51.78125 179.265625 51.789062 178.394531 46.890625 C 177.148438 42.640625 176.726562 37.574219 171.800781 37 C 168.722656 39.582031 172.054688 44.0625 169.328125 47.710938 C 159.875 49.359375 151.210938 51.390625 139.648438 54.308594 C 125.753906 57.8125 115.609375 66.335938 110.796875 52.65625 C 103.851562 54.277344 104.488281 65.308594 106.675781 71.609375 C 138.375 74.136719 115.007812 122.226562 93.484375 102.921875 C 93.324219 109.679688 99.226562 110.371094 101.726562 114.460938 C 104.832031 133.210938 105.394531 150.429688 100.902344 167.199219 C 98.855469 174.84375 93.296875 178.15625 88.535156 184.503906 C 83.75 190.886719 81.101562 199.621094 76.171875 206.75 C 64.425781 223.734375 46.980469 236.625 34.953125 247.953125 C 25.070312 257.832031 18.878906 275.449219 15.167969 292.449219 C 14.214844 296.828125 11.542969 301 11.046875 304.8125 C 9.378906 317.640625 12.28125 344.515625 27.535156 344.367188 C 29.058594 335.613281 38.078125 326.265625 47.316406 332.828125 C 51.117188 324.789062 62.328125 329.234375 66.28125 334.476562 C 72.398438 328.949219 82.703125 333.929688 82.765625 341.894531 C 110.398438 343.671875 137.59375 343.792969 165.207031 342.71875 C 166.261719 334.839844 175.585938 326.300781 183.339844 332.828125 C 187.378906 328.542969 190.507812 325.289062 195.707031 325.414062 C 199.347656 325.5 204.023438 332.527344 209.722656 327.886719 C 216.019531 330.652344 218.574219 337.164062 222.910156 341.894531 C 229.757812 344.328125 235.539062 338.597656 241.046875 336.949219 C 264.496094 308.917969 282.3125 275.078125 325.136719 267.730469 C 340 265.179688 357.546875 268.34375 368.828125 260.316406 C 376.300781 245.253906 353.691406 239.109375 342.449219 239.714844 C 306.980469 241.628906 256.902344 266.917969 244.34375 291.628906 C 233.648438 294.492188 236.003906 314.46875 224.558594 313.875 C 225.417969 309.238281 230.035156 308.359375 230.332031 303.164062 C 224.707031 302.292969 220.128906 305.417969 217.964844 301.515625 C 221.273438 298.050781 225.933594 300.328125 231.15625 298.222656 C 233.082031 292.265625 235.46875 283.667969 236.101562 275.972656 C 239.140625 238.886719 223.214844 201.75 217.140625 168.023438 C 219.3125 167.449219 218.882812 164.273438 221.261719 163.902344 C 242.148438 164.039062 291.1875 156.242188 285.5625 131.765625 C 265.882812 124.046875 248.964844 128.285156 233.628906 134.234375 C 224.972656 137.59375 217.164062 147.335938 210.546875 144.125 C 207.292969 120.761719 202.929688 100.582031 192.410156 83.144531 C 193.625 81.542969 196.976562 71.933594 194.882812 74.90625 C 188.714844 91.601562 160.273438 89.019531 165.207031 66.664062 Z M 217.964844 131.765625 C 239.472656 122.367188 271.601562 111.621094 293.808594 126.824219 C 302.714844 155.296875 270.414062 163 250.941406 172.140625 C 244.4375 170.242188 236.4375 174.386719 227.855469 172.96875 C 233.273438 205.496094 249.03125 234.804688 244.34375 274.320312 C 263.597656 259.367188 293.570312 239.1875 324.308594 233.121094 C 330.082031 231.984375 338.425781 230.578125 344.097656 230.648438 C 357.765625 230.824219 383.988281 241.4375 379.542969 257.839844 C 373.757812 279.183594 335.347656 274.980469 312.765625 282.5625 C 299.015625 287.179688 286.183594 295.074219 277.320312 304.8125 C 267.609375 315.480469 263.945312 328.96875 253.410156 338.597656 C 244.292969 346.933594 237.117188 345.734375 222.910156 350.132812 C 218.996094 351.34375 218.261719 351.941406 215.492188 354.253906 C 204.554688 356.390625 195.011719 356.792969 183.339844 355.078125 C 177.863281 354.273438 172.5 350.695312 166.855469 350.132812 C 162.988281 349.75 158.328125 351.621094 153.664062 351.78125 C 147.417969 352 141.082031 350.464844 133.878906 350.132812 C 126.949219 349.816406 119.246094 351.792969 112.445312 351.78125 C 103.90625 351.769531 95.753906 348.933594 88.535156 350.132812 C 81.613281 351.289062 77.019531 357.160156 67.925781 358.375 C 48.085938 361.027344 25.863281 352.117188 8.574219 344.367188 C 1.019531 321.007812 0.0351562 298.621094 7.75 276.796875 C 18.847656 245.398438 47.375 224.128906 67.105469 202.632812 C 47.171875 188.269531 25.941406 152.3125 44.019531 124.347656 C 75.320312 118.296875 69.914062 160.34375 86.890625 173.792969 C 96.160156 161.925781 98.464844 138.210938 93.484375 121.050781 C 86.820312 116.636719 79.574219 105.773438 87.714844 97.980469 C 87.242188 94.421875 83.859375 92.558594 84.417969 86.441406 C 85.097656 78.949219 95.132812 76.949219 97.605469 69.960938 C 99.515625 64.558594 95.460938 57.273438 97.605469 51.832031 C 100.625 44.179688 114.648438 41.472656 118.214844 51.011719 C 131.902344 49.03125 142.164062 43.632812 156.136719 41.945312 C 160.40625 34.621094 171 22.789062 181.691406 32.882812 C 183.53125 34.617188 185.3125 41.5 188.289062 46.066406 C 190.582031 49.582031 195.050781 51.828125 197.355469 55.128906 C 198.992188 57.472656 199.101562 60.734375 200.652344 63.371094 C 204.136719 69.285156 209.792969 78.914062 203.949219 87.265625 C 212.128906 98.59375 216.257812 113.96875 217.964844 131.765625 " fill-opacity="1" fill-rule="evenodd"/><path fill="#fffef8" d="M 180.867188 72.433594 C 183.1875 72.277344 184.378906 71 184.164062 68.3125 C 181.617188 60.996094 172.761719 71.378906 180.867188 72.433594 Z M 190.761719 66.664062 C 192.804688 79.0625 180.8125 83.703125 171.800781 79.847656 C 169.191406 74.046875 168.859375 67.972656 172.625 63.371094 C 176.710938 63.351562 181.34375 59.6875 185.816406 61.71875 C 188.089844 62.753906 187.066406 67.613281 190.761719 66.664062 " fill-opacity="1" fill-rule="evenodd"/><path fill="#000000" d="M 184.164062 68.3125 C 184.378906 71 183.1875 72.277344 180.867188 72.433594 C 172.761719 71.378906 181.617188 60.996094 184.164062 68.3125 " fill-opacity="1" fill-rule="evenodd"/><path fill="#fffef8" d="M 99.253906 88.914062 C 99.488281 91.152344 100.316406 92.800781 101.726562 93.859375 C 105.007812 94.390625 105.039062 91.679688 108.324219 92.214844 C 108.597656 89.195312 107.40625 87.632812 106.675781 85.621094 C 101.945312 84.464844 102.40625 88.496094 99.253906 88.914062 Z M 113.269531 78.203125 C 124.105469 88.714844 111.839844 108.234375 97.605469 100.449219 C 89.539062 89.386719 96.984375 73.566406 113.269531 78.203125 " fill-opacity="1" fill-rule="evenodd"/><path fill="#000000" d="M 106.675781 85.621094 C 107.40625 87.632812 108.597656 89.195312 108.324219 92.214844 C 105.039062 91.679688 105.007812 94.390625 101.726562 93.859375 C 100.316406 92.800781 99.488281 91.152344 99.253906 88.914062 C 102.40625 88.496094 101.945312 84.464844 106.675781 85.621094 " fill-opacity="1" fill-rule="evenodd"/><path fill="#000000" d="M 129.757812 90.5625 C 131.726562 95.757812 129.035156 102.875 123.160156 102.921875 C 122.902344 99.105469 125.980469 92.945312 129.757812 90.5625 " fill-opacity="1" fill-rule="evenodd"/><path fill="#000000" d="M 142.121094 107.042969 C 142.03125 110.160156 143.734375 111.476562 146.246094 111.988281 C 148.015625 111.292969 149.160156 109.957031 148.71875 107.042969 C 146.40625 106.09375 144.429688 106.09375 142.121094 107.042969 Z M 155.3125 105.398438 C 153.082031 109.484375 151.742188 114.464844 148.71875 117.753906 C 149.546875 119.398438 150.140625 121.277344 152.015625 121.875 C 155.746094 121.757812 156.328125 118.5 160.257812 118.578125 C 164.511719 125.347656 151.089844 130.96875 147.894531 125.171875 C 145.566406 127.160156 140.980469 128.734375 137.175781 126.824219 C 137.847656 123.972656 135.636719 123.339844 137.175781 121.875 C 139.695312 121.28125 140.179688 122.71875 142.121094 122.703125 C 144.480469 122.585938 143.628906 119.265625 143.769531 116.929688 C 139.640625 114.742188 136.617188 111.449219 137.175781 104.570312 C 141.871094 100.671875 153.355469 99.179688 155.3125 105.398438 " fill-opacity="1" fill-rule="evenodd"/><path fill="#ffe3e6" d="M 148.71875 107.042969 C 149.160156 109.957031 148.015625 111.292969 146.246094 111.988281 C 143.734375 111.476562 142.03125 110.160156 142.121094 107.042969 C 144.429688 106.09375 146.40625 106.09375 148.71875 107.042969 " fill-opacity="1" fill-rule="evenodd"/><path fill="#c2ced3" d="M 84.417969 183.679688 C 82.113281 188.519531 80.015625 193.5625 76.171875 196.863281 C 70.914062 197.296875 68.828125 192.421875 65.453125 187.800781 C 63.007812 184.445312 58.605469 181.457031 56.386719 177.914062 C 49.5 166.90625 45.378906 141.902344 50.617188 130.941406 C 62.167969 131.726562 63.421875 151.351562 68.753906 161.433594 C 73.835938 171.035156 77.871094 177.6875 84.417969 183.679688 " fill-opacity="1" fill-rule="evenodd"/><path fill="#000000" d="M 175.097656 153.1875 C 176.65625 153.28125 175.667969 155.914062 177.570312 155.660156 C 176.472656 158.441406 174.289062 163.496094 170.152344 160.605469 C 170.742188 157.078125 172.691406 154.898438 175.097656 153.1875 " fill-opacity="1" fill-rule="evenodd"/><path fill="#000000" d="M 183.339844 160.605469 C 182.960938 164.539062 180.289062 168.03125 176.746094 166.375 C 177.277344 162.785156 178.878906 160.269531 183.339844 160.605469 " fill-opacity="1" fill-rule="evenodd"/><path fill="#000000" d="M 98.429688 210.871094 C 101.84375 210.207031 102.660156 212.136719 102.550781 214.992188 C 99.695312 215.101562 97.765625 214.285156 98.429688 210.871094 " fill-opacity="1" fill-rule="evenodd"/><path fill="#000000" d="M 90.1875 216.640625 C 93.535156 217.140625 94.917969 219.601562 95.957031 222.410156 C 94.554688 222.105469 94.402344 223.054688 94.308594 224.058594 C 92.292969 223.597656 92.550781 220.867188 89.363281 221.585938 C 88.765625 219.066406 90.207031 218.582031 90.1875 216.640625 " fill-opacity="1" fill-rule="evenodd"/><path fill="#000000" d="M 167.675781 285.039062 C 168.898438 285.464844 169.753906 286.253906 170.976562 286.683594 C 171.5 290.507812 169.480469 291.78125 167.675781 293.277344 C 165.777344 293.527344 166.761719 290.894531 165.207031 290.804688 C 164.996094 287.847656 167.679688 287.785156 167.675781 285.039062 " fill-opacity="1" fill-rule="evenodd"/><path fill="#000000" d="M 175.921875 293.277344 C 175.042969 298.164062 172.351562 301.242188 167.675781 302.339844 C 165.875 297.441406 171.820312 294.839844 175.921875 293.277344 " fill-opacity="1" fill-rule="evenodd"/><path fill="#d7dfe2" d="M 196.53125 330.355469 C 197.679688 332.507812 199.117188 334.367188 200.652344 336.125 C 203.097656 335 205.71875 334.046875 208.074219 332.828125 C 213.6875 335.015625 217.800781 339.371094 214.667969 346.015625 C 200.46875 354.398438 180.691406 344.460938 171.800781 340.246094 C 172.117188 336.996094 175.152344 336.453125 176.746094 334.476562 C 179.945312 335.402344 180.964844 338.5 184.164062 339.425781 C 187.566406 335.679688 189.078125 330.046875 196.53125 330.355469 " fill-opacity="1" fill-rule="evenodd"/><path fill="#d7dfe2" d="M 66.28125 341.066406 C 69.847656 341.339844 68.308594 336.507812 72.050781 336.949219 C 76.628906 336.769531 77.71875 340.074219 78.644531 343.539062 C 66.578125 350.167969 42.191406 351.6875 33.304688 343.539062 C 34.421875 339.441406 36.609375 336.40625 40.722656 335.300781 C 44.515625 335.082031 44.894531 338.273438 47.316406 339.425781 C 50.066406 338.050781 51.847656 335.707031 53.089844 332.828125 C 60.3125 332.75 61.621094 338.582031 66.28125 341.066406 " fill-opacity="1" fill-rule="evenodd"/><path fill="#c2ced3" d="M 167.675781 302.339844 C 172.351562 301.242188 175.042969 298.164062 175.921875 293.277344 C 171.820312 294.839844 165.875 297.441406 167.675781 302.339844 Z M 165.207031 290.804688 C 166.761719 290.894531 165.777344 293.527344 167.675781 293.277344 C 169.480469 291.78125 171.5 290.507812 170.976562 286.683594 C 169.753906 286.253906 168.898438 285.464844 167.675781 285.039062 C 167.679688 287.785156 164.996094 287.847656 165.207031 290.804688 Z M 89.363281 221.585938 C 92.550781 220.867188 92.292969 223.597656 94.308594 224.058594 C 94.402344 223.054688 94.554688 222.105469 95.957031 222.410156 C 94.917969 219.601562 93.535156 217.140625 90.1875 216.640625 C 90.207031 218.582031 88.765625 219.066406 89.363281 221.585938 Z M 102.550781 214.992188 C 102.660156 212.136719 101.84375 210.207031 98.429688 210.871094 C 97.765625 214.285156 99.695312 215.101562 102.550781 214.992188 Z M 176.746094 166.375 C 180.289062 168.03125 182.960938 164.539062 183.339844 160.605469 C 178.878906 160.269531 177.277344 162.785156 176.746094 166.375 Z M 170.152344 160.605469 C 174.289062 163.496094 176.472656 158.441406 177.570312 155.660156 C 175.667969 155.914062 176.65625 153.28125 175.097656 153.1875 C 172.691406 154.898438 170.742188 157.078125 170.152344 160.605469 Z M 137.175781 104.570312 C 136.617188 111.449219 139.640625 114.742188 143.769531 116.929688 C 143.628906 119.265625 144.480469 122.585938 142.121094 122.703125 C 140.179688 122.71875 139.695312 121.28125 137.175781 121.875 C 135.636719 123.339844 137.847656 123.972656 137.175781 126.824219 C 140.980469 128.734375 145.566406 127.160156 147.894531 125.171875 C 151.089844 130.96875 164.511719 125.347656 160.257812 118.578125 C 156.328125 118.5 155.746094 121.757812 152.015625 121.875 C 150.140625 121.277344 149.546875 119.398438 148.71875 117.753906 C 151.742188 114.464844 153.082031 109.484375 155.3125 105.398438 C 153.355469 99.179688 141.871094 100.671875 137.175781 104.570312 Z M 123.160156 102.921875 C 129.035156 102.875 131.726562 95.757812 129.757812 90.5625 C 125.980469 92.945312 122.902344 99.105469 123.160156 102.921875 Z M 194.882812 74.90625 C 196.976562 71.933594 193.625 81.542969 192.410156 83.144531 C 202.929688 100.582031 207.292969 120.761719 210.546875 144.125 C 217.164062 147.335938 224.972656 137.59375 233.628906 134.234375 C 248.964844 128.285156 265.882812 124.046875 285.5625 131.765625 C 291.1875 156.242188 242.148438 164.039062 221.261719 163.902344 C 218.882812 164.273438 219.3125 167.449219 217.140625 168.023438 C 223.214844 201.75 239.140625 238.886719 236.101562 275.972656 C 235.46875 283.667969 233.082031 292.265625 231.15625 298.222656 C 225.933594 300.328125 221.273438 298.050781 217.964844 301.515625 C 220.128906 305.417969 224.707031 302.292969 230.332031 303.164062 C 230.035156 308.359375 225.417969 309.238281 224.558594 313.875 C 236.003906 314.46875 233.648438 294.492188 244.34375 291.628906 C 256.902344 266.917969 306.980469 241.628906 342.449219 239.714844 C 353.691406 239.109375 376.300781 245.253906 368.828125 260.316406 C 357.546875 268.34375 340 265.179688 325.136719 267.730469 C 282.3125 275.078125 264.496094 308.917969 241.046875 336.949219 C 235.539062 338.597656 229.757812 344.328125 222.910156 341.894531 C 218.574219 337.164062 216.019531 330.652344 209.722656 327.886719 C 204.023438 332.527344 199.347656 325.5 195.707031 325.414062 C 190.507812 325.289062 187.378906 328.542969 183.339844 332.828125 C 175.585938 326.300781 166.261719 334.839844 165.207031 342.71875 C 137.59375 343.792969 110.398438 343.671875 82.765625 341.894531 C 82.703125 333.929688 72.398438 328.949219 66.28125 334.476562 C 62.328125 329.234375 51.117188 324.789062 47.316406 332.828125 C 38.078125 326.265625 29.058594 335.613281 27.535156 344.367188 C 12.28125 344.515625 9.378906 317.640625 11.046875 304.8125 C 11.542969 301 14.214844 296.828125 15.167969 292.449219 C 18.878906 275.449219 25.070312 257.832031 34.953125 247.953125 C 46.980469 236.625 64.425781 223.734375 76.171875 206.75 C 81.101562 199.621094 83.75 190.886719 88.535156 184.503906 C 93.296875 178.15625 98.855469 174.84375 100.902344 167.199219 C 105.394531 150.429688 104.832031 133.210938 101.726562 114.460938 C 99.226562 110.371094 93.324219 109.679688 93.484375 102.921875 C 115.007812 122.226562 138.375 74.136719 106.675781 71.609375 C 104.488281 65.308594 103.851562 54.277344 110.796875 52.65625 C 115.609375 66.335938 125.753906 57.8125 139.648438 54.308594 C 151.210938 51.390625 159.875 49.359375 169.328125 47.710938 C 172.054688 44.0625 168.722656 39.582031 171.800781 37 C 176.726562 37.574219 177.148438 42.640625 178.394531 46.890625 C 179.265625 51.789062 185.039062 51.78125 185.816406 56.777344 C 177.382812 55.597656 167.039062 58.355469 165.207031 66.664062 C 160.273438 89.019531 188.714844 91.601562 194.882812 74.90625 " fill-opacity="1" fill-rule="evenodd"/></svg>