<svg xmlns="http://www.w3.org/2000/svg" xmlns:xlink="http://www.w3.org/1999/xlink" width="512" zoomAndPan="magnify" viewBox="0 0 384 383.999986" height="512" preserveAspectRatio="xMidYMid meet" version="1.0"><path fill="#98d6fc" d="M 347.429688 0 L 146.285156 0 C 145.6875 0 145.089844 0.03125 144.492188 0.0898438 C 143.898438 0.148438 143.304688 0.234375 142.71875 0.351562 C 142.132812 0.46875 141.550781 0.613281 140.976562 0.789062 C 140.40625 0.960938 139.839844 1.164062 139.289062 1.390625 C 138.734375 1.621094 138.195312 1.878906 137.664062 2.160156 C 137.136719 2.441406 136.625 2.75 136.125 3.082031 C 135.628906 3.414062 135.148438 3.769531 134.683594 4.152344 C 134.222656 4.53125 133.777344 4.933594 133.355469 5.355469 C 132.933594 5.78125 132.53125 6.222656 132.152344 6.683594 C 131.769531 7.148438 131.414062 7.628906 131.082031 8.125 C 130.75 8.625 130.441406 9.136719 130.160156 9.664062 C 129.875 10.195312 129.621094 10.734375 129.390625 11.289062 C 129.164062 11.839844 128.960938 12.40625 128.789062 12.976562 C 128.613281 13.550781 128.46875 14.132812 128.351562 14.71875 C 128.234375 15.304688 128.148438 15.898438 128.089844 16.492188 C 128.03125 17.089844 128 17.6875 128 18.285156 L 128 137.144531 C 128 137.742188 128.03125 138.339844 128.089844 138.933594 C 128.148438 139.53125 128.234375 140.121094 128.351562 140.710938 C 128.46875 141.296875 128.613281 141.878906 128.789062 142.449219 C 128.960938 143.023438 129.164062 143.585938 129.390625 144.140625 C 129.621094 144.695312 129.875 145.234375 130.160156 145.761719 C 130.441406 146.289062 130.75 146.804688 131.082031 147.300781 C 131.414062 147.800781 131.769531 148.28125 132.152344 148.742188 C 132.53125 149.207031 132.933594 149.648438 133.355469 150.074219 C 133.777344 150.496094 134.222656 150.898438 134.683594 151.277344 C 135.148438 151.65625 135.628906 152.015625 136.125 152.347656 C 136.625 152.679688 137.136719 152.988281 137.664062 153.269531 C 138.195312 153.550781 138.734375 153.808594 139.289062 154.035156 C 139.839844 154.265625 140.40625 154.46875 140.976562 154.640625 C 141.550781 154.816406 142.132812 154.960938 142.71875 155.078125 C 143.304688 155.195312 143.898438 155.28125 144.492188 155.339844 C 145.089844 155.398438 145.6875 155.429688 146.285156 155.429688 L 213.121094 155.429688 L 245.851562 192 L 278.492188 155.429688 L 347.429688 155.429688 C 348.027344 155.429688 348.625 155.398438 349.222656 155.339844 C 349.816406 155.28125 350.410156 155.195312 350.996094 155.078125 C 351.582031 154.960938 352.164062 154.816406 352.738281 154.640625 C 353.308594 154.46875 353.871094 154.265625 354.425781 154.035156 C 354.980469 153.808594 355.519531 153.550781 356.046875 153.269531 C 356.578125 152.988281 357.089844 152.679688 357.585938 152.347656 C 358.085938 152.015625 358.566406 151.65625 359.027344 151.277344 C 359.492188 150.898438 359.933594 150.496094 360.359375 150.074219 C 360.78125 149.648438 361.183594 149.207031 361.5625 148.742188 C 361.945312 148.28125 362.300781 147.800781 362.632812 147.300781 C 362.964844 146.804688 363.273438 146.289062 363.554688 145.761719 C 363.835938 145.234375 364.09375 144.695312 364.324219 144.140625 C 364.550781 143.585938 364.753906 143.023438 364.925781 142.449219 C 365.101562 141.878906 365.246094 141.296875 365.363281 140.710938 C 365.480469 140.121094 365.566406 139.53125 365.625 138.933594 C 365.683594 138.339844 365.714844 137.742188 365.714844 137.144531 L 365.714844 18.285156 C 365.714844 17.6875 365.683594 17.089844 365.625 16.492188 C 365.566406 15.898438 365.480469 15.304688 365.363281 14.71875 C 365.246094 14.132812 365.101562 13.550781 364.925781 12.976562 C 364.753906 12.40625 364.550781 11.839844 364.324219 11.289062 C 364.09375 10.734375 363.835938 10.195312 363.554688 9.664062 C 363.273438 9.136719 362.964844 8.625 362.632812 8.125 C 362.300781 7.628906 361.945312 7.148438 361.5625 6.683594 C 361.183594 6.222656 360.78125 5.78125 360.359375 5.355469 C 359.933594 4.933594 359.492188 4.53125 359.027344 4.152344 C 358.566406 3.769531 358.085938 3.414062 357.585938 3.082031 C 357.089844 2.75 356.578125 2.441406 356.046875 2.160156 C 355.519531 1.878906 354.980469 1.621094 354.425781 1.390625 C 353.871094 1.164062 353.308594 0.960938 352.738281 0.789062 C 352.164062 0.613281 351.582031 0.46875 350.996094 0.351562 C 350.410156 0.234375 349.816406 0.148438 349.222656 0.0898438 C 348.625 0.03125 348.027344 0 347.429688 0 Z M 347.429688 0 " fill-opacity="1" fill-rule="nonzero"/><path fill="#446c9e" d="M 365.714844 192 L 164.570312 192 C 163.972656 192 163.375 192.03125 162.777344 192.089844 C 162.183594 192.148438 161.589844 192.234375 161.003906 192.351562 C 160.417969 192.46875 159.835938 192.613281 159.261719 192.789062 C 158.691406 192.960938 158.128906 193.164062 157.574219 193.390625 C 157.019531 193.621094 156.480469 193.875 155.953125 194.160156 C 155.421875 194.441406 154.910156 194.75 154.414062 195.082031 C 153.914062 195.414062 153.433594 195.769531 152.972656 196.152344 C 152.507812 196.53125 152.066406 196.933594 151.640625 197.355469 C 151.21875 197.78125 150.816406 198.222656 150.4375 198.683594 C 150.054688 199.148438 149.699219 199.628906 149.367188 200.125 C 149.035156 200.625 148.726562 201.136719 148.445312 201.664062 C 148.164062 202.195312 147.90625 202.734375 147.675781 203.289062 C 147.449219 203.839844 147.246094 204.40625 147.074219 204.976562 C 146.898438 205.550781 146.753906 206.132812 146.636719 206.71875 C 146.519531 207.304688 146.433594 207.898438 146.375 208.492188 C 146.316406 209.089844 146.285156 209.6875 146.285156 210.285156 L 146.285156 329.144531 C 146.285156 329.742188 146.316406 330.339844 146.375 330.933594 C 146.433594 331.53125 146.519531 332.121094 146.636719 332.710938 C 146.753906 333.296875 146.898438 333.878906 147.074219 334.449219 C 147.246094 335.023438 147.449219 335.585938 147.675781 336.140625 C 147.90625 336.695312 148.164062 337.234375 148.445312 337.761719 C 148.726562 338.289062 149.035156 338.804688 149.367188 339.300781 C 149.699219 339.800781 150.054688 340.28125 150.4375 340.742188 C 150.816406 341.207031 151.21875 341.648438 151.640625 342.074219 C 152.066406 342.496094 152.507812 342.898438 152.972656 343.277344 C 153.433594 343.65625 153.914062 344.015625 154.414062 344.347656 C 154.910156 344.679688 155.421875 344.988281 155.953125 345.269531 C 156.480469 345.550781 157.019531 345.808594 157.574219 346.035156 C 158.128906 346.265625 158.691406 346.46875 159.261719 346.640625 C 159.835938 346.816406 160.417969 346.960938 161.003906 347.078125 C 161.589844 347.195312 162.183594 347.28125 162.777344 347.339844 C 163.375 347.398438 163.972656 347.429688 164.570312 347.429688 L 231.40625 347.429688 L 264.136719 384 L 296.777344 347.429688 L 365.714844 347.429688 C 366.3125 347.429688 366.910156 347.398438 367.507812 347.339844 C 368.101562 347.28125 368.695312 347.195312 369.28125 347.078125 C 369.867188 346.960938 370.449219 346.816406 371.023438 346.640625 C 371.59375 346.46875 372.160156 346.265625 372.710938 346.035156 C 373.265625 345.808594 373.804688 345.550781 374.335938 345.269531 C 374.863281 344.988281 375.375 344.679688 375.875 344.347656 C 376.371094 344.015625 376.851562 343.65625 377.316406 343.277344 C 377.777344 342.898438 378.222656 342.496094 378.644531 342.074219 C 379.066406 341.648438 379.46875 341.207031 379.847656 340.742188 C 380.230469 340.28125 380.585938 339.800781 380.917969 339.300781 C 381.25 338.804688 381.558594 338.289062 381.839844 337.761719 C 382.125 337.234375 382.378906 336.695312 382.609375 336.140625 C 382.835938 335.585938 383.039062 335.023438 383.210938 334.449219 C 383.386719 333.878906 383.53125 333.296875 383.648438 332.710938 C 383.765625 332.121094 383.851562 331.53125 383.910156 330.933594 C 383.96875 330.339844 384 329.742188 384 329.144531 L 384 210.285156 C 384 209.6875 383.96875 209.089844 383.910156 208.492188 C 383.851562 207.898438 383.765625 207.304688 383.648438 206.71875 C 383.53125 206.132812 383.386719 205.550781 383.210938 204.976562 C 383.039062 204.40625 382.835938 203.839844 382.609375 203.289062 C 382.378906 202.734375 382.125 202.195312 381.839844 201.664062 C 381.558594 201.136719 381.25 200.625 380.917969 200.125 C 380.585938 199.628906 380.230469 199.148438 379.847656 198.683594 C 379.46875 198.222656 379.066406 197.78125 378.644531 197.355469 C 378.222656 196.933594 377.777344 196.53125 377.316406 196.152344 C 376.851562 195.769531 376.371094 195.414062 375.875 195.082031 C 375.375 194.75 374.863281 194.441406 374.335938 194.160156 C 373.804688 193.875 373.265625 193.621094 372.710938 193.390625 C 372.160156 193.164062 371.59375 192.960938 371.023438 192.789062 C 370.449219 192.613281 369.867188 192.46875 369.28125 192.351562 C 368.695312 192.234375 368.101562 192.148438 367.507812 192.089844 C 366.910156 192.03125 366.3125 192 365.714844 192 Z M 365.714844 192 " fill-opacity="1" fill-rule="nonzero"/><path fill="#fbe639" d="M 320 274.285156 C 320 276.082031 319.910156 277.875 319.734375 279.664062 C 319.558594 281.449219 319.296875 283.226562 318.945312 284.988281 C 318.59375 286.75 318.160156 288.492188 317.636719 290.210938 C 317.117188 291.929688 316.511719 293.617188 315.824219 295.277344 C 315.136719 296.9375 314.371094 298.5625 313.523438 300.144531 C 312.675781 301.730469 311.753906 303.269531 310.753906 304.761719 C 309.757812 306.257812 308.6875 307.699219 307.546875 309.085938 C 306.410156 310.476562 305.203125 311.804688 303.933594 313.074219 C 302.664062 314.347656 301.332031 315.550781 299.945312 316.691406 C 298.554688 317.832031 297.113281 318.898438 295.621094 319.898438 C 294.125 320.894531 292.585938 321.820312 291.003906 322.664062 C 289.417969 323.511719 287.796875 324.28125 286.136719 324.96875 C 284.476562 325.65625 282.785156 326.257812 281.066406 326.78125 C 279.347656 327.300781 277.605469 327.738281 275.84375 328.089844 C 274.082031 328.4375 272.308594 328.703125 270.519531 328.878906 C 268.730469 329.054688 266.941406 329.144531 265.144531 329.144531 C 263.347656 329.144531 261.554688 329.054688 259.765625 328.878906 C 257.976562 328.703125 256.203125 328.4375 254.441406 328.089844 C 252.679688 327.738281 250.9375 327.300781 249.21875 326.78125 C 247.5 326.257812 245.808594 325.65625 244.148438 324.96875 C 242.488281 324.28125 240.867188 323.511719 239.285156 322.664062 C 237.699219 321.820312 236.160156 320.894531 234.664062 319.898438 C 233.171875 318.898438 231.730469 317.832031 230.34375 316.691406 C 228.953125 315.550781 227.625 314.347656 226.351562 313.074219 C 225.082031 311.804688 223.878906 310.476562 222.738281 309.085938 C 221.597656 307.699219 220.527344 306.257812 219.53125 304.761719 C 218.53125 303.269531 217.609375 301.730469 216.761719 300.144531 C 215.917969 298.5625 215.148438 296.9375 214.460938 295.277344 C 213.773438 293.617188 213.167969 291.929688 212.648438 290.210938 C 212.125 288.492188 211.691406 286.75 211.339844 284.988281 C 210.988281 283.226562 210.726562 281.449219 210.550781 279.664062 C 210.375 277.875 210.285156 276.082031 210.285156 274.285156 C 210.285156 272.488281 210.375 270.695312 210.550781 268.910156 C 210.726562 267.121094 210.988281 265.347656 211.339844 263.582031 C 211.691406 261.820312 212.125 260.082031 212.648438 258.363281 C 213.167969 256.640625 213.773438 254.953125 214.460938 253.292969 C 215.148438 251.632812 215.917969 250.011719 216.761719 248.425781 C 217.609375 246.839844 218.53125 245.300781 219.53125 243.808594 C 220.527344 242.316406 221.597656 240.875 222.738281 239.484375 C 223.878906 238.097656 225.082031 236.765625 226.351562 235.496094 C 227.625 234.226562 228.953125 233.019531 230.34375 231.878906 C 231.730469 230.742188 233.171875 229.671875 234.664062 228.671875 C 236.160156 227.675781 237.699219 226.753906 239.285156 225.90625 C 240.867188 225.058594 242.488281 224.292969 244.148438 223.605469 C 245.808594 222.917969 247.5 222.3125 249.21875 221.789062 C 250.9375 221.269531 252.679688 220.832031 254.441406 220.484375 C 256.203125 220.132812 257.976562 219.867188 259.765625 219.691406 C 261.554688 219.515625 263.347656 219.429688 265.144531 219.429688 C 266.941406 219.429688 268.730469 219.515625 270.519531 219.691406 C 272.308594 219.867188 274.082031 220.132812 275.84375 220.484375 C 277.605469 220.832031 279.347656 221.269531 281.066406 221.789062 C 282.785156 222.3125 284.476562 222.917969 286.136719 223.605469 C 287.796875 224.292969 289.417969 225.058594 291.003906 225.90625 C 292.585938 226.753906 294.125 227.675781 295.621094 228.671875 C 297.113281 229.671875 298.554688 230.742188 299.945312 231.878906 C 301.332031 233.019531 302.664062 234.226562 303.933594 235.496094 C 305.203125 236.765625 306.410156 238.097656 307.546875 239.484375 C 308.6875 240.875 309.757812 242.316406 310.753906 243.808594 C 311.753906 245.300781 312.675781 246.84375 313.523438 248.425781 C 314.371094 250.011719 315.136719 251.632812 315.824219 253.292969 C 316.511719 254.953125 317.117188 256.640625 317.636719 258.363281 C 318.160156 260.082031 318.59375 261.820312 318.945312 263.582031 C 319.296875 265.347656 319.558594 267.121094 319.734375 268.910156 C 319.910156 270.695312 320 272.488281 320 274.285156 Z M 320 274.285156 " fill-opacity="1" fill-rule="nonzero"/><path fill="#446c9e" d="M 265.144531 306.285156 C 264.246094 306.285156 263.347656 306.242188 262.453125 306.152344 C 261.558594 306.066406 260.671875 305.933594 259.792969 305.757812 C 258.910156 305.582031 258.039062 305.367188 257.179688 305.105469 C 256.320312 304.84375 255.476562 304.542969 254.644531 304.199219 C 253.816406 303.855469 253.003906 303.46875 252.214844 303.046875 C 251.421875 302.625 250.652344 302.164062 249.902344 301.664062 C 249.15625 301.164062 248.4375 300.628906 247.742188 300.058594 C 247.046875 299.488281 246.382812 298.886719 245.746094 298.253906 C 245.113281 297.617188 244.511719 296.953125 243.941406 296.257812 C 243.371094 295.5625 242.835938 294.84375 242.335938 294.09375 C 241.835938 293.347656 241.375 292.578125 240.953125 291.785156 C 240.53125 290.996094 240.144531 290.183594 239.800781 289.355469 C 239.457031 288.523438 239.15625 287.679688 238.894531 286.820312 C 238.632812 285.960938 238.417969 285.089844 238.242188 284.207031 C 238.066406 283.328125 237.933594 282.441406 237.847656 281.546875 C 237.757812 280.652344 237.714844 279.753906 237.714844 278.855469 C 237.714844 278.257812 237.773438 277.664062 237.890625 277.074219 C 238.007812 276.484375 238.179688 275.914062 238.410156 275.359375 C 238.640625 274.804688 238.921875 274.277344 239.253906 273.777344 C 239.589844 273.277344 239.96875 272.816406 240.390625 272.390625 C 240.816406 271.96875 241.277344 271.589844 241.777344 271.253906 C 242.277344 270.921875 242.804688 270.640625 243.359375 270.410156 C 243.914062 270.179688 244.484375 270.007812 245.074219 269.890625 C 245.664062 269.773438 246.257812 269.714844 246.855469 269.714844 C 247.457031 269.714844 248.050781 269.773438 248.640625 269.890625 C 249.230469 270.007812 249.800781 270.179688 250.355469 270.410156 C 250.910156 270.640625 251.4375 270.921875 251.9375 271.253906 C 252.4375 271.589844 252.898438 271.96875 253.320312 272.390625 C 253.746094 272.816406 254.125 273.277344 254.460938 273.777344 C 254.792969 274.277344 255.074219 274.804688 255.304688 275.359375 C 255.535156 275.914062 255.707031 276.484375 255.824219 277.074219 C 255.941406 277.664062 256 278.257812 256 278.855469 C 256 279.457031 256.058594 280.050781 256.175781 280.640625 C 256.292969 281.230469 256.464844 281.800781 256.695312 282.355469 C 256.925781 282.910156 257.207031 283.4375 257.539062 283.9375 C 257.875 284.4375 258.253906 284.898438 258.679688 285.320312 C 259.101562 285.746094 259.5625 286.125 260.0625 286.460938 C 260.5625 286.792969 261.089844 287.074219 261.644531 287.304688 C 262.199219 287.535156 262.769531 287.707031 263.359375 287.824219 C 263.949219 287.941406 264.542969 288 265.144531 288 C 265.742188 288 266.335938 287.941406 266.925781 287.824219 C 267.515625 287.707031 268.085938 287.535156 268.640625 287.304688 C 269.195312 287.074219 269.722656 286.792969 270.222656 286.460938 C 270.722656 286.125 271.183594 285.746094 271.609375 285.320312 C 272.03125 284.898438 272.410156 284.4375 272.746094 283.9375 C 273.078125 283.4375 273.359375 282.910156 273.589844 282.355469 C 273.820312 281.800781 273.992188 281.230469 274.109375 280.640625 C 274.226562 280.050781 274.285156 279.457031 274.285156 278.855469 C 274.285156 278.257812 274.34375 277.664062 274.460938 277.074219 C 274.578125 276.484375 274.75 275.914062 274.980469 275.359375 C 275.210938 274.804688 275.492188 274.277344 275.828125 273.777344 C 276.160156 273.277344 276.539062 272.816406 276.964844 272.390625 C 277.386719 271.96875 277.851562 271.589844 278.347656 271.253906 C 278.847656 270.921875 279.375 270.640625 279.929688 270.410156 C 280.484375 270.179688 281.054688 270.007812 281.644531 269.890625 C 282.234375 269.773438 282.828125 269.714844 283.429688 269.714844 C 284.027344 269.714844 284.625 269.773438 285.210938 269.890625 C 285.800781 270.007812 286.371094 270.179688 286.925781 270.410156 C 287.480469 270.640625 288.007812 270.921875 288.507812 271.253906 C 289.007812 271.589844 289.46875 271.96875 289.894531 272.390625 C 290.316406 272.816406 290.695312 273.277344 291.03125 273.777344 C 291.363281 274.277344 291.644531 274.804688 291.875 275.359375 C 292.105469 275.914062 292.277344 276.484375 292.394531 277.074219 C 292.511719 277.664062 292.570312 278.257812 292.570312 278.855469 C 292.570312 279.753906 292.527344 280.652344 292.4375 281.546875 C 292.351562 282.441406 292.21875 283.328125 292.042969 284.207031 C 291.867188 285.089844 291.652344 285.960938 291.390625 286.820312 C 291.128906 287.679688 290.828125 288.523438 290.484375 289.355469 C 290.140625 290.183594 289.757812 290.996094 289.332031 291.785156 C 288.910156 292.578125 288.449219 293.347656 287.949219 294.09375 C 287.449219 294.84375 286.914062 295.5625 286.34375 296.257812 C 285.777344 296.953125 285.171875 297.617188 284.539062 298.253906 C 283.902344 298.886719 283.238281 299.488281 282.542969 300.058594 C 281.847656 300.628906 281.128906 301.164062 280.382812 301.664062 C 279.632812 302.164062 278.863281 302.625 278.074219 303.046875 C 277.28125 303.46875 276.46875 303.855469 275.640625 304.199219 C 274.808594 304.542969 273.964844 304.84375 273.105469 305.105469 C 272.246094 305.367188 271.375 305.582031 270.492188 305.757812 C 269.613281 305.933594 268.726562 306.066406 267.832031 306.152344 C 266.9375 306.242188 266.042969 306.285156 265.144531 306.285156 Z M 265.144531 306.285156 " fill-opacity="1" fill-rule="nonzero"/><path fill="#f47f8f" d="M 219.429688 109.714844 L 18.285156 109.714844 C 17.6875 109.714844 17.089844 109.742188 16.492188 109.800781 C 15.898438 109.859375 15.304688 109.949219 14.71875 110.066406 C 14.132812 110.183594 13.550781 110.328125 12.976562 110.5 C 12.40625 110.675781 11.839844 110.878906 11.289062 111.105469 C 10.734375 111.335938 10.195312 111.589844 9.664062 111.875 C 9.136719 112.15625 8.625 112.464844 8.125 112.796875 C 7.628906 113.128906 7.148438 113.484375 6.683594 113.863281 C 6.222656 114.246094 5.777344 114.648438 5.355469 115.070312 C 4.933594 115.492188 4.53125 115.9375 4.152344 116.398438 C 3.769531 116.863281 3.414062 117.34375 3.082031 117.839844 C 2.75 118.339844 2.441406 118.851562 2.160156 119.378906 C 1.875 119.910156 1.621094 120.449219 1.390625 121.003906 C 1.164062 121.554688 0.960938 122.117188 0.789062 122.691406 C 0.613281 123.265625 0.46875 123.84375 0.351562 124.433594 C 0.234375 125.019531 0.148438 125.613281 0.0898438 126.207031 C 0.03125 126.804688 0 127.402344 0 128 L 0 246.855469 C 0 247.457031 0.03125 248.054688 0.0898438 248.648438 C 0.148438 249.246094 0.234375 249.835938 0.351562 250.425781 C 0.46875 251.011719 0.613281 251.59375 0.789062 252.164062 C 0.960938 252.738281 1.164062 253.300781 1.390625 253.855469 C 1.621094 254.40625 1.875 254.949219 2.160156 255.476562 C 2.441406 256.003906 2.75 256.519531 3.082031 257.015625 C 3.414062 257.515625 3.769531 257.996094 4.152344 258.457031 C 4.53125 258.921875 4.933594 259.363281 5.355469 259.789062 C 5.777344 260.210938 6.222656 260.613281 6.683594 260.992188 C 7.148438 261.371094 7.628906 261.730469 8.125 262.0625 C 8.625 262.394531 9.136719 262.703125 9.664062 262.984375 C 10.195312 263.265625 10.734375 263.523438 11.289062 263.75 C 11.839844 263.980469 12.40625 264.183594 12.976562 264.355469 C 13.550781 264.53125 14.132812 264.675781 14.71875 264.792969 C 15.304688 264.910156 15.898438 264.996094 16.492188 265.054688 C 17.089844 265.113281 17.6875 265.144531 18.285156 265.144531 L 85.121094 265.144531 L 117.851562 301.714844 L 150.492188 265.144531 L 219.429688 265.144531 C 220.027344 265.144531 220.625 265.113281 221.222656 265.054688 C 221.816406 264.996094 222.410156 264.910156 222.996094 264.792969 C 223.582031 264.675781 224.164062 264.53125 224.738281 264.355469 C 225.308594 264.183594 225.871094 263.980469 226.425781 263.75 C 226.980469 263.523438 227.519531 263.265625 228.046875 262.984375 C 228.578125 262.703125 229.089844 262.394531 229.585938 262.0625 C 230.085938 261.730469 230.566406 261.371094 231.027344 260.992188 C 231.492188 260.613281 231.933594 260.210938 232.359375 259.789062 C 232.78125 259.363281 233.183594 258.921875 233.5625 258.457031 C 233.945312 257.996094 234.300781 257.515625 234.632812 257.015625 C 234.964844 256.519531 235.273438 256.003906 235.554688 255.476562 C 235.835938 254.949219 236.09375 254.40625 236.324219 253.855469 C 236.550781 253.300781 236.753906 252.738281 236.925781 252.164062 C 237.101562 251.59375 237.246094 251.011719 237.363281 250.425781 C 237.480469 249.835938 237.566406 249.246094 237.625 248.648438 C 237.683594 248.054688 237.714844 247.457031 237.714844 246.855469 L 237.714844 128 C 237.714844 127.402344 237.683594 126.804688 237.625 126.207031 C 237.566406 125.613281 237.480469 125.019531 237.363281 124.433594 C 237.246094 123.84375 237.101562 123.265625 236.925781 122.691406 C 236.753906 122.117188 236.550781 121.554688 236.324219 121.003906 C 236.09375 120.449219 235.835938 119.910156 235.554688 119.378906 C 235.273438 118.851562 234.964844 118.339844 234.632812 117.839844 C 234.300781 117.34375 233.945312 116.863281 233.5625 116.398438 C 233.183594 115.9375 232.78125 115.492188 232.359375 115.070312 C 231.933594 114.648438 231.492188 114.246094 231.027344 113.863281 C 230.566406 113.484375 230.085938 113.128906 229.585938 112.796875 C 229.089844 112.464844 228.578125 112.15625 228.046875 111.875 C 227.519531 111.589844 226.980469 111.335938 226.425781 111.105469 C 225.871094 110.878906 225.308594 110.675781 224.738281 110.5 C 224.164062 110.328125 223.582031 110.183594 222.996094 110.066406 C 222.410156 109.949219 221.816406 109.859375 221.222656 109.800781 C 220.625 109.742188 220.027344 109.714844 219.429688 109.714844 Z M 219.429688 109.714844 " fill-opacity="1" fill-rule="nonzero"/><path fill="#446c9e" d="M 292.570312 45.714844 L 173.714844 45.714844 C 173.113281 45.714844 172.519531 45.65625 171.929688 45.539062 C 171.339844 45.421875 170.769531 45.25 170.214844 45.019531 C 169.660156 44.789062 169.132812 44.507812 168.632812 44.171875 C 168.136719 43.839844 167.671875 43.460938 167.25 43.035156 C 166.824219 42.613281 166.445312 42.148438 166.113281 41.652344 C 165.777344 41.152344 165.496094 40.625 165.265625 40.070312 C 165.039062 39.515625 164.863281 38.945312 164.746094 38.355469 C 164.628906 37.765625 164.570312 37.171875 164.570312 36.570312 C 164.570312 35.972656 164.628906 35.375 164.746094 34.789062 C 164.863281 34.199219 165.039062 33.628906 165.265625 33.074219 C 165.496094 32.519531 165.777344 31.992188 166.113281 31.492188 C 166.445312 30.992188 166.824219 30.53125 167.25 30.105469 C 167.671875 29.683594 168.136719 29.304688 168.632812 28.96875 C 169.132812 28.636719 169.660156 28.355469 170.214844 28.125 C 170.769531 27.894531 171.339844 27.722656 171.929688 27.605469 C 172.519531 27.488281 173.113281 27.429688 173.714844 27.429688 L 292.570312 27.429688 C 293.171875 27.429688 293.765625 27.488281 294.355469 27.605469 C 294.945312 27.722656 295.515625 27.894531 296.070312 28.125 C 296.625 28.355469 297.152344 28.636719 297.652344 28.96875 C 298.148438 29.304688 298.613281 29.683594 299.035156 30.105469 C 299.460938 30.53125 299.839844 30.992188 300.171875 31.492188 C 300.507812 31.992188 300.789062 32.519531 301.019531 33.074219 C 301.246094 33.628906 301.421875 34.199219 301.539062 34.789062 C 301.65625 35.375 301.714844 35.972656 301.714844 36.570312 C 301.714844 37.171875 301.65625 37.765625 301.539062 38.355469 C 301.421875 38.945312 301.246094 39.515625 301.019531 40.070312 C 300.789062 40.625 300.507812 41.152344 300.171875 41.652344 C 299.839844 42.148438 299.460938 42.613281 299.035156 43.035156 C 298.613281 43.460938 298.148438 43.839844 297.652344 44.171875 C 297.152344 44.507812 296.625 44.789062 296.070312 45.019531 C 295.515625 45.25 294.945312 45.421875 294.355469 45.539062 C 293.765625 45.65625 293.171875 45.714844 292.570312 45.714844 Z M 292.570312 45.714844 " fill-opacity="1" fill-rule="nonzero"/><path fill="#446c9e" d="M 246.855469 82.285156 L 173.714844 82.285156 C 173.113281 82.285156 172.519531 82.226562 171.929688 82.109375 C 171.339844 81.992188 170.769531 81.820312 170.214844 81.589844 C 169.660156 81.359375 169.132812 81.078125 168.632812 80.746094 C 168.136719 80.410156 167.671875 80.03125 167.25 79.609375 C 166.824219 79.183594 166.445312 78.722656 166.113281 78.222656 C 165.777344 77.722656 165.496094 77.195312 165.265625 76.640625 C 165.039062 76.085938 164.863281 75.515625 164.746094 74.925781 C 164.628906 74.335938 164.570312 73.742188 164.570312 73.144531 C 164.570312 72.542969 164.628906 71.949219 164.746094 71.359375 C 164.863281 70.769531 165.039062 70.199219 165.265625 69.644531 C 165.496094 69.089844 165.777344 68.5625 166.113281 68.0625 C 166.445312 67.5625 166.824219 67.101562 167.25 66.679688 C 167.671875 66.253906 168.136719 65.875 168.632812 65.539062 C 169.132812 65.207031 169.660156 64.925781 170.214844 64.695312 C 170.769531 64.464844 171.339844 64.292969 171.929688 64.175781 C 172.519531 64.058594 173.113281 64 173.714844 64 L 246.855469 64 C 247.457031 64 248.050781 64.058594 248.640625 64.175781 C 249.230469 64.292969 249.800781 64.464844 250.355469 64.695312 C 250.910156 64.925781 251.4375 65.207031 251.9375 65.539062 C 252.4375 65.875 252.898438 66.253906 253.320312 66.679688 C 253.746094 67.101562 254.125 67.5625 254.460938 68.0625 C 254.792969 68.5625 255.074219 69.089844 255.304688 69.644531 C 255.535156 70.199219 255.707031 70.769531 255.824219 71.359375 C 255.941406 71.949219 256 72.542969 256 73.144531 C 256 73.742188 255.941406 74.335938 255.824219 74.925781 C 255.707031 75.515625 255.535156 76.085938 255.304688 76.640625 C 255.074219 77.195312 254.792969 77.722656 254.460938 78.222656 C 254.125 78.722656 253.746094 79.183594 253.320312 79.609375 C 252.898438 80.03125 252.4375 80.410156 251.9375 80.746094 C 251.4375 81.078125 250.910156 81.359375 250.355469 81.589844 C 249.800781 81.820312 249.230469 81.992188 248.640625 82.109375 C 248.050781 82.226562 247.457031 82.285156 246.855469 82.285156 Z M 246.855469 82.285156 " fill-opacity="1" fill-rule="nonzero"/><path fill="#f8f6f7" d="M 118.855469 243.929688 L 80.457031 205.621094 C 42.238281 167.40625 80.457031 129.097656 118.765625 167.222656 C 157.164062 128.824219 195.472656 167.222656 157.074219 205.621094 Z M 118.855469 243.929688 " fill-opacity="1" fill-rule="nonzero"/></svg>