<svg xmlns="http://www.w3.org/2000/svg" xmlns:xlink="http://www.w3.org/1999/xlink" width="512" zoomAndPan="magnify" viewBox="0 0 384 383.999986" height="512" preserveAspectRatio="xMidYMid meet" version="1.0"><defs><clipPath id="656728b82b"><path d="M 31.417969 0 L 352.417969 0 L 352.417969 384 L 31.417969 384 Z M 31.417969 0 " clip-rule="nonzero"/></clipPath></defs><g clip-path="url(#656728b82b)"><path fill="#a84654" d="M 158.453125 175.890625 L 102.679688 175.890625 C 97.179688 175.890625 92.78125 180.289062 92.78125 185.792969 L 92.78125 313.582031 L 168.351562 313.582031 L 168.351562 185.792969 C 168.351562 180.445312 163.953125 175.890625 158.453125 175.890625 Z M 165.050781 310.4375 L 148.554688 310.4375 L 148.554688 235.148438 C 148.554688 234.203125 147.769531 233.574219 146.984375 233.574219 C 146.199219 233.574219 145.414062 234.359375 145.414062 235.148438 L 145.414062 310.4375 L 96.082031 310.4375 L 96.082031 185.949219 C 96.082031 182.332031 99.066406 179.347656 102.679688 179.347656 L 158.453125 179.347656 C 162.066406 179.347656 165.050781 182.332031 165.050781 185.949219 Z M 249.578125 156.710938 L 249.578125 131.40625 C 249.578125 129.675781 248.164062 128.261719 246.433594 128.261719 L 244.863281 128.261719 L 244.863281 25.464844 C 244.863281 23.578125 243.921875 22.003906 242.191406 21.378906 C 240.621094 20.75 238.894531 20.90625 237.636719 22.164062 L 195.847656 60.042969 C 194.589844 61.144531 193.804688 62.875 193.804688 64.757812 L 193.804688 128.417969 L 192.230469 128.417969 C 190.503906 128.417969 189.089844 129.832031 189.089844 131.5625 L 189.089844 156.871094 L 181.550781 156.871094 L 181.550781 303.835938 C 181.550781 309.335938 185.949219 313.738281 191.445312 313.738281 L 247.21875 313.738281 C 252.71875 313.738281 257.117188 309.335938 257.117188 303.835938 L 257.117188 156.710938 Z M 232.765625 50.769531 C 232.765625 49.828125 233.550781 49.199219 234.335938 49.199219 C 235.125 49.199219 235.910156 49.984375 235.910156 50.769531 L 235.910156 110.972656 C 235.910156 111.914062 235.125 112.542969 234.335938 112.542969 C 233.550781 112.542969 232.765625 111.757812 232.765625 110.972656 Z M 192.390625 131.5625 L 246.277344 131.5625 L 246.277344 156.710938 L 192.390625 156.710938 Z M 253.820312 303.679688 C 253.820312 307.292969 250.835938 310.28125 247.21875 310.28125 L 191.445312 310.28125 C 187.832031 310.28125 184.847656 307.292969 184.847656 303.679688 L 184.847656 159.855469 L 232.765625 159.855469 L 232.765625 235.148438 C 232.765625 236.089844 233.550781 236.71875 234.335938 236.71875 C 235.125 236.71875 235.910156 235.933594 235.910156 235.148438 L 235.910156 159.855469 L 253.660156 159.855469 L 253.660156 303.679688 Z M 55.234375 84.878906 C 54.761719 84.878906 54.289062 84.566406 54.132812 84.09375 L 52.71875 77.175781 C 50.519531 66.644531 42.980469 58.472656 32.765625 55.484375 L 32.453125 55.484375 C 31.980469 55.171875 31.667969 54.855469 31.667969 54.386719 C 31.667969 53.914062 31.980469 53.441406 32.453125 53.285156 C 42.820312 50.300781 50.519531 41.8125 52.5625 31.28125 L 54.132812 22.949219 C 54.289062 22.476562 54.605469 22.003906 55.234375 22.003906 C 55.703125 22.003906 56.175781 22.320312 56.332031 22.949219 L 57.746094 30.964844 C 59.632812 41.496094 67.332031 50.140625 77.542969 53.285156 L 78.015625 53.441406 C 78.484375 53.601562 78.800781 54.070312 78.800781 54.542969 C 78.800781 55.015625 78.484375 55.484375 78.015625 55.644531 L 77.699219 55.644531 C 67.488281 58.628906 59.789062 66.960938 57.746094 77.335938 L 56.332031 84.25 C 56.175781 84.566406 55.703125 84.878906 55.234375 84.878906 Z M 36.066406 54.386719 C 45.648438 58.15625 52.71875 66.488281 54.761719 76.707031 L 55.074219 78.433594 L 55.390625 76.707031 C 57.433594 66.488281 64.660156 58.15625 74.085938 54.386719 C 64.34375 50.457031 57.277344 41.8125 55.390625 31.28125 L 55.234375 28.921875 L 54.761719 31.59375 C 52.71875 41.96875 45.648438 50.457031 36.066406 54.386719 Z M 114.304688 20.277344 C 114.304688 20.75 113.992188 21.21875 113.519531 21.378906 L 113.363281 21.378906 C 107.234375 23.105469 102.679688 28.136719 101.265625 34.421875 L 100.324219 38.667969 C 100.167969 39.140625 99.851562 39.453125 99.222656 39.453125 C 98.753906 39.453125 98.28125 39.140625 98.125 38.667969 L 97.179688 34.421875 C 95.925781 28.136719 91.210938 23.105469 85.082031 21.378906 L 84.925781 21.378906 C 84.457031 21.21875 84.140625 20.75 84.140625 20.277344 C 84.140625 19.804688 84.457031 19.332031 84.925781 19.175781 C 91.210938 17.289062 95.765625 12.261719 97.023438 5.972656 L 97.96875 0.785156 C 98.4375 0.3125 98.910156 0 99.378906 0 C 99.851562 0 100.324219 0.3125 100.480469 0.941406 L 101.421875 5.816406 C 102.523438 12.101562 107.078125 17.289062 113.363281 19.175781 L 113.679688 19.332031 C 113.992188 19.332031 114.304688 19.804688 114.304688 20.277344 Z M 327.347656 350.519531 C 326.875 350.519531 326.402344 350.207031 326.246094 349.734375 L 324.675781 342.503906 C 322.320312 331.5 314.304688 322.699219 303.464844 319.554688 L 303.152344 319.398438 C 302.679688 319.242188 302.367188 318.769531 302.367188 318.296875 C 302.367188 317.824219 302.679688 317.355469 303.152344 317.195312 C 314.148438 314.054688 322.320312 305.09375 324.359375 293.933594 L 326.089844 285.132812 C 326.246094 284.660156 326.5625 284.1875 327.1875 284.1875 C 327.660156 284.1875 328.132812 284.503906 328.289062 285.132812 L 329.859375 293.621094 C 331.902344 304.78125 339.914062 313.894531 350.753906 317.195312 L 351.226562 317.355469 C 351.699219 317.511719 352.011719 317.984375 352.011719 318.453125 C 352.011719 318.925781 351.699219 319.398438 351.226562 319.554688 L 350.914062 319.710938 C 340.070312 322.855469 332.058594 331.65625 329.703125 342.660156 L 328.132812 349.890625 C 328.289062 350.046875 327.816406 350.519531 327.347656 350.519531 Z M 306.921875 318.296875 C 317.132812 322.226562 324.675781 331.027344 326.875 341.875 L 327.347656 344.074219 L 327.816406 341.875 C 330.015625 331.027344 337.558594 322.226562 347.769531 318.296875 C 337.402344 314.210938 329.859375 305.09375 327.816406 293.933594 L 327.347656 291.105469 L 326.71875 294.25 C 324.519531 305.25 317.132812 314.210938 306.921875 318.296875 Z M 301.421875 363.722656 C 301.421875 364.195312 301.109375 364.667969 300.636719 364.824219 L 300.480469 364.824219 C 294.039062 366.710938 289.167969 372.054688 287.753906 378.65625 L 286.8125 383.214844 C 286.65625 383.6875 286.339844 384 285.710938 384 C 285.082031 384 284.769531 383.6875 284.613281 383.214844 L 283.667969 378.65625 C 282.257812 372.054688 277.386719 366.710938 270.945312 364.824219 L 270.785156 364.824219 C 270.316406 364.667969 270 364.195312 270 363.722656 C 270 363.25 270.316406 362.78125 270.785156 362.621094 C 277.386719 360.738281 282.257812 355.390625 283.667969 348.632812 L 284.769531 343.132812 C 284.925781 342.660156 285.242188 342.1875 285.871094 342.1875 C 286.339844 342.1875 286.8125 342.503906 286.96875 343.132812 L 287.910156 348.320312 C 289.167969 355.078125 294.039062 360.421875 300.480469 362.464844 L 300.792969 362.621094 C 301.109375 362.78125 301.421875 363.25 301.421875 363.722656 Z M 301.421875 363.722656 " fill-opacity="1" fill-rule="nonzero"/></g></svg>