<svg xmlns="http://www.w3.org/2000/svg" xmlns:xlink="http://www.w3.org/1999/xlink" width="512" zoomAndPan="magnify" viewBox="0 0 384 383.999986" height="512" preserveAspectRatio="xMidYMid meet" version="1.0"><path fill="#ffffff" d="M 155.074219 381.113281 L 155.074219 313.496094 L 222.6875 313.496094 L 222.6875 381.113281 " fill-opacity="1" fill-rule="nonzero"/><path fill="#040505" d="M 157.886719 381.113281 L 157.886719 313.496094 L 155.074219 313.496094 L 155.074219 316.308594 L 222.6875 316.308594 L 222.6875 313.496094 L 219.878906 313.496094 L 219.878906 359.582031 C 219.878906 359.957031 219.949219 360.316406 220.09375 360.660156 C 220.234375 361.003906 220.4375 361.308594 220.703125 361.570312 C 220.964844 361.835938 221.269531 362.039062 221.613281 362.179688 C 221.957031 362.324219 222.316406 362.394531 222.6875 362.394531 C 223.0625 362.394531 223.421875 362.324219 223.765625 362.179688 C 224.109375 362.039062 224.414062 361.835938 224.675781 361.570312 C 224.941406 361.308594 225.144531 361.003906 225.285156 360.660156 C 225.429688 360.316406 225.5 359.957031 225.5 359.582031 L 225.5 313.496094 C 225.5 313.125 225.429688 312.765625 225.285156 312.421875 C 225.144531 312.078125 224.941406 311.773438 224.675781 311.507812 C 224.414062 311.246094 224.109375 311.042969 223.765625 310.898438 C 223.421875 310.757812 223.0625 310.6875 222.6875 310.6875 L 155.074219 310.6875 C 154.703125 310.6875 154.34375 310.757812 154 310.898438 C 153.65625 311.042969 153.351562 311.246094 153.085938 311.507812 C 152.824219 311.773438 152.621094 312.078125 152.476562 312.421875 C 152.335938 312.765625 152.265625 313.125 152.265625 313.496094 L 152.265625 381.113281 C 152.265625 381.488281 152.335938 381.84375 152.476562 382.191406 C 152.621094 382.535156 152.824219 382.839844 153.085938 383.101562 C 153.351562 383.367188 153.65625 383.570312 154 383.710938 C 154.34375 383.855469 154.703125 383.925781 155.074219 383.925781 C 155.449219 383.925781 155.804688 383.855469 156.152344 383.710938 C 156.496094 383.570312 156.800781 383.367188 157.0625 383.101562 C 157.328125 382.839844 157.53125 382.535156 157.671875 382.191406 C 157.816406 381.84375 157.886719 381.488281 157.886719 381.113281 Z M 157.886719 381.113281 " fill-opacity="1" fill-rule="nonzero"/><path fill="#ffffff" d="M 276.136719 175.191406 C 276.136719 127.570312 240.378906 101.445312 191.242188 101.445312 C 190.457031 101.445312 189.667969 101.464844 188.882812 101.464844 C 188.09375 101.464844 187.308594 101.445312 186.519531 101.445312 C 137.382812 101.445312 101.648438 127.570312 101.648438 175.191406 C 101.648438 195.804688 105.828125 265.425781 113.976562 281.75 C 119.601562 292.996094 129.644531 303.359375 144.878906 317.152344 C 166.957031 337.128906 188.113281 348.597656 214.085938 331.808594 C 237.007812 316.984375 258.277344 292.996094 263.898438 281.75 C 272.070312 265.425781 276.136719 195.804688 276.136719 175.191406 " fill-opacity="1" fill-rule="nonzero"/><path stroke-linecap="round" transform="matrix(0.187401, 0, 0, -0.187408, -213.260894, 593.522761)" fill="none" stroke-linejoin="round" d="M 2611.50336 2232.189987 C 2611.50336 2486.29317 2420.693996 2625.694538 2158.492664 2625.694538 C 2154.302945 2625.694538 2150.092383 2625.590321 2145.902664 2625.590321 C 2141.692101 2625.590321 2137.502383 2625.694538 2133.29182 2625.694538 C 1871.090488 2625.694538 1680.40619 2486.29317 1680.40619 2232.189987 C 1680.40619 2122.198805 1702.709666 1750.704996 1746.191022 1663.599985 C 1776.206915 1603.591531 1829.797791 1548.293709 1911.090834 1474.695289 C 2028.903214 1368.101599 2141.796323 1306.905065 2280.39054 1396.490454 C 2402.705305 1475.59156 2516.2029 1603.591531 2546.197949 1663.599985 C 2589.804371 1750.704996 2611.50336 2122.198805 2611.50336 2232.189987 Z M 2611.50336 2232.189987 " stroke="#040505" stroke-width="30" stroke-opacity="1" stroke-miterlimit="10"/><path fill="#8cdaf7" d="M 222.371094 247.078125 C 209.964844 247.078125 199.882812 239.957031 199.882812 231.148438 C 199.882812 222.339844 209.964844 215.21875 222.371094 215.21875 C 234.796875 215.21875 244.859375 222.339844 244.859375 231.148438 C 244.859375 239.957031 234.796875 247.078125 222.371094 247.078125 Z M 194.28125 303.546875 C 191.300781 304.390625 188.171875 304.203125 185.492188 302.308594 C 184.273438 302.851562 182.960938 303.191406 181.648438 303.191406 L 181.347656 303.191406 C 180.148438 303.191406 179.042969 302.925781 178.011719 302.515625 C 176.140625 301.746094 174.433594 301.894531 172.820312 300.398438 C 171.433594 299.121094 170.011719 297.886719 168.738281 296.5 C 167.238281 294.851562 165.121094 292.621094 167.367188 290.914062 C 169.335938 289.433594 170.761719 288.496094 172.335938 286.472656 C 173.816406 284.597656 176.53125 283.832031 178.835938 283.832031 C 180.222656 283.832031 181.441406 284.074219 182.53125 284.503906 C 184.140625 284.671875 185.640625 285.253906 186.953125 286.152344 C 187.550781 285.855469 188.152344 285.574219 188.808594 285.40625 C 189.667969 285.160156 190.53125 285.105469 191.375 285.125 C 192.21875 284.898438 193.117188 284.75 194.109375 284.75 C 197.691406 284.75 202.054688 287.445312 204.585938 289.882812 C 205.84375 291.101562 206.03125 293.105469 205.503906 294.773438 C 203.96875 299.742188 198.964844 302.234375 194.28125 303.546875 Z M 132.417969 231.148438 C 132.417969 222.339844 142.5 215.21875 154.90625 215.21875 C 167.332031 215.21875 177.394531 222.339844 177.394531 231.148438 C 177.394531 239.957031 167.332031 247.078125 154.90625 247.078125 C 142.5 247.078125 132.417969 239.957031 132.417969 231.148438 Z M 190.8125 147.753906 C 190.15625 147.753906 189.519531 147.753906 188.882812 147.773438 C 188.246094 147.753906 187.609375 147.753906 186.972656 147.753906 C 147 147.753906 117.914062 167.429688 117.914062 203.300781 C 117.914062 218.816406 121.324219 271.238281 127.957031 283.53125 C 132.53125 292 140.703125 299.816406 153.089844 310.199219 C 171.058594 325.246094 188.265625 333.867188 209.382812 321.21875 C 228.03125 310.066406 245.328125 292 249.898438 283.53125 C 256.554688 271.238281 259.851562 218.816406 259.851562 203.300781 C 259.851562 167.429688 230.765625 147.753906 190.8125 147.753906 " fill-opacity="1" fill-rule="nonzero"/><path fill="#ffffff" d="M 104.609375 240.519531 C 104.609375 240.519531 50.957031 192.65625 63.472656 132.179688 C 72.695312 87.613281 108.039062 63.027344 134.160156 49.195312 C 143.644531 44.171875 151.664062 36.789062 158.824219 29.21875 C 178.183594 8.695312 208.652344 3.09375 233.785156 15.929688 C 258.464844 28.503906 286.835938 50.152344 300.105469 86.078125 C 329.808594 166.4375 273.269531 234.898438 273.269531 234.898438 C 273.269531 234.898438 264.761719 161.378906 198.683594 152.15625 C 198.683594 152.15625 155.65625 195.167969 123.386719 207.480469 C 100.429688 216.230469 104.609375 240.519531 104.609375 240.519531 " fill-opacity="1" fill-rule="nonzero"/><path fill="#040505" d="M 125.089844 57.527344 C 128.375 55.558594 131.835938 53.605469 135.476562 51.679688 C 140.03125 49.265625 144.59375 46.148438 149.167969 42.316406 C 152.804688 39.273438 156.707031 35.546875 160.867188 31.148438 C 165.445312 26.292969 170.65625 22.296875 176.5 19.152344 C 182.214844 16.082031 188.261719 13.972656 194.632812 12.832031 C 201.023438 11.6875 207.40625 11.570312 213.792969 12.488281 C 220.347656 13.425781 226.582031 15.410156 232.503906 18.433594 C 249.976562 27.335938 264.433594 38.25 275.878906 51.175781 C 276.125 51.453125 276.414062 51.675781 276.75 51.839844 C 277.085938 52.003906 277.4375 52.097656 277.8125 52.117188 C 278.183594 52.140625 278.546875 52.089844 278.898438 51.96875 C 279.25 51.847656 279.566406 51.664062 279.84375 51.417969 C 280.125 51.171875 280.34375 50.878906 280.507812 50.542969 C 280.671875 50.207031 280.765625 49.855469 280.789062 49.484375 C 280.808594 49.109375 280.761719 48.75 280.640625 48.398438 C 280.519531 48.042969 280.332031 47.726562 280.085938 47.449219 C 268.171875 33.992188 253.164062 22.648438 235.0625 13.425781 C 228.585938 10.117188 221.761719 7.949219 214.589844 6.921875 C 207.605469 5.921875 200.625 6.046875 193.644531 7.296875 C 186.683594 8.542969 180.082031 10.847656 173.835938 14.203125 C 167.460938 17.632812 161.773438 21.992188 156.78125 27.285156 C 152.769531 31.527344 149.03125 35.101562 145.558594 38.007812 C 141.289062 41.582031 137.050781 44.484375 132.847656 46.710938 C 129.117188 48.683594 125.566406 50.683594 122.195312 52.710938 C 121.875 52.902344 121.605469 53.148438 121.382812 53.445312 C 121.160156 53.746094 121.003906 54.078125 120.914062 54.4375 C 120.824219 54.800781 120.808594 55.164062 120.863281 55.535156 C 120.917969 55.902344 121.039062 56.246094 121.234375 56.566406 C 121.425781 56.886719 121.671875 57.15625 121.96875 57.378906 C 122.269531 57.601562 122.601562 57.757812 122.960938 57.847656 C 123.324219 57.9375 123.6875 57.953125 124.058594 57.898438 C 124.425781 57.84375 124.769531 57.722656 125.089844 57.527344 Z M 296.464844 84.4375 C 296.8125 85.304688 297.144531 86.175781 297.46875 87.050781 C 304.136719 105.09375 306.859375 123.761719 305.636719 143.054688 C 304.65625 158.519531 301.179688 174.039062 295.199219 189.617188 C 290.925781 200.761719 285.609375 211.371094 279.261719 221.445312 C 276.101562 226.460938 273.382812 230.347656 271.101562 233.109375 L 273.269531 234.898438 L 276.0625 234.574219 C 275.886719 233.074219 275.546875 231.089844 275.042969 228.625 C 274.039062 223.738281 272.707031 218.828125 271.042969 213.886719 C 270.921875 213.53125 270.742188 213.214844 270.496094 212.933594 C 270.25 212.652344 269.960938 212.429688 269.628906 212.265625 C 269.292969 212.097656 268.941406 212.003906 268.570312 211.976562 C 268.195312 211.953125 267.835938 212 267.480469 212.117188 C 267.128906 212.238281 266.808594 212.417969 266.53125 212.664062 C 266.25 212.910156 266.027344 213.199219 265.859375 213.53125 C 265.695312 213.867188 265.597656 214.21875 265.574219 214.589844 C 265.546875 214.964844 265.59375 215.324219 265.714844 215.679688 C 267.304688 220.402344 268.578125 225.09375 269.535156 229.753906 C 270.007812 232.0625 270.320312 233.882812 270.476562 235.222656 C 270.5625 235.96875 270.898438 236.585938 271.480469 237.066406 C 271.765625 237.304688 272.089844 237.476562 272.445312 237.585938 C 272.800781 237.695312 273.164062 237.730469 273.535156 237.695312 C 273.90625 237.660156 274.257812 237.554688 274.585938 237.382812 C 274.914062 237.207031 275.199219 236.976562 275.4375 236.6875 C 277.867188 233.742188 280.730469 229.660156 284.015625 224.445312 C 290.5625 214.054688 296.042969 203.117188 300.449219 191.628906 C 306.632812 175.519531 310.230469 159.445312 311.246094 143.410156 C 312.523438 123.324219 309.6875 103.890625 302.742188 85.101562 C 302.402344 84.183594 302.050781 83.269531 301.6875 82.359375 C 301.550781 82.011719 301.351562 81.707031 301.09375 81.441406 C 300.832031 81.171875 300.53125 80.964844 300.1875 80.816406 C 299.847656 80.671875 299.488281 80.59375 299.117188 80.589844 C 298.742188 80.582031 298.382812 80.648438 298.039062 80.789062 C 297.691406 80.925781 297.386719 81.125 297.117188 81.382812 C 296.851562 81.644531 296.644531 81.945312 296.496094 82.289062 C 296.347656 82.628906 296.273438 82.988281 296.265625 83.359375 C 296.261719 83.734375 296.328125 84.09375 296.464844 84.4375 Z M 251.246094 177.847656 C 237.648438 161.820312 220.257812 152.328125 199.070312 149.371094 C 198.636719 149.3125 198.207031 149.351562 197.789062 149.492188 C 197.371094 149.632812 197.007812 149.855469 196.695312 150.167969 C 194.925781 151.9375 192.542969 154.21875 189.539062 157.011719 C 183.527344 162.609375 177.460938 167.953125 171.339844 173.039062 C 151.855469 189.230469 135.539062 199.835938 122.382812 204.855469 C 116.476562 207.105469 111.773438 210.472656 108.269531 214.957031 C 105.5 218.507812 103.566406 222.644531 102.476562 227.363281 C 102.390625 227.726562 102.382812 228.089844 102.441406 228.460938 C 102.503906 228.828125 102.632812 229.167969 102.832031 229.484375 C 103.027344 229.800781 103.277344 230.066406 103.582031 230.285156 C 103.886719 230.5 104.21875 230.652344 104.582031 230.734375 C 104.945312 230.820312 105.3125 230.828125 105.679688 230.769531 C 106.046875 230.707031 106.386719 230.578125 106.703125 230.378906 C 107.019531 230.183594 107.285156 229.933594 107.503906 229.628906 C 107.71875 229.324219 107.871094 228.992188 107.953125 228.628906 C 110.023438 219.667969 115.503906 213.492188 124.386719 210.105469 C 138.125 204.863281 154.972656 193.949219 174.933594 177.363281 C 181.136719 172.207031 187.28125 166.796875 193.371094 161.128906 C 196.421875 158.289062 198.855469 155.960938 200.671875 154.144531 L 198.683594 152.15625 L 198.292969 154.941406 C 218.0625 157.699219 234.285156 166.546875 246.957031 181.484375 C 247.199219 181.769531 247.484375 181.996094 247.816406 182.164062 C 248.148438 182.335938 248.5 182.4375 248.871094 182.46875 C 249.242188 182.496094 249.605469 182.457031 249.960938 182.339844 C 250.316406 182.226562 250.636719 182.050781 250.917969 181.808594 C 251.203125 181.566406 251.429688 181.28125 251.601562 180.949219 C 251.773438 180.617188 251.871094 180.265625 251.902344 179.894531 C 251.933594 179.523438 251.890625 179.160156 251.777344 178.804688 C 251.664062 178.449219 251.484375 178.128906 251.246094 177.847656 Z M 106.480469 238.421875 C 104.324219 236.5 101.671875 233.769531 98.519531 230.226562 C 92.1875 223.113281 86.597656 215.558594 81.75 207.570312 C 74.984375 196.421875 70.183594 185.210938 67.347656 173.933594 C 63.816406 159.917969 63.445312 146.1875 66.226562 132.75 C 70.179688 113.632812 79.410156 96.625 93.910156 81.714844 C 94.171875 81.449219 94.371094 81.144531 94.507812 80.796875 C 94.644531 80.449219 94.710938 80.089844 94.707031 79.71875 C 94.703125 79.34375 94.625 78.988281 94.476562 78.644531 C 94.332031 78.300781 94.125 78 93.855469 77.742188 C 93.589844 77.480469 93.28125 77.28125 92.9375 77.144531 C 92.589844 77.007812 92.230469 76.941406 91.859375 76.945312 C 91.484375 76.949219 91.128906 77.027344 90.785156 77.175781 C 90.441406 77.320312 90.140625 77.527344 89.882812 77.796875 C 74.617188 93.488281 64.898438 111.425781 60.722656 131.609375 C 57.765625 145.890625 58.15625 160.453125 61.894531 175.308594 C 64.867188 187.128906 69.886719 198.855469 76.945312 210.488281 C 81.96875 218.769531 87.761719 226.59375 94.320312 233.964844 C 97.617188 237.667969 100.421875 240.550781 102.738281 242.617188 C 103.015625 242.867188 103.332031 243.050781 103.683594 243.175781 C 104.035156 243.296875 104.394531 243.347656 104.769531 243.328125 C 105.140625 243.304688 105.496094 243.214844 105.828125 243.050781 C 106.164062 242.890625 106.457031 242.667969 106.707031 242.390625 C 106.953125 242.113281 107.140625 241.796875 107.261719 241.445312 C 107.386719 241.09375 107.4375 240.730469 107.414062 240.359375 C 107.394531 239.988281 107.300781 239.632812 107.140625 239.296875 C 106.976562 238.960938 106.757812 238.671875 106.480469 238.421875 Z M 106.480469 238.421875 " fill-opacity="1" fill-rule="nonzero"/><path fill="#fac57d" d="M 94.976562 217.46875 C 94.976562 217.46875 66.566406 183.023438 77.640625 129.554688 C 85.773438 90.179688 117.015625 68.441406 140.101562 56.222656 C 148.480469 51.800781 155.582031 45.257812 161.898438 38.570312 C 179.007812 20.425781 205.9375 15.5 228.160156 26.816406 C 249.957031 37.949219 275.011719 57.066406 286.761719 88.8125 C 312.996094 159.839844 280.894531 212.839844 280.894531 212.839844 C 280.894531 212.839844 259.382812 144.171875 200.988281 136.019531 C 200.988281 136.019531 148.066406 185.085938 119.542969 195.9375 C 99.25 203.675781 94.976562 217.46875 94.976562 217.46875 " fill-opacity="1" fill-rule="nonzero"/><path stroke-linecap="round" transform="matrix(0.187401, 0, 0, -0.187408, -213.260894, 593.522761)" fill="none" stroke-linejoin="round" d="M 2198.201189 2355.104142 C 2198.201189 2355.104142 2337.608337 2486.29317 2411.397407 2732.309072 " stroke="#040505" stroke-width="23.605" stroke-opacity="1" stroke-miterlimit="10"/><path stroke-linecap="round" transform="matrix(0.187401, 0, 0, -0.187408, -213.260894, 593.522761)" fill="none" stroke-linejoin="round" d="M 1853.893883 2904.497276 C 1853.893883 2904.497276 2067.006723 2937.304954 2198.201189 3019.303307 " stroke="#040505" stroke-width="23.605" stroke-opacity="1" stroke-miterlimit="10"/><path stroke-linecap="round" transform="matrix(0.187401, 0, 0, -0.187408, -213.260894, 593.522761)" fill="none" stroke-linejoin="round" d="M 1527.596112 2104.294234 C 1527.596112 2104.294234 1484.906842 2305.892624 1681.594319 2437.102495 " stroke="#040505" stroke-width="23.605" stroke-opacity="1" stroke-miterlimit="10"/><path stroke-linecap="round" transform="matrix(0.187401, 0, 0, -0.187408, -213.260894, 593.522761)" fill="none" stroke-linejoin="round" d="M 1968.600452 2625.694538 C 1968.600452 2625.694538 2165.39215 2666.693715 2247.393902 2814.307425 " stroke="#040505" stroke-width="23.605" stroke-opacity="1" stroke-miterlimit="10"/><path stroke-linecap="round" transform="matrix(0.187401, 0, 0, -0.187408, -213.260894, 593.522761)" fill="none" stroke-linejoin="round" d="M 2751.49415 2251.907944 C 2751.49415 2251.907944 2770.399994 2432.49608 2622.801009 2522.706775 " stroke="#040505" stroke-width="23.605" stroke-opacity="1" stroke-miterlimit="10"/><path fill="#040505" d="M 169.429688 230.15625 C 167.179688 233.023438 164.21875 235.308594 160.734375 236.789062 C 157.285156 238.269531 153.277344 238.871094 149.414062 238.214844 C 145.535156 237.558594 141.902344 235.722656 139.183594 232.984375 C 138.847656 232.648438 138.527344 232.292969 138.210938 231.898438 L 137.742188 231.28125 C 137.570312 231.054688 137.664062 231.132812 137.589844 231.039062 C 137.554688 230.980469 137.515625 230.90625 137.460938 230.851562 C 137.066406 230.34375 136.503906 229.894531 135.867188 229.539062 C 134.574219 228.84375 132.867188 228.675781 131.089844 228.882812 C 132.511719 227.832031 134.421875 227.121094 136.503906 227.4375 C 137.535156 227.550781 138.546875 227.945312 139.445312 228.601562 C 139.558594 228.675781 139.691406 228.769531 139.800781 228.863281 C 139.878906 228.902344 140.121094 229.183594 140.082031 229.089844 L 140.53125 229.386719 L 141.542969 230.007812 C 144.320312 231.5625 147.242188 232.613281 150.242188 233.0625 C 153.238281 233.511719 156.332031 233.359375 159.496094 232.78125 C 162.703125 232.238281 165.90625 231.148438 169.429688 230.15625 " fill-opacity="1" fill-rule="nonzero"/><path fill="#040505" d="M 205.671875 230.15625 C 209.195312 231.148438 212.402344 232.238281 215.585938 232.78125 C 218.773438 233.359375 221.863281 233.511719 224.863281 233.0625 C 227.863281 232.613281 230.785156 231.5625 233.558594 230.007812 L 234.550781 229.386719 L 235.019531 229.089844 C 234.984375 229.183594 235.226562 228.902344 235.300781 228.863281 C 235.414062 228.769531 235.527344 228.675781 235.640625 228.601562 C 236.558594 227.945312 237.570312 227.550781 238.601562 227.4375 C 240.679688 227.121094 242.589844 227.832031 244.015625 228.882812 C 242.214844 228.675781 240.511719 228.84375 239.21875 229.539062 C 238.582031 229.894531 238.039062 230.34375 237.644531 230.851562 C 237.605469 230.90625 237.550781 230.980469 237.511719 231.039062 C 237.4375 231.132812 237.53125 231.054688 237.34375 231.28125 L 236.875 231.898438 C 236.574219 232.292969 236.238281 232.648438 235.902344 232.984375 C 233.203125 235.722656 229.566406 237.558594 225.6875 238.214844 C 221.808594 238.871094 217.796875 238.269531 214.351562 236.789062 C 210.882812 235.308594 207.921875 233.023438 205.671875 230.15625 " fill-opacity="1" fill-rule="nonzero"/><path fill="#040505" d="M 180.242188 260.421875 C 183.074219 261.753906 185.226562 262.746094 187.121094 262.652344 C 188.058594 262.617188 189.070312 262.445312 190.210938 261.996094 C 190.792969 261.808594 191.375 261.511719 192.03125 261.285156 C 192.648438 260.984375 193.285156 260.667969 194.074219 260.421875 C 193.941406 261.210938 193.625 261.902344 193.304688 262.632812 C 192.855469 263.253906 192.460938 263.945312 191.863281 264.488281 C 190.699219 265.613281 188.976562 266.421875 187.160156 266.4375 C 185.304688 266.476562 183.578125 265.671875 182.417969 264.546875 C 181.238281 263.421875 180.410156 262.035156 180.242188 260.421875 " fill-opacity="1" fill-rule="nonzero"/><path fill="#040505" d="M 168.738281 297.359375 C 174.902344 299.910156 181.066406 301.089844 187.328125 301.257812 C 190.457031 301.335938 193.566406 301.164062 196.640625 300.601562 C 199.714844 300.023438 202.710938 299.085938 205.597656 297.359375 C 203.761719 300.226562 200.632812 302.195312 197.410156 303.375 C 194.148438 304.539062 190.664062 305.027344 187.234375 304.933594 C 183.804688 304.839844 180.375 304.164062 177.167969 302.925781 C 173.984375 301.726562 170.96875 299.910156 168.738281 297.359375 " fill-opacity="1" fill-rule="nonzero"/><path stroke-linecap="round" transform="matrix(0.187401, 0, 0, -0.187408, -213.260894, 593.522761)" fill="none" stroke-linejoin="round" d="M 2022.900036 1612.908578 C 2057.605912 1617.806802 2073.989587 1652.594613 2107.799156 1653.991128 C 2119.492847 1654.491372 2127.809751 1644.799142 2138.607135 1645.299386 C 2149.69634 1645.903848 2165.704816 1656.408975 2177.690329 1654.095346 C 2203.891702 1649.00953 2221.192529 1615.409799 2249.103141 1616.597878 C 2231.906535 1609.990487 2210.207546 1602.299233 2191.510146 1604.30021 C 2172.500081 1606.509621 2153.80268 1612.199899 2134.500794 1612.491708 C 2114.990463 1612.700143 2097.001772 1604.195992 2077.491441 1604.195992 C 2058.794041 1604.195992 2041.097171 1608.989999 2022.900036 1612.908578 Z M 2022.900036 1612.908578 " stroke="#040505" stroke-width="16.399" stroke-opacity="1" stroke-miterlimit="10"/><path fill="#ffffff" d="M 150.371094 77.53125 C 143.324219 85.832031 124.210938 89.84375 118.457031 84.953125 C 112.683594 80.0625 114.726562 61.5625 121.773438 53.242188 C 128.839844 44.941406 137.945312 49.71875 143.699219 54.609375 C 149.453125 59.503906 157.4375 69.230469 150.371094 77.53125 " fill-opacity="1" fill-rule="nonzero"/><path stroke-linecap="round" transform="matrix(0.187401, 0, 0, -0.187408, -213.260894, 593.522761)" fill="none" stroke-linejoin="round" d="M 1940.398019 2753.298482 C 1902.794775 2709.006032 1800.803272 2687.599751 1770.099515 2713.695821 C 1739.291535 2739.79189 1750.193141 2838.506735 1787.796385 2882.903403 C 1825.50385 2927.195854 1874.092077 2901.704246 1904.795835 2875.608176 C 1935.499592 2849.491263 1978.105484 2797.590933 1940.398019 2753.298482 Z M 1940.398019 2753.298482 " stroke="#040505" stroke-width="17.627001" stroke-opacity="1" stroke-miterlimit="10"/><path fill="#ffffff" d="M 117.109375 55.378906 C 122.242188 64.992188 118.925781 84.238281 112.253906 87.800781 C 105.601562 91.363281 89.148438 82.664062 84.011719 73.050781 C 78.878906 63.417969 86.675781 56.710938 93.34375 53.148438 C 100 49.605469 111.972656 45.765625 117.109375 55.378906 " fill-opacity="1" fill-rule="nonzero"/><path fill="#040505" d="M 94.835938 54.238281 C 99.03125 52.117188 102.855469 51.027344 106.3125 50.964844 C 110.648438 50.890625 113.761719 52.621094 115.652344 56.15625 L 117.109375 55.378906 L 117.109375 53.726562 C 116.890625 53.726562 116.679688 53.769531 116.476562 53.851562 C 116.273438 53.9375 116.09375 54.054688 115.941406 54.210938 C 115.785156 54.367188 115.664062 54.542969 115.582031 54.746094 C 115.496094 54.949219 115.457031 55.160156 115.457031 55.378906 C 115.457031 55.65625 115.519531 55.914062 115.652344 56.15625 C 116.78125 58.277344 117.503906 60.945312 117.808594 64.15625 C 118.101562 67.207031 117.988281 70.355469 117.476562 73.601562 C 116.972656 76.789062 116.167969 79.546875 115.058594 81.875 C 113.96875 84.160156 112.777344 85.648438 111.476562 86.34375 C 110.207031 87.023438 108.398438 87.152344 106.050781 86.726562 C 103.664062 86.292969 101.089844 85.351562 98.332031 83.902344 C 95.550781 82.445312 93.027344 80.703125 90.753906 78.679688 C 88.382812 76.566406 86.621094 74.429688 85.46875 72.273438 C 84.136719 69.769531 83.710938 67.382812 84.199219 65.109375 C 84.246094 64.898438 84.246094 64.683594 84.207031 64.464844 C 84.167969 64.25 84.089844 64.050781 83.96875 63.867188 C 83.851562 63.683594 83.703125 63.527344 83.519531 63.40625 C 83.339844 63.28125 83.144531 63.195312 82.929688 63.148438 C 82.714844 63.101562 82.5 63.101562 82.285156 63.140625 C 82.070312 63.179688 81.871094 63.257812 81.6875 63.378906 C 81.503906 63.496094 81.347656 63.644531 81.222656 63.828125 C 81.097656 64.007812 81.015625 64.203125 80.96875 64.417969 C 80.3125 67.476562 80.84375 70.613281 82.554688 73.832031 C 83.890625 76.332031 85.890625 78.769531 88.558594 81.144531 C 91.03125 83.351562 93.777344 85.246094 96.796875 86.828125 C 99.851562 88.433594 102.742188 89.480469 105.460938 89.976562 C 108.5625 90.539062 111.085938 90.300781 113.03125 89.257812 C 114.972656 88.222656 116.640625 86.234375 118.039062 83.292969 C 119.285156 80.675781 120.1875 77.617188 120.738281 74.117188 C 121.296875 70.597656 121.417969 67.171875 121.097656 63.84375 C 120.75 60.191406 119.90625 57.109375 118.566406 54.601562 L 117.109375 55.378906 L 117.109375 57.03125 C 117.382812 57.03125 117.644531 56.964844 117.886719 56.835938 C 118.078125 56.734375 118.246094 56.597656 118.382812 56.425781 C 118.523438 56.257812 118.625 56.070312 118.6875 55.859375 C 118.75 55.648438 118.773438 55.4375 118.75 55.21875 C 118.730469 55 118.667969 54.792969 118.566406 54.601562 C 116.039062 49.875 111.9375 47.5625 106.253906 47.664062 C 102.292969 47.734375 97.992188 48.941406 93.347656 51.289062 C 93.152344 51.386719 92.980469 51.519531 92.839844 51.6875 C 92.695312 51.851562 92.589844 52.039062 92.523438 52.246094 C 92.453125 52.453125 92.425781 52.667969 92.445312 52.886719 C 92.460938 53.105469 92.515625 53.3125 92.617188 53.507812 C 92.714844 53.703125 92.847656 53.871094 93.011719 54.015625 C 93.179688 54.15625 93.367188 54.261719 93.574219 54.332031 C 93.78125 54.398438 93.996094 54.425781 94.214844 54.410156 C 94.433594 54.394531 94.640625 54.335938 94.835938 54.238281 Z M 94.835938 54.238281 " fill-opacity="1" fill-rule="nonzero"/><path fill="#ffffff" d="M 79.777344 82.367188 C 89.898438 78.316406 108.65625 83.734375 111.449219 90.761719 C 114.257812 97.769531 103.800781 113.175781 93.683594 117.207031 C 83.5625 121.253906 77.753906 112.78125 74.941406 105.753906 C 72.152344 98.726562 69.640625 86.414062 79.777344 82.367188 " fill-opacity="1" fill-rule="nonzero"/><path stroke-linecap="round" transform="matrix(0.187401, 0, 0, -0.187408, -213.260894, 593.522761)" fill="none" stroke-linejoin="round" d="M 1563.698561 2727.494222 C 1617.706324 2749.108938 1717.80099 2720.198995 1732.704715 2682.701527 C 1747.691817 2645.308277 1691.891438 2563.101489 1637.904519 2541.590991 C 1583.896756 2519.997119 1552.901178 2565.206684 1537.893231 2602.704151 C 1522.989506 2640.201618 1509.607421 2705.90035 1563.698561 2727.494222 Z M 1563.698561 2727.494222 " stroke="#040505" stroke-width="17.627001" stroke-opacity="1" stroke-miterlimit="10"/><path fill="#ffffff" d="M 134.273438 122.210938 C 134.140625 111.320312 121.980469 96.046875 114.429688 96.140625 C 106.855469 96.234375 96.625 111.769531 96.757812 122.675781 C 96.886719 133.566406 106.949219 135.703125 114.503906 135.609375 C 122.054688 135.515625 134.40625 133.117188 134.273438 122.210938 " fill-opacity="1" fill-rule="nonzero"/><path fill="#040505" d="M 115.421875 137.238281 C 120.628906 137.058594 124.980469 136.042969 128.484375 134.199219 C 133.507812 131.550781 135.988281 127.546875 135.925781 122.1875 L 134.273438 122.210938 L 134.273438 123.859375 C 134.492188 123.859375 134.703125 123.820312 134.90625 123.734375 C 135.109375 123.652344 135.285156 123.53125 135.441406 123.378906 C 135.597656 123.222656 135.714844 123.042969 135.800781 122.839844 C 135.882812 122.640625 135.925781 122.429688 135.925781 122.210938 C 135.925781 122.203125 135.925781 122.195312 135.925781 122.1875 C 135.890625 119.347656 135.148438 116.242188 133.695312 112.875 C 132.375 109.804688 130.621094 106.863281 128.441406 104.046875 C 126.269531 101.242188 124.011719 98.996094 121.664062 97.304688 C 119.023438 95.398438 116.601562 94.460938 114.40625 94.488281 C 112.195312 94.515625 109.863281 95.523438 107.414062 97.511719 C 105.265625 99.253906 103.234375 101.5625 101.328125 104.441406 C 99.441406 107.285156 97.945312 110.265625 96.839844 113.390625 C 95.648438 116.757812 95.070312 119.859375 95.105469 122.699219 C 95.148438 126.339844 96.195312 129.34375 98.25 131.707031 C 98.394531 131.871094 98.5625 132.003906 98.757812 132.101562 C 98.957031 132.199219 99.164062 132.253906 99.382812 132.269531 C 99.597656 132.285156 99.8125 132.257812 100.019531 132.191406 C 100.226562 132.121094 100.414062 132.015625 100.582031 131.871094 C 100.746094 131.726562 100.878906 131.558594 100.976562 131.359375 C 101.074219 131.164062 101.128906 130.957031 101.144531 130.738281 C 101.160156 130.519531 101.132812 130.308594 101.0625 130.101562 C 100.996094 129.890625 100.886719 129.707031 100.746094 129.539062 C 99.21875 127.785156 98.441406 125.492188 98.40625 122.65625 C 98.378906 120.210938 98.894531 117.488281 99.953125 114.496094 C 100.96875 111.625 102.34375 108.882812 104.082031 106.265625 C 105.800781 103.671875 107.605469 101.605469 109.496094 100.074219 C 111.347656 98.570312 113 97.808594 114.449219 97.792969 C 115.917969 97.773438 117.679688 98.503906 119.730469 99.984375 C 121.820312 101.488281 123.855469 103.519531 125.828125 106.066406 C 127.839844 108.664062 129.449219 111.371094 130.664062 114.183594 C 131.941406 117.144531 132.59375 119.828125 132.621094 122.230469 L 134.273438 122.210938 L 134.273438 120.558594 C 134.265625 120.558594 134.261719 120.558594 134.253906 120.558594 C 134.035156 120.558594 133.824219 120.605469 133.625 120.691406 C 133.421875 120.777344 133.246094 120.898438 133.09375 121.054688 C 132.9375 121.210938 132.820312 121.390625 132.742188 121.59375 C 132.660156 121.800781 132.621094 122.011719 132.621094 122.230469 C 132.671875 126.242188 130.777344 129.257812 126.945312 131.277344 C 123.886719 132.886719 120.007812 133.773438 115.308594 133.9375 C 115.089844 133.945312 114.878906 133.996094 114.679688 134.085938 C 114.480469 134.175781 114.308594 134.300781 114.160156 134.460938 C 114.007812 134.621094 113.894531 134.804688 113.820312 135.011719 C 113.742188 135.214844 113.707031 135.425781 113.714844 135.644531 C 113.722656 135.863281 113.773438 136.074219 113.863281 136.273438 C 113.953125 136.472656 114.078125 136.648438 114.238281 136.796875 C 114.398438 136.945312 114.582031 137.058594 114.789062 137.136719 C 114.992188 137.210938 115.203125 137.246094 115.421875 137.238281 Z M 115.421875 137.238281 " fill-opacity="1" fill-rule="nonzero"/><path fill="#ffffff" d="M 140.832031 118.96875 C 130.582031 115.273438 120.144531 98.765625 122.691406 91.660156 C 125.257812 84.558594 143.289062 79.984375 153.539062 83.660156 C 163.808594 87.371094 162.535156 97.566406 159.964844 104.6875 C 157.398438 111.789062 151.082031 122.660156 140.832031 118.96875 " fill-opacity="1" fill-rule="nonzero"/><path stroke-linecap="round" transform="matrix(0.187401, 0, 0, -0.187408, -213.260894, 593.522761)" fill="none" stroke-linejoin="round" d="M 1889.496067 2532.19057 C 1834.80044 2551.908527 1779.104283 2639.993183 1792.694812 2677.907521 C 1806.389563 2715.801015 1902.607176 2740.208761 1957.302803 2720.595021 C 2012.102652 2700.793691 2005.307387 2646.39214 1991.591792 2608.394428 C 1977.897041 2570.500934 1944.191694 2512.493457 1889.496067 2532.19057 Z M 1889.496067 2532.19057 " stroke="#040505" stroke-width="17.627001" stroke-opacity="1" stroke-miterlimit="10"/><path fill="#fac57d" d="M 142.105469 113.625 C 134.835938 111.003906 127.433594 99.308594 129.25 94.265625 C 131.070312 89.226562 143.851562 85.984375 151.121094 88.605469 C 158.390625 91.230469 157.492188 98.464844 155.675781 103.488281 C 153.855469 108.527344 149.378906 116.25 142.105469 113.625 " fill-opacity="1" fill-rule="nonzero"/><path fill="#fac57d" d="M 102.492188 121.929688 C 102.152344 114.207031 110.175781 102.925781 115.535156 102.679688 C 120.875 102.457031 128.746094 113.042969 129.082031 120.785156 C 129.402344 128.507812 122.375 130.417969 117.015625 130.640625 C 111.671875 130.867188 102.828125 129.648438 102.492188 121.929688 " fill-opacity="1" fill-rule="nonzero"/><path fill="#fac57d" d="M 82.851562 86.976562 C 89.972656 83.996094 103.332031 87.632812 105.394531 92.578125 C 107.457031 97.527344 100.203125 108.546875 93.0625 111.527344 C 85.941406 114.488281 81.726562 108.546875 79.664062 103.597656 C 77.605469 98.652344 75.710938 89.9375 82.851562 86.976562 " fill-opacity="1" fill-rule="nonzero"/><path fill="#fac57d" d="M 112.554688 58.191406 C 116.582031 64.789062 114.988281 78.542969 110.417969 81.316406 C 105.828125 84.109375 93.851562 78.597656 89.824219 72.003906 C 85.8125 65.386719 91.058594 60.328125 95.652344 57.554688 C 100.222656 54.761719 108.542969 51.574219 112.554688 58.191406 " fill-opacity="1" fill-rule="nonzero"/><path fill="#fac57d" d="M 145.707031 75.113281 C 140.984375 81.222656 127.582031 84.707031 123.328125 81.429688 C 119.09375 78.167969 119.917969 64.992188 124.621094 58.863281 C 129.34375 52.753906 135.960938 55.828125 140.195312 59.089844 C 144.449219 62.371094 150.410156 68.984375 145.707031 75.113281 " fill-opacity="1" fill-rule="nonzero"/><path fill="#ffffff" d="M 113.023438 103.636719 C 105.863281 101.070312 102.152344 93.179688 104.71875 86.019531 C 107.308594 78.863281 115.195312 75.152344 122.355469 77.738281 C 129.515625 80.304688 133.222656 88.195312 130.636719 95.355469 C 128.050781 102.511719 120.164062 106.222656 113.023438 103.636719 " fill-opacity="1" fill-rule="nonzero"/><path stroke-linecap="round" transform="matrix(0.187401, 0, 0, -0.187408, -213.260894, 593.522761)" fill="none" stroke-linejoin="round" d="M 1741.104996 2614.001331 C 1702.897265 2627.695515 1683.095114 2669.799397 1696.789865 2708.005544 C 1710.609682 2746.190847 1752.694466 2765.992178 1790.902196 2752.193777 C 1829.109927 2738.499593 1848.891234 2696.395711 1835.092261 2658.210408 C 1821.293288 2620.004261 1779.208504 2600.20293 1741.104996 2614.001331 Z M 1741.104996 2614.001331 " stroke="#040505" stroke-width="17.627001" stroke-opacity="1" stroke-miterlimit="10"/><path fill="#ffffff" d="M 179.269531 232.085938 C 179.269531 246.574219 167.539062 258.324219 153.03125 258.324219 C 138.546875 258.324219 126.796875 246.574219 126.796875 232.085938 C 126.796875 217.601562 138.546875 205.847656 153.03125 205.847656 C 167.539062 205.847656 179.269531 217.601562 179.269531 232.085938 " fill-opacity="1" fill-rule="nonzero"/><path stroke-linecap="round" transform="matrix(0.187401, 0, 0, -0.187408, -213.260894, 593.522761)" fill="none" stroke-linejoin="round" d="M 2094.604669 1928.604321 C 2094.604669 1851.295757 2032.009026 1788.598491 1954.593035 1788.598491 C 1877.30211 1788.598491 1814.602245 1851.295757 1814.602245 1928.604321 C 1814.602245 2005.892041 1877.30211 2068.610151 1954.593035 2068.610151 C 2032.009026 2068.610151 2094.604669 2005.892041 2094.604669 1928.604321 Z M 2094.604669 1928.604321 " stroke="#040505" stroke-width="20" stroke-opacity="1" stroke-miterlimit="10"/><path fill="#fac57d" d="M 158.054688 247.210938 C 158.054688 249.984375 155.824219 252.234375 153.03125 252.234375 C 150.257812 252.234375 148.011719 249.984375 148.011719 247.210938 C 148.011719 244.4375 153.03125 236.304688 153.03125 236.304688 C 153.03125 236.304688 158.054688 244.4375 158.054688 247.210938 " fill-opacity="1" fill-rule="nonzero"/><path fill="#fac57d" d="M 148.011719 216.960938 C 148.011719 214.1875 150.257812 211.941406 153.03125 211.941406 C 155.824219 211.941406 158.054688 214.1875 158.054688 216.960938 C 158.054688 219.753906 153.03125 227.871094 153.03125 227.871094 C 153.03125 227.871094 148.011719 219.753906 148.011719 216.960938 " fill-opacity="1" fill-rule="nonzero"/><path fill="#fac57d" d="M 137.910156 237.109375 C 135.136719 237.109375 132.886719 234.859375 132.886719 232.085938 C 132.886719 229.3125 135.136719 227.0625 137.910156 227.0625 C 140.703125 227.0625 148.816406 232.085938 148.816406 232.085938 C 148.816406 232.085938 140.703125 237.109375 137.910156 237.109375 " fill-opacity="1" fill-rule="nonzero"/><path fill="#fac57d" d="M 168.15625 227.0625 C 170.929688 227.0625 173.179688 229.3125 173.179688 232.085938 C 173.179688 234.859375 170.929688 237.109375 168.15625 237.109375 C 165.382812 237.109375 157.25 232.085938 157.25 232.085938 C 157.25 232.085938 165.382812 227.0625 168.15625 227.0625 " fill-opacity="1" fill-rule="nonzero"/><path fill="#fac57d" d="M 145.910156 246.328125 C 143.945312 248.296875 140.757812 248.296875 138.789062 246.328125 C 136.824219 244.363281 136.824219 241.195312 138.789062 239.207031 C 140.757812 237.257812 150.054688 235.066406 150.054688 235.066406 C 150.054688 235.066406 147.859375 244.363281 145.910156 246.328125 " fill-opacity="1" fill-rule="nonzero"/><path fill="#fac57d" d="M 160.171875 217.84375 C 162.140625 215.875 165.324219 215.875 167.273438 217.84375 C 169.242188 219.8125 169.242188 222.980469 167.273438 224.964844 C 165.324219 226.914062 156.011719 229.105469 156.011719 229.105469 C 156.011719 229.105469 158.203125 219.8125 160.171875 217.84375 " fill-opacity="1" fill-rule="nonzero"/><path fill="#fac57d" d="M 138.789062 224.964844 C 136.824219 222.980469 136.824219 219.8125 138.789062 217.84375 C 140.757812 215.875 143.945312 215.875 145.910156 217.84375 C 147.859375 219.8125 150.054688 229.105469 150.054688 229.105469 C 150.054688 229.105469 140.757812 226.914062 138.789062 224.964844 " fill-opacity="1" fill-rule="nonzero"/><path fill="#fac57d" d="M 167.273438 239.207031 C 169.242188 241.195312 169.242188 244.363281 167.273438 246.328125 C 165.324219 248.296875 162.140625 248.296875 160.171875 246.328125 C 158.203125 244.363281 156.011719 235.066406 156.011719 235.066406 C 156.011719 235.066406 165.324219 237.257812 167.273438 239.207031 " fill-opacity="1" fill-rule="nonzero"/><path fill="#ffffff" d="M 248.605469 230.210938 C 248.605469 244.699219 236.875 256.449219 222.371094 256.449219 C 207.886719 256.449219 196.132812 244.699219 196.132812 230.210938 C 196.132812 215.726562 207.886719 203.976562 222.371094 203.976562 C 236.875 203.976562 248.605469 215.726562 248.605469 230.210938 " fill-opacity="1" fill-rule="nonzero"/><path stroke-linecap="round" transform="matrix(0.187401, 0, 0, -0.187408, -213.260894, 593.522761)" fill="none" stroke-linejoin="round" d="M 2464.59224 1938.609204 C 2464.59224 1861.30064 2401.996596 1798.603373 2324.60145 1798.603373 C 2247.289681 1798.603373 2184.589815 1861.30064 2184.589815 1938.609204 C 2184.589815 2015.896924 2247.289681 2078.594191 2324.60145 2078.594191 C 2401.996596 2078.594191 2464.59224 2015.896924 2464.59224 1938.609204 Z M 2464.59224 1938.609204 " stroke="#040505" stroke-width="20" stroke-opacity="1" stroke-miterlimit="10"/><path fill="#fac57d" d="M 227.394531 245.335938 C 227.394531 248.109375 225.164062 250.359375 222.371094 250.359375 C 219.597656 250.359375 217.347656 248.109375 217.347656 245.335938 C 217.347656 242.5625 222.371094 234.429688 222.371094 234.429688 C 222.371094 234.429688 227.394531 242.5625 227.394531 245.335938 " fill-opacity="1" fill-rule="nonzero"/><path fill="#fac57d" d="M 217.347656 215.089844 C 217.347656 212.316406 219.597656 210.066406 222.371094 210.066406 C 225.164062 210.066406 227.394531 212.316406 227.394531 215.089844 C 227.394531 217.882812 222.371094 225.996094 222.371094 225.996094 C 222.371094 225.996094 217.347656 217.882812 217.347656 215.089844 " fill-opacity="1" fill-rule="nonzero"/><path fill="#fac57d" d="M 207.246094 235.234375 C 204.472656 235.234375 202.226562 232.984375 202.226562 230.210938 C 202.226562 227.4375 204.472656 225.191406 207.246094 225.191406 C 210.039062 225.191406 218.15625 230.210938 218.15625 230.210938 C 218.15625 230.210938 210.039062 235.234375 207.246094 235.234375 " fill-opacity="1" fill-rule="nonzero"/><path fill="#fac57d" d="M 237.492188 225.191406 C 240.269531 225.191406 242.515625 227.4375 242.515625 230.210938 C 242.515625 232.984375 240.269531 235.234375 237.492188 235.234375 C 234.71875 235.234375 226.585938 230.210938 226.585938 230.210938 C 226.585938 230.210938 234.71875 225.191406 237.492188 225.191406 " fill-opacity="1" fill-rule="nonzero"/><path fill="#fac57d" d="M 215.25 244.457031 C 213.28125 246.421875 210.097656 246.421875 208.128906 244.457031 C 206.160156 242.488281 206.160156 239.320312 208.128906 237.335938 C 210.097656 235.386719 219.390625 233.191406 219.390625 233.191406 C 219.390625 233.191406 217.199219 242.488281 215.25 244.457031 " fill-opacity="1" fill-rule="nonzero"/><path fill="#fac57d" d="M 229.511719 215.96875 C 231.480469 214 234.664062 214 236.613281 215.96875 C 238.582031 217.9375 238.582031 221.105469 236.613281 223.089844 C 234.664062 225.039062 225.351562 227.234375 225.351562 227.234375 C 225.351562 227.234375 227.542969 217.9375 229.511719 215.96875 " fill-opacity="1" fill-rule="nonzero"/><path fill="#fac57d" d="M 208.128906 223.089844 C 206.160156 221.105469 206.160156 217.9375 208.128906 215.96875 C 210.097656 214 213.28125 214 215.25 215.96875 C 217.199219 217.9375 219.390625 227.234375 219.390625 227.234375 C 219.390625 227.234375 210.097656 225.039062 208.128906 223.089844 " fill-opacity="1" fill-rule="nonzero"/><path fill="#fac57d" d="M 236.613281 237.335938 C 238.582031 239.320312 238.582031 242.488281 236.613281 244.457031 C 234.664062 246.421875 231.476562 246.421875 229.511719 244.457031 C 227.542969 242.488281 225.351562 233.191406 225.351562 233.191406 C 225.351562 233.191406 234.664062 235.386719 236.613281 237.335938 " fill-opacity="1" fill-rule="nonzero"/></svg>