<svg xmlns="http://www.w3.org/2000/svg" xmlns:xlink="http://www.w3.org/1999/xlink" width="512" zoomAndPan="magnify" viewBox="0 0 384 383.999986" height="512" preserveAspectRatio="xMidYMid meet" version="1.0"><defs><clipPath id="3b6c0f9806"><path d="M 190 37.921875 L 357 37.921875 L 357 68 L 190 68 Z M 190 37.921875 " clip-rule="nonzero"/></clipPath><clipPath id="f17e370344"><path d="M 163 175 L 280 175 L 280 345.421875 L 163 345.421875 Z M 163 175 " clip-rule="nonzero"/></clipPath><clipPath id="d993613c93"><path d="M 132 182 L 164 182 L 164 345.421875 L 132 345.421875 Z M 132 182 " clip-rule="nonzero"/></clipPath><clipPath id="e2b288581c"><path d="M 132 323 L 164 323 L 164 345.421875 L 132 345.421875 Z M 132 323 " clip-rule="nonzero"/></clipPath></defs><path fill="#bd1c2e" d="M 333.695312 67.566406 L 190.160156 47.425781 L 147.355469 261.417969 L 333.695312 319.324219 L 333.695312 67.566406 " fill-opacity="1" fill-rule="nonzero"/><path fill="#901824" d="M 382.796875 291.628906 L 356.355469 58.753906 L 333.695312 67.566406 L 333.695312 319.324219 L 382.796875 291.628906 " fill-opacity="1" fill-rule="nonzero"/><g clip-path="url(#3b6c0f9806)"><path fill="#74141d" d="M 356.355469 58.753906 L 213.140625 37.925781 L 190.160156 47.425781 L 333.695312 67.566406 L 356.355469 58.753906 " fill-opacity="1" fill-rule="nonzero"/></g><path fill="#7c1520" d="M 382.796875 291.628906 L 350.902344 284.496094 L 345.96875 62.796875 L 356.355469 58.753906 L 382.796875 291.628906 " fill-opacity="1" fill-rule="nonzero"/><path fill="#bd1c2e" d="M 350.902344 284.496094 L 333.695312 319.324219 L 382.796875 291.628906 Z M 350.902344 284.496094 " fill-opacity="1" fill-rule="nonzero"/><path fill="#74141d" d="M 292.234375 99.773438 C 292.234375 102.609375 294.535156 104.910156 297.375 104.910156 C 300.21875 104.910156 302.511719 102.609375 302.511719 99.773438 C 302.511719 96.933594 300.21875 94.636719 297.375 94.636719 C 294.535156 94.636719 292.234375 96.933594 292.234375 99.773438 " fill-opacity="1" fill-rule="nonzero"/><path fill="#74141d" d="M 200.964844 84.878906 C 200.964844 87.714844 203.257812 90.015625 206.09375 90.015625 C 208.933594 90.015625 211.234375 87.714844 211.234375 84.878906 C 211.234375 82.039062 208.933594 79.734375 206.09375 79.734375 C 203.257812 79.734375 200.964844 82.039062 200.964844 84.878906 " fill-opacity="1" fill-rule="nonzero"/><path fill="#1b2a4a" d="M 202.503906 99.378906 C 202.300781 94.5 202.546875 89.433594 203.226562 84.3125 C 203.253906 84.160156 203.328125 84.023438 203.453125 83.9375 C 203.574219 83.847656 203.726562 83.808594 203.878906 83.835938 L 208.296875 84.558594 C 208.601562 84.605469 208.800781 84.898438 208.753906 85.203125 C 207.929688 90.40625 207.613281 95.597656 207.828125 100.65625 C 208.476562 116.335938 213.625 130.890625 222.335938 141.621094 C 230.996094 152.316406 242.136719 157.933594 253.722656 157.453125 C 254.773438 157.414062 255.832031 157.316406 256.878906 157.167969 L 256.882812 157.167969 C 278.8125 154.117188 295.109375 129.3125 294.765625 99.457031 C 294.765625 99.292969 294.839844 99.132812 294.964844 99.023438 C 295.085938 98.917969 295.253906 98.859375 295.417969 98.894531 L 299.214844 99.515625 C 299.488281 99.5625 299.695312 99.808594 299.683594 100.082031 C 299.300781 132.152344 281.089844 158.828125 257.335938 162.136719 C 256.167969 162.300781 254.964844 162.402344 253.78125 162.449219 C 240.773438 162.992188 228.265625 156.707031 218.585938 144.753906 C 208.933594 132.851562 203.21875 116.738281 202.503906 99.378906 " fill-opacity="1" fill-rule="nonzero"/><path fill="#f68b41" d="M 41.929688 127.4375 L 163.152344 110.425781 L 199.308594 291.167969 L 41.929688 340.074219 L 41.929688 127.4375 " fill-opacity="1" fill-rule="nonzero"/><path fill="#c17236" d="M 0.457031 316.683594 L 22.785156 119.992188 L 41.929688 127.4375 L 41.929688 340.074219 L 0.457031 316.683594 " fill-opacity="1" fill-rule="nonzero"/><path fill="#704322" d="M 22.785156 119.992188 L 143.746094 102.398438 L 163.152344 110.425781 L 41.929688 127.4375 L 22.785156 119.992188 " fill-opacity="1" fill-rule="nonzero"/><path fill="#92592b" d="M 0.457031 316.683594 L 27.394531 310.65625 L 31.5625 123.40625 L 22.785156 119.992188 L 0.457031 316.683594 " fill-opacity="1" fill-rule="nonzero"/><path fill="#704322" d="M 27.394531 310.65625 L 41.929688 340.074219 L 0.457031 316.683594 Z M 27.394531 310.65625 " fill-opacity="1" fill-rule="nonzero"/><path fill="#704322" d="M 76.941406 154.640625 C 76.941406 157.035156 75.003906 158.976562 72.601562 158.976562 C 70.199219 158.976562 68.265625 157.035156 68.265625 154.640625 C 68.265625 152.238281 70.199219 150.296875 72.601562 150.296875 C 75.003906 150.296875 76.941406 152.238281 76.941406 154.640625 " fill-opacity="1" fill-rule="nonzero"/><path fill="#704322" d="M 154.035156 142.058594 C 154.035156 144.453125 152.089844 146.398438 149.695312 146.398438 C 147.304688 146.398438 145.355469 144.453125 145.355469 142.058594 C 145.355469 139.660156 147.304688 137.714844 149.695312 137.714844 C 152.089844 137.714844 154.035156 139.660156 154.035156 142.058594 " fill-opacity="1" fill-rule="nonzero"/><path fill="#1b2a4a" d="M 152.730469 154.304688 C 152.902344 150.1875 152.695312 145.90625 152.117188 141.578125 C 152.097656 141.453125 152.03125 141.339844 151.929688 141.265625 C 151.828125 141.1875 151.699219 141.152344 151.574219 141.175781 L 147.839844 141.789062 C 147.582031 141.828125 147.410156 142.074219 147.445312 142.332031 C 148.148438 146.726562 148.414062 151.113281 148.238281 155.382812 C 147.683594 168.628906 143.339844 180.921875 135.984375 189.984375 C 128.671875 199.015625 119.253906 203.761719 109.472656 203.355469 C 108.578125 203.320312 107.691406 203.242188 106.808594 203.113281 L 106.804688 203.113281 C 88.28125 200.535156 74.515625 179.585938 74.804688 154.375 C 74.804688 154.234375 74.742188 154.101562 74.632812 154.007812 C 74.53125 153.917969 74.394531 153.867188 74.253906 153.894531 L 71.046875 154.425781 C 70.8125 154.460938 70.648438 154.667969 70.652344 154.898438 C 70.976562 181.988281 86.355469 204.515625 106.421875 207.3125 C 107.40625 207.445312 108.425781 207.539062 109.417969 207.578125 C 120.410156 208.035156 130.96875 202.722656 139.144531 192.628906 C 147.304688 182.578125 152.125 168.964844 152.730469 154.304688 " fill-opacity="1" fill-rule="nonzero"/><g clip-path="url(#f17e370344)"><path fill="#46babd" d="M 163.140625 187.894531 L 252.945312 175.296875 L 279.730469 309.183594 L 163.140625 345.414062 L 163.140625 187.894531 " fill-opacity="1" fill-rule="nonzero"/></g><g clip-path="url(#d993613c93)"><path fill="#40a3a9" d="M 132.417969 328.089844 L 148.960938 182.382812 L 163.140625 187.894531 L 163.140625 345.414062 L 132.417969 328.089844 " fill-opacity="1" fill-rule="nonzero"/></g><path fill="#2b6a70" d="M 148.960938 182.382812 L 238.5625 169.351562 L 252.945312 175.296875 L 163.140625 187.894531 L 148.960938 182.382812 " fill-opacity="1" fill-rule="nonzero"/><path fill="#36868d" d="M 132.417969 328.089844 L 152.375 323.625 L 155.457031 184.914062 L 148.960938 182.382812 L 132.417969 328.089844 " fill-opacity="1" fill-rule="nonzero"/><g clip-path="url(#e2b288581c)"><path fill="#2b6a70" d="M 152.375 323.625 L 163.140625 345.414062 L 132.417969 328.089844 Z M 152.375 323.625 " fill-opacity="1" fill-rule="nonzero"/></g><path fill="#2b6a70" d="M 189.074219 208.046875 C 189.074219 209.824219 187.640625 211.261719 185.863281 211.261719 C 184.085938 211.261719 182.648438 209.824219 182.648438 208.046875 C 182.648438 206.273438 184.085938 204.832031 185.863281 204.832031 C 187.640625 204.832031 189.074219 206.273438 189.074219 208.046875 " fill-opacity="1" fill-rule="nonzero"/><path fill="#2b6a70" d="M 246.1875 198.730469 C 246.1875 200.503906 244.746094 201.945312 242.976562 201.945312 C 241.199219 201.945312 239.757812 200.503906 239.757812 198.730469 C 239.757812 196.953125 241.199219 195.511719 242.976562 195.511719 C 244.746094 195.511719 246.1875 196.953125 246.1875 198.730469 " fill-opacity="1" fill-rule="nonzero"/><path fill="#1b2a4a" d="M 245.222656 207.800781 C 245.34375 204.75 245.199219 201.578125 244.769531 198.371094 L 244.625 198.140625 L 244.359375 198.078125 L 241.597656 198.527344 C 241.410156 198.558594 241.28125 198.742188 241.308594 198.933594 C 241.824219 202.183594 242.023438 205.4375 241.890625 208.597656 C 241.480469 218.410156 238.265625 227.515625 232.8125 234.230469 C 227.398438 240.921875 220.425781 244.4375 213.179688 244.136719 C 212.515625 244.109375 211.855469 244.050781 211.203125 243.960938 L 211.195312 243.960938 C 197.476562 242.050781 187.28125 226.527344 187.496094 207.851562 C 187.496094 207.75 187.449219 207.648438 187.371094 207.582031 C 187.296875 207.511719 187.191406 207.476562 187.089844 207.496094 L 184.714844 207.886719 C 184.539062 207.917969 184.410156 208.070312 184.417969 208.242188 C 184.660156 228.308594 196.054688 244.996094 210.917969 247.066406 C 211.648438 247.167969 212.402344 247.234375 213.136719 247.265625 C 221.273438 247.601562 229.105469 243.671875 235.15625 236.191406 C 241.199219 228.742188 244.773438 218.664062 245.222656 207.800781 " fill-opacity="1" fill-rule="nonzero"/></svg>