<svg xmlns="http://www.w3.org/2000/svg" xmlns:xlink="http://www.w3.org/1999/xlink" width="512" zoomAndPan="magnify" viewBox="0 0 384 383.999986" height="512" preserveAspectRatio="xMidYMid meet" version="1.0"><defs><clipPath id="5de5a0d27e"><path d="M 5.585938 67 L 257 67 L 257 384 L 5.585938 384 Z M 5.585938 67 " clip-rule="nonzero"/></clipPath><clipPath id="ab7e46009f"><path d="M 176 209 L 378.335938 209 L 378.335938 384 L 176 384 Z M 176 209 " clip-rule="nonzero"/></clipPath></defs><path fill="#100f0f" d="M 172.222656 109.300781 C 169.078125 109.300781 166.523438 106.746094 166.523438 103.597656 L 166.523438 49.910156 C 166.523438 28.78125 149.339844 11.59375 128.21875 11.59375 C 107.09375 11.59375 89.894531 28.78125 89.894531 49.910156 L 89.894531 103.597656 C 89.894531 106.746094 87.355469 109.300781 84.210938 109.300781 C 81.066406 109.300781 78.511719 106.746094 78.511719 103.597656 L 78.511719 49.910156 C 78.511719 22.503906 100.800781 0.203125 128.21875 0.203125 C 155.617188 0.203125 177.921875 22.503906 177.921875 49.910156 L 177.921875 103.597656 C 177.921875 106.746094 175.371094 109.300781 172.222656 109.300781 " fill-opacity="1" fill-rule="nonzero"/><g clip-path="url(#5de5a0d27e)"><path fill="#f79326" d="M 256.175781 369.96875 C 256.175781 377.582031 249.953125 383.789062 242.34375 383.789062 L 19.402344 383.789062 C 11.792969 383.789062 5.570312 377.582031 5.570312 369.96875 L 31.496094 81.609375 C 31.496094 74.011719 37.71875 67.789062 45.328125 67.789062 L 216.414062 67.789062 C 224.027344 67.789062 230.25 74.011719 230.25 81.609375 L 256.175781 369.96875 " fill-opacity="1" fill-rule="nonzero"/></g><path fill="#f9af23" d="M 278.804688 369.96875 C 278.804688 377.582031 272.582031 383.789062 264.988281 383.789062 L 42.03125 383.789062 C 34.421875 383.789062 28.199219 377.582031 28.199219 369.96875 L 54.140625 81.609375 C 54.140625 74.011719 60.347656 67.789062 67.957031 67.789062 L 239.0625 67.789062 C 246.65625 67.789062 252.878906 74.011719 252.878906 81.609375 L 278.804688 369.96875 " fill-opacity="1" fill-rule="nonzero"/><path fill="#f79326" d="M 121.910156 103.597656 C 121.910156 110.90625 115.988281 116.828125 108.699219 116.828125 C 101.394531 116.828125 95.476562 110.90625 95.476562 103.597656 C 95.476562 96.292969 101.394531 90.386719 108.699219 90.386719 C 115.988281 90.386719 121.910156 96.292969 121.910156 103.597656 " fill-opacity="1" fill-rule="nonzero"/><path fill="#f79326" d="M 211.527344 103.597656 C 211.527344 110.90625 205.609375 116.828125 198.320312 116.828125 C 191.011719 116.828125 185.09375 110.90625 185.09375 103.597656 C 185.09375 96.292969 191.011719 90.386719 198.320312 90.386719 C 205.609375 90.386719 211.527344 96.292969 211.527344 103.597656 " fill-opacity="1" fill-rule="nonzero"/><path fill="#141515" d="M 197.507812 109.300781 C 194.363281 109.300781 191.824219 106.746094 191.824219 103.597656 L 191.824219 49.910156 C 191.824219 28.78125 174.640625 11.59375 153.5 11.59375 C 132.378906 11.59375 115.195312 28.78125 115.195312 49.910156 L 115.195312 103.597656 C 115.195312 106.746094 112.640625 109.300781 109.496094 109.300781 C 106.351562 109.300781 103.796875 106.746094 103.796875 103.597656 L 103.796875 49.910156 C 103.796875 22.503906 126.101562 0.203125 153.5 0.203125 C 180.917969 0.203125 203.207031 22.503906 203.207031 49.910156 L 203.207031 103.597656 C 203.207031 106.746094 200.652344 109.300781 197.507812 109.300781 " fill-opacity="1" fill-rule="nonzero"/><path fill="#100f0f" d="M 294.398438 251 C 291.253906 251 288.699219 248.464844 288.699219 245.316406 L 288.699219 191.628906 C 288.699219 170.5 271.515625 153.3125 250.394531 153.3125 C 229.269531 153.3125 212.070312 170.5 212.070312 191.628906 L 212.070312 245.316406 C 212.070312 248.464844 209.515625 251 206.371094 251 C 203.242188 251 200.6875 248.464844 200.6875 245.316406 L 200.6875 191.628906 C 200.6875 164.222656 222.976562 141.914062 250.394531 141.914062 C 277.792969 141.914062 300.097656 164.222656 300.097656 191.628906 L 300.097656 245.316406 C 300.097656 248.464844 297.542969 251 294.398438 251 " fill-opacity="1" fill-rule="nonzero"/><path fill="#d22b34" d="M 355.722656 369.96875 C 355.722656 377.582031 349.5 383.789062 341.890625 383.789062 L 167.335938 383.789062 C 159.726562 383.789062 153.5 377.582031 153.5 369.96875 L 153.671875 223.328125 C 153.671875 215.714844 159.894531 209.507812 167.503906 209.507812 L 338.589844 209.507812 C 346.203125 209.507812 352.425781 215.714844 352.425781 223.328125 L 355.722656 369.96875 " fill-opacity="1" fill-rule="nonzero"/><g clip-path="url(#ab7e46009f)"><path fill="#ef323d" d="M 378.351562 369.96875 C 378.351562 377.582031 372.128906 383.789062 364.519531 383.789062 L 189.964844 383.789062 C 182.355469 383.789062 176.128906 377.582031 176.128906 369.96875 L 176.300781 223.328125 C 176.300781 215.714844 182.523438 209.507812 190.132812 209.507812 L 361.21875 209.507812 C 368.832031 209.507812 375.054688 215.714844 375.054688 223.328125 L 378.351562 369.96875 " fill-opacity="1" fill-rule="nonzero"/></g><path fill="#d22b34" d="M 244.101562 245.316406 C 244.101562 252.625 238.164062 258.527344 230.875 258.527344 C 223.570312 258.527344 217.648438 252.625 217.648438 245.316406 C 217.648438 238.011719 223.570312 232.089844 230.875 232.089844 C 238.164062 232.089844 244.101562 238.011719 244.101562 245.316406 " fill-opacity="1" fill-rule="nonzero"/><path fill="#d22b34" d="M 333.703125 245.316406 C 333.703125 252.625 327.785156 258.527344 320.476562 258.527344 C 313.1875 258.527344 307.269531 252.625 307.269531 245.316406 C 307.269531 238.011719 313.1875 232.089844 320.476562 232.089844 C 327.785156 232.089844 333.703125 238.011719 333.703125 245.316406 " fill-opacity="1" fill-rule="nonzero"/><path fill="#141515" d="M 319.683594 251 C 316.539062 251 313.984375 248.464844 313.984375 245.316406 L 313.984375 191.628906 C 313.984375 170.5 296.800781 153.3125 275.675781 153.3125 C 254.554688 153.3125 237.371094 170.5 237.371094 191.628906 L 237.371094 245.316406 C 237.371094 248.464844 234.816406 251 231.671875 251 C 228.523438 251 225.972656 248.464844 225.972656 245.316406 L 225.972656 191.628906 C 225.972656 164.222656 248.261719 141.914062 275.675781 141.914062 C 303.074219 141.914062 325.382812 164.222656 325.382812 191.628906 L 325.382812 245.316406 C 325.382812 248.464844 322.828125 251 319.683594 251 " fill-opacity="1" fill-rule="nonzero"/></svg>