<svg xmlns="http://www.w3.org/2000/svg" xmlns:xlink="http://www.w3.org/1999/xlink" width="512" zoomAndPan="magnify" viewBox="0 0 384 383.999986" height="512" preserveAspectRatio="xMidYMid meet" version="1.0"><defs><clipPath id="8418bf8444"><path d="M 62 77.761719 L 130 77.761719 L 130 100 L 62 100 Z M 62 77.761719 " clip-rule="nonzero"/></clipPath><clipPath id="669393da01"><path d="M 253 77.761719 L 322 77.761719 L 322 100 L 253 100 Z M 253 77.761719 " clip-rule="nonzero"/></clipPath></defs><path fill="#9e9e9e" d="M 126.152344 95.390625 L 65.9375 95.390625 L 65.9375 90.917969 C 65.9375 85.820312 70.136719 81.613281 75.226562 81.613281 L 116.863281 81.613281 C 121.953125 81.613281 126.152344 85.820312 126.152344 90.917969 Z M 126.152344 95.390625 " fill-opacity="1" fill-rule="nonzero"/><g clip-path="url(#8418bf8444)"><path stroke-linecap="round" transform="matrix(0.893439, 0, 0, 0.894538, 2.948355, 77.857676)" fill="none" stroke-linejoin="round" d="M 137.898642 19.599994 L 70.501918 19.599994 L 70.501918 14.600035 C 70.501918 8.901391 75.201982 4.198372 80.898896 4.198372 L 127.501664 4.198372 C 133.198579 4.198372 137.898642 8.901391 137.898642 14.600035 Z M 137.898642 19.599994 " stroke="#000000" stroke-width="8.324" stroke-opacity="1" stroke-miterlimit="10"/></g><path fill="#9e9e9e" d="M 317.617188 95.390625 L 257.398438 95.390625 L 257.398438 90.917969 C 257.398438 85.820312 261.597656 81.613281 266.691406 81.613281 L 308.324219 81.613281 C 313.417969 81.613281 317.617188 85.820312 317.617188 90.917969 Z M 317.617188 95.390625 " fill-opacity="1" fill-rule="nonzero"/><g clip-path="url(#669393da01)"><path stroke-linecap="round" transform="matrix(0.893439, 0, 0, 0.894538, 2.948355, 77.857676)" fill="none" stroke-linejoin="round" d="M 352.199674 19.599994 L 284.798578 19.599994 L 284.798578 14.600035 C 284.798578 8.901391 289.498642 4.198372 295.199928 4.198372 L 341.798325 4.198372 C 347.499611 4.198372 352.199674 8.901391 352.199674 14.600035 Z M 352.199674 19.599994 " stroke="#000000" stroke-width="8.324" stroke-opacity="1" stroke-miterlimit="10"/></g><path fill="#374046" d="M 192 93.691406 L 78.980469 93.691406 L 78.980469 217.226562 L 305.109375 217.226562 L 305.109375 93.691406 Z M 192 93.691406 " fill-opacity="1" fill-rule="nonzero"/><path stroke-linecap="round" transform="matrix(0.893439, 0, 0, 0.894538, 2.948355, 77.857676)" fill="none" stroke-linejoin="round" d="M 327.798694 145.398106 L 95.501884 145.398106 " stroke="#000000" stroke-width="14.566" stroke-opacity="0.149" stroke-miterlimit="10"/><path stroke-linecap="round" transform="matrix(0.893439, 0, 0, 0.894538, 2.948355, 77.857676)" fill="none" stroke-linejoin="round" d="M 211.600009 17.700446 L 85.100534 17.700446 L 85.100534 155.799769 L 338.200043 155.799769 L 338.200043 17.700446 Z M 211.600009 17.700446 " stroke="#000000" stroke-width="8.324" stroke-opacity="1" stroke-miterlimit="10"/><path fill="#374046" d="M 133.660156 146.199219 C 132.675781 117.574219 109.355469 94.40625 80.765625 93.691406 C 54.5 92.976562 32.34375 110.867188 26.445312 135.199219 C 26.445312 135.199219 26.445312 135.199219 26.445312 135.285156 L 25.105469 143.785156 L 7.148438 256.945312 C 4.019531 276.535156 16.886719 295.050781 36.273438 298.988281 C 53.515625 302.476562 70.761719 293.351562 77.550781 277.160156 L 114.269531 189.941406 C 126.601562 179.476562 134.285156 163.734375 133.660156 146.199219 Z M 133.660156 146.199219 " fill-opacity="1" fill-rule="nonzero"/><path stroke-linecap="round" transform="matrix(0.893439, 0, 0, 0.894538, 2.948355, 77.857676)" fill="none" stroke-linejoin="round" d="M 68.202166 28.901229 C 73.697961 27.001681 79.499807 26.001689 85.598959 26.001689 C 86.101757 26.001689 86.600182 26.001689 86.998048 26.001689 C 114.700003 26.700374 137.098538 49.001504 138.099761 76.69997 C 138.30088 83.202101 137.400217 89.59943 135.301584 95.498945 " stroke="#ffffff" stroke-width="8.324" stroke-opacity="0.2" stroke-miterlimit="10"/><path stroke-linecap="round" transform="matrix(0.893439, 0, 0, 0.894538, 2.948355, 77.857676)" fill="none" stroke-linejoin="round" d="M 69.199017 226.40182 C 63.401543 233.301327 54.80152 237.502167 45.501953 237.502167 C 43.398948 237.502167 41.400874 237.301295 39.398429 236.899552 C 23.099046 233.598268 12.40039 218.201012 15.00182 201.799398 L 17.900557 183.598671 " stroke="#000000" stroke-width="14.566" stroke-opacity="0.149" stroke-miterlimit="10"/><path stroke-linecap="round" transform="matrix(0.893439, 0, 0, 0.894538, 2.948355, 77.857676)" fill="none" stroke-linejoin="round" d="M 146.301918 76.398663 C 145.200136 44.398921 119.098388 18.499566 87.098607 17.700446 C 57.700257 16.901326 32.901411 36.901165 26.299461 64.101819 C 26.299461 64.101819 26.299461 64.101819 26.299461 64.197888 L 24.799813 73.699995 L 4.70103 200.201158 C 1.198936 222.100544 15.600805 242.799067 37.299796 247.200779 C 56.598475 251.10031 75.901526 240.899519 83.500326 222.799229 L 124.598555 125.297832 C 138.401439 113.599236 147.001463 96.001125 146.301918 76.398663 Z M 146.301918 76.398663 " stroke="#000000" stroke-width="8.324" stroke-opacity="1" stroke-miterlimit="10"/><path fill="#374046" d="M 250.429688 146.199219 C 251.414062 117.574219 274.734375 94.40625 303.324219 93.691406 C 329.589844 92.976562 351.746094 110.867188 357.644531 135.199219 C 357.644531 135.199219 357.644531 135.199219 357.644531 135.285156 L 358.984375 143.785156 L 376.941406 256.945312 C 380.070312 276.535156 367.203125 295.050781 347.816406 298.988281 C 330.574219 302.476562 313.328125 293.351562 306.539062 277.160156 L 269.820312 189.945312 C 257.488281 179.476562 249.804688 163.734375 250.429688 146.199219 Z M 250.429688 146.199219 " fill-opacity="1" fill-rule="nonzero"/><path stroke-linecap="round" transform="matrix(0.893439, 0, 0, 0.894538, 2.948355, 77.857676)" fill="none" stroke-linejoin="round" d="M 387.600989 111.498816 L 389.100638 121.000923 " stroke="#ffffff" stroke-width="8.324" stroke-opacity="0.4471" stroke-miterlimit="10"/><path stroke-linecap="round" transform="matrix(0.893439, 0, 0, 0.894538, 2.948355, 77.857676)" fill="none" stroke-linejoin="round" d="M 380.601174 67.499171 L 385.100118 95.498945 " stroke="#ffffff" stroke-width="8.324" stroke-opacity="0.4471" stroke-miterlimit="10"/><path stroke-linecap="round" transform="matrix(0.893439, 0, 0, 0.894538, 2.948355, 77.857676)" fill="none" stroke-linejoin="round" d="M 336.398717 26.001689 C 336.901514 26.001689 337.39994 26.001689 337.797806 26.001689 C 362.002039 26.001689 382.900926 42.298501 388.798959 65.800495 L 405.999005 173.90006 " stroke="#ffffff" stroke-width="8.324" stroke-opacity="0.2" stroke-miterlimit="10"/><path stroke-linecap="round" transform="matrix(0.893439, 0, 0, 0.894538, 2.948355, 77.857676)" fill="none" stroke-linejoin="round" d="M 403.200828 224.3014 C 398.798071 230.598292 392.099934 235.301311 383.902149 236.899552 C 381.899703 237.301295 379.80107 237.502167 377.798625 237.502167 C 365.399201 237.502167 354.20212 230.10048 349.401497 218.598389 L 312.098296 130.101286 " stroke="#000000" stroke-width="14.566" stroke-opacity="0.149" stroke-miterlimit="10"/><path stroke-linecap="round" transform="matrix(0.893439, 0, 0, 0.894538, 2.948355, 77.857676)" fill="none" stroke-linejoin="round" d="M 276.998659 76.398663 C 278.100442 44.398921 304.202189 18.499566 336.20197 17.700446 C 365.60032 16.901326 390.399167 36.901165 397.001116 64.101819 C 397.001116 64.101819 397.001116 64.101819 397.001116 64.197888 L 398.500764 73.699995 L 418.599547 200.201158 C 422.101641 222.100544 407.699772 242.799067 386.000782 247.200779 C 366.702103 251.10031 347.399051 240.899519 339.800251 222.799229 L 298.702022 125.302198 C 284.899138 113.599236 276.299115 96.001125 276.998659 76.398663 Z M 276.998659 76.398663 " stroke="#000000" stroke-width="8.324" stroke-opacity="1" stroke-miterlimit="10"/><path fill="#04a9f4" d="M 228.363281 150.40625 L 155.191406 150.40625 C 150.277344 150.40625 146.34375 146.46875 146.34375 141.546875 L 146.34375 97.269531 C 146.34375 92.347656 150.277344 88.414062 155.191406 88.414062 L 228.363281 88.414062 C 233.277344 88.414062 237.207031 92.347656 237.207031 97.269531 L 237.207031 141.546875 C 237.207031 146.46875 233.1875 150.40625 228.363281 150.40625 Z M 228.363281 150.40625 " fill-opacity="1" fill-rule="nonzero"/><path stroke-linecap="round" transform="matrix(0.893439, 0, 0, 0.894538, 2.948355, 77.857676)" fill="none" stroke-linejoin="round" d="M 211.29833 28.499486 L 217.90028 28.499486 " stroke="#ffffff" stroke-width="8.324" stroke-opacity="0.4471" stroke-miterlimit="10"/><path stroke-linecap="round" transform="matrix(0.893439, 0, 0, 0.894538, 2.948355, 77.857676)" fill="none" stroke-linejoin="round" d="M 232.498896 28.499486 L 245.501676 28.499486 L 245.501676 32.800761 " stroke="#ffffff" stroke-width="8.324" stroke-opacity="0.4471" stroke-miterlimit="10"/><path stroke-linecap="round" transform="matrix(0.893439, 0, 0, 0.894538, 2.948355, 77.857676)" fill="none" stroke-linejoin="round" d="M 206.598267 20.102174 L 252.300372 20.102174 C 253.201036 20.102174 253.90058 20.800858 253.90058 21.700414 L 253.90058 38.198098 " stroke="#ffffff" stroke-width="8.324" stroke-opacity="0.2" stroke-miterlimit="10"/><path stroke-linecap="round" transform="matrix(0.893439, 0, 0, 0.894538, 2.948355, 77.857676)" fill="none" stroke-linejoin="round" d="M 217.90028 70.700019 L 170.899646 70.700019 L 170.899646 46.398905 " stroke="#000000" stroke-width="14.566" stroke-opacity="0.149" stroke-miterlimit="10"/><path stroke-linecap="round" transform="matrix(0.893439, 0, 0, 0.894538, 2.948355, 77.857676)" fill="none" stroke-linejoin="round" d="M 252.300372 81.101682 L 170.40122 81.101682 C 164.901053 81.101682 160.498296 76.69997 160.498296 71.197831 L 160.498296 21.700414 C 160.498296 16.198275 164.901053 11.800931 170.40122 11.800931 L 252.300372 11.800931 C 257.80054 11.800931 262.198925 16.198275 262.198925 21.700414 L 262.198925 71.197831 C 262.198925 76.69997 257.69998 81.101682 252.300372 81.101682 Z M 252.300372 81.101682 " stroke="#000000" stroke-width="8.324" stroke-opacity="1" stroke-miterlimit="10"/><path stroke-linecap="round" transform="matrix(0.893439, 0, 0, 0.894538, 2.948355, 77.857676)" fill-opacity="1" fill="#9e9e9e" fill-rule="nonzero" stroke-linejoin="round" d="M 167.900349 148.900261 C 167.900349 150.127326 167.839139 151.35439 167.721091 152.577088 C 167.598671 153.799785 167.419413 155.009382 167.178944 156.214613 C 166.938476 157.419843 166.641169 158.611973 166.287025 159.786636 C 165.928509 160.961299 165.517526 162.114129 165.045334 163.249491 C 164.577514 164.384853 164.052855 165.494014 163.471359 166.576975 C 162.894235 167.659935 162.260273 168.712329 161.578217 169.734154 C 160.896162 170.75598 160.166012 171.738505 159.387769 172.690462 C 158.609526 173.638053 157.783189 174.546343 156.917503 175.415331 C 156.047445 176.28432 155.138037 177.109641 154.18928 177.886927 C 153.240523 178.66858 152.256789 179.397832 151.233706 180.079049 C 150.210622 180.760266 149.161306 181.393449 148.077012 181.97423 C 146.992718 182.550645 145.886564 183.074658 144.749804 183.54627 C 143.617417 184.013515 142.458797 184.428359 141.28706 184.786435 C 140.110951 185.140144 138.921726 185.441451 137.715012 185.677257 C 136.51267 185.91743 135.297212 186.100835 134.077381 186.218738 C 132.853179 186.341007 131.628976 186.402142 130.400401 186.402142 C 129.171826 186.402142 127.947624 186.341007 126.723421 186.218738 C 125.503591 186.100835 124.288133 185.91743 123.085791 185.677257 C 121.879077 185.441451 120.689852 185.140144 119.513743 184.786435 C 118.337634 184.428359 117.183386 184.013515 116.050998 183.54627 C 114.914239 183.074658 113.803712 182.550645 112.723791 181.969864 C 111.639497 181.393449 110.585808 180.760266 109.567097 180.079049 C 108.544013 179.397832 107.560279 178.66858 106.611522 177.886927 C 105.662765 177.109641 104.753357 176.28432 103.883299 175.415331 C 103.013241 174.546343 102.191276 173.638053 101.413033 172.690462 C 100.63479 171.738505 99.900269 170.75598 99.218213 169.734154 C 98.536157 168.712329 97.906567 167.659935 97.329443 166.576975 C 96.747947 165.494014 96.223289 164.384853 95.755468 163.249491 C 95.283276 162.114129 94.872294 160.961299 94.513777 159.786636 C 94.159633 158.611973 93.862327 157.419843 93.621858 156.214613 C 93.38139 155.009382 93.202132 153.799785 93.079711 152.577088 C 92.961663 151.35439 92.900453 150.127326 92.900453 148.900261 C 92.900453 147.673197 92.961663 146.446133 93.079711 145.223435 C 93.202132 144.000738 93.38139 142.786774 93.621858 141.58591 C 93.862327 140.380679 94.159633 139.188549 94.513777 138.013886 C 94.872294 136.839223 95.283276 135.682027 95.755468 134.551032 C 96.223289 133.41567 96.747947 132.306509 97.329443 131.223548 C 97.906567 130.140587 98.536157 129.088194 99.218213 128.066368 C 99.900269 127.044542 100.63479 126.057651 101.413033 125.11006 C 102.191276 124.16247 103.013241 123.249813 103.883299 122.385191 C 104.753357 121.516203 105.662765 120.690882 106.611522 119.913596 C 107.560279 119.131943 108.544013 118.402691 109.567097 117.721474 C 110.585808 117.03589 111.639497 116.407074 112.723791 115.826292 C 113.803712 115.249878 114.914239 114.725865 116.050998 114.254253 C 117.183386 113.782641 118.337634 113.372164 119.513743 113.014088 C 120.689852 112.660379 121.879077 112.359071 123.085791 112.118899 C 124.288133 111.883093 125.503591 111.699688 126.723421 111.581785 C 127.947624 111.459515 129.171826 111.39838 130.400401 111.39838 C 131.628976 111.39838 132.853179 111.459515 134.077381 111.581785 C 135.297212 111.699688 136.51267 111.883093 137.715012 112.118899 C 138.921726 112.359071 140.110951 112.660379 141.28706 113.014088 C 142.458797 113.372164 143.617417 113.782641 144.749804 114.254253 C 145.886564 114.725865 146.992718 115.249878 148.077012 115.826292 C 149.161306 116.407074 150.210622 117.03589 151.233706 117.721474 C 152.256789 118.402691 153.240523 119.131943 154.18928 119.913596 C 155.138037 120.690882 156.047445 121.516203 156.917503 122.385191 C 157.783189 123.249813 158.609526 124.16247 159.387769 125.11006 C 160.166012 126.057651 160.896162 127.044542 161.578217 128.066368 C 162.260273 129.088194 162.894235 130.140587 163.471359 131.223548 C 164.052855 132.306509 164.577514 133.41567 165.045334 134.551032 C 165.517526 135.682027 165.928509 136.839223 166.287025 138.013886 C 166.641169 139.188549 166.938476 140.380679 167.178944 141.58591 C 167.419413 142.786774 167.598671 144.000738 167.721091 145.223435 C 167.839139 146.446133 167.900349 147.673197 167.900349 148.900261 Z M 167.900349 148.900261 " stroke="#000000" stroke-width="8.324" stroke-opacity="1" stroke-miterlimit="10"/><path fill="#374046" d="M 139.199219 211.054688 C 139.199219 211.703125 139.167969 212.347656 139.101562 212.992188 C 139.039062 213.636719 138.945312 214.277344 138.820312 214.910156 C 138.691406 215.546875 138.535156 216.171875 138.347656 216.792969 C 138.160156 217.414062 137.941406 218.023438 137.695312 218.621094 C 137.449219 219.21875 137.171875 219.800781 136.867188 220.375 C 136.5625 220.945312 136.230469 221.5 135.871094 222.039062 C 135.511719 222.574219 135.125 223.09375 134.714844 223.597656 C 134.304688 224.097656 133.871094 224.574219 133.414062 225.035156 C 132.957031 225.492188 132.480469 225.925781 131.980469 226.335938 C 131.480469 226.746094 130.960938 227.132812 130.421875 227.492188 C 129.886719 227.851562 129.332031 228.183594 128.761719 228.488281 C 128.191406 228.792969 127.605469 229.070312 127.007812 229.320312 C 126.410156 229.566406 125.804688 229.785156 125.183594 229.972656 C 124.566406 230.160156 123.9375 230.316406 123.304688 230.445312 C 122.671875 230.570312 122.03125 230.664062 121.386719 230.730469 C 120.746094 230.792969 120.097656 230.824219 119.453125 230.824219 C 118.804688 230.824219 118.160156 230.792969 117.515625 230.730469 C 116.875 230.664062 116.234375 230.570312 115.601562 230.445312 C 114.964844 230.316406 114.339844 230.160156 113.722656 229.972656 C 113.101562 229.785156 112.492188 229.566406 111.898438 229.320312 C 111.300781 229.070312 110.714844 228.792969 110.144531 228.488281 C 109.574219 228.183594 109.019531 227.851562 108.484375 227.492188 C 107.945312 227.132812 107.425781 226.746094 106.925781 226.335938 C 106.425781 225.925781 105.949219 225.492188 105.492188 225.035156 C 105.035156 224.574219 104.601562 224.097656 104.191406 223.597656 C 103.78125 223.09375 103.394531 222.574219 103.035156 222.039062 C 102.675781 221.5 102.34375 220.945312 102.039062 220.375 C 101.734375 219.800781 101.457031 219.21875 101.210938 218.621094 C 100.964844 218.023438 100.746094 217.414062 100.558594 216.792969 C 100.371094 216.171875 100.214844 215.546875 100.085938 214.910156 C 99.960938 214.277344 99.867188 213.636719 99.804688 212.992188 C 99.738281 212.347656 99.707031 211.703125 99.707031 211.054688 C 99.707031 210.40625 99.738281 209.761719 99.804688 209.117188 C 99.867188 208.472656 99.960938 207.832031 100.085938 207.199219 C 100.214844 206.5625 100.371094 205.933594 100.558594 205.316406 C 100.746094 204.695312 100.964844 204.085938 101.210938 203.488281 C 101.457031 202.890625 101.734375 202.304688 102.039062 201.734375 C 102.34375 201.164062 102.675781 200.609375 103.035156 200.070312 C 103.394531 199.53125 103.78125 199.011719 104.191406 198.511719 C 104.601562 198.011719 105.035156 197.535156 105.492188 197.074219 C 105.949219 196.617188 106.425781 196.183594 106.925781 195.773438 C 107.425781 195.363281 107.945312 194.976562 108.484375 194.617188 C 109.019531 194.257812 109.574219 193.925781 110.144531 193.621094 C 110.714844 193.3125 111.300781 193.039062 111.898438 192.789062 C 112.492188 192.542969 113.101562 192.324219 113.722656 192.136719 C 114.339844 191.949219 114.964844 191.792969 115.601562 191.664062 C 116.234375 191.539062 116.875 191.445312 117.515625 191.378906 C 118.160156 191.316406 118.804688 191.285156 119.453125 191.285156 C 120.097656 191.285156 120.746094 191.316406 121.386719 191.378906 C 122.03125 191.445312 122.671875 191.539062 123.304688 191.664062 C 123.9375 191.792969 124.566406 191.949219 125.183594 192.136719 C 125.804688 192.324219 126.410156 192.542969 127.007812 192.789062 C 127.605469 193.039062 128.191406 193.3125 128.761719 193.621094 C 129.332031 193.925781 129.886719 194.257812 130.421875 194.617188 C 130.960938 194.976562 131.480469 195.363281 131.980469 195.773438 C 132.480469 196.183594 132.957031 196.617188 133.414062 197.074219 C 133.871094 197.535156 134.304688 198.011719 134.714844 198.511719 C 135.125 199.011719 135.511719 199.53125 135.871094 200.070312 C 136.230469 200.609375 136.5625 201.164062 136.867188 201.734375 C 137.171875 202.304688 137.449219 202.890625 137.695312 203.488281 C 137.941406 204.085938 138.160156 204.695312 138.347656 205.316406 C 138.535156 205.933594 138.691406 206.5625 138.820312 207.199219 C 138.945312 207.832031 139.039062 208.472656 139.101562 209.117188 C 139.167969 209.761719 139.199219 210.40625 139.199219 211.054688 Z M 139.199219 211.054688 " fill-opacity="1" fill-rule="nonzero"/><path stroke-linecap="round" transform="matrix(0.893439, 0, 0, 0.894538, 2.948355, 77.857676)" fill="none" stroke-linejoin="round" d="M 135.800009 136.30211 C 138.30088 137.302102 140.399513 139.101214 141.899161 141.302069 " stroke="#ffffff" stroke-width="8.324" stroke-opacity="0.2" stroke-miterlimit="10"/><path stroke-linecap="round" transform="matrix(0.893439, 0, 0, 0.894538, 2.948355, 77.857676)" fill="none" stroke-linejoin="round" d="M 126.701561 160.101044 C 124.401809 159.301924 122.399363 157.799753 120.899715 155.900205 " stroke="#000000" stroke-width="14.566" stroke-opacity="0.149" stroke-miterlimit="10"/><path stroke-linecap="round" transform="matrix(0.893439, 0, 0, 0.894538, 2.948355, 77.857676)" fill="none" stroke-linejoin="round" d="M 152.50163 148.900261 C 152.50163 149.625146 152.466653 150.345665 152.392326 151.066183 C 152.322372 151.786701 152.21744 152.502852 152.077531 153.21027 C 151.93325 153.922055 151.758364 154.620739 151.548501 155.315057 C 151.338637 156.009374 151.093797 156.690592 150.818351 157.358708 C 150.542906 158.026825 150.232483 158.677475 149.891455 159.319391 C 149.550427 159.956941 149.178794 160.577023 148.776556 161.179638 C 148.374318 161.777887 147.941475 162.358668 147.482399 162.921982 C 147.023323 163.48093 146.538014 164.013677 146.026473 164.528956 C 145.514931 165.039869 144.981528 165.524581 144.421893 165.983093 C 143.862257 166.441605 143.280761 166.873916 142.677404 167.275659 C 142.078419 167.677402 141.457574 168.048579 140.81924 168.389187 C 140.180905 168.729796 139.525083 169.039837 138.856143 169.319311 C 138.187204 169.594418 137.50952 169.838957 136.814348 170.048562 C 136.123548 170.258168 135.419632 170.432839 134.711343 170.576942 C 134.003054 170.716679 133.286022 170.821482 132.564616 170.895717 C 131.847584 170.965586 131.121806 171.00052 130.400401 171.00052 C 129.674624 171.00052 128.953219 170.965586 128.231814 170.895717 C 127.514781 170.821482 126.797748 170.716679 126.089459 170.576942 C 125.376799 170.432839 124.677254 170.258168 123.986454 170.048562 C 123.291282 169.838957 122.609226 169.594418 121.944659 169.319311 C 121.27572 169.039837 120.619897 168.729796 119.981563 168.389187 C 119.343229 168.048579 118.722383 167.677402 118.123398 167.275659 C 117.520041 166.873916 116.938545 166.441605 116.37891 165.983093 C 115.819274 165.524581 115.285872 165.039869 114.77433 164.528956 C 114.262788 164.013677 113.777479 163.48093 113.318403 162.921982 C 112.859327 162.358668 112.426484 161.777887 112.024246 161.179638 C 111.622008 160.577023 111.250375 159.956941 110.909347 159.319391 C 110.56832 158.677475 110.257897 158.026825 109.982451 157.358708 C 109.707006 156.690592 109.462165 156.009374 109.252302 155.315057 C 109.042438 154.620739 108.867552 153.922055 108.723271 153.21027 C 108.583363 152.502852 108.478431 151.786701 108.408476 151.066183 C 108.33415 150.345665 108.299173 149.625146 108.299173 148.900261 C 108.299173 148.175376 108.33415 147.454858 108.408476 146.73434 C 108.478431 146.013822 108.583363 145.29767 108.723271 144.590252 C 108.867552 143.878468 109.042438 143.175417 109.252302 142.485466 C 109.462165 141.791148 109.707006 141.109931 109.982451 140.441814 C 110.257897 139.773697 110.56832 139.118681 110.909347 138.481131 C 111.250375 137.843582 111.622008 137.2235 112.024246 136.620884 C 112.426484 136.018269 112.859327 135.437488 113.318403 134.87854 C 113.777479 134.319593 114.262788 133.786846 114.77433 133.271566 C 115.285872 132.760654 115.819274 132.275941 116.37891 131.81743 C 116.938545 131.358918 117.520041 130.926607 118.123398 130.524864 C 118.722383 130.12312 119.343229 129.751944 119.981563 129.411336 C 120.619897 129.06636 121.27572 128.760686 121.944659 128.481212 C 122.609226 128.206105 123.291282 127.961566 123.986454 127.75196 C 124.677254 127.542355 125.376799 127.367684 126.089459 127.22358 C 126.797748 127.083843 127.514781 126.979041 128.231814 126.904806 C 128.953219 126.834937 129.674624 126.800003 130.400401 126.800003 C 131.121806 126.800003 131.847584 126.834937 132.564616 126.904806 C 133.286022 126.979041 134.003054 127.083843 134.711343 127.22358 C 135.419632 127.367684 136.123548 127.542355 136.814348 127.75196 C 137.50952 127.961566 138.187204 128.206105 138.856143 128.481212 C 139.525083 128.760686 140.180905 129.06636 140.81924 129.411336 C 141.457574 129.751944 142.078419 130.12312 142.677404 130.524864 C 143.280761 130.926607 143.862257 131.358918 144.421893 131.81743 C 144.981528 132.275941 145.514931 132.760654 146.026473 133.271566 C 146.538014 133.786846 147.023323 134.319593 147.482399 134.87854 C 147.941475 135.437488 148.374318 136.018269 148.776556 136.620884 C 149.178794 137.2235 149.550427 137.843582 149.891455 138.481131 C 150.232483 139.118681 150.542906 139.773697 150.818351 140.441814 C 151.093797 141.109931 151.338637 141.791148 151.548501 142.485466 C 151.758364 143.175417 151.93325 143.878468 152.077531 144.590252 C 152.21744 145.29767 152.322372 146.013822 152.392326 146.73434 C 152.466653 147.454858 152.50163 148.175376 152.50163 148.900261 Z M 152.50163 148.900261 " stroke="#000000" stroke-width="8.324" stroke-opacity="1" stroke-miterlimit="10"/><path stroke-linecap="round" transform="matrix(0.893439, 0, 0, 0.894538, 2.948355, 77.857676)" fill-opacity="1" fill="#9e9e9e" fill-rule="nonzero" stroke-linejoin="round" d="M 329.70058 148.900261 C 329.70058 150.127326 329.63937 151.35439 329.521322 152.577088 C 329.398901 153.799785 329.219643 155.009382 328.979175 156.214613 C 328.738706 157.419843 328.4414 158.611973 328.087256 159.786636 C 327.728739 160.961299 327.313385 162.114129 326.845565 163.249491 C 326.373372 164.384853 325.853086 165.494014 325.27159 166.576975 C 324.694466 167.659935 324.060504 168.712329 323.378448 169.734154 C 322.696392 170.75598 321.966243 171.738505 321.188 172.690462 C 320.409757 173.638053 319.58342 174.546343 318.717734 175.415331 C 317.847676 176.28432 316.938268 177.109641 315.989511 177.886927 C 315.040754 178.66858 314.05702 179.397832 313.033936 180.079049 C 312.010853 180.760266 310.961536 181.393449 309.877243 181.97423 C 308.792949 182.550645 307.686794 183.074658 306.550035 183.54627 C 305.417647 184.013515 304.259027 184.428359 303.08729 184.786435 C 301.911182 185.140144 300.721956 185.441451 299.515242 185.677257 C 298.3129 185.91743 297.097442 186.100835 295.877612 186.218738 C 294.653409 186.341007 293.429207 186.402142 292.200632 186.402142 C 290.972057 186.402142 289.747855 186.341007 288.523652 186.218738 C 287.303822 186.100835 286.088363 185.91743 284.886021 185.677257 C 283.679308 185.441451 282.490082 185.140144 281.313973 184.786435 C 280.137864 184.428359 278.983616 184.013515 277.851229 183.54627 C 276.714469 183.074658 275.603943 182.550645 274.524021 181.969864 C 273.439727 181.393449 272.386039 180.760266 271.367327 180.079049 C 270.344244 179.397832 269.36051 178.66858 268.411753 177.886927 C 267.462996 177.109641 266.553588 176.28432 265.68353 175.415331 C 264.813471 174.546343 263.991507 173.638053 263.213264 172.690462 C 262.435021 171.738505 261.700499 170.75598 261.018443 169.734154 C 260.336388 168.712329 259.706798 167.659935 259.129674 166.576975 C 258.548178 165.494014 258.023519 164.384853 257.555699 163.249491 C 257.083507 162.114129 256.672524 160.961299 256.314008 159.786636 C 255.959864 158.611973 255.658185 157.419843 255.422089 156.214613 C 255.181621 155.009382 255.002362 153.799785 254.879942 152.577088 C 254.761894 151.35439 254.700684 150.127326 254.700684 148.900261 C 254.700684 147.673197 254.761894 146.446133 254.879942 145.223435 C 255.002362 144.000738 255.181621 142.786774 255.422089 141.58591 C 255.658185 140.380679 255.959864 139.188549 256.314008 138.013886 C 256.672524 136.839223 257.083507 135.682027 257.555699 134.551032 C 258.023519 133.41567 258.548178 132.306509 259.129674 131.223548 C 259.706798 130.140587 260.336388 129.088194 261.018443 128.066368 C 261.700499 127.044542 262.435021 126.057651 263.213264 125.11006 C 263.991507 124.16247 264.813471 123.249813 265.68353 122.385191 C 266.553588 121.516203 267.462996 120.690882 268.411753 119.913596 C 269.36051 119.131943 270.344244 118.402691 271.367327 117.721474 C 272.386039 117.03589 273.439727 116.407074 274.524021 115.826292 C 275.603943 115.249878 276.714469 114.725865 277.851229 114.254253 C 278.983616 113.782641 280.137864 113.372164 281.313973 113.014088 C 282.490082 112.660379 283.679308 112.359071 284.886021 112.118899 C 286.088363 111.883093 287.303822 111.699688 288.523652 111.581785 C 289.747855 111.459515 290.972057 111.39838 292.200632 111.39838 C 293.429207 111.39838 294.653409 111.459515 295.877612 111.581785 C 297.097442 111.699688 298.3129 111.883093 299.515242 112.118899 C 300.721956 112.359071 301.911182 112.660379 303.08729 113.014088 C 304.259027 113.372164 305.417647 113.782641 306.550035 114.254253 C 307.686794 114.725865 308.792949 115.249878 309.877243 115.826292 C 310.961536 116.407074 312.010853 117.03589 313.033936 117.721474 C 314.05702 118.402691 315.040754 119.131943 315.989511 119.913596 C 316.938268 120.690882 317.847676 121.516203 318.717734 122.385191 C 319.58342 123.249813 320.409757 124.16247 321.188 125.11006 C 321.966243 126.057651 322.696392 127.044542 323.378448 128.066368 C 324.060504 129.088194 324.694466 130.140587 325.27159 131.223548 C 325.853086 132.306509 326.373372 133.41567 326.845565 134.551032 C 327.313385 135.682027 327.728739 136.839223 328.087256 138.013886 C 328.4414 139.188549 328.738706 140.380679 328.979175 141.58591 C 329.219643 142.786774 329.398901 144.000738 329.521322 145.223435 C 329.63937 146.446133 329.70058 147.673197 329.70058 148.900261 Z M 329.70058 148.900261 " stroke="#000000" stroke-width="8.324" stroke-opacity="1" stroke-miterlimit="10"/><path fill="#374046" d="M 283.757812 211.054688 C 283.757812 211.703125 283.722656 212.347656 283.660156 212.992188 C 283.597656 213.636719 283.503906 214.277344 283.375 214.910156 C 283.25 215.546875 283.09375 216.171875 282.90625 216.792969 C 282.71875 217.414062 282.5 218.023438 282.253906 218.621094 C 282.003906 219.21875 281.730469 219.800781 281.425781 220.375 C 281.121094 220.945312 280.789062 221.5 280.429688 222.039062 C 280.070312 222.574219 279.683594 223.09375 279.273438 223.597656 C 278.863281 224.097656 278.429688 224.574219 277.972656 225.035156 C 277.515625 225.492188 277.039062 225.925781 276.539062 226.335938 C 276.039062 226.746094 275.519531 227.132812 274.980469 227.492188 C 274.441406 227.851562 273.890625 228.183594 273.320312 228.488281 C 272.75 228.792969 272.164062 229.070312 271.566406 229.320312 C 270.96875 229.566406 270.363281 229.785156 269.742188 229.972656 C 269.125 230.160156 268.496094 230.316406 267.863281 230.445312 C 267.230469 230.570312 266.589844 230.664062 265.945312 230.730469 C 265.304688 230.792969 264.65625 230.824219 264.011719 230.824219 C 263.363281 230.824219 262.71875 230.792969 262.074219 230.730469 C 261.433594 230.664062 260.792969 230.570312 260.160156 230.445312 C 259.523438 230.316406 258.898438 230.160156 258.28125 229.972656 C 257.660156 229.785156 257.050781 229.566406 256.453125 229.320312 C 255.859375 229.070312 255.273438 228.792969 254.703125 228.488281 C 254.132812 228.183594 253.578125 227.851562 253.042969 227.492188 C 252.503906 227.132812 251.984375 226.746094 251.484375 226.335938 C 250.984375 225.925781 250.507812 225.492188 250.050781 225.035156 C 249.59375 224.574219 249.160156 224.097656 248.746094 223.597656 C 248.335938 223.09375 247.953125 222.574219 247.59375 222.039062 C 247.234375 221.5 246.902344 220.945312 246.597656 220.375 C 246.292969 219.800781 246.015625 219.21875 245.769531 218.621094 C 245.523438 218.023438 245.304688 217.414062 245.117188 216.792969 C 244.929688 216.171875 244.773438 215.546875 244.644531 214.910156 C 244.519531 214.277344 244.425781 213.636719 244.359375 212.992188 C 244.296875 212.347656 244.265625 211.703125 244.265625 211.054688 C 244.265625 210.40625 244.296875 209.761719 244.359375 209.117188 C 244.425781 208.472656 244.519531 207.832031 244.644531 207.199219 C 244.773438 206.5625 244.929688 205.933594 245.117188 205.316406 C 245.304688 204.695312 245.523438 204.085938 245.769531 203.488281 C 246.015625 202.890625 246.292969 202.304688 246.597656 201.734375 C 246.902344 201.164062 247.234375 200.609375 247.59375 200.070312 C 247.953125 199.53125 248.335938 199.011719 248.75 198.511719 C 249.160156 198.011719 249.59375 197.535156 250.050781 197.074219 C 250.507812 196.617188 250.984375 196.183594 251.484375 195.773438 C 251.984375 195.363281 252.503906 194.976562 253.042969 194.617188 C 253.578125 194.257812 254.132812 193.925781 254.703125 193.621094 C 255.273438 193.3125 255.859375 193.039062 256.453125 192.789062 C 257.050781 192.542969 257.660156 192.324219 258.28125 192.136719 C 258.898438 191.949219 259.523438 191.792969 260.160156 191.664062 C 260.792969 191.539062 261.433594 191.445312 262.074219 191.378906 C 262.71875 191.316406 263.363281 191.285156 264.011719 191.285156 C 264.65625 191.285156 265.304688 191.316406 265.945312 191.378906 C 266.589844 191.445312 267.230469 191.539062 267.863281 191.664062 C 268.496094 191.792969 269.125 191.949219 269.742188 192.136719 C 270.363281 192.324219 270.96875 192.542969 271.566406 192.789062 C 272.164062 193.039062 272.75 193.3125 273.320312 193.621094 C 273.890625 193.925781 274.441406 194.257812 274.980469 194.617188 C 275.519531 194.976562 276.039062 195.363281 276.539062 195.773438 C 277.039062 196.183594 277.515625 196.617188 277.972656 197.074219 C 278.429688 197.535156 278.863281 198.011719 279.273438 198.511719 C 279.683594 199.011719 280.070312 199.53125 280.429688 200.070312 C 280.789062 200.609375 281.121094 201.164062 281.425781 201.734375 C 281.730469 202.304688 282.003906 202.890625 282.253906 203.488281 C 282.5 204.085938 282.71875 204.695312 282.90625 205.316406 C 283.09375 205.933594 283.25 206.5625 283.375 207.199219 C 283.503906 207.832031 283.597656 208.472656 283.660156 209.117188 C 283.722656 209.761719 283.757812 210.40625 283.757812 211.054688 Z M 283.757812 211.054688 " fill-opacity="1" fill-rule="nonzero"/><path stroke-linecap="round" transform="matrix(0.893439, 0, 0, 0.894538, 2.948355, 77.857676)" fill="none" stroke-linejoin="round" d="M 299.200447 137.10123 C 301.001774 138.101222 302.501422 139.599026 303.699392 141.302069 " stroke="#ffffff" stroke-width="8.324" stroke-opacity="0.2" stroke-miterlimit="10"/><path stroke-linecap="round" transform="matrix(0.893439, 0, 0, 0.894538, 2.948355, 77.857676)" fill="none" stroke-linejoin="round" d="M 287.09833 159.397993 C 284.999697 158.398001 283.29893 156.699325 282.100961 154.699341 " stroke="#000000" stroke-width="14.566" stroke-opacity="0.149" stroke-miterlimit="10"/><path stroke-linecap="round" transform="matrix(0.893439, 0, 0, 0.894538, 2.948355, 77.857676)" fill="none" stroke-linejoin="round" d="M 314.30186 148.900261 C 314.30186 149.625146 314.262511 150.345665 314.192557 151.066183 C 314.122602 151.786701 314.017671 152.502852 313.87339 153.21027 C 313.733481 153.922055 313.558595 154.620739 313.348731 155.315057 C 313.138868 156.009374 312.894027 156.690592 312.618582 157.358708 C 312.338764 158.026825 312.032714 158.677475 311.691686 159.319391 C 311.350658 159.956941 310.979025 160.577023 310.576787 161.179638 C 310.174549 161.777887 309.741706 162.358668 309.28263 162.921982 C 308.823554 163.48093 308.338245 164.013677 307.826703 164.528956 C 307.315161 165.039869 306.781759 165.524581 306.222123 165.983093 C 305.662488 166.441605 305.080992 166.873916 304.477635 167.275659 C 303.874278 167.677402 303.257804 168.048579 302.61947 168.389187 C 301.981136 168.729796 301.325313 169.039837 300.656374 169.319311 C 299.987435 169.594418 299.309751 169.838957 298.614579 170.048562 C 297.923779 170.258168 297.219862 170.432839 296.511574 170.576942 C 295.803285 170.716679 295.086252 170.821482 294.364847 170.895717 C 293.647814 170.965586 292.922037 171.00052 292.200632 171.00052 C 291.474855 171.00052 290.75345 170.965586 290.032044 170.895717 C 289.315012 170.821482 288.597979 170.716679 287.88969 170.576942 C 287.177029 170.432839 286.477485 170.258168 285.786685 170.048562 C 285.091513 169.838957 284.409457 169.594418 283.740518 169.319311 C 283.075951 169.039837 282.420128 168.729796 281.781794 168.389187 C 281.143459 168.048579 280.522614 167.677402 279.923629 167.275659 C 279.320272 166.873916 278.738776 166.441605 278.17914 165.983093 C 277.619505 165.524581 277.086102 165.039869 276.57456 164.528956 C 276.063019 164.013677 275.57771 163.48093 275.114262 162.921982 C 274.655186 162.358668 274.226715 161.777887 273.824477 161.179638 C 273.422239 160.577023 273.050606 159.956941 272.709578 159.319391 C 272.36855 158.677475 272.058127 158.026825 271.782682 157.358708 C 271.507236 156.690592 271.262396 156.009374 271.052532 155.315057 C 270.842669 154.620739 270.667783 153.922055 270.523502 153.21027 C 270.383593 152.502852 270.278662 151.786701 270.204335 151.066183 C 270.13438 150.345665 270.099403 149.625146 270.099403 148.900261 C 270.099403 148.175376 270.13438 147.454858 270.204335 146.73434 C 270.278662 146.013822 270.383593 145.29767 270.523502 144.590252 C 270.667783 143.878468 270.842669 143.175417 271.052532 142.485466 C 271.262396 141.791148 271.507236 141.109931 271.782682 140.441814 C 272.058127 139.773697 272.36855 139.118681 272.709578 138.481131 C 273.050606 137.843582 273.422239 137.2235 273.824477 136.620884 C 274.226715 136.018269 274.655186 135.437488 275.118634 134.87854 C 275.57771 134.319593 276.063019 133.786846 276.57456 133.271566 C 277.086102 132.760654 277.619505 132.275941 278.17914 131.81743 C 278.738776 131.358918 279.320272 130.926607 279.923629 130.524864 C 280.522614 130.12312 281.143459 129.751944 281.781794 129.411336 C 282.420128 129.06636 283.075951 128.760686 283.740518 128.481212 C 284.409457 128.206105 285.091513 127.961566 285.786685 127.75196 C 286.477485 127.542355 287.177029 127.367684 287.88969 127.22358 C 288.597979 127.083843 289.315012 126.979041 290.032044 126.904806 C 290.75345 126.834937 291.474855 126.800003 292.200632 126.800003 C 292.922037 126.800003 293.647814 126.834937 294.364847 126.904806 C 295.086252 126.979041 295.803285 127.083843 296.511574 127.22358 C 297.219862 127.367684 297.923779 127.542355 298.614579 127.75196 C 299.309751 127.961566 299.987435 128.206105 300.656374 128.481212 C 301.325313 128.760686 301.981136 129.06636 302.61947 129.411336 C 303.257804 129.751944 303.874278 130.12312 304.477635 130.524864 C 305.080992 130.926607 305.662488 131.358918 306.222123 131.81743 C 306.781759 132.275941 307.315161 132.760654 307.826703 133.271566 C 308.338245 133.786846 308.823554 134.319593 309.28263 134.87854 C 309.741706 135.437488 310.174549 136.018269 310.576787 136.620884 C 310.979025 137.2235 311.350658 137.843582 311.691686 138.481131 C 312.032714 139.118681 312.338764 139.773697 312.618582 140.441814 C 312.894027 141.109931 313.138868 141.791148 313.348731 142.485466 C 313.558595 143.175417 313.733481 143.878468 313.87339 144.590252 C 314.017671 145.29767 314.122602 146.013822 314.192557 146.73434 C 314.262511 147.454858 314.30186 148.175376 314.30186 148.900261 Z M 314.30186 148.900261 " stroke="#000000" stroke-width="8.324" stroke-opacity="1" stroke-miterlimit="10"/><path stroke-linecap="round" transform="matrix(0.893439, 0, 0, 0.894538, 2.948355, 77.857676)" fill-opacity="1" fill="#9e9e9e" fill-rule="nonzero" stroke-linejoin="round" d="M 116.798636 63.800511 L 94.999086 63.800511 L 94.999086 42.00156 L 76.500511 42.00156 L 76.500511 63.800511 L 54.700961 63.800511 L 54.700961 82.202109 L 76.500511 82.202109 L 76.500511 104.00106 L 94.999086 104.00106 L 94.999086 82.202109 L 116.798636 82.202109 Z M 116.798636 63.800511 " stroke="#000000" stroke-width="8.324" stroke-opacity="1" stroke-miterlimit="10"/><path stroke-linecap="round" transform="matrix(0.893439, 0, 0, 0.894538, 2.948355, 77.857676)" fill-opacity="1" fill="#04a9f4" fill-rule="nonzero" stroke-linejoin="round" d="M 320.199894 76.800406 C 320.199894 77.555859 320.125567 78.302578 319.976914 79.04493 C 319.832633 79.782915 319.614025 80.503433 319.325463 81.202117 C 319.036901 81.896435 318.682757 82.560185 318.26303 83.189001 C 317.843304 83.817817 317.366739 84.398598 316.833336 84.931345 C 316.299934 85.464092 315.718438 85.944437 315.088848 86.363648 C 314.459258 86.782858 313.799063 87.136567 313.099519 87.424775 C 312.404346 87.712982 311.682941 87.931321 310.944048 88.079791 C 310.200782 88.228262 309.453144 88.29813 308.701134 88.29813 C 307.944751 88.29813 307.197113 88.228262 306.45822 88.079791 C 305.714954 87.931321 304.997921 87.712982 304.298377 87.424775 C 303.603204 87.136567 302.938637 86.782858 302.309047 86.363648 C 301.68383 85.944437 301.102333 85.464092 300.568931 84.931345 C 300.035528 84.398598 299.558964 83.817817 299.139237 83.189001 C 298.719511 82.560185 298.365366 81.896435 298.076804 81.202117 C 297.788242 80.503433 297.569635 79.782915 297.420981 79.04493 C 297.272328 78.302578 297.198002 77.555859 297.198002 76.800406 C 297.198002 76.044954 297.272328 75.298235 297.420981 74.555883 C 297.569635 73.817898 297.788242 73.097379 298.076804 72.398695 C 298.365366 71.700011 298.719511 71.040627 299.139237 70.411811 C 299.558964 69.782996 300.035528 69.202214 300.568931 68.669467 C 301.102333 68.132354 301.68383 67.656375 302.309047 67.237165 C 302.938637 66.817954 303.603204 66.464245 304.298377 66.176038 C 304.997921 65.88783 305.714954 65.669492 306.45822 65.521021 C 307.197113 65.372551 307.944751 65.298316 308.701134 65.298316 C 309.453144 65.298316 310.200782 65.372551 310.944048 65.521021 C 311.682941 65.669492 312.404346 65.88783 313.099519 66.176038 C 313.799063 66.464245 314.459258 66.817954 315.088848 67.237165 C 315.718438 67.656375 316.299934 68.132354 316.833336 68.669467 C 317.366739 69.202214 317.843304 69.782996 318.26303 70.411811 C 318.682757 71.040627 319.036901 71.700011 319.325463 72.398695 C 319.614025 73.097379 319.832633 73.817898 319.976914 74.555883 C 320.125567 75.298235 320.199894 76.044954 320.199894 76.800406 Z M 320.199894 76.800406 " stroke="#000000" stroke-width="8.324" stroke-opacity="1" stroke-miterlimit="10"/><path stroke-linecap="round" transform="matrix(0.893439, 0, 0, 0.894538, 2.948355, 77.857676)" fill-opacity="1" fill="#8bc34a" fill-rule="nonzero" stroke-linejoin="round" d="M 345.099299 49.700188 C 345.099299 50.455641 345.024973 51.202359 344.880692 51.944712 C 344.732039 52.682697 344.513431 53.403215 344.224869 54.101899 C 343.936307 54.800584 343.582163 55.459967 343.162436 56.088783 C 342.742709 56.717599 342.266145 57.29838 341.732742 57.831127 C 341.19934 58.363874 340.617844 58.844219 339.988254 59.26343 C 339.363036 59.68264 338.698469 60.036349 337.998924 60.324557 C 337.303752 60.612764 336.582347 60.831103 335.843454 60.979573 C 335.10456 61.128044 334.356922 61.197912 333.60054 61.197912 C 332.844157 61.197912 332.096519 61.128044 331.357626 60.979573 C 330.61436 60.831103 329.897327 60.612764 329.197782 60.324557 C 328.50261 60.036349 327.838043 59.68264 327.212825 59.26343 C 326.583236 58.844219 326.001739 58.363874 325.468337 57.831127 C 324.934934 57.29838 324.45837 56.717599 324.038643 56.088783 C 323.618916 55.459967 323.264772 54.800584 322.97621 54.101899 C 322.687648 53.403215 322.46904 52.682697 322.320387 51.944712 C 322.171734 51.202359 322.10178 50.455641 322.10178 49.700188 C 322.10178 48.944736 322.171734 48.198017 322.320387 47.455665 C 322.46904 46.717679 322.687648 45.997161 322.97621 45.298477 C 323.264772 44.599793 323.618916 43.940409 324.038643 43.311593 C 324.45837 42.682777 324.934934 42.101996 325.468337 41.569249 C 326.001739 41.036503 326.583236 40.556157 327.212825 40.136946 C 327.838043 39.717736 328.50261 39.364027 329.197782 39.07582 C 329.897327 38.787612 330.61436 38.569274 331.357626 38.420803 C 332.096519 38.272333 332.844157 38.198098 333.60054 38.198098 C 334.356922 38.198098 335.10456 38.272333 335.843454 38.420803 C 336.582347 38.569274 337.303752 38.787612 337.998924 39.07582 C 338.698469 39.364027 339.363036 39.717736 339.988254 40.136946 C 340.617844 40.556157 341.19934 41.036503 341.732742 41.569249 C 342.266145 42.101996 342.742709 42.682777 343.162436 43.311593 C 343.582163 43.940409 343.936307 44.599793 344.224869 45.298477 C 344.513431 45.997161 344.732039 46.717679 344.880692 47.455665 C 345.024973 48.198017 345.099299 48.944736 345.099299 49.700188 Z M 345.099299 49.700188 " stroke="#000000" stroke-width="8.324" stroke-opacity="1" stroke-miterlimit="10"/><path stroke-linecap="round" transform="matrix(0.893439, 0, 0, 0.894538, 2.948355, 77.857676)" fill-opacity="1" fill="#8bc34a" fill-rule="nonzero" stroke-linejoin="round" d="M 351.399571 95.498945 C 351.399571 96.254398 351.325244 97.001117 351.180963 97.743469 C 351.03231 98.485821 350.813702 99.201972 350.52514 99.900657 C 350.236578 100.599341 349.882434 101.263091 349.462707 101.88754 C 349.042981 102.516356 348.566416 103.097137 348.033013 103.629884 C 347.499611 104.166998 346.918115 104.642976 346.288525 105.062187 C 345.663307 105.481398 344.99874 105.835107 344.299196 106.123314 C 343.604023 106.411521 342.882618 106.62986 342.143725 106.77833 C 341.404831 106.926801 340.657193 107.001036 339.900811 107.001036 C 339.144428 107.001036 338.39679 106.926801 337.657897 106.77833 C 336.914631 106.62986 336.197598 106.411521 335.498054 106.123314 C 334.802881 105.835107 334.138314 105.481398 333.508724 105.062187 C 332.883507 104.642976 332.30201 104.166998 331.768608 103.629884 C 331.235205 103.097137 330.758641 102.516356 330.338914 101.88754 C 329.919188 101.263091 329.565043 100.599341 329.276481 99.900657 C 328.987919 99.201972 328.769312 98.485821 328.620658 97.743469 C 328.472005 97.001117 328.402051 96.254398 328.402051 95.498945 C 328.402051 94.743493 328.472005 93.996774 328.620658 93.254422 C 328.769312 92.516437 328.987919 91.795918 329.276481 91.097234 C 329.565043 90.402917 329.919188 89.739166 330.338914 89.110351 C 330.758641 88.481535 331.235205 87.900753 331.768608 87.368007 C 332.30201 86.83526 332.883507 86.359281 333.508724 85.940071 C 334.138314 85.516493 334.802881 85.162784 335.498054 84.874577 C 336.197598 84.58637 336.914631 84.368031 337.657897 84.21956 C 338.39679 84.075457 339.144428 84.001222 339.900811 84.001222 C 340.657193 84.001222 341.404831 84.075457 342.143725 84.21956 C 342.882618 84.368031 343.604023 84.58637 344.299196 84.874577 C 344.99874 85.162784 345.663307 85.516493 346.288525 85.940071 C 346.918115 86.359281 347.499611 86.83526 348.033013 87.368007 C 348.566416 87.900753 349.042981 88.481535 349.462707 89.110351 C 349.882434 89.739166 350.236578 90.402917 350.52514 91.097234 C 350.813702 91.795918 351.03231 92.516437 351.180963 93.254422 C 351.325244 93.996774 351.399571 94.743493 351.399571 95.498945 Z M 351.399571 95.498945 " stroke="#000000" stroke-width="8.324" stroke-opacity="1" stroke-miterlimit="10"/><path stroke-linecap="round" transform="matrix(0.893439, 0, 0, 0.894538, 2.948355, 77.857676)" fill-opacity="1" fill="#f44336" fill-rule="nonzero" stroke-linejoin="round" d="M 376.298976 68.499163 C 376.298976 69.254616 376.22465 70.001334 376.080369 70.743687 C 375.931716 71.486039 375.713108 72.20219 375.424546 72.900874 C 375.135984 73.599559 374.78184 74.263309 374.362113 74.887758 C 373.942386 75.516574 373.465822 76.097355 372.932419 76.630102 C 372.399017 77.167215 371.817521 77.643194 371.187931 78.062405 C 370.562713 78.481615 369.898146 78.835324 369.202974 79.123532 C 368.503429 79.411739 367.782024 79.630078 367.043131 79.778548 C 366.304237 79.927019 365.556599 80.001254 364.800217 80.001254 C 364.043834 80.001254 363.296196 79.927019 362.557303 79.778548 C 361.814037 79.630078 361.097004 79.411739 360.397459 79.123532 C 359.702287 78.835324 359.03772 78.481615 358.412502 78.062405 C 357.782912 77.643194 357.201416 77.167215 356.668014 76.630102 C 356.134611 76.097355 355.658047 75.516574 355.23832 74.887758 C 354.818593 74.263309 354.464449 73.599559 354.175887 72.900874 C 353.887325 72.20219 353.668717 71.486039 353.520064 70.743687 C 353.375783 70.001334 353.301457 69.254616 353.301457 68.499163 C 353.301457 67.743711 353.375783 66.996992 353.520064 66.25464 C 353.668717 65.516654 353.887325 64.796136 354.175887 64.097452 C 354.464449 63.403134 354.818593 62.739384 355.23832 62.110568 C 355.658047 61.481752 356.134611 60.900971 356.668014 60.368224 C 357.201416 59.835478 357.782912 59.359499 358.412502 58.935922 C 359.03772 58.516711 359.702287 58.163002 360.397459 57.874795 C 361.097004 57.586587 361.814037 57.368249 362.557303 57.219778 C 363.296196 57.075674 364.043834 57.001439 364.800217 57.001439 C 365.556599 57.001439 366.304237 57.075674 367.043131 57.219778 C 367.782024 57.368249 368.503429 57.586587 369.202974 57.874795 C 369.898146 58.163002 370.562713 58.516711 371.187931 58.935922 C 371.817521 59.359499 372.399017 59.835478 372.932419 60.368224 C 373.465822 60.900971 373.942386 61.481752 374.362113 62.110568 C 374.78184 62.739384 375.135984 63.403134 375.424546 64.097452 C 375.713108 64.796136 375.931716 65.516654 376.080369 66.25464 C 376.22465 66.996992 376.298976 67.743711 376.298976 68.499163 Z M 376.298976 68.499163 " stroke="#000000" stroke-width="8.324" stroke-opacity="1" stroke-miterlimit="10"/><path stroke-linecap="round" transform="matrix(0.893439, 0, 0, 0.894538, 2.948355, 77.857676)" fill="none" stroke-linejoin="round" d="M 221.900799 116.498776 L 243.000805 116.498776 " stroke="#000000" stroke-width="8.324" stroke-opacity="1" stroke-miterlimit="10"/><path stroke-linecap="round" transform="matrix(0.893439, 0, 0, 0.894538, 2.948355, 77.857676)" fill="none" stroke-linejoin="round" d="M 180.299772 116.498776 L 201.299219 116.498776 " stroke="#000000" stroke-width="8.324" stroke-opacity="1" stroke-miterlimit="10"/></svg>